<?xml version="1.0" encoding="utf-8"?>
<svg width="366px" height="357.5px" viewBox="0 0 366 357.5" version="1.1" xmlns:xlink="http://www.w3.org/1999/xlink" xmlns="http://www.w3.org/2000/svg">
  <defs>
    <linearGradient gradientUnits="userSpaceOnUse" x1="0" y1="53.537804" x2="226.54419" y2="53.537804" id="gradient_1">
      <stop offset="0%" stop-color="#112FC1" />
      <stop offset="100%" stop-color="#01D3D3" />
    </linearGradient>
    <linearGradient gradientUnits="userSpaceOnUse" x1="0" y1="123.93401" x2="123.934006" y2="0" id="gradient_2">
      <stop offset="0%" stop-color="#112FC1" />
      <stop offset="100%" stop-color="#01D3D3" />
    </linearGradient>
    <path d="M0 0L226.544 0L226.544 107.075L0 107.075L0 0Z" id="path_1" />
    <path d="M19.2277 93.315L13.6689 83.7466C16.585 82.3797 18.4987 79.5547 18.4987 76.3652C18.4987 74.087 17.6785 72.0822 16.0382 70.4419C14.3979 68.8016 12.3931 67.9814 10.1149 67.9814L0.0908203 67.9814L0.0908203 93.2239L5.10286 93.2239L5.10286 84.4756L8.93023 84.4756L14.0334 93.2239L19.2277 93.2239L19.2277 93.315L19.2277 93.315ZM10.1168 72.7197C12.0305 72.7197 13.5797 74.36 13.5797 76.456C13.5797 78.5519 12.0305 80.1922 10.1168 80.1922L5.01367 80.1922L5.01367 72.7197L10.1168 72.7197L10.1168 72.7197ZM27.1566 82.8355L36.725 82.8355L36.725 78.188L27.1566 78.188L27.1566 72.8114L37.6363 72.8114L37.6363 68.0728L22.1445 68.0728L22.1445 93.3152L37.7274 93.3152L37.7274 88.5766L27.1566 88.5766L27.1566 82.8355L27.1566 82.8355ZM63.3345 93.3152L54.4951 68.0728L48.2984 68.0728L39.459 93.3152L44.8355 93.3152L46.3847 88.7588L56.4088 88.7588L57.958 93.3152L63.3345 93.3152L63.3345 93.3152ZM51.3955 73.8135L54.8583 84.1109L47.9326 84.1109L51.3955 73.8135L51.3955 73.8135ZM65.7949 68.0728L65.7949 93.3152L75.819 93.3152C79.2819 93.3152 82.198 92.1305 84.4762 89.6701C86.8455 87.2096 87.939 84.2935 87.939 80.7395C87.939 77.1855 86.7543 74.1783 84.4762 71.7179C82.198 69.3485 79.2819 68.0728 75.819 68.0728L65.7949 68.0728L65.7949 68.0728ZM70.7139 88.5757L70.7139 72.8105L75.7259 72.8105C77.913 72.8105 79.7355 73.5396 81.1025 74.9976C82.4694 76.4557 83.1984 78.2782 83.1984 80.6475C83.1984 83.0169 82.4694 84.8394 81.1025 86.2975C79.7355 87.7555 78.0041 88.4845 75.7259 88.4845L70.7139 88.4845L70.7139 88.5757L70.7139 88.5757ZM103.978 68.0728L98.5102 78.6436L93.0425 68.0728L87.3926 68.0728L96.0497 83.4734L96.0497 93.3152L100.971 93.3152L100.971 83.4734L109.628 68.0728L103.978 68.0728L103.978 68.0728ZM119.197 93.7704C121.93 93.7704 124.117 93.0414 125.758 91.6745C127.489 90.3075 128.309 88.485 128.309 86.1157C128.309 84.6576 127.945 83.3818 127.398 82.5617C126.942 81.7415 125.758 80.8302 125.029 80.2835C124.664 80.0101 124.117 79.7367 123.48 79.5544C122.751 79.2811 122.295 79.0077 121.839 78.9166L120.108 78.3698C118.194 77.823 117.01 77.2763 116.281 76.8206C115.643 76.2738 115.278 75.636 115.278 74.9069C115.278 73.4489 116.554 72.3553 118.559 72.3553C120.746 72.3553 122.386 73.4489 123.388 75.636L127.58 73.2666C125.849 69.7126 122.659 67.6167 118.559 67.6167C116.281 67.6167 114.276 68.3457 112.727 69.7126C111.086 71.0796 110.357 72.9021 110.357 75.1803C110.357 77.4585 111.177 79.1899 112.727 80.3746C114.276 81.4681 115.643 82.0149 117.921 82.7439C120.017 83.2907 121.384 83.8375 122.204 84.3842C123.024 84.8399 123.388 85.5689 123.388 86.4802C123.388 88.0294 122.113 89.1229 119.379 89.1229C116.463 89.1229 114.549 87.8471 113.547 85.2955L109.264 87.756C110.631 91.4011 114.185 93.7704 119.197 93.7704L119.197 93.7704ZM143.345 93.7701C147.993 93.7701 152.002 91.4919 154.189 87.8468L149.906 85.3863C148.722 87.5734 146.261 88.9403 143.345 88.9403C140.885 88.9403 138.88 88.2113 137.422 86.6621C135.964 85.113 135.144 83.1081 135.144 80.7388C135.144 78.3695 135.873 76.2735 137.422 74.7244C138.971 73.1752 140.885 72.4462 143.345 72.4462C146.261 72.4462 148.631 73.8131 149.906 76.0913L154.189 73.6308C152.002 69.9857 147.901 67.7075 143.345 67.7075C139.518 67.7075 136.419 68.9833 133.959 71.5349C131.498 73.9953 130.223 77.1848 130.223 80.8299C130.223 84.4751 131.407 87.6645 133.959 90.125C136.419 92.4943 139.609 93.7701 143.345 93.7701L143.345 93.7701ZM176.514 93.3152L170.955 83.8379C173.871 82.471 175.785 79.646 175.785 76.4565C175.785 74.1783 174.965 72.1735 173.325 70.5332C171.684 68.8929 169.68 68.0728 167.401 68.0728L157.286 68.0728L157.286 93.3152L162.298 93.3152L162.298 84.5669L166.126 84.5669L171.229 93.3152L176.514 93.3152L176.514 93.3152ZM167.31 72.7197C169.224 72.7197 170.773 74.36 170.773 76.456C170.773 78.5519 169.224 80.1922 167.31 80.1922L162.207 80.1922L162.207 72.7197L167.31 72.7197L167.31 72.7197ZM179.432 93.3152L184.444 93.3152L184.444 68.0728L179.432 68.0728L179.432 93.3152L179.432 93.3152ZM189.091 68.0728L189.091 93.3152L194.103 93.3152L194.103 85.0225L198.568 85.0225C201.029 85.0225 203.033 84.2024 204.674 82.5621C206.314 80.9218 207.134 78.917 207.134 76.5477C207.134 74.1783 206.314 72.1735 204.674 70.5332C203.033 68.8929 200.937 68.0728 198.568 68.0728L189.091 68.0728L189.091 68.0728ZM194.012 80.3745L194.012 72.7197L198.477 72.7197C200.573 72.7197 202.122 74.36 202.122 76.5471C202.122 78.7342 200.573 80.3745 198.477 80.3745L194.012 80.3745L194.012 80.3745ZM207.954 68.0728L207.954 72.8114L214.698 72.8114L214.698 93.3152L219.71 93.3152L219.71 72.8114L226.544 72.8114L226.544 68.0728L207.954 68.0728L207.954 68.0728ZM0 100.788L0 105.891L0.729024 105.891L0.729024 101.426L3.73625 101.426L3.73625 105.891L4.46527 105.891L4.46527 100.788L0 100.788L0 100.788ZM8.74778 100.788L8.65665 102.975C8.65665 103.522 8.56552 103.978 8.56552 104.342C8.4744 104.707 8.38327 104.889 8.29214 105.071C8.20101 105.253 8.01876 105.344 7.74537 105.344L7.47199 105.344L7.38086 105.982C7.56312 105.982 7.65424 106.074 7.8365 106.074C8.20101 106.074 8.47439 105.982 8.65665 105.709C8.83891 105.527 9.02116 105.162 9.11229 104.707C9.20342 104.251 9.29455 103.704 9.29455 102.975L9.38567 101.517L11.6639 101.517L11.6639 105.982L12.3929 105.982L12.3929 100.879L8.74778 100.879L8.74778 100.788L8.74778 100.788ZM20.0479 105.982L20.7769 105.982L18.4076 100.879L17.6786 100.879L15.4004 105.982L16.1294 105.982L16.6762 104.706L19.41 104.706L20.0479 105.982L20.0479 105.982ZM17.041 104.068L18.1346 101.516L19.2281 104.068L17.041 104.068L17.041 104.068ZM27.1567 100.788L22.9648 100.788L22.9648 101.426L24.6963 101.426L24.6963 105.891L25.4253 105.891L25.4253 101.426L27.1567 101.426L27.1567 100.788L27.1567 100.788ZM35.8146 103.339C35.8146 102.701 35.5412 102.154 35.0855 101.79C34.6299 101.425 33.9009 101.152 33.0807 101.152L33.0807 100.605L32.4428 100.605L32.4428 101.152C31.6227 101.152 30.8936 101.425 30.438 101.79C29.9824 102.154 29.709 102.701 29.709 103.43C29.709 104.068 29.9824 104.615 30.438 104.979C30.8936 105.344 31.6227 105.617 32.4428 105.617L32.4428 106.164L33.0807 106.164L33.0807 105.617C33.9009 105.617 34.6299 105.344 35.0855 104.979C35.6323 104.615 35.8146 104.068 35.8146 103.339L35.8146 103.339ZM30.4375 103.34C30.4375 102.793 30.6198 102.428 30.9843 102.155C31.3488 101.881 31.8044 101.699 32.4423 101.699L32.4423 104.98C31.8044 104.98 31.2576 104.798 30.9843 104.524C30.6198 104.251 30.4375 103.886 30.4375 103.34L30.4375 103.34ZM33.0791 104.98L33.0791 101.699C33.717 101.699 34.2638 101.881 34.5371 102.155C34.9017 102.428 35.0839 102.793 35.0839 103.34C35.0839 103.886 34.9017 104.251 34.5371 104.524C34.2638 104.798 33.717 104.98 33.0791 104.98L33.0791 104.98ZM41.4643 105.982C42.0111 105.982 42.4667 105.891 42.8312 105.618C43.2869 105.435 43.5602 105.071 43.8336 104.706C44.107 104.342 44.1981 103.886 44.1981 103.339C44.1981 102.884 44.107 102.428 43.8336 101.973C43.5602 101.608 43.2869 101.244 42.8312 101.061C42.3756 100.879 41.9199 100.697 41.4643 100.697C40.9175 100.697 40.4619 100.788 40.0974 101.061C39.6417 101.244 39.3684 101.608 39.095 101.973C38.8216 102.337 38.7305 102.793 38.7305 103.339C38.7305 103.795 38.8216 104.251 39.095 104.706C39.3684 105.071 39.6417 105.435 40.0974 105.618C40.4619 105.891 40.9175 105.982 41.4643 105.982L41.4643 105.982ZM41.4638 105.344C41.0993 105.344 40.7348 105.253 40.4614 105.071C40.188 104.888 39.9146 104.706 39.7324 104.342C39.5501 104.068 39.459 103.704 39.459 103.339C39.459 102.975 39.5501 102.61 39.7324 102.337C39.9146 102.063 40.188 101.79 40.4614 101.608C40.7348 101.426 41.0993 101.334 41.4638 101.334C41.8283 101.334 42.1928 101.426 42.4662 101.608C42.7396 101.79 43.013 101.972 43.1952 102.337C43.3775 102.61 43.4686 102.975 43.4686 103.339C43.4686 103.704 43.3775 104.068 43.1952 104.342C43.013 104.615 42.7396 104.888 42.4662 105.071C42.1928 105.253 41.8283 105.344 41.4638 105.344L41.4638 105.344ZM49.5751 100.788L47.5703 100.788L47.5703 105.891L48.2993 105.891L48.2993 104.342L49.5751 104.342C50.213 104.342 50.7598 104.16 51.1243 103.886C51.4888 103.613 51.6711 103.157 51.6711 102.611C51.6711 102.064 51.4888 101.608 51.1243 101.335C50.7598 100.97 50.213 100.788 49.5751 100.788L49.5751 100.788ZM49.5727 103.794L48.2969 103.794L48.2969 101.516L49.5727 101.516C50.0283 101.516 50.3928 101.607 50.6662 101.789C50.9396 101.972 51.0307 102.245 51.0307 102.61C51.0307 102.974 50.9396 103.248 50.6662 103.43C50.3928 103.612 50.0283 103.794 49.5727 103.794L49.5727 103.794ZM60.4188 105.982L60.4188 100.879L59.781 100.879L57.685 104.524L55.5891 100.879L54.9512 100.879L54.9512 105.982L55.5891 105.982L55.5891 102.246L57.4116 105.344L57.7761 105.344L59.5987 102.246L59.5987 105.982L60.4189 105.982L60.4188 105.982ZM68.0723 105.982L68.8013 105.982L66.432 100.879L65.703 100.879L63.4248 105.982L64.1538 105.982L64.7006 104.706L67.4344 104.706L68.0723 105.982L68.0723 105.982ZM65.0654 104.068L66.159 101.516L67.2525 104.068L65.0654 104.068L65.0654 104.068ZM80.1924 105.344L80.1924 100.879L76.5473 100.879L76.4562 102.519C76.4562 103.43 76.365 104.068 76.1828 104.615C76.0916 105.071 75.8183 105.344 75.5449 105.344L75.2715 105.344L75.2715 107.076L75.9094 107.076L75.9094 105.982L80.1013 105.982L80.1013 107.076L80.7392 107.076L80.7392 105.344L80.1924 105.344L80.1924 105.344ZM77.1848 102.519L77.1848 101.425L79.463 101.425L79.463 105.253L76.5469 105.253C76.7291 105.07 76.9114 104.706 77.0025 104.25C77.0936 103.886 77.1848 103.248 77.1848 102.519L77.1848 102.519ZM84.7497 100.788L84.6586 102.975C84.6586 103.522 84.5675 103.978 84.5675 104.342C84.4763 104.707 84.3852 104.889 84.2941 105.071C84.203 105.253 84.0207 105.344 83.7473 105.344L83.4739 105.344L83.3828 105.982C83.5651 105.982 83.6562 106.074 83.8385 106.074C84.203 106.074 84.4763 105.982 84.6586 105.709C84.8409 105.527 85.0231 105.162 85.1142 104.707C85.2054 104.251 85.2965 103.704 85.2965 102.975L85.3876 101.517L87.6658 101.517L87.6658 105.982L88.3948 105.982L88.3948 100.879L84.7497 100.879L84.7497 100.788L84.7497 100.788ZM93.8625 100.788C93.2246 100.788 92.6779 100.97 92.3134 101.244C91.9489 101.608 91.7666 102.064 91.7666 102.611C91.7666 103.066 91.8577 103.34 92.04 103.613C92.2222 103.886 92.4956 104.069 92.8601 104.251L91.7666 105.891L92.5868 105.891L93.5892 104.433L95.2295 104.433L95.2295 105.891L95.9585 105.891L95.9585 100.788L93.8625 100.788L93.8625 100.788ZM92.4941 102.701C92.4941 102.336 92.5853 101.972 92.8587 101.789C93.132 101.607 93.4054 101.516 93.8611 101.516L95.1369 101.516L95.1369 103.885L93.8611 103.885C93.4054 103.885 93.132 103.794 92.8587 103.612C92.6764 103.339 92.4941 103.065 92.4941 102.701L92.4941 102.701ZM103.885 105.982L104.523 105.982L107.53 102.064L107.53 105.982L108.259 105.982L108.259 100.879L107.621 100.879L104.614 104.797L104.614 100.879L103.885 100.879L103.885 105.982L103.885 105.982ZM115.825 100.788L115.825 102.975L112.909 102.975L112.909 100.788L112.089 100.788L112.089 105.891L112.818 105.891L112.818 103.613L115.734 103.613L115.734 105.891L116.463 105.891L116.463 100.788L115.825 100.788L115.825 100.788ZM123.841 100.788L119.649 100.788L119.649 101.426L121.381 101.426L121.381 105.891L122.11 105.891L122.11 101.426L123.841 101.426L123.841 100.788L123.841 100.788L123.841 100.788ZM127.67 105.344L127.67 103.704L130.222 103.704L130.222 103.066L127.67 103.066L127.67 101.517L130.587 101.517L130.587 100.879L126.941 100.879L126.941 105.982L130.678 105.982L130.678 105.344L127.67 105.344L127.67 105.344ZM135.962 100.788L133.957 100.788L133.957 105.891L134.686 105.891L134.686 104.342L135.962 104.342C136.6 104.342 137.146 104.16 137.511 103.886C137.876 103.613 138.058 103.157 138.058 102.611C138.058 102.064 137.876 101.608 137.511 101.335C137.146 100.97 136.691 100.788 135.962 100.788L135.962 100.788ZM135.962 103.794L134.687 103.794L134.687 101.516L135.962 101.516C136.418 101.516 136.782 101.607 137.056 101.789C137.329 101.972 137.42 102.245 137.42 102.61C137.42 102.974 137.329 103.248 137.056 103.43C136.782 103.612 136.418 103.794 135.962 103.794L135.962 103.794ZM145.076 100.788L145.076 102.975L142.16 102.975L142.16 100.788L141.431 100.788L141.431 105.891L142.16 105.891L142.16 103.613L145.076 103.613L145.076 105.891L145.805 105.891L145.805 100.788L145.076 100.788L145.076 100.788ZM150.27 105.344L150.27 103.704L152.822 103.704L152.822 103.066L150.27 103.066L150.27 101.517L153.186 101.517L153.186 100.879L149.541 100.879L149.541 105.982L153.277 105.982L153.277 105.344L150.27 105.344L150.27 105.344ZM160.112 100.788L155.92 100.788L155.92 101.426L157.651 101.426L157.651 105.891L158.38 105.891L158.38 101.426L160.112 101.426L160.112 100.788L160.112 100.788L160.112 100.788ZM162.846 103.977L164.851 103.977L164.851 103.066L162.846 103.066L162.846 103.977L162.846 103.977ZM173.689 105.982L173.689 100.879L173.142 100.879L171.046 104.524L168.95 100.879L168.313 100.879L168.313 105.982L169.042 105.982L169.042 102.246L170.864 105.344L171.229 105.344L173.051 102.246L173.051 105.982L173.689 105.982L173.689 105.982ZM181.435 105.982L182.164 105.982L179.794 100.879L179.065 100.879L176.787 105.982L177.516 105.982L178.063 104.706L180.797 104.706L181.435 105.982L181.435 105.982ZM178.428 104.068L179.521 101.516L180.615 104.068L178.428 104.068L178.428 104.068ZM188.634 100.788L185.263 100.788L185.263 105.891L185.992 105.891L185.992 101.426L188.634 101.426L188.634 100.788L188.634 100.788ZM194.649 105.982L195.378 105.982L193.009 100.879L192.28 100.879L190.002 105.982L190.731 105.982L191.278 104.706L194.012 104.706L194.649 105.982L194.649 105.982ZM191.551 104.068L192.644 101.516L193.738 104.068L191.551 104.068L191.551 104.068ZM200.937 103.249C201.211 103.157 201.393 102.975 201.575 102.793C201.757 102.611 201.757 102.337 201.757 102.155C201.757 101.882 201.666 101.608 201.484 101.426C201.302 101.244 201.028 101.061 200.755 100.97C200.482 100.879 200.117 100.788 199.753 100.788C199.479 100.788 199.206 100.788 198.932 100.879C198.659 100.97 198.386 101.061 198.112 101.244L198.386 101.882C198.568 101.79 198.841 101.608 199.115 101.608C199.388 101.517 199.57 101.517 199.844 101.517C200.208 101.517 200.482 101.608 200.755 101.79C201.028 101.973 201.12 102.155 201.12 102.428C201.12 102.702 201.028 102.884 200.846 102.975C200.664 103.066 200.391 103.157 200.117 103.157L199.024 103.157L199.024 103.795L200.208 103.795C200.573 103.795 200.846 103.886 201.12 103.978C201.302 104.16 201.393 104.342 201.393 104.615C201.393 104.889 201.211 105.162 200.937 105.344C200.664 105.527 200.299 105.618 199.935 105.618C199.661 105.618 199.388 105.618 199.115 105.527C198.841 105.436 198.568 105.344 198.386 105.162L198.112 105.709C198.386 105.891 198.659 106.073 199.024 106.165C199.388 106.256 199.661 106.347 200.026 106.347C200.391 106.347 200.755 106.256 201.028 106.165C201.393 106.073 201.575 105.891 201.757 105.618C201.94 105.436 202.031 105.162 202.031 104.798C202.031 104.524 201.94 104.251 201.757 103.978C201.484 103.522 201.302 103.34 200.937 103.249L200.937 103.249ZM205.403 105.982L206.041 105.982L209.048 102.064L209.048 105.982L209.777 105.982L209.777 100.879L209.14 100.879L206.132 104.797L206.132 100.879L205.403 100.879L205.403 105.982L205.403 105.982ZM217.25 100.788L217.25 102.975L214.334 102.975L214.334 100.788L213.604 100.788L213.604 105.891L214.334 105.891L214.334 103.613L217.25 103.613L217.25 105.891L217.979 105.891L217.979 100.788L217.25 100.788L217.25 100.788ZM225.723 105.982L226.452 105.982L224.082 100.879L223.353 100.879L221.075 105.982L221.804 105.982L222.351 104.706L225.085 104.706L225.723 105.982L225.723 105.982ZM222.718 104.068L223.811 101.516L224.905 104.068L222.718 104.068L222.718 104.068ZM139.79 9.20392L139.79 28.523L115.732 19.3191L115.732 0L139.79 9.20392L139.79 9.20392ZM115.732 43.7415L139.699 52.9454L139.699 33.6263L115.732 24.4224L115.732 43.7415L115.732 43.7415ZM86.7539 52.9451L110.812 43.7412L110.812 43.7412L86.7539 33.626L86.7539 52.9451L86.7539 52.9451ZM86.7539 28.523L110.721 19.3191L110.721 0L86.7539 9.20392L86.7539 28.523L86.7539 28.523Z" id="path_2" />
    <path d="M0 0L308.563 0L308.563 75.5495L0 75.5495L0 0Z" id="path_3" />
    <clipPath id="mask_1">
      <use xlink:href="#path_1" />
    </clipPath>
    <clipPath id="mask_2">
      <use xlink:href="#path_2" />
    </clipPath>
    <clipPath id="mask_3">
      <use xlink:href="#path_3" />
    </clipPath>
  </defs>
  <g id="Группа-2">
    <path d="M0 0L366 0L366 357.5L0 357.5L0 0Z" id="Прямоугольник-Copy-2" fill="#D3D3D3" fill-opacity="0" fill-rule="evenodd" stroke="none" />
    <g id="readyscrpit" transform="translate(70.447266 206.03418)">
      <path d="M0 0L226.544 0L226.544 107.075L0 107.075L0 0Z" id="Background" fill="none" fill-rule="evenodd" stroke="none" />
      <g clip-path="url(#mask_1)">
        <path d="M19.2277 93.315L13.6689 83.7466C16.585 82.3797 18.4987 79.5547 18.4987 76.3652C18.4987 74.087 17.6785 72.0822 16.0382 70.4419C14.3979 68.8016 12.3931 67.9814 10.1149 67.9814L0.0908203 67.9814L0.0908203 93.2239L5.10286 93.2239L5.10286 84.4756L8.93023 84.4756L14.0334 93.2239L19.2277 93.2239L19.2277 93.315L19.2277 93.315ZM10.1168 72.7197C12.0305 72.7197 13.5797 74.36 13.5797 76.456C13.5797 78.5519 12.0305 80.1922 10.1168 80.1922L5.01367 80.1922L5.01367 72.7197L10.1168 72.7197L10.1168 72.7197ZM27.1566 82.8355L36.725 82.8355L36.725 78.188L27.1566 78.188L27.1566 72.8114L37.6363 72.8114L37.6363 68.0728L22.1445 68.0728L22.1445 93.3152L37.7274 93.3152L37.7274 88.5766L27.1566 88.5766L27.1566 82.8355L27.1566 82.8355ZM63.3345 93.3152L54.4951 68.0728L48.2984 68.0728L39.459 93.3152L44.8355 93.3152L46.3847 88.7588L56.4088 88.7588L57.958 93.3152L63.3345 93.3152L63.3345 93.3152ZM51.3955 73.8135L54.8583 84.1109L47.9326 84.1109L51.3955 73.8135L51.3955 73.8135ZM65.7949 68.0728L65.7949 93.3152L75.819 93.3152C79.2819 93.3152 82.198 92.1305 84.4762 89.6701C86.8455 87.2096 87.939 84.2935 87.939 80.7395C87.939 77.1855 86.7543 74.1783 84.4762 71.7179C82.198 69.3485 79.2819 68.0728 75.819 68.0728L65.7949 68.0728L65.7949 68.0728ZM70.7139 88.5757L70.7139 72.8105L75.7259 72.8105C77.913 72.8105 79.7355 73.5396 81.1025 74.9976C82.4694 76.4557 83.1984 78.2782 83.1984 80.6475C83.1984 83.0169 82.4694 84.8394 81.1025 86.2975C79.7355 87.7555 78.0041 88.4845 75.7259 88.4845L70.7139 88.4845L70.7139 88.5757L70.7139 88.5757ZM103.978 68.0728L98.5102 78.6436L93.0425 68.0728L87.3926 68.0728L96.0497 83.4734L96.0497 93.3152L100.971 93.3152L100.971 83.4734L109.628 68.0728L103.978 68.0728L103.978 68.0728ZM119.197 93.7704C121.93 93.7704 124.117 93.0414 125.758 91.6745C127.489 90.3075 128.309 88.485 128.309 86.1157C128.309 84.6576 127.945 83.3818 127.398 82.5617C126.942 81.7415 125.758 80.8302 125.029 80.2835C124.664 80.0101 124.117 79.7367 123.48 79.5544C122.751 79.2811 122.295 79.0077 121.839 78.9166L120.108 78.3698C118.194 77.823 117.01 77.2763 116.281 76.8206C115.643 76.2738 115.278 75.636 115.278 74.9069C115.278 73.4489 116.554 72.3553 118.559 72.3553C120.746 72.3553 122.386 73.4489 123.388 75.636L127.58 73.2666C125.849 69.7126 122.659 67.6167 118.559 67.6167C116.281 67.6167 114.276 68.3457 112.727 69.7126C111.086 71.0796 110.357 72.9021 110.357 75.1803C110.357 77.4585 111.177 79.1899 112.727 80.3746C114.276 81.4681 115.643 82.0149 117.921 82.7439C120.017 83.2907 121.384 83.8375 122.204 84.3842C123.024 84.8399 123.388 85.5689 123.388 86.4802C123.388 88.0294 122.113 89.1229 119.379 89.1229C116.463 89.1229 114.549 87.8471 113.547 85.2955L109.264 87.756C110.631 91.4011 114.185 93.7704 119.197 93.7704L119.197 93.7704ZM143.345 93.7701C147.993 93.7701 152.002 91.4919 154.189 87.8468L149.906 85.3863C148.722 87.5734 146.261 88.9403 143.345 88.9403C140.885 88.9403 138.88 88.2113 137.422 86.6621C135.964 85.113 135.144 83.1081 135.144 80.7388C135.144 78.3695 135.873 76.2735 137.422 74.7244C138.971 73.1752 140.885 72.4462 143.345 72.4462C146.261 72.4462 148.631 73.8131 149.906 76.0913L154.189 73.6308C152.002 69.9857 147.901 67.7075 143.345 67.7075C139.518 67.7075 136.419 68.9833 133.959 71.5349C131.498 73.9953 130.223 77.1848 130.223 80.8299C130.223 84.4751 131.407 87.6645 133.959 90.125C136.419 92.4943 139.609 93.7701 143.345 93.7701L143.345 93.7701ZM176.514 93.3152L170.955 83.8379C173.871 82.471 175.785 79.646 175.785 76.4565C175.785 74.1783 174.965 72.1735 173.325 70.5332C171.684 68.8929 169.68 68.0728 167.401 68.0728L157.286 68.0728L157.286 93.3152L162.298 93.3152L162.298 84.5669L166.126 84.5669L171.229 93.3152L176.514 93.3152L176.514 93.3152ZM167.31 72.7197C169.224 72.7197 170.773 74.36 170.773 76.456C170.773 78.5519 169.224 80.1922 167.31 80.1922L162.207 80.1922L162.207 72.7197L167.31 72.7197L167.31 72.7197ZM179.432 93.3152L184.444 93.3152L184.444 68.0728L179.432 68.0728L179.432 93.3152L179.432 93.3152ZM189.091 68.0728L189.091 93.3152L194.103 93.3152L194.103 85.0225L198.568 85.0225C201.029 85.0225 203.033 84.2024 204.674 82.5621C206.314 80.9218 207.134 78.917 207.134 76.5477C207.134 74.1783 206.314 72.1735 204.674 70.5332C203.033 68.8929 200.937 68.0728 198.568 68.0728L189.091 68.0728L189.091 68.0728ZM194.012 80.3745L194.012 72.7197L198.477 72.7197C200.573 72.7197 202.122 74.36 202.122 76.5471C202.122 78.7342 200.573 80.3745 198.477 80.3745L194.012 80.3745L194.012 80.3745ZM207.954 68.0728L207.954 72.8114L214.698 72.8114L214.698 93.3152L219.71 93.3152L219.71 72.8114L226.544 72.8114L226.544 68.0728L207.954 68.0728L207.954 68.0728ZM0 100.788L0 105.891L0.729024 105.891L0.729024 101.426L3.73625 101.426L3.73625 105.891L4.46527 105.891L4.46527 100.788L0 100.788L0 100.788ZM8.74778 100.788L8.65665 102.975C8.65665 103.522 8.56552 103.978 8.56552 104.342C8.4744 104.707 8.38327 104.889 8.29214 105.071C8.20101 105.253 8.01876 105.344 7.74537 105.344L7.47199 105.344L7.38086 105.982C7.56312 105.982 7.65424 106.074 7.8365 106.074C8.20101 106.074 8.47439 105.982 8.65665 105.709C8.83891 105.527 9.02116 105.162 9.11229 104.707C9.20342 104.251 9.29455 103.704 9.29455 102.975L9.38567 101.517L11.6639 101.517L11.6639 105.982L12.3929 105.982L12.3929 100.879L8.74778 100.879L8.74778 100.788L8.74778 100.788ZM20.0479 105.982L20.7769 105.982L18.4076 100.879L17.6786 100.879L15.4004 105.982L16.1294 105.982L16.6762 104.706L19.41 104.706L20.0479 105.982L20.0479 105.982ZM17.041 104.068L18.1346 101.516L19.2281 104.068L17.041 104.068L17.041 104.068ZM27.1567 100.788L22.9648 100.788L22.9648 101.426L24.6963 101.426L24.6963 105.891L25.4253 105.891L25.4253 101.426L27.1567 101.426L27.1567 100.788L27.1567 100.788ZM35.8146 103.339C35.8146 102.701 35.5412 102.154 35.0855 101.79C34.6299 101.425 33.9009 101.152 33.0807 101.152L33.0807 100.605L32.4428 100.605L32.4428 101.152C31.6227 101.152 30.8936 101.425 30.438 101.79C29.9824 102.154 29.709 102.701 29.709 103.43C29.709 104.068 29.9824 104.615 30.438 104.979C30.8936 105.344 31.6227 105.617 32.4428 105.617L32.4428 106.164L33.0807 106.164L33.0807 105.617C33.9009 105.617 34.6299 105.344 35.0855 104.979C35.6323 104.615 35.8146 104.068 35.8146 103.339L35.8146 103.339ZM30.4375 103.34C30.4375 102.793 30.6198 102.428 30.9843 102.155C31.3488 101.881 31.8044 101.699 32.4423 101.699L32.4423 104.98C31.8044 104.98 31.2576 104.798 30.9843 104.524C30.6198 104.251 30.4375 103.886 30.4375 103.34L30.4375 103.34ZM33.0791 104.98L33.0791 101.699C33.717 101.699 34.2638 101.881 34.5371 102.155C34.9017 102.428 35.0839 102.793 35.0839 103.34C35.0839 103.886 34.9017 104.251 34.5371 104.524C34.2638 104.798 33.717 104.98 33.0791 104.98L33.0791 104.98ZM41.4643 105.982C42.0111 105.982 42.4667 105.891 42.8312 105.618C43.2869 105.435 43.5602 105.071 43.8336 104.706C44.107 104.342 44.1981 103.886 44.1981 103.339C44.1981 102.884 44.107 102.428 43.8336 101.973C43.5602 101.608 43.2869 101.244 42.8312 101.061C42.3756 100.879 41.9199 100.697 41.4643 100.697C40.9175 100.697 40.4619 100.788 40.0974 101.061C39.6417 101.244 39.3684 101.608 39.095 101.973C38.8216 102.337 38.7305 102.793 38.7305 103.339C38.7305 103.795 38.8216 104.251 39.095 104.706C39.3684 105.071 39.6417 105.435 40.0974 105.618C40.4619 105.891 40.9175 105.982 41.4643 105.982L41.4643 105.982ZM41.4638 105.344C41.0993 105.344 40.7348 105.253 40.4614 105.071C40.188 104.888 39.9146 104.706 39.7324 104.342C39.5501 104.068 39.459 103.704 39.459 103.339C39.459 102.975 39.5501 102.61 39.7324 102.337C39.9146 102.063 40.188 101.79 40.4614 101.608C40.7348 101.426 41.0993 101.334 41.4638 101.334C41.8283 101.334 42.1928 101.426 42.4662 101.608C42.7396 101.79 43.013 101.972 43.1952 102.337C43.3775 102.61 43.4686 102.975 43.4686 103.339C43.4686 103.704 43.3775 104.068 43.1952 104.342C43.013 104.615 42.7396 104.888 42.4662 105.071C42.1928 105.253 41.8283 105.344 41.4638 105.344L41.4638 105.344ZM49.5751 100.788L47.5703 100.788L47.5703 105.891L48.2993 105.891L48.2993 104.342L49.5751 104.342C50.213 104.342 50.7598 104.16 51.1243 103.886C51.4888 103.613 51.6711 103.157 51.6711 102.611C51.6711 102.064 51.4888 101.608 51.1243 101.335C50.7598 100.97 50.213 100.788 49.5751 100.788L49.5751 100.788ZM49.5727 103.794L48.2969 103.794L48.2969 101.516L49.5727 101.516C50.0283 101.516 50.3928 101.607 50.6662 101.789C50.9396 101.972 51.0307 102.245 51.0307 102.61C51.0307 102.974 50.9396 103.248 50.6662 103.43C50.3928 103.612 50.0283 103.794 49.5727 103.794L49.5727 103.794ZM60.4188 105.982L60.4188 100.879L59.781 100.879L57.685 104.524L55.5891 100.879L54.9512 100.879L54.9512 105.982L55.5891 105.982L55.5891 102.246L57.4116 105.344L57.7761 105.344L59.5987 102.246L59.5987 105.982L60.4189 105.982L60.4188 105.982ZM68.0723 105.982L68.8013 105.982L66.432 100.879L65.703 100.879L63.4248 105.982L64.1538 105.982L64.7006 104.706L67.4344 104.706L68.0723 105.982L68.0723 105.982ZM65.0654 104.068L66.159 101.516L67.2525 104.068L65.0654 104.068L65.0654 104.068ZM80.1924 105.344L80.1924 100.879L76.5473 100.879L76.4562 102.519C76.4562 103.43 76.365 104.068 76.1828 104.615C76.0916 105.071 75.8183 105.344 75.5449 105.344L75.2715 105.344L75.2715 107.076L75.9094 107.076L75.9094 105.982L80.1013 105.982L80.1013 107.076L80.7392 107.076L80.7392 105.344L80.1924 105.344L80.1924 105.344ZM77.1848 102.519L77.1848 101.425L79.463 101.425L79.463 105.253L76.5469 105.253C76.7291 105.07 76.9114 104.706 77.0025 104.25C77.0936 103.886 77.1848 103.248 77.1848 102.519L77.1848 102.519ZM84.7497 100.788L84.6586 102.975C84.6586 103.522 84.5675 103.978 84.5675 104.342C84.4763 104.707 84.3852 104.889 84.2941 105.071C84.203 105.253 84.0207 105.344 83.7473 105.344L83.4739 105.344L83.3828 105.982C83.5651 105.982 83.6562 106.074 83.8385 106.074C84.203 106.074 84.4763 105.982 84.6586 105.709C84.8409 105.527 85.0231 105.162 85.1142 104.707C85.2054 104.251 85.2965 103.704 85.2965 102.975L85.3876 101.517L87.6658 101.517L87.6658 105.982L88.3948 105.982L88.3948 100.879L84.7497 100.879L84.7497 100.788L84.7497 100.788ZM93.8625 100.788C93.2246 100.788 92.6779 100.97 92.3134 101.244C91.9489 101.608 91.7666 102.064 91.7666 102.611C91.7666 103.066 91.8577 103.34 92.04 103.613C92.2222 103.886 92.4956 104.069 92.8601 104.251L91.7666 105.891L92.5868 105.891L93.5892 104.433L95.2295 104.433L95.2295 105.891L95.9585 105.891L95.9585 100.788L93.8625 100.788L93.8625 100.788ZM92.4941 102.701C92.4941 102.336 92.5853 101.972 92.8587 101.789C93.132 101.607 93.4054 101.516 93.8611 101.516L95.1369 101.516L95.1369 103.885L93.8611 103.885C93.4054 103.885 93.132 103.794 92.8587 103.612C92.6764 103.339 92.4941 103.065 92.4941 102.701L92.4941 102.701ZM103.885 105.982L104.523 105.982L107.53 102.064L107.53 105.982L108.259 105.982L108.259 100.879L107.621 100.879L104.614 104.797L104.614 100.879L103.885 100.879L103.885 105.982L103.885 105.982ZM115.825 100.788L115.825 102.975L112.909 102.975L112.909 100.788L112.089 100.788L112.089 105.891L112.818 105.891L112.818 103.613L115.734 103.613L115.734 105.891L116.463 105.891L116.463 100.788L115.825 100.788L115.825 100.788ZM123.841 100.788L119.649 100.788L119.649 101.426L121.381 101.426L121.381 105.891L122.11 105.891L122.11 101.426L123.841 101.426L123.841 100.788L123.841 100.788L123.841 100.788ZM127.67 105.344L127.67 103.704L130.222 103.704L130.222 103.066L127.67 103.066L127.67 101.517L130.587 101.517L130.587 100.879L126.941 100.879L126.941 105.982L130.678 105.982L130.678 105.344L127.67 105.344L127.67 105.344ZM135.962 100.788L133.957 100.788L133.957 105.891L134.686 105.891L134.686 104.342L135.962 104.342C136.6 104.342 137.146 104.16 137.511 103.886C137.876 103.613 138.058 103.157 138.058 102.611C138.058 102.064 137.876 101.608 137.511 101.335C137.146 100.97 136.691 100.788 135.962 100.788L135.962 100.788ZM135.962 103.794L134.687 103.794L134.687 101.516L135.962 101.516C136.418 101.516 136.782 101.607 137.056 101.789C137.329 101.972 137.42 102.245 137.42 102.61C137.42 102.974 137.329 103.248 137.056 103.43C136.782 103.612 136.418 103.794 135.962 103.794L135.962 103.794ZM145.076 100.788L145.076 102.975L142.16 102.975L142.16 100.788L141.431 100.788L141.431 105.891L142.16 105.891L142.16 103.613L145.076 103.613L145.076 105.891L145.805 105.891L145.805 100.788L145.076 100.788L145.076 100.788ZM150.27 105.344L150.27 103.704L152.822 103.704L152.822 103.066L150.27 103.066L150.27 101.517L153.186 101.517L153.186 100.879L149.541 100.879L149.541 105.982L153.277 105.982L153.277 105.344L150.27 105.344L150.27 105.344ZM160.112 100.788L155.92 100.788L155.92 101.426L157.651 101.426L157.651 105.891L158.38 105.891L158.38 101.426L160.112 101.426L160.112 100.788L160.112 100.788L160.112 100.788ZM162.846 103.977L164.851 103.977L164.851 103.066L162.846 103.066L162.846 103.977L162.846 103.977ZM173.689 105.982L173.689 100.879L173.142 100.879L171.046 104.524L168.95 100.879L168.313 100.879L168.313 105.982L169.042 105.982L169.042 102.246L170.864 105.344L171.229 105.344L173.051 102.246L173.051 105.982L173.689 105.982L173.689 105.982ZM181.435 105.982L182.164 105.982L179.794 100.879L179.065 100.879L176.787 105.982L177.516 105.982L178.063 104.706L180.797 104.706L181.435 105.982L181.435 105.982ZM178.428 104.068L179.521 101.516L180.615 104.068L178.428 104.068L178.428 104.068ZM188.634 100.788L185.263 100.788L185.263 105.891L185.992 105.891L185.992 101.426L188.634 101.426L188.634 100.788L188.634 100.788ZM194.649 105.982L195.378 105.982L193.009 100.879L192.28 100.879L190.002 105.982L190.731 105.982L191.278 104.706L194.012 104.706L194.649 105.982L194.649 105.982ZM191.551 104.068L192.644 101.516L193.738 104.068L191.551 104.068L191.551 104.068ZM200.937 103.249C201.211 103.157 201.393 102.975 201.575 102.793C201.757 102.611 201.757 102.337 201.757 102.155C201.757 101.882 201.666 101.608 201.484 101.426C201.302 101.244 201.028 101.061 200.755 100.97C200.482 100.879 200.117 100.788 199.753 100.788C199.479 100.788 199.206 100.788 198.932 100.879C198.659 100.97 198.386 101.061 198.112 101.244L198.386 101.882C198.568 101.79 198.841 101.608 199.115 101.608C199.388 101.517 199.57 101.517 199.844 101.517C200.208 101.517 200.482 101.608 200.755 101.79C201.028 101.973 201.12 102.155 201.12 102.428C201.12 102.702 201.028 102.884 200.846 102.975C200.664 103.066 200.391 103.157 200.117 103.157L199.024 103.157L199.024 103.795L200.208 103.795C200.573 103.795 200.846 103.886 201.12 103.978C201.302 104.16 201.393 104.342 201.393 104.615C201.393 104.889 201.211 105.162 200.937 105.344C200.664 105.527 200.299 105.618 199.935 105.618C199.661 105.618 199.388 105.618 199.115 105.527C198.841 105.436 198.568 105.344 198.386 105.162L198.112 105.709C198.386 105.891 198.659 106.073 199.024 106.165C199.388 106.256 199.661 106.347 200.026 106.347C200.391 106.347 200.755 106.256 201.028 106.165C201.393 106.073 201.575 105.891 201.757 105.618C201.94 105.436 202.031 105.162 202.031 104.798C202.031 104.524 201.94 104.251 201.757 103.978C201.484 103.522 201.302 103.34 200.937 103.249L200.937 103.249ZM205.403 105.982L206.041 105.982L209.048 102.064L209.048 105.982L209.777 105.982L209.777 100.879L209.14 100.879L206.132 104.797L206.132 100.879L205.403 100.879L205.403 105.982L205.403 105.982ZM217.25 100.788L217.25 102.975L214.334 102.975L214.334 100.788L213.604 100.788L213.604 105.891L214.334 105.891L214.334 103.613L217.25 103.613L217.25 105.891L217.979 105.891L217.979 100.788L217.25 100.788L217.25 100.788ZM225.723 105.982L226.452 105.982L224.082 100.879L223.353 100.879L221.075 105.982L221.804 105.982L222.351 104.706L225.085 104.706L225.723 105.982L225.723 105.982ZM222.718 104.068L223.811 101.516L224.905 104.068L222.718 104.068L222.718 104.068ZM139.79 9.20392L139.79 28.523L115.732 19.3191L115.732 0L139.79 9.20392L139.79 9.20392ZM115.732 43.7415L139.699 52.9454L139.699 33.6263L115.732 24.4224L115.732 43.7415L115.732 43.7415ZM86.7539 52.9451L110.812 43.7412L110.812 43.7412L86.7539 33.626L86.7539 52.9451L86.7539 52.9451ZM86.7539 28.523L110.721 19.3191L110.721 0L86.7539 9.20392L86.7539 28.523L86.7539 28.523Z" id="c" fill="url(#gradient_1)" fill-rule="evenodd" stroke="none" />
        <g id="Mask-group">
          <path d="M19.2277 93.315L13.6689 83.7466C16.585 82.3797 18.4987 79.5547 18.4987 76.3652C18.4987 74.087 17.6785 72.0822 16.0382 70.4419C14.3979 68.8016 12.3931 67.9814 10.1149 67.9814L0.0908203 67.9814L0.0908203 93.2239L5.10286 93.2239L5.10286 84.4756L8.93023 84.4756L14.0334 93.2239L19.2277 93.2239L19.2277 93.315L19.2277 93.315ZM10.1168 72.7197C12.0305 72.7197 13.5797 74.36 13.5797 76.456C13.5797 78.5519 12.0305 80.1922 10.1168 80.1922L5.01367 80.1922L5.01367 72.7197L10.1168 72.7197L10.1168 72.7197ZM27.1566 82.8355L36.725 82.8355L36.725 78.188L27.1566 78.188L27.1566 72.8114L37.6363 72.8114L37.6363 68.0728L22.1445 68.0728L22.1445 93.3152L37.7274 93.3152L37.7274 88.5766L27.1566 88.5766L27.1566 82.8355L27.1566 82.8355ZM63.3345 93.3152L54.4951 68.0728L48.2984 68.0728L39.459 93.3152L44.8355 93.3152L46.3847 88.7588L56.4088 88.7588L57.958 93.3152L63.3345 93.3152L63.3345 93.3152ZM51.3955 73.8135L54.8583 84.1109L47.9326 84.1109L51.3955 73.8135L51.3955 73.8135ZM65.7949 68.0728L65.7949 93.3152L75.819 93.3152C79.2819 93.3152 82.198 92.1305 84.4762 89.6701C86.8455 87.2096 87.939 84.2935 87.939 80.7395C87.939 77.1855 86.7543 74.1783 84.4762 71.7179C82.198 69.3485 79.2819 68.0728 75.819 68.0728L65.7949 68.0728L65.7949 68.0728ZM70.7139 88.5757L70.7139 72.8105L75.7259 72.8105C77.913 72.8105 79.7355 73.5396 81.1025 74.9976C82.4694 76.4557 83.1984 78.2782 83.1984 80.6475C83.1984 83.0169 82.4694 84.8394 81.1025 86.2975C79.7355 87.7555 78.0041 88.4845 75.7259 88.4845L70.7139 88.4845L70.7139 88.5757L70.7139 88.5757ZM103.978 68.0728L98.5102 78.6436L93.0425 68.0728L87.3926 68.0728L96.0497 83.4734L96.0497 93.3152L100.971 93.3152L100.971 83.4734L109.628 68.0728L103.978 68.0728L103.978 68.0728ZM119.197 93.7704C121.93 93.7704 124.117 93.0414 125.758 91.6745C127.489 90.3075 128.309 88.485 128.309 86.1157C128.309 84.6576 127.945 83.3818 127.398 82.5617C126.942 81.7415 125.758 80.8302 125.029 80.2835C124.664 80.0101 124.117 79.7367 123.48 79.5544C122.751 79.2811 122.295 79.0077 121.839 78.9166L120.108 78.3698C118.194 77.823 117.01 77.2763 116.281 76.8206C115.643 76.2738 115.278 75.636 115.278 74.9069C115.278 73.4489 116.554 72.3553 118.559 72.3553C120.746 72.3553 122.386 73.4489 123.388 75.636L127.58 73.2666C125.849 69.7126 122.659 67.6167 118.559 67.6167C116.281 67.6167 114.276 68.3457 112.727 69.7126C111.086 71.0796 110.357 72.9021 110.357 75.1803C110.357 77.4585 111.177 79.1899 112.727 80.3746C114.276 81.4681 115.643 82.0149 117.921 82.7439C120.017 83.2907 121.384 83.8375 122.204 84.3842C123.024 84.8399 123.388 85.5689 123.388 86.4802C123.388 88.0294 122.113 89.1229 119.379 89.1229C116.463 89.1229 114.549 87.8471 113.547 85.2955L109.264 87.756C110.631 91.4011 114.185 93.7704 119.197 93.7704L119.197 93.7704ZM143.345 93.7701C147.993 93.7701 152.002 91.4919 154.189 87.8468L149.906 85.3863C148.722 87.5734 146.261 88.9403 143.345 88.9403C140.885 88.9403 138.88 88.2113 137.422 86.6621C135.964 85.113 135.144 83.1081 135.144 80.7388C135.144 78.3695 135.873 76.2735 137.422 74.7244C138.971 73.1752 140.885 72.4462 143.345 72.4462C146.261 72.4462 148.631 73.8131 149.906 76.0913L154.189 73.6308C152.002 69.9857 147.901 67.7075 143.345 67.7075C139.518 67.7075 136.419 68.9833 133.959 71.5349C131.498 73.9953 130.223 77.1848 130.223 80.8299C130.223 84.4751 131.407 87.6645 133.959 90.125C136.419 92.4943 139.609 93.7701 143.345 93.7701L143.345 93.7701ZM176.514 93.3152L170.955 83.8379C173.871 82.471 175.785 79.646 175.785 76.4565C175.785 74.1783 174.965 72.1735 173.325 70.5332C171.684 68.8929 169.68 68.0728 167.401 68.0728L157.286 68.0728L157.286 93.3152L162.298 93.3152L162.298 84.5669L166.126 84.5669L171.229 93.3152L176.514 93.3152L176.514 93.3152ZM167.31 72.7197C169.224 72.7197 170.773 74.36 170.773 76.456C170.773 78.5519 169.224 80.1922 167.31 80.1922L162.207 80.1922L162.207 72.7197L167.31 72.7197L167.31 72.7197ZM179.432 93.3152L184.444 93.3152L184.444 68.0728L179.432 68.0728L179.432 93.3152L179.432 93.3152ZM189.091 68.0728L189.091 93.3152L194.103 93.3152L194.103 85.0225L198.568 85.0225C201.029 85.0225 203.033 84.2024 204.674 82.5621C206.314 80.9218 207.134 78.917 207.134 76.5477C207.134 74.1783 206.314 72.1735 204.674 70.5332C203.033 68.8929 200.937 68.0728 198.568 68.0728L189.091 68.0728L189.091 68.0728ZM194.012 80.3745L194.012 72.7197L198.477 72.7197C200.573 72.7197 202.122 74.36 202.122 76.5471C202.122 78.7342 200.573 80.3745 198.477 80.3745L194.012 80.3745L194.012 80.3745ZM207.954 68.0728L207.954 72.8114L214.698 72.8114L214.698 93.3152L219.71 93.3152L219.71 72.8114L226.544 72.8114L226.544 68.0728L207.954 68.0728L207.954 68.0728ZM0 100.788L0 105.891L0.729024 105.891L0.729024 101.426L3.73625 101.426L3.73625 105.891L4.46527 105.891L4.46527 100.788L0 100.788L0 100.788ZM8.74778 100.788L8.65665 102.975C8.65665 103.522 8.56552 103.978 8.56552 104.342C8.4744 104.707 8.38327 104.889 8.29214 105.071C8.20101 105.253 8.01876 105.344 7.74537 105.344L7.47199 105.344L7.38086 105.982C7.56312 105.982 7.65424 106.074 7.8365 106.074C8.20101 106.074 8.47439 105.982 8.65665 105.709C8.83891 105.527 9.02116 105.162 9.11229 104.707C9.20342 104.251 9.29455 103.704 9.29455 102.975L9.38567 101.517L11.6639 101.517L11.6639 105.982L12.3929 105.982L12.3929 100.879L8.74778 100.879L8.74778 100.788L8.74778 100.788ZM20.0479 105.982L20.7769 105.982L18.4076 100.879L17.6786 100.879L15.4004 105.982L16.1294 105.982L16.6762 104.706L19.41 104.706L20.0479 105.982L20.0479 105.982ZM17.041 104.068L18.1346 101.516L19.2281 104.068L17.041 104.068L17.041 104.068ZM27.1567 100.788L22.9648 100.788L22.9648 101.426L24.6963 101.426L24.6963 105.891L25.4253 105.891L25.4253 101.426L27.1567 101.426L27.1567 100.788L27.1567 100.788ZM35.8146 103.339C35.8146 102.701 35.5412 102.154 35.0855 101.79C34.6299 101.425 33.9009 101.152 33.0807 101.152L33.0807 100.605L32.4428 100.605L32.4428 101.152C31.6227 101.152 30.8936 101.425 30.438 101.79C29.9824 102.154 29.709 102.701 29.709 103.43C29.709 104.068 29.9824 104.615 30.438 104.979C30.8936 105.344 31.6227 105.617 32.4428 105.617L32.4428 106.164L33.0807 106.164L33.0807 105.617C33.9009 105.617 34.6299 105.344 35.0855 104.979C35.6323 104.615 35.8146 104.068 35.8146 103.339L35.8146 103.339ZM30.4375 103.34C30.4375 102.793 30.6198 102.428 30.9843 102.155C31.3488 101.881 31.8044 101.699 32.4423 101.699L32.4423 104.98C31.8044 104.98 31.2576 104.798 30.9843 104.524C30.6198 104.251 30.4375 103.886 30.4375 103.34L30.4375 103.34ZM33.0791 104.98L33.0791 101.699C33.717 101.699 34.2638 101.881 34.5371 102.155C34.9017 102.428 35.0839 102.793 35.0839 103.34C35.0839 103.886 34.9017 104.251 34.5371 104.524C34.2638 104.798 33.717 104.98 33.0791 104.98L33.0791 104.98ZM41.4643 105.982C42.0111 105.982 42.4667 105.891 42.8312 105.618C43.2869 105.435 43.5602 105.071 43.8336 104.706C44.107 104.342 44.1981 103.886 44.1981 103.339C44.1981 102.884 44.107 102.428 43.8336 101.973C43.5602 101.608 43.2869 101.244 42.8312 101.061C42.3756 100.879 41.9199 100.697 41.4643 100.697C40.9175 100.697 40.4619 100.788 40.0974 101.061C39.6417 101.244 39.3684 101.608 39.095 101.973C38.8216 102.337 38.7305 102.793 38.7305 103.339C38.7305 103.795 38.8216 104.251 39.095 104.706C39.3684 105.071 39.6417 105.435 40.0974 105.618C40.4619 105.891 40.9175 105.982 41.4643 105.982L41.4643 105.982ZM41.4638 105.344C41.0993 105.344 40.7348 105.253 40.4614 105.071C40.188 104.888 39.9146 104.706 39.7324 104.342C39.5501 104.068 39.459 103.704 39.459 103.339C39.459 102.975 39.5501 102.61 39.7324 102.337C39.9146 102.063 40.188 101.79 40.4614 101.608C40.7348 101.426 41.0993 101.334 41.4638 101.334C41.8283 101.334 42.1928 101.426 42.4662 101.608C42.7396 101.79 43.013 101.972 43.1952 102.337C43.3775 102.61 43.4686 102.975 43.4686 103.339C43.4686 103.704 43.3775 104.068 43.1952 104.342C43.013 104.615 42.7396 104.888 42.4662 105.071C42.1928 105.253 41.8283 105.344 41.4638 105.344L41.4638 105.344ZM49.5751 100.788L47.5703 100.788L47.5703 105.891L48.2993 105.891L48.2993 104.342L49.5751 104.342C50.213 104.342 50.7598 104.16 51.1243 103.886C51.4888 103.613 51.6711 103.157 51.6711 102.611C51.6711 102.064 51.4888 101.608 51.1243 101.335C50.7598 100.97 50.213 100.788 49.5751 100.788L49.5751 100.788ZM49.5727 103.794L48.2969 103.794L48.2969 101.516L49.5727 101.516C50.0283 101.516 50.3928 101.607 50.6662 101.789C50.9396 101.972 51.0307 102.245 51.0307 102.61C51.0307 102.974 50.9396 103.248 50.6662 103.43C50.3928 103.612 50.0283 103.794 49.5727 103.794L49.5727 103.794ZM60.4188 105.982L60.4188 100.879L59.781 100.879L57.685 104.524L55.5891 100.879L54.9512 100.879L54.9512 105.982L55.5891 105.982L55.5891 102.246L57.4116 105.344L57.7761 105.344L59.5987 102.246L59.5987 105.982L60.4189 105.982L60.4188 105.982ZM68.0723 105.982L68.8013 105.982L66.432 100.879L65.703 100.879L63.4248 105.982L64.1538 105.982L64.7006 104.706L67.4344 104.706L68.0723 105.982L68.0723 105.982ZM65.0654 104.068L66.159 101.516L67.2525 104.068L65.0654 104.068L65.0654 104.068ZM80.1924 105.344L80.1924 100.879L76.5473 100.879L76.4562 102.519C76.4562 103.43 76.365 104.068 76.1828 104.615C76.0916 105.071 75.8183 105.344 75.5449 105.344L75.2715 105.344L75.2715 107.076L75.9094 107.076L75.9094 105.982L80.1013 105.982L80.1013 107.076L80.7392 107.076L80.7392 105.344L80.1924 105.344L80.1924 105.344ZM77.1848 102.519L77.1848 101.425L79.463 101.425L79.463 105.253L76.5469 105.253C76.7291 105.07 76.9114 104.706 77.0025 104.25C77.0936 103.886 77.1848 103.248 77.1848 102.519L77.1848 102.519ZM84.7497 100.788L84.6586 102.975C84.6586 103.522 84.5675 103.978 84.5675 104.342C84.4763 104.707 84.3852 104.889 84.2941 105.071C84.203 105.253 84.0207 105.344 83.7473 105.344L83.4739 105.344L83.3828 105.982C83.5651 105.982 83.6562 106.074 83.8385 106.074C84.203 106.074 84.4763 105.982 84.6586 105.709C84.8409 105.527 85.0231 105.162 85.1142 104.707C85.2054 104.251 85.2965 103.704 85.2965 102.975L85.3876 101.517L87.6658 101.517L87.6658 105.982L88.3948 105.982L88.3948 100.879L84.7497 100.879L84.7497 100.788L84.7497 100.788ZM93.8625 100.788C93.2246 100.788 92.6779 100.97 92.3134 101.244C91.9489 101.608 91.7666 102.064 91.7666 102.611C91.7666 103.066 91.8577 103.34 92.04 103.613C92.2222 103.886 92.4956 104.069 92.8601 104.251L91.7666 105.891L92.5868 105.891L93.5892 104.433L95.2295 104.433L95.2295 105.891L95.9585 105.891L95.9585 100.788L93.8625 100.788L93.8625 100.788ZM92.4941 102.701C92.4941 102.336 92.5853 101.972 92.8587 101.789C93.132 101.607 93.4054 101.516 93.8611 101.516L95.1369 101.516L95.1369 103.885L93.8611 103.885C93.4054 103.885 93.132 103.794 92.8587 103.612C92.6764 103.339 92.4941 103.065 92.4941 102.701L92.4941 102.701ZM103.885 105.982L104.523 105.982L107.53 102.064L107.53 105.982L108.259 105.982L108.259 100.879L107.621 100.879L104.614 104.797L104.614 100.879L103.885 100.879L103.885 105.982L103.885 105.982ZM115.825 100.788L115.825 102.975L112.909 102.975L112.909 100.788L112.089 100.788L112.089 105.891L112.818 105.891L112.818 103.613L115.734 103.613L115.734 105.891L116.463 105.891L116.463 100.788L115.825 100.788L115.825 100.788ZM123.841 100.788L119.649 100.788L119.649 101.426L121.381 101.426L121.381 105.891L122.11 105.891L122.11 101.426L123.841 101.426L123.841 100.788L123.841 100.788L123.841 100.788ZM127.67 105.344L127.67 103.704L130.222 103.704L130.222 103.066L127.67 103.066L127.67 101.517L130.587 101.517L130.587 100.879L126.941 100.879L126.941 105.982L130.678 105.982L130.678 105.344L127.67 105.344L127.67 105.344ZM135.962 100.788L133.957 100.788L133.957 105.891L134.686 105.891L134.686 104.342L135.962 104.342C136.6 104.342 137.146 104.16 137.511 103.886C137.876 103.613 138.058 103.157 138.058 102.611C138.058 102.064 137.876 101.608 137.511 101.335C137.146 100.97 136.691 100.788 135.962 100.788L135.962 100.788ZM135.962 103.794L134.687 103.794L134.687 101.516L135.962 101.516C136.418 101.516 136.782 101.607 137.056 101.789C137.329 101.972 137.42 102.245 137.42 102.61C137.42 102.974 137.329 103.248 137.056 103.43C136.782 103.612 136.418 103.794 135.962 103.794L135.962 103.794ZM145.076 100.788L145.076 102.975L142.16 102.975L142.16 100.788L141.431 100.788L141.431 105.891L142.16 105.891L142.16 103.613L145.076 103.613L145.076 105.891L145.805 105.891L145.805 100.788L145.076 100.788L145.076 100.788ZM150.27 105.344L150.27 103.704L152.822 103.704L152.822 103.066L150.27 103.066L150.27 101.517L153.186 101.517L153.186 100.879L149.541 100.879L149.541 105.982L153.277 105.982L153.277 105.344L150.27 105.344L150.27 105.344ZM160.112 100.788L155.92 100.788L155.92 101.426L157.651 101.426L157.651 105.891L158.38 105.891L158.38 101.426L160.112 101.426L160.112 100.788L160.112 100.788L160.112 100.788ZM162.846 103.977L164.851 103.977L164.851 103.066L162.846 103.066L162.846 103.977L162.846 103.977ZM173.689 105.982L173.689 100.879L173.142 100.879L171.046 104.524L168.95 100.879L168.313 100.879L168.313 105.982L169.042 105.982L169.042 102.246L170.864 105.344L171.229 105.344L173.051 102.246L173.051 105.982L173.689 105.982L173.689 105.982ZM181.435 105.982L182.164 105.982L179.794 100.879L179.065 100.879L176.787 105.982L177.516 105.982L178.063 104.706L180.797 104.706L181.435 105.982L181.435 105.982ZM178.428 104.068L179.521 101.516L180.615 104.068L178.428 104.068L178.428 104.068ZM188.634 100.788L185.263 100.788L185.263 105.891L185.992 105.891L185.992 101.426L188.634 101.426L188.634 100.788L188.634 100.788ZM194.649 105.982L195.378 105.982L193.009 100.879L192.28 100.879L190.002 105.982L190.731 105.982L191.278 104.706L194.012 104.706L194.649 105.982L194.649 105.982ZM191.551 104.068L192.644 101.516L193.738 104.068L191.551 104.068L191.551 104.068ZM200.937 103.249C201.211 103.157 201.393 102.975 201.575 102.793C201.757 102.611 201.757 102.337 201.757 102.155C201.757 101.882 201.666 101.608 201.484 101.426C201.302 101.244 201.028 101.061 200.755 100.97C200.482 100.879 200.117 100.788 199.753 100.788C199.479 100.788 199.206 100.788 198.932 100.879C198.659 100.97 198.386 101.061 198.112 101.244L198.386 101.882C198.568 101.79 198.841 101.608 199.115 101.608C199.388 101.517 199.57 101.517 199.844 101.517C200.208 101.517 200.482 101.608 200.755 101.79C201.028 101.973 201.12 102.155 201.12 102.428C201.12 102.702 201.028 102.884 200.846 102.975C200.664 103.066 200.391 103.157 200.117 103.157L199.024 103.157L199.024 103.795L200.208 103.795C200.573 103.795 200.846 103.886 201.12 103.978C201.302 104.16 201.393 104.342 201.393 104.615C201.393 104.889 201.211 105.162 200.937 105.344C200.664 105.527 200.299 105.618 199.935 105.618C199.661 105.618 199.388 105.618 199.115 105.527C198.841 105.436 198.568 105.344 198.386 105.162L198.112 105.709C198.386 105.891 198.659 106.073 199.024 106.165C199.388 106.256 199.661 106.347 200.026 106.347C200.391 106.347 200.755 106.256 201.028 106.165C201.393 106.073 201.575 105.891 201.757 105.618C201.94 105.436 202.031 105.162 202.031 104.798C202.031 104.524 201.94 104.251 201.757 103.978C201.484 103.522 201.302 103.34 200.937 103.249L200.937 103.249ZM205.403 105.982L206.041 105.982L209.048 102.064L209.048 105.982L209.777 105.982L209.777 100.879L209.14 100.879L206.132 104.797L206.132 100.879L205.403 100.879L205.403 105.982L205.403 105.982ZM217.25 100.788L217.25 102.975L214.334 102.975L214.334 100.788L213.604 100.788L213.604 105.891L214.334 105.891L214.334 103.613L217.25 103.613L217.25 105.891L217.979 105.891L217.979 100.788L217.25 100.788L217.25 100.788ZM225.723 105.982L226.452 105.982L224.082 100.879L223.353 100.879L221.075 105.982L221.804 105.982L222.351 104.706L225.085 104.706L225.723 105.982L225.723 105.982ZM222.718 104.068L223.811 101.516L224.905 104.068L222.718 104.068L222.718 104.068ZM139.79 9.20392L139.79 28.523L115.732 19.3191L115.732 0L139.79 9.20392L139.79 9.20392ZM115.732 43.7415L139.699 52.9454L139.699 33.6263L115.732 24.4224L115.732 43.7415L115.732 43.7415ZM86.7539 52.9451L110.812 43.7412L110.812 43.7412L86.7539 33.626L86.7539 52.9451L86.7539 52.9451ZM86.7539 28.523L110.721 19.3191L110.721 0L86.7539 9.20392L86.7539 28.523L86.7539 28.523Z" id="Shape" fill="none" fill-rule="evenodd" stroke="none" />
          <g clip-path="url(#mask_2)">
            <g id="Group" transform="translate(85.93359 -68.43701)">
              <path d="M0 0L123.934 0L123.934 123.934L0 123.934L0 0Z" id="Rectangle" fill="url(#gradient_2)" fill-rule="evenodd" stroke="none" />
            </g>
          </g>
        </g>
      </g>
    </g>
    <g id="jquery" transform="translate(29.4375 43.484863)">
      <path d="M0 0L308.563 0L308.563 75.5495L0 75.5495L0 0Z" id="Background" fill="none" fill-rule="evenodd" stroke="none" />
      <g clip-path="url(#mask_3)">
        <path d="M131.947 27.2256L131.947 27.2256L129.943 34.1794L131.947 27.2256L131.947 27.2256L131.947 27.2256Z" id="Shape" fill="#00B3F0" fill-rule="evenodd" stroke="none" />
        <path d="M141.553 52.8613L141.553 52.8613L128.529 53.4506L141.553 52.8613L141.553 52.8613L141.553 52.8613Z" id="Shape" fill="#131B28" fill-rule="evenodd" stroke="none" />
        <path d="M142.672 51.9778L144.97 43.3149L142.672 51.9778L142.672 51.9778L142.672 51.9778Z" id="Shape" fill="#131B28" fill-rule="evenodd" stroke="none" />
        <path d="M190.702 12.0806L186.459 31.9992C186.459 31.9403 190.702 12.0806 190.702 12.0806L190.702 12.0806Z" id="Shape" fill="#00B3F0" fill-rule="evenodd" stroke="none" />
        <path d="M179.798 12.0806L176.557 26.9312L179.798 12.0806L179.798 12.0806L179.798 12.0806Z" id="Shape" fill="#00B3F0" fill-rule="evenodd" stroke="none" />
        <path d="M189.993 11.1973L180.917 11.1973C180.387 11.1973 179.916 11.6098 179.798 12.0812L176.556 26.9318L173.315 41.7824C173.197 42.2539 172.726 42.6664 172.196 42.6664L165.831 42.6664C159.467 42.6664 160.233 38.3055 161.529 32.2946C161.529 32.2356 161.529 32.1767 161.588 32.1178L161.706 31.3517L161.706 31.2338L162.001 29.7016L162.295 28.0515C162.413 27.5801 162.531 26.814 162.649 26.3425L164.122 19.2119L165.595 12.0812C165.713 11.6098 165.36 11.1973 164.888 11.1973L155.577 11.1973C155.047 11.1973 154.575 11.6098 154.457 12.0812L152.454 21.5691L150.45 31.057L150.45 31.057L150.273 31.941C147.975 42.4307 148.564 52.4489 161.058 52.7436L181.035 52.7436C181.566 52.7436 182.037 52.3311 182.155 51.8596L186.398 31.941L190.641 12.0223C190.818 11.6098 190.464 11.1973 189.993 11.1973L189.993 11.1973L189.993 11.1973Z" id="Shape" fill="#00B3F0" fill-rule="evenodd" stroke="none" />
        <path d="M226.059 42.7842C226.589 42.7842 226.884 43.1967 226.766 43.6681L225.882 47.9701" id="Shape" fill="#131B28" fill-rule="evenodd" stroke="none" />
        <path d="M225.057 52.2717L225.941 47.9697L225.057 52.2717L225.057 52.2717L225.057 52.2717Z" id="Shape" fill="#131B28" fill-rule="evenodd" stroke="none" />
        <path d="M223.939 53.2144L223.939 53.2144C221.287 53.2144 213.273 53.8037 207.262 53.8037C214.628 53.8037 223.939 53.2144 223.939 53.2144L223.939 53.2144L223.939 53.2144Z" id="Shape" fill="#131B28" fill-rule="evenodd" stroke="none" />
        <path d="M201.898 37.2442C201.898 36.7728 202.428 35.9478 202.9 35.9478L201.78 35.9478C201.25 41.0748 201.898 37.2442 201.898 37.2442L201.898 37.2442L201.898 37.2442Z" id="Shape" fill="#00B3F0" fill-rule="evenodd" stroke="none" />
        <path d="M226.058 42.7842C226.589 42.7842 226.883 43.1967 226.766 43.6681L225.882 47.9701L225.764 48.6773" id="Shape" fill="#131B28" fill-rule="evenodd" stroke="none" />
        <path d="M223.937 53.1563L223.937 53.1563C221.992 53.1563 217.16 53.7456 212.387 53.7456C217.16 53.7456 221.992 53.7456 223.937 53.1563L223.937 53.1563Z" id="Shape" fill="#131B28" fill-rule="evenodd" stroke="none" />
        <path d="M225.057 52.2715L225.764 48.6768L225.057 52.2715L225.057 52.2715L225.057 52.2715Z" id="Shape" fill="#131B28" fill-rule="evenodd" stroke="none" />
        <path d="M76.2562 37.3619L77.6706 31.1152L76.0205 38.2459L74.4883 45.4944L75.8437 39.1298C75.9615 38.6584 76.1383 37.8334 76.2562 37.3619L76.2562 37.3619L76.2562 37.3619Z" id="Shape" fill="#00B3F0" fill-rule="evenodd" stroke="none" />
        <path d="M93.0521 11.0786L83.0928 11.0786C82.5624 11.0786 82.091 11.4911 81.9731 11.9626L81.0302 16.1467L80.0873 20.3308C79.9694 20.8022 80.323 21.2147 80.7945 21.2147L90.8127 21.2147C91.3431 21.2147 91.8146 20.8022 91.9324 20.3308L92.8164 16.1467L93.7003 11.9626L93.7003 11.9626C93.8771 11.4911 93.5825 11.0786 93.0521 11.0786L93.0521 11.0786L93.0521 11.0786Z" id="Shape" fill="#00B3F0" fill-rule="evenodd" stroke="none" />
        <path d="M90.87 24.9272L90.87 24.9272L87.9824 38.4224L90.87 24.9272L90.87 24.9272Z" id="Shape" fill="#00B3F0" fill-rule="evenodd" stroke="none" />
        <path d="M61.9961 69.5977C61.9961 69.5977 67.0052 70.187 70.1875 70.187C67.7713 70.187 63.823 69.5977 61.9961 69.5977L61.9961 69.5977L61.9961 69.5977Z" id="Shape" fill="#131B28" fill-rule="evenodd" stroke="none" />
        <path d="M79.0257 24.9272L77.6113 31.1739L79.0257 24.9272L79.0257 24.9272Z" id="Shape" fill="#00B3F0" fill-rule="evenodd" stroke="none" />
        <path d="M90.1647 24.0435L80.1464 24.0435C79.616 24.0435 79.1446 24.456 79.0267 24.9274L77.6124 31.1741L76.198 37.4208C76.0802 37.8922 75.9034 38.7173 75.7855 39.1887L74.4301 45.5533L73.1336 51.8589C73.0158 52.3303 72.839 53.1554 72.6622 53.6268C72.6622 53.6268 70.7764 59.1663 67.653 59.1074L67.2405 59.1074C65.7083 59.1074 64.5297 59.0485 64.5297 59.0485L64.5297 59.0485C63.9993 59.0485 63.5279 59.461 63.41 59.9324L62.3492 64.2933L61.2885 68.6542C61.1706 69.1257 61.4653 69.5382 61.9957 69.5382C63.7636 69.5382 67.7709 69.5971 70.1871 69.5971C78.0249 69.5971 82.209 65.2362 84.8609 52.7429L87.9842 38.3637L90.8718 24.8685C90.9897 24.397 90.695 24.0435 90.1647 24.0435L90.1647 24.0435L90.1647 24.0435Z" id="Shape" fill="#00B3F0" fill-rule="evenodd" stroke="none" />
        <path d="M232.483 52.7427C231.953 52.7427 231.658 52.3302 231.776 51.8587L239.26 16.5591" id="Shape" fill="#00B3F0" fill-rule="evenodd" stroke="none" />
        <path d="M242.914 51.8598L245.978 36.7734L242.914 51.8598L242.914 51.8598Z" id="Shape" fill="#00B3F0" fill-rule="evenodd" stroke="none" />
        <path d="M231.834 52.3306C231.775 52.0949 231.834 51.5055 231.893 50.9752L235.488 34.2388L231.716 51.8591C231.598 52.3306 231.952 52.7431 232.423 52.7431L233.366 52.7431C232.895 52.7431 231.893 52.5663 231.834 52.3306L231.834 52.3306L231.834 52.3306Z" id="Shape" fill="#00B3F0" fill-rule="evenodd" stroke="none" />
        <path d="M242.325 52.5667C242.03 52.6846 241.441 52.7435 240.91 52.7435L241.853 52.7435C242.383 52.7435 242.855 52.331 242.973 51.8596L243.15 50.9756C243.032 51.447 242.619 52.4489 242.325 52.5667L242.325 52.5667L242.325 52.5667Z" id="Shape" fill="#00B3F0" fill-rule="evenodd" stroke="none" />
        <path d="M244.445 44.3159L245.801 37.6567L245.801 37.6567L244.445 44.3159L244.445 44.3159L244.445 44.3159Z" id="Shape" fill="#00B3F0" fill-rule="evenodd" stroke="none" />
        <path d="M274.205 18.917L274.617 20.626C274.735 21.0974 274.441 21.51 273.91 21.51" id="Shape" fill="#00B3F0" fill-rule="evenodd" stroke="none" />
        <path d="M243.09 50.9761L244.445 44.3169L243.09 50.9761L243.09 50.9761Z" id="Shape" fill="#131B28" fill-rule="evenodd" stroke="none" />
        <path d="M273.793 17.1494L274.382 18.9173L273.793 17.1494L273.793 17.1494Z" id="Shape" fill="#00B3F0" fill-rule="evenodd" stroke="none" />
        <path d="M245.801 37.657C245.919 37.1855 246.095 36.3605 246.154 35.889L247.569 29.1709L245.919 36.773L245.801 37.657L245.801 37.657L245.801 37.657Z" id="Shape" fill="#00B3F0" fill-rule="evenodd" stroke="none" />
        <path d="M239.378 15.9702C239.26 16.4417 239.142 17.031 239.083 17.4435L235.488 34.1799L239.26 16.5595L239.378 15.9702L239.378 15.9702L239.378 15.9702Z" id="Shape" fill="#00B3F0" fill-rule="evenodd" stroke="none" />
        <path d="M274.619 20.6264L274.207 18.9174L273.794 17.1494L273.558 16.2655C272.733 13.0832 270.376 11.2563 265.19 11.2563L241.323 11.2563C240.793 11.2563 240.321 11.6689 240.203 12.1403L240.203 12.1403L239.85 13.9082L239.437 15.9708L239.319 16.5601L235.548 34.1805L231.953 50.9169C231.835 51.3883 231.835 52.0366 231.894 52.2723C231.953 52.508 232.896 52.7438 233.426 52.7438L240.97 52.7438C241.5 52.7438 242.089 52.6259 242.384 52.567C242.679 52.4491 243.091 51.4473 243.15 50.9758L244.505 44.3166L245.861 37.6574L245.861 37.6574L246.038 36.7735L247.688 29.1714L249.102 22.4532C249.22 21.9818 249.691 21.5693 250.222 21.5693L273.971 21.5693C274.383 21.5103 274.737 21.1568 274.619 20.6264L274.619 20.6264L274.619 20.6264Z" id="Shape" fill="#00B3F0" fill-rule="evenodd" stroke="none" />
        <path d="M305.203 5.12744L295.774 5.12744C295.243 5.12744 294.654 5.48103 294.359 5.89354L277.564 30.5267C277.269 30.9392 276.975 30.8803 276.857 30.4088L275.619 24.9872C275.501 24.5157 275.03 24.1032 274.5 24.1032L263.715 24.1032C263.185 24.1032 262.89 24.5157 263.067 24.9872L267.899 41.9593C268.017 42.4307 268.076 43.2558 267.899 43.7272L265.778 51.9186C265.66 52.3901 265.955 52.8026 266.485 52.8026L277.152 52.8026C277.682 52.8026 278.153 52.3901 278.271 51.9186L280.393 43.7272C280.511 43.2558 280.864 42.4897 281.159 42.1361L308.444 5.89354C308.739 5.48103 308.562 5.18637 308.09 5.18637L305.203 5.12744L305.203 5.12744L305.203 5.12744Z" id="Shape" fill="#00B3F0" fill-rule="evenodd" stroke="none" />
        <path d="M219.34 26.4014L219.34 26.4014C219.281 26.9318 218.751 27.3443 218.279 27.3443L204.607 27.3443C204.136 27.3443 203.9 27.0496 203.959 26.6371L203.959 26.5782L203.959 26.5782L203.959 26.5193C203.959 26.5193 203.959 26.4014 204.018 26.2835C205.315 22.8066 207.966 20.5083 212.976 20.5083C218.633 20.5083 219.694 23.2781 219.34 26.4014L219.34 26.4014L219.34 26.4014ZM215.333 10.5488C197.771 10.5488 193.587 21.2153 191.23 31.9997C188.873 42.9609 189.109 53.2738 207.318 53.2738L212.445 53.2738C217.278 53.2738 222.051 53.2149 223.996 53.2149C224.467 53.2149 224.998 52.8023 225.115 52.3309L225.823 48.7361L225.94 48.0289L226.824 43.727C226.942 43.2555 226.589 42.843 226.117 42.843L209.734 42.843C203.252 42.843 201.307 41.134 202.014 36.007L228.18 36.007C228.592 36.007 229.005 35.7124 229.123 35.3588C229.123 35.2998 229.182 35.182 229.182 35.123L229.182 35.123C233.071 20.4492 231.951 10.5488 215.333 10.5488L215.333 10.5488L215.333 10.5488Z" id="Shape" fill="#00B3F0" fill-rule="evenodd" stroke="none" />
        <path d="M132.182 26.3424L131.946 27.2264L131.946 27.2264L129.942 34.1802L127.998 41.193C127.88 41.6645 127.349 42.077 126.819 42.077L116.388 42.077C108.433 42.077 106.547 35.8892 108.433 26.7549C110.377 17.3849 114.149 11.6097 121.928 11.0203C132.653 10.1953 134.775 17.6796 132.182 26.3424L132.182 26.3424L132.182 26.3424ZM139.371 41.5463C139.371 41.5463 144.322 29.5834 145.441 22.6884C146.915 13.4363 142.318 0 124.403 0C106.488 0 98.8858 12.788 95.9392 26.7547C92.9927 40.7802 96.8821 53.0968 114.561 52.979L128.528 52.92L141.552 52.8611C142.082 52.8611 142.554 52.4486 142.672 51.9771L144.97 43.3143C145.088 42.8428 144.793 42.4303 144.263 42.4303L139.902 42.4303C139.489 42.4303 139.254 42.1357 139.254 41.7821C139.312 41.6642 139.312 41.6053 139.371 41.5463L139.371 41.5463L139.371 41.5463Z" id="Shape" fill="#00B3F0" fill-rule="evenodd" stroke="none" />
        <path d="M227.415 33.5312C227.415 33.8848 227.12 34.1205 226.826 34.1205C226.472 34.1205 226.236 33.8259 226.236 33.5312C226.236 33.1776 226.531 32.9419 226.826 32.9419C227.179 32.9419 227.415 33.1776 227.415 33.5312L227.415 33.5312Z" id="Shape" fill="#00B3F0" fill-rule="evenodd" stroke="none" />
        <path d="M3.53528 17.9741C-1.35599 25.0459 -0.76668 34.2391 3.0049 41.7233C3.12276 41.9001 3.1817 42.0769 3.29956 42.2537L3.47635 42.6073C3.53528 42.6662 3.53528 42.7252 3.59421 42.7841L3.77101 43.1377C3.88887 43.3145 4.00673 43.5502 4.12459 43.727L4.30138 44.0806C4.41925 44.3163 4.59604 44.4931 4.7139 44.7288C4.77283 44.8467 4.83176 44.9056 4.89069 45.0235C5.06749 45.3181 5.30321 45.6128 5.48 45.9074L5.48 45.9074C5.53894 45.9664 5.53894 46.0253 5.59787 46.0253L6.12824 46.7325C6.18718 46.7914 6.24611 46.9092 6.36397 46.9682C6.54076 47.2039 6.71755 47.3807 6.89435 47.6164C6.95328 47.6754 7.01221 47.7932 7.07114 47.8521C7.30686 48.1468 7.54259 48.3825 7.77831 48.6772L7.77831 48.6772L7.77831 48.7361C8.01404 48.9718 8.24976 49.2665 8.48548 49.5022L8.72121 49.7379L9.31052 50.3272L9.54624 50.563C9.78196 50.7987 10.0766 51.0344 10.3123 51.2701L10.3123 51.2701C10.3713 51.3291 10.4302 51.3291 10.4302 51.388C10.6659 51.5648 10.9017 51.8005 11.1374 51.9773C11.2552 52.0362 11.3142 52.1541 11.432 52.213C11.6088 52.3898 11.8446 52.5077 12.0213 52.6845C12.1392 52.7434 12.2571 52.8613 12.316 52.9202C12.5517 53.097 12.7874 53.2149 12.9642 53.3917C13.0232 53.4506 13.141 53.5095 13.2 53.5685L13.2589 53.6274C13.4946 53.7452 13.6714 53.922 13.9071 54.0399C14.025 54.0988 14.0839 54.1578 14.2018 54.2167C14.5554 54.4524 14.85 54.6292 15.2036 54.8649C15.3215 54.9239 15.3804 54.9828 15.4983 55.0417C15.734 55.1596 16.0287 55.3364 16.2644 55.4542C16.3822 55.5132 16.559 55.5721 16.6769 55.69C16.8537 55.8078 17.0305 55.8668 17.2073 55.9846C17.2662 55.9846 17.2662 56.0436 17.3251 56.0436C17.3841 56.1025 17.5019 56.1025 17.5609 56.1614C17.8555 56.2793 18.1502 56.4561 18.4448 56.5739C18.5037 56.5739 18.5627 56.6329 18.6216 56.6329C18.9752 56.7507 19.2699 56.9275 19.6234 57.0454C19.6824 57.1043 19.8002 57.1043 19.8592 57.1632C20.1538 57.2811 20.5074 57.399 20.8021 57.5168C20.8413 57.5168 20.8806 57.5365 20.9199 57.5758L21.9807 57.9293C22.0396 57.9293 22.1575 57.9883 22.2164 57.9883C22.57 58.1061 22.9236 58.224 23.3361 58.2829C47.0853 62.6438 53.9802 44.0216 53.9802 44.0216C48.3228 51.5059 38.0688 53.5095 28.2863 51.2701C27.9327 51.2112 27.5791 51.0933 27.2255 50.9755C27.1077 50.9755 27.0487 50.9165 26.9309 50.9165L25.8701 50.563C25.8112 50.563 25.7523 50.504 25.7523 50.504C25.4576 50.3862 25.163 50.2683 24.8094 50.1504C24.7504 50.0915 24.6915 50.0915 24.5736 50.0326C24.2201 49.9147 23.9254 49.7379 23.5718 49.6201C23.5129 49.6201 23.454 49.5611 23.395 49.5611C23.1004 49.4433 22.8057 49.3254 22.57 49.1486C22.5111 49.0897 22.3932 49.0897 22.3343 49.0308C22.0985 48.9129 21.9217 48.795 21.686 48.6772C21.5682 48.6183 21.3914 48.5004 21.2735 48.4415C21.0378 48.3236 20.7431 48.1468 20.5074 48.0289C20.4485 47.97 20.3306 47.9111 20.2717 47.9111C19.9181 47.7343 19.5645 47.4986 19.2699 47.2628C19.152 47.2039 19.0931 47.145 18.9752 47.086C18.7395 46.9093 18.5038 46.7914 18.268 46.6146C18.2091 46.5557 18.0912 46.4967 18.0323 46.4378C17.7966 46.261 17.5609 46.0842 17.3251 45.9664C17.2073 45.9074 17.1483 45.7896 17.0305 45.7306C16.7948 45.5538 16.618 45.436 16.4412 45.2592C16.3233 45.2003 16.2644 45.1413 16.1465 45.0235C15.9108 44.7877 15.6161 44.6109 15.3804 44.3752L15.3215 44.3163C15.0268 44.0806 14.7911 43.8448 14.4964 43.6091C14.4375 43.5502 14.3197 43.4913 14.2607 43.3734C14.0839 43.1966 13.8482 43.0198 13.6714 42.7841L13.4357 42.5484C13.2 42.3126 12.9642 42.0769 12.7285 41.7822L12.6696 41.7233C12.4339 41.4287 12.1981 41.1929 11.9624 40.8983C11.9035 40.8394 11.8446 40.7215 11.7856 40.6626C11.6088 40.4268 11.432 40.25 11.2552 40.0143C11.1963 39.9554 11.1374 39.8375 11.0784 39.7786C10.9017 39.5429 10.6659 39.2482 10.4891 38.9536C5.06749 31.5872 3.12277 21.3921 7.48366 13.0239" id="Shape" fill="#0868AC" fill-rule="evenodd" stroke="none" />
        <path d="M18.7985 12.0217C15.2627 17.1487 15.4394 23.9846 18.2092 29.4063C18.6807 30.2903 19.211 31.1742 19.8003 32.0582C20.3307 32.8243 20.92 33.7083 21.6272 34.3565C21.8629 34.6511 22.1576 34.8869 22.4522 35.1815L22.688 35.4173C22.9826 35.653 23.2183 35.9476 23.513 36.1834L23.5719 36.1834C23.8666 36.478 24.2202 36.7137 24.5148 36.9495C24.5737 37.0084 24.6327 37.0673 24.7505 37.1263C25.1041 37.362 25.3988 37.5977 25.7524 37.8334L25.7524 37.8334C25.9292 37.9513 26.047 38.0102 26.2238 38.1281C26.2827 38.187 26.3417 38.2459 26.4595 38.2459C26.6953 38.4227 26.931 38.5406 27.2256 38.7174C27.2846 38.7174 27.2846 38.7763 27.3435 38.7763C27.5792 38.8942 27.756 39.012 27.9917 39.1299C28.0507 39.1888 28.1685 39.1888 28.2275 39.2478C28.4043 39.3067 28.5221 39.4246 28.6989 39.4835C28.6989 39.4835 28.7579 39.4835 28.7579 39.5424C29.0525 39.7192 29.4061 39.8371 29.7007 40.0139C29.7597 40.0728 29.8186 40.0728 29.9365 40.0728C30.1722 40.1907 30.4669 40.3085 30.7026 40.3675C30.8204 40.4264 30.9383 40.4264 31.0562 40.4853C31.2919 40.5442 31.5276 40.6621 31.7633 40.721C31.8812 40.78 31.9991 40.78 32.058 40.8389C32.4116 40.9568 32.7652 41.0746 33.1187 41.1336C51.2695 44.198 55.4536 30.0545 55.4536 30.0545C51.6231 35.5351 44.2567 38.187 36.3599 36.1244C36.0064 36.0066 35.6528 35.9476 35.2992 35.8298C35.1813 35.7708 35.0635 35.7708 35.0045 35.7119C34.7688 35.653 34.5331 35.5351 34.2974 35.4762C34.1795 35.4173 34.0616 35.4173 33.9438 35.3583C33.7081 35.2405 33.4134 35.1815 33.1777 35.0637C33.1187 35.0047 33.0598 35.0047 32.9419 34.9458C32.6473 34.8279 32.2937 34.6511 31.9991 34.4743C31.8223 34.4154 31.7044 34.2976 31.5276 34.2386C31.4097 34.1797 31.3508 34.1208 31.233 34.1208C31.0562 34.0029 30.8204 33.885 30.6436 33.7672C30.5847 33.7672 30.5258 33.7083 30.5258 33.7083C30.2901 33.5904 30.0543 33.4136 29.8186 33.2368C29.7597 33.1779 29.7007 33.1189 29.5829 33.06C29.4061 32.9421 29.2882 32.8243 29.1114 32.7654C28.7579 32.5296 28.4632 32.2939 28.1096 32.0582C28.0507 31.9993 27.9328 31.9403 27.8739 31.8814C24.397 29.1706 21.6861 25.4579 20.3896 21.2149C19.0342 16.854 19.3289 11.9038 21.6861 7.89648" id="Shape" fill="#0868AC" fill-rule="evenodd" stroke="none" />
        <path d="M31.5866 7.60183C29.4651 10.6662 29.2883 14.4968 30.7616 17.9148C32.2938 21.5095 35.4172 24.3382 39.0709 25.6936C39.2477 25.7526 39.3655 25.8115 39.5423 25.8704C39.6013 25.8704 39.6602 25.9294 39.7191 25.9294C39.9548 25.9883 40.1316 26.0472 40.3674 26.1062C50.5035 28.0509 53.2143 20.9202 53.9804 19.8595C51.5642 23.3364 47.5569 24.1614 42.5478 22.9239C42.1353 22.806 41.7228 22.6882 41.3692 22.5703C40.8977 22.3935 40.4263 22.2167 39.9548 21.981C39.0709 21.5685 38.2458 21.0381 37.4797 20.4488C33.001 17.0897 30.2902 10.6662 33.1778 5.42139" id="Shape" fill="#0868AC" fill-rule="evenodd" stroke="none" />
        <path d="M145.677 67.5934L142.731 74.2526L139.489 74.2526L139.725 68.1827L137.368 74.2526L134.244 74.2526L134.186 67.5934L134.539 65.9434L136.779 65.9434L136.366 72.4847L138.841 65.9434L141.906 65.9434L141.67 72.6026L144.086 65.9434L146.031 65.9434L145.677 67.5934L145.677 67.5934L145.677 67.5934Z" id="Shape" fill="#0868AC" fill-rule="evenodd" stroke="none" />
        <path d="M150.745 69.5971C151.04 68.3006 150.922 68.0649 150.274 68.0649L149.272 68.0649L148.624 71.1293L147.622 74.3116L145.736 74.3116L147.269 67.122L147.504 66.0612L149.213 66.0612L149.449 66.5327C149.449 66.5327 150.451 65.9434 151.394 65.9434C153.456 65.9434 153.28 67.4756 152.867 69.656L150.745 69.5971L150.745 69.5971L150.745 69.5971Z" id="Shape" fill="#0868AC" fill-rule="evenodd" stroke="none" />
        <path d="M156.875 64.9414C156.05 64.9414 155.519 64.7057 155.696 63.7039C155.932 62.702 156.58 62.4663 157.405 62.4663C158.23 62.4663 158.761 62.702 158.525 63.7039C158.348 64.6468 157.7 64.9414 156.875 64.9414L156.875 64.9414L156.875 64.9414ZM155.991 74.2521L154.105 74.2521L154.459 71.0109L155.107 68.0055L153.811 67.7108L154.164 65.9429L157.7 65.9429L155.991 74.2521L155.991 74.2521L155.991 74.2521Z" id="Shape" fill="#0868AC" fill-rule="evenodd" stroke="none" />
        <path d="M164.065 67.7112L161.707 68.0059L161.059 71.1881C160.882 72.0721 160.882 72.3078 161.648 72.3078L163.181 72.3078L162.827 73.9579C162.827 73.9579 161.413 74.3704 160.823 74.3704C158.407 74.3704 158.466 73.0739 158.879 71.0703L159.527 67.9469L158.23 67.6523L158.643 65.8844L159.998 65.8844L160.764 63.8218L162.591 63.8218L162.12 65.8844L164.418 65.8844L164.065 67.7112L164.065 67.7112L164.065 67.7112Z" id="Shape" fill="#0868AC" fill-rule="evenodd" stroke="none" />
        <path d="M168.896 67.8291C167.776 67.8291 167.245 68.4184 167.01 69.4202L170.133 69.1845C170.251 68.4773 170.133 67.8291 168.896 67.8291L168.896 67.8291L168.896 67.8291ZM166.716 70.8936C166.598 71.8954 166.951 72.249 168.248 72.249L171.489 72.249L171.194 73.7812C171.194 73.7812 169.25 74.3116 167.776 74.3116C164.123 74.3116 164.123 72.249 164.594 70.0686C165.066 67.9471 165.891 65.7666 169.427 65.7666C172.962 65.7666 172.962 67.8292 172.137 70.8347L166.716 70.8936L166.716 70.8936L166.716 70.8936Z" id="Shape" fill="#0868AC" fill-rule="evenodd" stroke="none" />
        <path d="M179.505 74.2533L177.619 74.2533L177.973 71.0121L179.269 64.8243L177.973 64.5296L178.385 62.7617L181.921 62.7617L179.505 74.2533L179.505 74.2533L179.505 74.2533Z" id="Shape" fill="#0868AC" fill-rule="evenodd" stroke="none" />
        <path d="M186.28 67.8291C185.161 67.8291 184.63 68.4184 184.395 69.4202L187.518 69.1845C187.636 68.4773 187.518 67.8291 186.28 67.8291L186.28 67.8291L186.28 67.8291ZM184.041 70.8936C183.923 71.8954 184.277 72.249 185.573 72.249L188.815 72.249L188.461 73.7812C188.461 73.7812 186.516 74.3116 185.043 74.3116C181.389 74.3116 181.389 72.249 181.861 70.0686C182.332 67.9471 183.157 65.7666 186.693 65.7666C190.229 65.7666 190.229 67.8292 189.404 70.8347L184.041 70.8936L184.041 70.8936L184.041 70.8936Z" id="Shape" fill="#0868AC" fill-rule="evenodd" stroke="none" />
        <path d="M198.007 67.947L195.002 67.947C193.646 67.947 193.47 68.3595 193.352 68.831L193.293 69.2435L197.654 69.5971C197.654 69.5971 197.654 71.0114 197.477 71.7775C197.241 73.074 195.827 74.4294 193.411 74.4294C192.173 74.4294 190.229 73.958 190.229 73.958L190.582 72.3668L193.588 72.3668C194.943 72.3668 195.12 72.0132 195.179 71.6597L195.297 71.1293L190.995 70.7757C190.995 70.7757 190.818 69.7149 191.054 68.6542C191.407 67.1809 192.704 65.9434 195.179 65.9434C196.416 65.9434 198.361 66.4148 198.361 66.4148L198.007 67.947L198.007 67.947L198.007 67.947Z" id="Shape" fill="#0868AC" fill-rule="evenodd" stroke="none" />
        <path d="M206.14 67.947L203.135 67.947C201.779 67.947 201.603 68.3595 201.485 68.831L201.426 69.2435L205.787 69.5971C205.787 69.5971 205.787 71.0114 205.61 71.7775C205.374 73.074 203.96 74.4294 201.544 74.4294C200.306 74.4294 198.361 73.958 198.361 73.958L198.715 72.3668L201.72 72.3668C203.076 72.3668 203.253 72.0132 203.312 71.6597L203.429 71.1293L199.127 70.7757C199.127 70.7757 198.951 69.7149 199.186 68.6542C199.54 67.1809 200.836 65.9434 203.312 65.9434C204.549 65.9434 206.494 66.4148 206.494 66.4148L206.14 67.947L206.14 67.947L206.14 67.947Z" id="Shape" fill="#0868AC" fill-rule="evenodd" stroke="none" />
        <path d="M208.676 75.5492L207.026 75.5492L207.085 74.3117C206.495 74.2528 206.201 73.8402 206.319 73.1331C206.554 72.1312 207.144 71.8955 208.028 71.8955C208.853 71.8955 209.383 72.1312 209.147 73.1331L208.676 75.5492L208.676 75.5492L208.676 75.5492Z" id="Shape" fill="#0868AC" fill-rule="evenodd" stroke="none" />
        <path d="M219.519 68.0059C218.281 68.0059 217.869 68.713 217.574 70.0684C217.279 71.4239 217.397 72.19 218.576 72.19L220.285 72.19L221.228 68.0059L219.519 68.0059L219.519 68.0059ZM222.288 73.1917L222.052 74.2524L220.343 74.2524L220.108 73.7221C220.108 73.7221 218.634 74.3703 217.574 74.3703C214.981 74.3703 214.863 72.2488 215.334 70.0683C215.806 67.8879 216.807 65.8253 219.4 65.8253C220.343 65.8253 221.581 66.2968 221.581 66.2968L222.642 62.8198L224.527 62.8198L222.288 73.1917L222.288 73.1917L222.288 73.1917Z" id="Shape" fill="#0868AC" fill-rule="evenodd" stroke="none" />
        <path d="M229.006 67.9478C227.415 67.9478 226.943 68.8317 226.649 70.1282C226.413 71.4247 226.531 72.3676 228.063 72.3676C229.713 72.3676 230.185 71.4836 230.479 70.1282C230.774 68.8906 230.656 67.9478 229.006 67.9478L229.006 67.9478L229.006 67.9478ZM227.65 74.3713C224.291 74.3713 224.056 72.3087 224.468 70.1283C224.94 67.9478 226.118 65.8853 229.477 65.8853C232.836 65.8853 233.131 67.9478 232.66 70.1283C232.188 72.3087 231.01 74.3713 227.65 74.3713L227.65 74.3713Z" id="Shape" fill="#0868AC" fill-rule="evenodd" stroke="none" />
        <path d="M246.625 74.2535L246.979 71.0712L247.156 70.1872C247.392 68.9497 247.568 68.0657 246.331 68.0657L245.329 68.0657C245.388 68.7139 245.27 69.4211 245.093 70.1283L244.209 74.2535L242.324 74.2535L242.677 71.0712L242.854 70.1872C243.09 68.9497 243.266 68.0657 242.029 68.0657L241.204 68.0657L239.848 74.2535L237.668 74.2535L239.436 65.9442L241.145 65.9442L241.381 66.4746C241.381 66.4746 242.559 65.8853 243.443 65.8853C244.15 65.8853 244.681 66.2388 244.858 66.5924C245.27 66.3567 246.39 65.8853 247.274 65.8853C249.867 65.8853 249.808 68.0068 249.336 70.1283L248.452 74.2535L246.625 74.2535L246.625 74.2535Z" id="Shape" fill="#0868AC" fill-rule="evenodd" stroke="none" />
        <path d="M255.231 67.9478C253.639 67.9478 253.168 68.8317 252.873 70.1282C252.638 71.4247 252.755 72.3676 254.288 72.3676C255.938 72.3676 256.409 71.4836 256.704 70.1282C256.94 68.8906 256.881 67.9478 255.231 67.9478L255.231 67.9478ZM253.874 74.3713C250.515 74.3713 250.279 72.3087 250.692 70.1283C251.163 67.9478 252.342 65.8853 255.701 65.8853C259.06 65.8853 259.355 67.9478 258.883 70.1283C258.353 72.3087 257.174 74.3713 253.874 74.3713L253.874 74.3713Z" id="Shape" fill="#0868AC" fill-rule="evenodd" stroke="none" />
        <path d="M264.482 69.5971C264.776 68.3006 264.659 68.0649 264.01 68.0649L263.009 68.0649L262.36 71.1293L261.358 74.3116L259.473 74.3116L261.005 67.122L261.241 66.0612L262.95 66.0612L263.185 66.5327C263.185 66.5327 264.187 65.9434 265.13 65.9434C267.193 65.9434 267.016 67.4756 266.603 69.656L264.482 69.5971L264.482 69.5971L264.482 69.5971Z" id="Shape" fill="#0868AC" fill-rule="evenodd" stroke="none" />
        <path d="M271.73 67.8291C270.61 67.8291 270.079 68.4184 269.844 69.4202L272.967 69.1845C273.144 68.4773 272.967 67.8291 271.73 67.8291L271.73 67.8291L271.73 67.8291ZM269.55 70.8936C269.432 71.8954 269.785 72.249 271.082 72.249L274.323 72.249L274.028 73.7812C274.028 73.7812 272.084 74.3116 270.61 74.3116C266.957 74.3116 266.957 72.249 267.428 70.0686C267.9 67.9471 268.725 65.7666 272.261 65.7666C275.796 65.7666 275.796 67.8292 274.971 70.8347L269.55 70.8936L269.55 70.8936L269.55 70.8936Z" id="Shape" fill="#0868AC" fill-rule="evenodd" stroke="none" />
        <path d="M276.74 74.3706C275.915 74.3706 275.385 74.1349 275.561 73.1331C275.738 72.1312 276.386 71.8955 277.27 71.8955C278.036 71.8955 278.626 72.1312 278.39 73.1331C278.154 74.1349 277.506 74.3706 276.74 74.3706L276.74 74.3706Z" id="Shape" fill="#0868AC" fill-rule="evenodd" stroke="none" />
      </g>
    </g>
  </g>
</svg>