<?xml version="1.0" encoding="utf-8"?>
<svg width="366px" height="357.5px" viewBox="0 0 366 357.5" version="1.1" xmlns:xlink="http://www.w3.org/1999/xlink" xmlns="http://www.w3.org/2000/svg">
  <defs>
    <path d="M0 0L177.857 0L177.857 107.912L0 107.912L0 0Z" id="path_1" />
    <path d="M0 0L142.184 0L142.184 106.573L0 106.573L0 0Z" id="path_2" />
    <clipPath id="mask_1">
      <use xlink:href="#path_1" />
    </clipPath>
    <clipPath id="mask_2">
      <use xlink:href="#path_2" />
    </clipPath>
  </defs>
  <g id="Группа-3">
    <path d="M0 0L366 0L366 357.5L0 357.5L0 0Z" id="Прямоугольник-Copy-2" fill="#D3D3D3" fill-opacity="0" fill-rule="evenodd" stroke="none" />
    <g id="Группа-4-Copy" transform="translate(94.791016 32.609375)">
      <g id="gulp" transform="translate(0 194.07324)">
        <path d="M0 0L177.857 0L177.857 107.912L0 107.912L0 0Z" id="Background" fill="none" fill-rule="evenodd" stroke="none" />
        <g clip-path="url(#mask_1)">
          <path d="M47.5475 55.7169C47.4066 55.9282 47.1953 56.4917 46.9135 57.4074C46.5613 58.3936 46.2091 59.591 45.7161 61.0702C45.223 62.5494 44.7299 64.1695 44.2369 66.0009L42.5463 71.5656C41.9124 73.4674 41.4193 75.2988 40.8558 77.1302L39.447 82.0609L38.3905 85.7237L37.8974 87.4847C37.6861 88.0482 37.4748 88.7526 37.1226 89.457C36.7704 90.1613 36.3477 90.8657 35.9251 91.4997C35.432 92.1336 34.939 92.6971 34.3755 93.1198C33.8119 93.5424 33.2484 93.7537 32.6145 93.7537C31.6284 93.7537 30.924 93.4015 30.4309 92.7676C29.9378 92.1336 29.7265 90.8657 29.7265 89.1048L29.7265 87.4847C29.7265 86.9212 30.0083 85.7941 30.4309 84.1741C30.8535 82.554 31.3466 80.7226 31.9805 78.6799C32.5441 76.6371 33.2484 74.524 33.8824 72.3404L35.7842 66.4235C34.0937 68.2549 32.3327 70.0863 30.4309 71.8473C28.5291 73.6787 26.5568 75.2988 24.5845 76.7076C22.5418 78.1163 20.4991 79.3138 18.4563 80.2295C16.4136 81.1452 14.4413 81.5678 12.5395 81.5678C10.3559 81.5678 8.52451 81.0748 6.97487 80.0886C5.42522 79.1025 4.08688 77.905 3.10074 76.3554C2.11461 74.8057 1.33978 73.0448 0.846711 71.1429C0.564957 69.3115 0.283203 67.3392 0.283203 65.4374L0.283203 64.733C0.283203 64.5217 0.283203 64.3104 0.353642 64.0991C0.494519 60.5771 1.05803 56.9848 1.83285 53.322C2.67811 49.5887 3.73469 45.9259 5.07302 42.2631C6.41136 38.6003 7.961 35.0079 9.72197 31.486C11.5534 28.105 13.4552 24.7943 15.4979 21.6951C17.5406 18.5958 19.7242 15.7078 22.0487 13.1016C24.3732 10.4953 26.7681 8.24129 29.163 6.33945C31.6284 4.43761 34.0937 2.9584 36.5591 1.90182C39.0244 0.84524 41.4897 0.281738 43.9551 0.281738C46.7726 0.281738 49.5197 1.05656 52.126 2.60621C54.7322 4.15586 57.1975 6.62121 59.522 10.0727C60.0151 10.8475 60.3673 11.6223 60.5082 12.3972C60.649 13.172 60.7195 13.9468 60.7195 14.5808C60.7195 16.2009 60.2968 17.5392 59.522 18.4549C58.7472 19.441 57.8315 19.8637 56.7045 19.8637C55.7183 19.8637 54.8026 19.3706 53.9574 18.314C53.1121 17.2574 52.126 15.7782 51.1398 13.8764C50.1537 12.1154 49.0971 10.8475 47.8997 10.0727C46.7022 9.29788 45.4343 8.94568 44.0255 8.94568C41.8419 8.94568 39.5879 9.86138 37.1226 11.6928C34.6572 13.5242 32.2623 15.8487 29.8674 18.8071C27.4725 21.7655 25.148 25.1465 22.9644 28.9502C20.7808 32.7539 18.8085 36.628 17.118 40.643C15.4275 44.658 14.0892 48.673 13.103 52.5471C12.1169 56.4213 11.6238 59.8728 11.6238 62.9721C11.6238 64.0286 11.6943 65.0852 11.8351 66.1418C11.976 67.2688 12.2578 68.1845 12.61 69.1002C12.9621 70.0159 13.5257 70.7203 14.23 71.2838C14.9344 71.8473 15.7797 72.1291 16.7658 72.1291C17.8928 72.1291 19.2312 71.7769 20.6399 71.0021C22.1192 70.2272 23.5984 69.2411 25.148 67.9732C26.6977 66.7053 28.3177 65.2965 29.8674 63.7469C31.417 62.1972 32.9667 60.5771 34.305 58.9571C35.6434 57.337 36.9113 55.7873 37.8974 54.3081C38.954 52.8289 39.7288 51.561 40.2923 50.434L44.3777 37.3324C44.8708 35.9236 45.5752 34.9375 46.4205 34.374C47.2657 33.8105 48.111 33.4583 49.0267 33.4583C49.4493 33.4583 49.8719 33.5287 50.2946 33.6696C50.7172 33.8105 51.1398 34.0218 51.492 34.374C51.8442 34.6558 52.126 35.0784 52.3373 35.5715C52.5486 36.0645 52.6895 36.628 52.6895 37.3324C52.6895 39.0934 52.5486 40.7839 52.2669 42.2631C51.9851 43.8128 51.5625 45.292 51.0694 46.7712C50.6468 48.2504 50.0833 49.6592 49.5198 51.1384C48.9562 52.6176 48.3927 54.1672 47.8292 55.7873L47.5475 55.7169L47.5475 55.7169ZM106.083 66.4944C104.745 68.3258 103.124 70.0867 101.363 71.8477C99.5321 73.6086 97.7007 75.1583 95.7988 76.4966C93.897 77.835 91.9952 78.962 90.1638 79.7368C88.3324 80.5821 86.6418 81.0047 85.1626 81.0047C83.6834 81.0047 82.486 80.5116 81.4998 79.5255C80.5137 78.5393 80.091 76.8488 80.091 74.4539C80.091 72.7634 80.3728 70.7911 80.8659 68.5371C80.091 69.9458 79.0345 71.425 77.837 72.8338C76.6396 74.313 75.2308 75.6514 73.6811 76.8488C72.1315 78.0463 70.3705 79.0324 68.4687 79.7368C66.5668 80.4412 64.4537 80.8638 62.1996 80.8638C61.2135 80.8638 60.2274 80.7229 59.2412 80.4412C58.2551 80.1594 57.4098 79.7368 56.7054 79.1028C56.0011 78.4689 55.4375 77.6236 54.9445 76.5671C54.5219 75.5105 54.3105 74.1721 54.3105 72.6225L54.4514 70.932C54.5923 69.8754 54.9445 68.1144 55.6489 65.79C56.3532 63.4655 57.3394 60.4366 58.7482 56.7034C60.1569 52.9701 62.0588 48.5325 64.5946 43.2496C65.2285 41.8408 65.9329 40.8547 66.8486 40.2208C67.6939 39.5868 68.6096 39.3051 69.5957 39.3051C70.0183 39.3051 70.441 39.3755 70.934 39.5164C71.3567 39.5868 71.7793 39.7981 72.2019 40.0799C72.6246 40.3616 72.9063 40.7138 73.1881 41.1365C73.3994 41.4887 73.5403 41.9817 73.5403 42.5452C73.5403 42.8974 73.4698 43.2496 73.3994 43.5314C73.1881 44.1653 72.9063 44.9401 72.4132 45.9263L70.5818 49.3778C69.8775 50.6457 69.1731 52.0544 68.3983 53.5337C67.6234 55.0129 66.919 56.6329 66.2851 58.1826C65.6511 59.8027 65.0876 61.4932 64.5946 63.1133C64.1015 64.8038 63.8197 66.4239 63.7493 67.9736C63.7493 68.6779 63.8902 69.2415 64.1719 69.805C64.4537 70.3685 65.0172 70.6502 65.7216 70.6502C67.6939 70.6502 69.6661 70.0163 71.4975 68.6779C73.3289 67.3396 75.0195 65.7195 76.5691 63.7472C78.1188 61.775 79.5275 59.6618 80.7954 57.4078C82.0633 55.1537 83.0495 53.111 83.8947 51.2796C84.4582 50.0117 85.0217 48.6734 85.4444 47.2646C85.867 45.8558 86.3601 44.5175 86.9236 43.3201C87.4166 42.1226 88.0506 41.066 88.755 40.2912C89.3889 39.5164 90.2342 39.0937 91.2908 39.0937C92.3474 39.0937 93.263 39.5164 93.897 40.3616C94.5309 41.2069 94.8831 42.193 94.8831 43.3905C94.8831 44.0244 94.6718 44.9401 94.2492 46.0672C93.8266 47.1942 93.3335 48.5325 92.6995 50.0117L90.6568 54.8015C89.882 56.4921 89.2481 58.1826 88.6141 59.9436C87.9802 61.6341 87.4167 63.3951 86.994 65.0151C86.5714 66.7057 86.3601 68.2553 86.3601 69.6641C86.3601 71.0729 87.0645 71.6364 88.4028 71.6364C89.3889 71.6364 90.5864 71.3546 91.9952 70.6502C93.4039 70.0163 94.8831 69.1006 96.4328 67.9031C97.9824 66.7057 99.5321 65.2969 101.082 63.6768C102.631 62.0567 104.04 60.3662 105.238 58.4644L105.731 65.9308L106.083 66.4944L106.083 66.4944Z" id="Shape" fill="#00AEEF" fill-rule="evenodd" stroke="#00AEEF" stroke-width="1" />
          <path d="M107.489 63.7466C107.137 64.5919 106.855 65.578 106.503 66.7051C106.15 67.8321 106.009 68.8182 106.009 69.6635C106.009 70.227 106.08 70.6496 106.291 71.0018C106.503 71.354 106.855 71.4949 107.348 71.4949C107.982 71.4949 108.827 71.2836 109.813 70.7905C110.799 70.2974 111.856 69.7339 112.983 68.9591C114.11 68.1843 115.307 67.339 116.505 66.3529C117.702 65.3667 118.97 64.3102 120.168 63.324C121.365 62.2674 122.492 61.2109 123.619 60.1543C124.746 59.0977 125.732 58.1116 126.578 57.2663C126.789 56.9845 127.141 56.8437 127.423 56.7028C127.775 56.5619 128.057 56.4915 128.268 56.4915C128.902 56.4915 129.395 56.7028 129.818 57.2663C130.24 57.7594 130.452 58.4637 130.452 59.309C130.452 60.0838 130.24 60.9291 129.818 61.8448C129.395 62.7605 128.62 63.6762 127.564 64.5919C125.591 66.7051 123.619 68.7478 121.576 70.7201C119.604 72.6219 117.561 74.3829 115.589 75.8621C113.617 77.3413 111.645 78.4683 109.672 79.384C107.7 80.2293 105.798 80.6519 103.967 80.6519C102.699 80.6519 101.642 80.4406 100.797 80.0179C99.9518 79.5953 99.3178 79.0318 98.7543 78.3274C98.2613 77.623 97.9091 76.7778 97.6977 75.8621C97.4864 74.8759 97.416 73.8898 97.416 72.8332C97.416 71.0018 97.6273 69.1704 98.1204 67.2686C98.6134 65.3667 99.1065 63.6058 99.7405 62.0561C100.867 59.1681 101.924 56.3506 103.051 53.533L106.15 45.7848L120.168 10.5655C120.731 9.15676 121.436 8.17062 122.351 7.53667C123.337 6.97316 124.253 6.69141 125.239 6.69141C126.225 6.69141 127.071 6.97316 127.845 7.60711C128.62 8.24105 129.043 9.22719 129.043 10.636C129.043 11.2699 128.902 11.9743 128.62 12.7491C128.339 13.4535 128.057 14.2283 127.634 15.0736C126.859 16.7641 125.944 18.8773 124.887 21.3426L121.365 29.5135C120.168 32.4719 118.9 35.5008 117.632 38.6705L113.828 47.9684C112.56 50.9973 111.433 53.8148 110.377 56.4915L107.63 63.4649L107.489 63.7466L107.489 63.7466Z" id="Shape" fill="#00AEEF" fill-rule="evenodd" stroke="#00AEEF" stroke-width="1" />
          <path d="M173.209 53.8152C173.632 53.5334 174.055 53.2517 174.407 53.1108C174.759 52.8995 175.111 52.8291 175.463 52.8291C176.168 52.8291 176.661 53.1108 177.013 53.7448C177.365 54.3787 177.577 55.0831 177.577 55.9988C177.577 56.9145 177.365 57.9006 176.943 58.8868C176.52 59.8729 175.957 60.7182 175.111 61.3521C171.801 64.3105 168.842 66.9872 166.306 69.3821C163.7 71.777 161.305 73.8902 158.981 75.5807C156.656 77.3417 154.402 78.68 152.219 79.6661C150.035 80.6523 147.711 81.1454 145.175 81.1454C142.85 81.1454 141.019 80.6523 139.751 79.5957C138.483 78.6096 137.849 77.2008 137.849 75.3694L137.849 74.9468C137.849 74.8763 137.92 74.665 137.92 74.5241C138.061 73.4676 138.554 72.1997 139.399 70.7205C140.244 69.3117 141.23 67.8325 142.428 66.2828C143.625 64.7332 144.893 63.1835 146.231 61.6339C147.57 60.0842 148.767 58.605 149.965 57.1963C151.092 55.7875 152.007 54.5196 152.782 53.3221C153.557 52.1951 153.909 51.209 153.909 50.5046C153.909 50.082 153.768 49.7298 153.487 49.448C153.134 49.2367 152.641 49.0958 151.937 49.0958C150.669 49.0958 149.401 49.448 148.063 50.082C146.725 50.7159 145.386 51.6316 144.118 52.6882C142.85 53.8152 141.583 55.0127 140.385 56.4214C139.188 57.8302 138.061 59.3094 136.934 60.7886C135.877 62.3383 134.891 63.8175 133.975 65.3671C133.13 66.9168 132.355 68.3255 131.721 69.5934L130.946 71.284L129.89 73.8197L128.622 76.6373L127.424 79.3844L126.438 81.7089C126.157 82.4133 125.945 82.8359 125.804 83.1176C125.663 83.4698 125.452 84.1038 125.1 85.0195L123.832 88.2596L122.353 92.1338L120.944 95.9374L119.747 99.1776C119.394 100.093 119.183 100.727 119.113 101.009C118.76 101.925 118.408 102.84 117.986 103.686C117.563 104.531 117.14 105.235 116.577 105.869C116.013 106.503 115.45 106.996 114.745 107.419C114.041 107.771 113.266 107.982 112.421 107.982C111.294 107.982 110.378 107.701 109.674 107.208C108.969 106.715 108.547 105.658 108.547 104.179C108.547 103.474 108.617 102.7 108.829 101.925C108.969 101.15 109.251 100.446 109.533 99.6707C109.744 98.8959 110.096 98.1915 110.378 97.4871C110.66 96.7827 110.942 96.0783 111.153 95.3739C112.773 91.7111 114.534 88.0483 116.225 84.3151C117.915 80.5819 119.606 76.9895 121.226 73.3971C122.846 69.8048 124.325 66.2828 125.663 62.7609C127.002 59.3094 128.129 55.9284 129.044 52.7586L130.031 49.9411C130.453 48.7436 130.946 47.5462 131.51 46.4192C132.073 45.2921 132.707 44.2356 133.412 43.3903C134.116 42.545 134.891 42.1224 135.666 42.1224C136.934 42.1224 137.849 42.4042 138.413 42.9677C138.976 43.6016 139.258 44.3764 139.258 45.5035C139.258 45.7148 139.258 46.067 139.188 46.56C139.117 47.0531 139.047 47.5462 138.906 48.1097L138.624 49.5889C138.554 50.082 138.413 50.4342 138.342 50.6455C139.469 49.3776 140.737 48.1801 142.076 46.9827C143.414 45.7852 144.823 44.6582 146.231 43.6721C147.64 42.6859 149.119 41.8407 150.599 41.2067C152.078 40.5728 153.557 40.291 155.036 40.291C156.093 40.291 157.079 40.4319 158.136 40.7136C159.122 40.9954 160.037 41.418 160.812 41.9815C161.658 42.545 162.291 43.2494 162.785 44.0947C163.278 44.94 163.559 45.9261 163.559 47.0531C163.559 48.5323 163.137 50.1524 162.432 51.8429C161.658 53.5335 160.742 55.2944 159.544 56.9849C158.417 58.7459 157.149 60.366 155.811 62.0565C154.473 63.6766 153.275 65.1558 152.078 66.4942L149.119 69.9456C148.345 70.8613 147.922 71.4953 147.922 71.8475C147.922 72.2701 148.063 72.6223 148.345 72.9041C148.626 73.1858 149.119 73.3267 149.753 73.3267C150.317 73.3267 151.092 73.0449 152.078 72.411C153.134 71.777 154.543 70.7909 156.375 69.3117C158.206 67.8325 160.601 65.9306 163.418 63.4653C166.236 60.9999 169.758 57.9711 173.914 54.2378L173.209 53.8152L173.209 53.8152Z" id="Shape" fill="#00AEEF" fill-rule="evenodd" stroke="#00AEEF" stroke-width="1" />
        </g>
      </g>
      <g id="sass" transform="translate(17.835934 0)">
        <path d="M0 0L142.184 0L142.184 106.573L0 106.573L0 0Z" id="Background" fill="none" fill-rule="evenodd" stroke="none" />
        <g clip-path="url(#mask_2)">
          <path d="M122.355 61.2546C117.398 61.2805 113.089 62.4745 109.481 64.2395C108.158 61.618 106.834 59.282 106.6 57.5689C106.341 55.5703 106.029 54.3504 106.341 51.9625C106.652 49.5746 108.054 46.1744 108.028 45.9149C108.002 45.6553 107.716 44.4354 104.861 44.4094C102.006 44.3835 99.5404 44.9545 99.2549 45.7072C98.9694 46.4599 98.4243 48.173 98.0609 49.938C97.5678 52.5335 92.3507 61.7996 89.3658 66.6533C88.4054 64.7586 87.5749 63.0974 87.3932 61.7737C87.1336 59.7751 86.8222 58.5552 87.1336 56.1673C87.4451 53.7794 88.8467 50.3792 88.8207 50.1197C88.7948 49.8601 88.5093 48.6402 85.6542 48.6142C82.7991 48.5883 80.3333 49.1593 80.0478 49.912C79.7623 50.6647 79.4508 52.4297 78.8538 54.1428C78.2568 55.8558 71.3267 71.3253 69.5098 75.3225C68.5754 77.373 67.7708 79.0082 67.1998 80.1243L67.1998 80.1243C67.1998 80.1243 67.1738 80.2021 67.096 80.3319C66.6028 81.2923 66.3173 81.8114 66.3173 81.8114L66.3173 81.8373C65.928 82.5381 65.5127 83.187 65.305 83.187C65.1493 83.187 64.8638 81.3182 65.3569 78.7746C66.3952 73.4018 68.8609 65.0441 68.835 64.7586C68.835 64.6028 69.3022 63.1493 67.2257 62.3966C65.2012 61.6439 64.4744 62.8898 64.2928 62.8898C64.1111 62.8898 63.9813 63.331 63.9813 63.331C63.9813 63.331 66.2394 53.9351 59.6727 53.9351C55.5717 53.9351 49.9134 58.4254 47.1102 62.4745C45.3452 63.4348 41.5817 65.4853 37.5586 67.6916C36.0272 68.5481 34.4439 69.4046 32.9644 70.2092C32.8606 70.1054 32.7568 69.9756 32.653 69.8718C24.7106 61.3844 10.0198 55.3886 10.6427 43.9942C10.8763 39.8413 12.3038 28.9399 38.8563 15.7026C60.7109 4.93108 78.1011 7.91596 81.1119 14.5346C85.4206 23.9824 71.7939 41.5284 49.2126 44.072C40.5954 45.0324 36.0791 41.7101 34.9371 40.4642C33.7431 39.1664 33.5614 39.0886 33.1202 39.3481C32.3934 39.7374 32.8606 40.9054 33.1202 41.5803C33.795 43.3453 36.5723 46.4599 41.2702 47.9913C45.4231 49.341 55.5198 50.0937 67.7449 45.3698C81.4234 40.0749 92.1171 25.3581 88.9765 13.0292C85.8359 0.518634 65.0714 -3.6083 45.4231 3.37374C33.7431 7.52663 21.0768 14.0674 11.9664 22.5808C1.14299 32.7035 -0.570077 41.5024 0.130722 45.1881C2.64841 58.2697 20.6875 66.7831 27.9031 73.0903C27.5398 73.298 27.2023 73.4796 26.9168 73.6354C23.309 75.4263 9.55258 82.616 6.12645 90.221C2.23312 98.8382 6.74938 105.016 9.73427 105.846C19.0004 108.416 28.5261 103.796 33.6393 96.1648C38.7525 88.5339 38.1296 78.6188 35.7677 74.0766C35.7417 74.0247 35.7157 73.9728 35.6638 73.9209C36.5982 73.3758 37.5586 72.8048 38.493 72.2597C40.3358 71.1696 42.1527 70.1573 43.71 69.3268C42.8276 71.7406 42.1787 74.6217 41.8672 78.7746C41.4779 83.6542 43.4764 89.9874 46.098 92.4791C47.266 93.5692 48.6416 93.5952 49.5241 93.5952C52.5868 93.5952 53.9625 91.0515 55.4939 88.0407C57.3627 84.355 59.0498 80.0723 59.0498 80.0723C59.0498 80.0723 56.9474 91.6485 62.6576 91.6485C64.734 91.6485 66.8364 88.9491 67.7708 87.5735L67.7708 87.5994C67.7708 87.5994 67.8227 87.5216 67.9266 87.3399C68.1342 87.0025 68.264 86.7948 68.264 86.7948L68.264 86.7429C69.0946 85.2894 70.9633 81.993 73.7406 76.5164C77.3224 69.4565 80.7745 60.6316 80.7745 60.6316C80.7745 60.6316 81.086 62.786 82.1502 66.3678C82.7731 68.4702 84.0709 70.7803 85.1091 73.0124C84.2785 74.1804 83.7594 74.8293 83.7594 74.8293L83.7854 74.8553C83.1105 75.7378 82.3838 76.6981 81.5792 77.6325C78.75 81.0067 75.3758 84.8741 74.9086 85.9902C74.3635 87.3139 74.4933 88.2743 75.5315 89.053C76.2842 89.624 77.6339 89.7018 79.0096 89.624C81.5532 89.4423 83.3441 88.8194 84.2266 88.43C85.6022 87.9369 87.2115 87.1842 88.7169 86.0681C91.4942 84.0176 93.1813 81.0846 93.0255 77.2172C92.9477 75.0889 92.2469 72.9605 91.3903 70.962C91.6499 70.5986 91.8835 70.2352 92.1431 69.8718C96.5295 63.4608 99.9297 56.4268 99.9297 56.4268C99.9297 56.4268 100.241 58.5812 101.305 62.163C101.824 63.9799 102.889 65.9525 103.823 67.8732C99.6961 71.2215 97.1525 75.1148 96.244 77.6585C94.6088 82.3824 95.8806 84.5107 98.2945 85.0039C99.3846 85.2375 100.942 84.7184 102.084 84.2252C103.538 83.758 105.251 82.9534 106.886 81.7594C109.663 79.709 112.336 76.8539 112.181 72.9865C112.103 71.2215 111.636 69.4825 110.987 67.7954C114.491 66.3419 119.007 65.5372 124.769 66.2121C137.124 67.6656 139.564 75.3744 139.097 78.6188C138.629 81.8633 136.034 83.6283 135.177 84.1733C134.321 84.7184 134.035 84.9001 134.113 85.2894C134.217 85.8604 134.632 85.8345 135.359 85.7306C136.371 85.549 141.848 83.1091 142.081 77.1394C142.471 69.5084 135.203 61.1767 122.355 61.2546L122.355 61.2546ZM27.0465 93.3873C22.9456 97.8516 17.2354 99.5387 14.7696 98.1112C12.1221 96.5798 13.1603 89.9871 18.1957 85.2632C21.2585 82.3821 25.2037 79.7087 27.8252 78.0735C28.4222 77.7101 29.3047 77.191 30.3689 76.5421C30.5505 76.4383 30.6544 76.3864 30.6544 76.3864L30.6544 76.3864L31.2773 75.9971C33.1201 82.7455 31.3552 88.6893 27.0465 93.3873L27.0465 93.3873ZM56.8958 73.0906C55.4682 76.5686 52.4833 85.4714 50.6665 84.9782C49.1091 84.5629 48.1488 77.8145 50.355 71.1439C51.4711 67.7956 53.833 63.7985 55.2087 62.2412C57.4409 59.7494 59.9066 58.9189 60.5036 59.9311C61.2563 61.2549 57.7783 70.9103 56.8958 73.0906L56.8958 73.0906ZM81.5261 84.8739C80.9291 85.1854 80.3581 85.393 80.0985 85.2373C79.9169 85.1335 80.3581 84.7182 80.3581 84.7182C80.3581 84.7182 83.4468 81.3959 84.6667 79.8905C85.3675 79.008 86.1981 77.9698 87.0806 76.8018L87.0806 77.1392C87.0806 81.1104 83.2392 83.7838 81.5261 84.8739L81.5261 84.8739ZM100.527 80.5394C100.086 80.2279 100.164 79.1897 101.644 75.9453C102.215 74.6735 103.564 72.5451 105.874 70.4946C106.134 71.3252 106.316 72.1298 106.29 72.8825C106.264 77.8919 102.682 79.7607 100.527 80.5394L100.527 80.5394Z" id="Shape" fill="#00AEEF" fill-rule="evenodd" stroke="none" />
        </g>
      </g>
    </g>
  </g>
</svg>