<?xml version="1.0" encoding="utf-8"?>
<svg width="440px" height="115.57178px" viewBox="0 0 440 115.57178" version="1.1" xmlns:xlink="http://www.w3.org/1999/xlink" xmlns="http://www.w3.org/2000/svg">
  <defs>
    <path d="M0 0L440 0L440 115.572L0 115.572L0 0Z" id="path_1" />
    <clipPath id="mask_1">
      <use xlink:href="#path_1" />
    </clipPath>
  </defs>
  <g id="logo_h-Copy">
    <path d="M0 0L440 0L440 115.572L0 115.572L0 0Z" id="Background" fill="none" fill-rule="evenodd" stroke="none" />
    <g clip-path="url(#mask_1)">
      <path d="M93.3096 54.271L93.3096 52.6008L99.9408 52.6008L99.9408 55.0189C99.9408 56.8387 100.24 58.2098 100.813 59.0823C101.387 59.9549 102.434 60.4036 103.954 60.4036C105.226 60.4036 106.173 59.905 106.871 58.9328C107.544 57.9605 107.893 56.5894 107.893 54.8444L107.893 48.7367L102.334 48.7367L102.334 43.4268L107.893 43.4268L107.893 40.56C107.893 38.5656 107.619 37.0948 107.046 36.1226C106.497 35.1503 105.45 34.6517 103.954 34.6517C102.459 34.6517 101.436 35.1503 100.838 36.1475C100.24 37.1447 99.9407 38.6155 99.9407 40.56L93.3096 40.56L93.3096 39.0891C93.3096 36.1226 94.2319 33.7543 96.0767 31.9843C97.9215 30.2143 100.539 29.3169 103.979 29.3169C107.419 29.3169 110.162 30.1894 111.982 31.9594C113.801 33.7294 114.699 36.0976 114.699 39.0642L114.699 53.9719C114.699 57.9855 113.801 60.9271 112.031 62.8466C110.261 64.7413 107.594 65.7135 104.079 65.7135C100.564 65.7135 97.6971 64.816 95.9521 62.9962C94.207 61.2013 93.3345 58.2846 93.3345 54.271L93.3096 54.271ZM118.364 59.5563L120.433 59.5563C121.605 56.8889 122.427 54.2713 122.876 51.6787C123.325 49.0861 123.549 45.4713 123.549 40.8096L123.549 29.9155L143.393 29.9155L143.393 59.5563L145.512 59.5563L145.512 71.8963L139.205 71.8963L139.205 64.8662L124.646 64.8662L124.646 71.8963L118.339 71.8963L118.339 59.5563L118.364 59.5563ZM126.939 59.5565L136.786 59.5565L136.786 35.2256L130.081 35.2256L130.081 43.1531C130.081 46.9423 129.831 50.0584 129.333 52.4267C128.834 54.8199 128.036 57.1882 126.939 59.5315L126.939 59.5565ZM149.376 64.8662L149.376 29.9155L168.073 29.9155L168.073 35.2254L156.032 35.2254L156.032 43.3773L167.026 43.3773L167.026 48.6872L156.032 48.6872L156.032 59.5314L168.073 59.5314L168.073 64.8413L149.376 64.8413L149.376 64.8662ZM174.504 65.5139C172.958 65.5139 171.612 65.3644 170.49 65.0652L170.49 60.2539C171.014 60.4284 171.712 60.5032 172.609 60.5032C173.357 60.5032 173.93 60.2539 174.279 59.7304C174.653 59.2069 174.928 57.9604 175.152 55.9411C175.376 53.9219 175.476 50.8556 175.476 46.6924L175.476 29.8901L195.719 29.8901L195.719 64.8409L189.087 64.8409L189.087 35.225L182.008 35.225L182.008 48.6369C182.008 54.595 181.434 58.9077 180.312 61.5502C179.191 64.1927 177.271 65.5139 174.529 65.5139L174.529 65.5139L174.504 65.5139ZM200.828 64.8662L200.828 29.9155L207.459 29.9155L207.459 43.3773L213.019 43.3773C214.764 43.3773 216.309 43.9008 217.705 44.9478C219.101 45.9948 220.148 47.2912 220.871 48.8368C221.594 50.4073 221.943 52.0028 221.943 53.673C221.943 57.0883 221.195 59.7807 219.724 61.8249C218.254 63.8441 216.209 64.8662 213.617 64.8662L200.828 64.8662L200.828 64.8662ZM207.46 59.8802L211.299 59.8802C212.57 59.8802 213.543 59.4564 214.191 58.6088C214.839 57.7612 215.163 56.3901 215.163 54.4706C215.163 52.7255 214.814 51.3295 214.141 50.2824C213.468 49.2354 212.496 48.7119 211.299 48.7119L207.46 48.7119L207.46 59.8802L207.46 59.8802ZM226.531 64.8662L226.531 29.9155L238.995 29.9155C240.491 29.9155 241.837 30.1399 242.984 30.6135C244.131 31.0872 245.053 31.7104 245.726 32.5331C246.399 33.3558 246.898 34.2532 247.247 35.2504C247.571 36.2475 247.746 37.3195 247.746 38.4662C247.746 40.2362 247.272 41.8815 246.349 43.4022C245.427 44.9229 244.23 45.8203 242.76 46.1195C244.48 46.8175 245.751 47.8645 246.599 49.1858C247.446 50.532 247.87 52.3019 247.87 54.5456C247.87 57.6866 247.197 60.1796 245.826 62.0742C244.455 63.9688 242.485 64.8912 239.893 64.8912L226.506 64.8912L226.531 64.8662ZM233.161 44.1003L236.626 44.1003C239.393 44.1003 240.765 42.5297 240.765 39.3637C240.765 37.843 240.465 36.7212 239.867 35.9733C239.269 35.2504 238.222 34.8765 236.751 34.8765L233.161 34.8765L233.161 44.0753L233.161 44.1003ZM233.161 59.8808L237.424 59.8808C238.695 59.8808 239.618 59.457 240.216 58.6094C240.814 57.7618 241.114 56.3907 241.114 54.4711C241.114 52.7261 240.814 51.4048 240.191 50.4825C239.568 49.5601 238.646 49.0864 237.449 49.0864L233.186 49.0864L233.186 59.8808L233.161 59.8808ZM252.033 64.8662L252.033 29.9155L270.73 29.9155L270.73 35.2254L258.689 35.2254L258.689 43.3773L269.683 43.3773L269.683 48.6872L258.689 48.6872L258.689 59.5314L270.73 59.5314L270.73 64.8413L252.033 64.8413L252.033 64.8662ZM274.868 64.8662L274.868 29.9155L281.051 29.9155L281.051 43.0283C281.051 48.7371 280.776 52.8254 280.228 55.3433L280.278 55.3433L289.975 29.9155L297.13 29.9155L297.13 64.8662L290.948 64.8662L290.948 51.6039C290.948 46.0696 291.222 42.0311 291.77 39.5133L291.72 39.5133L282.023 64.8662L274.868 64.8662L274.868 64.8662ZM285.664 27.6968C281.102 27.6968 278.833 25.2786 278.833 20.4424L282.273 20.4424C282.273 21.7387 282.572 22.7109 283.196 23.409C283.819 24.082 284.666 24.4311 285.763 24.4311C286.86 24.4311 287.708 24.082 288.331 23.409C288.954 22.7359 289.278 21.7387 289.278 20.4424L292.694 20.4424C292.694 25.2786 290.35 27.6968 285.664 27.6968L285.664 27.6968L285.664 27.6968ZM301.743 54.0222L301.743 41.3083C301.743 37.2449 302.641 34.2285 304.46 32.2591C306.28 30.2896 308.998 29.2925 312.637 29.2925C316.003 29.2925 318.595 30.1899 320.39 31.9848C322.21 33.7797 323.107 36.2976 323.107 39.5384L323.107 41.2834L316.476 41.2834L316.476 40.5106C316.476 38.3418 316.177 36.7962 315.579 35.9236C314.981 35.0511 313.983 34.6024 312.562 34.6024C311.141 34.6024 310.094 35.0511 309.471 35.9486C308.848 36.846 308.549 38.3667 308.549 40.5106L308.549 54.3214C308.549 56.565 308.848 58.1355 309.446 59.033C310.045 59.9304 311.067 60.3792 312.513 60.3792C313.958 60.3792 314.881 59.9304 315.529 59.0081C316.177 58.0857 316.476 56.5401 316.476 54.3463L316.476 52.4517L323.107 52.4517L323.107 53.9474C323.107 61.8001 319.592 65.714 312.537 65.714C310.842 65.714 309.372 65.4897 308.075 65.0659C306.779 64.6421 305.757 64.0936 304.959 63.3956C304.161 62.6976 303.513 61.85 303.039 60.803C302.541 59.7809 302.217 58.7089 302.017 57.637C301.818 56.565 301.743 55.3684 301.743 54.0222L301.743 54.0222ZM326.972 54.6204L326.972 50.2578L339.312 50.2578L339.312 54.6204L326.972 54.6204L326.972 54.6204ZM341.231 64.8662L350.156 29.9155L359.056 29.9155L366.809 64.8662L359.629 64.8662L358.009 55.7671L350.505 55.7671L348.436 64.8662L341.256 64.8662L341.231 64.8662ZM351.326 50.5815L357.185 50.5815L354.517 34.3276L351.326 50.5815L351.326 50.5815ZM369.5 64.8662L369.5 29.9155L387.873 29.9155L387.873 35.2254L376.156 35.2254L376.156 64.8662L369.525 64.8662L369.5 64.8662ZM391.289 64.8662L391.289 29.9155L403.828 29.9155C405.673 29.9155 407.294 30.3643 408.715 31.2866C410.136 32.209 411.207 33.4305 411.93 34.9762C412.653 36.5218 413.027 38.2169 413.027 40.1116C413.027 42.0062 412.653 43.8011 411.905 45.3716C411.158 46.9671 410.061 48.2385 408.64 49.1858C407.219 50.1331 405.573 50.6068 403.729 50.6068L397.92 50.6068L397.92 64.8413L391.289 64.8413L391.289 64.8662ZM397.92 45.4716L401.26 45.4716C402.906 45.4716 404.152 45.0229 405 44.1254C405.822 43.228 406.246 41.9317 406.246 40.2614C406.246 38.5912 405.822 37.3198 405 36.4223C404.152 35.5498 402.931 35.1011 401.26 35.1011L397.92 35.1011L397.92 45.4716L397.92 45.4716ZM428.733 65.714C421.154 65.714 417.365 61.8001 417.365 53.9474L417.365 41.2834C417.365 39.1395 417.639 37.2947 418.188 35.7242C418.736 34.1536 419.534 32.9072 420.556 31.9848C421.578 31.0624 422.775 30.3893 424.121 29.9655C425.467 29.5417 426.988 29.3174 428.708 29.3174C430.428 29.3174 431.999 29.5168 433.32 29.9406C434.641 30.3644 435.813 31.0126 436.835 31.9349C437.857 32.8573 438.63 34.0789 439.153 35.6494C439.677 37.2199 439.951 39.0896 439.951 41.2585L439.951 53.9225C439.951 56.0913 439.677 57.961 439.153 59.5066C438.63 61.0522 437.857 62.2738 436.835 63.1463C435.813 64.0188 434.641 64.667 433.32 65.0658C431.999 65.4647 430.453 65.6641 428.708 65.6641L428.708 65.6641L428.733 65.714ZM424.145 54.7692C424.145 58.5086 425.665 60.4032 428.731 60.4032C430.177 60.4032 431.274 59.9296 432.047 58.9574C432.82 57.9851 433.194 56.614 433.194 54.7692L433.194 40.5845C433.194 38.7149 432.795 37.244 432.022 36.197C431.249 35.15 430.152 34.6265 428.731 34.6265C425.665 34.6265 424.145 36.5709 424.145 40.4848L424.145 54.7692L424.145 54.7692Z" id="Shape" fill="#90989C" fill-rule="evenodd" stroke="none" />
      <path d="M100.588 90.2188C98.918 90.2188 97.5468 89.6703 96.4749 88.5734C95.4029 87.4766 94.8545 86.1304 94.8545 84.5349C94.8545 82.9395 95.4029 81.5933 96.4749 80.4964C97.5468 79.3995 98.918 78.8511 100.588 78.8511C101.585 78.8511 102.508 79.1004 103.355 79.574C104.203 80.0477 104.851 80.6958 105.325 81.5185L104.053 82.2664C103.729 81.6681 103.281 81.1695 102.657 80.8205C102.034 80.4715 101.361 80.272 100.588 80.272C99.3168 80.272 98.2947 80.6709 97.497 81.4936C96.6993 82.3162 96.3004 83.3134 96.3004 84.5349C96.3004 85.7565 96.6993 86.7536 97.497 87.5763C98.2947 88.399 99.3168 88.7978 100.588 88.7978C101.336 88.7978 102.034 88.6233 102.657 88.2494C103.281 87.9004 103.754 87.4018 104.053 86.8284L105.325 87.5514C104.876 88.374 104.203 89.0222 103.38 89.4958C102.558 89.9695 101.61 90.2188 100.613 90.2188L100.588 90.2188ZM108.418 88.6485L113.503 88.6485L113.503 90.0196L106.972 90.0196L106.972 79.0508L113.428 79.0508L113.428 80.4219L108.418 80.4219L108.418 83.7873L113.029 83.7873L113.029 85.1584L108.418 85.1584L108.418 88.6236L108.418 88.6485ZM114.299 90.0191L114.299 88.6979C115.022 88.7976 115.57 88.5981 115.919 88.0996C116.268 87.601 116.468 86.6537 116.468 85.2826L116.468 79.0752L123.697 79.0752L123.697 90.044L122.251 90.044L122.251 80.4712L117.938 80.4712L117.938 85.3075C117.938 86.2797 117.839 87.1024 117.664 87.7755C117.49 88.4486 117.216 88.9472 116.891 89.2712C116.542 89.5953 116.169 89.8446 115.77 89.9443C115.346 90.069 114.872 90.0939 114.349 90.044L114.299 90.0191ZM130.004 82.9647C131.026 82.9647 131.849 83.3137 132.522 83.9868C133.195 84.6599 133.544 85.5074 133.544 86.4797C133.544 87.4519 133.195 88.3244 132.522 88.9975C131.849 89.6706 131.001 90.0196 130.004 90.0196L126.016 90.0196L126.016 79.0508L127.462 79.0508L127.462 82.9647L129.979 82.9647L130.004 82.9647ZM130.004 88.6482C130.602 88.6482 131.101 88.4488 131.5 88.0499C131.899 87.651 132.098 87.1275 132.098 86.5043C132.098 85.8811 131.899 85.3825 131.5 84.9587C131.101 84.5349 130.602 84.3354 130.004 84.3354L127.486 84.3354L127.486 88.6482L130.004 88.6482L130.004 88.6482ZM140.427 90.2188C138.757 90.2188 137.386 89.6703 136.314 88.5734C135.242 87.4766 134.693 86.1304 134.693 84.5349C134.693 82.9395 135.242 81.5933 136.314 80.4964C137.386 79.3995 138.757 78.8511 140.427 78.8511C141.424 78.8511 142.347 79.1004 143.194 79.574C144.042 80.0477 144.69 80.6958 145.164 81.5185L143.892 82.2664C143.568 81.6681 143.119 81.1695 142.496 80.8205C141.873 80.4715 141.2 80.272 140.427 80.272C139.156 80.272 138.134 80.6709 137.336 81.4936C136.538 82.3162 136.139 83.3134 136.139 84.5349C136.139 85.7565 136.538 86.7536 137.336 87.5763C138.134 88.399 139.156 88.7978 140.427 88.7978C141.175 88.7978 141.873 88.6233 142.496 88.2494C143.119 87.9004 143.593 87.4018 143.892 86.8284L145.164 87.5514C144.715 88.374 144.042 89.0222 143.219 89.4958C142.396 89.9695 141.449 90.2188 140.452 90.2188L140.427 90.2188ZM154.76 90.0196L152.965 90.0196L148.228 84.7596L148.228 90.0196L146.782 90.0196L146.782 79.0508L148.228 79.0508L148.228 83.9868L152.79 79.0508L154.585 79.0508L149.749 84.3856L154.735 90.0196L154.76 90.0196ZM165.879 84.5349C165.879 86.1055 165.33 87.4516 164.234 88.5485C163.137 89.6454 161.791 90.2188 160.195 90.2188C158.6 90.2188 157.278 89.6703 156.181 88.5485C155.085 87.4516 154.536 86.1055 154.536 84.5349C154.536 82.9644 155.085 81.5933 156.181 80.4964C157.278 79.3995 158.625 78.8511 160.195 78.8511C161.766 78.8511 163.137 79.3995 164.234 80.4964C165.33 81.5933 165.879 82.9395 165.879 84.5349L165.879 84.5349L165.879 84.5349ZM155.956 84.5344C155.956 85.731 156.355 86.7531 157.178 87.5757C157.975 88.3984 158.997 88.7973 160.194 88.7973C161.391 88.7973 162.388 88.3984 163.21 87.5757C164.008 86.7531 164.432 85.7559 164.432 84.5344C164.432 83.3129 164.033 82.3157 163.21 81.493C162.413 80.6703 161.391 80.2715 160.194 80.2715C158.997 80.2715 158 80.6703 157.178 81.493C156.38 82.3157 155.956 83.3378 155.956 84.5344L155.956 84.5344L155.956 84.5344ZM174.902 90.0196L173.232 90.0196L170.54 85.7069L167.847 90.0196L166.202 90.0196L169.717 84.3856L166.402 79.0508L168.047 79.0508L170.54 83.0395L173.033 79.0508L174.678 79.0508L171.363 84.3607L174.878 90.0196L174.902 90.0196ZM186.595 84.5349C186.595 86.1055 186.046 87.4516 184.949 88.5485C183.853 89.6454 182.506 90.2188 180.911 90.2188C179.315 90.2188 177.994 89.6703 176.897 88.5485C175.8 87.4516 175.252 86.1055 175.252 84.5349C175.252 82.9644 175.8 81.5933 176.897 80.4964C177.994 79.3995 179.34 78.8511 180.911 78.8511C182.481 78.8511 183.853 79.3995 184.949 80.4964C186.046 81.5933 186.595 82.9395 186.595 84.5349L186.595 84.5349L186.595 84.5349ZM176.674 84.5344C176.674 85.731 177.073 86.7531 177.895 87.5757C178.693 88.3984 179.715 88.7973 180.912 88.7973C182.108 88.7973 183.106 88.3984 183.928 87.5757C184.726 86.7531 185.15 85.7559 185.15 84.5344C185.15 83.3129 184.751 82.3157 183.928 81.493C183.13 80.6703 182.108 80.2715 180.912 80.2715C179.715 80.2715 178.718 80.6703 177.895 81.493C177.098 82.3157 176.674 83.3378 176.674 84.5344L176.674 84.5344L176.674 84.5344ZM194.645 81.9423C194.645 82.9893 194.196 83.787 193.274 84.3355C193.847 84.5848 194.271 84.9338 194.595 85.3825C194.919 85.8312 195.069 86.3797 195.069 87.0029C195.069 87.9502 194.72 88.6981 194.022 89.2964C193.324 89.8947 192.376 90.1938 191.23 90.1938C190.183 90.1938 189.335 89.9695 188.687 89.4958C188.039 89.0222 187.59 88.4239 187.341 87.676L188.587 86.978C188.911 88.1995 189.809 88.8227 191.255 88.8227C192.027 88.8227 192.601 88.6482 193.025 88.3242C193.448 87.9751 193.648 87.5264 193.648 86.978C193.648 86.4295 193.448 85.9559 193.05 85.6069C192.651 85.2579 192.102 85.0834 191.404 85.0834L190.133 85.0834L190.133 83.7621L191.055 83.7621C191.728 83.7621 192.252 83.5876 192.651 83.2635C193.05 82.9394 193.249 82.5157 193.249 81.9672C193.249 81.4188 193.075 81.0199 192.701 80.6958C192.327 80.3717 191.828 80.1972 191.155 80.1972C189.933 80.1972 189.136 80.7457 188.737 81.8176L187.515 81.1196C188.163 79.5989 189.385 78.8511 191.155 78.8511C192.202 78.8511 193.074 79.1502 193.723 79.7236C194.371 80.297 194.695 81.0448 194.695 81.9423L194.695 81.9423L194.645 81.9423ZM203.968 79.0508L203.968 90.0196L202.522 90.0196L202.522 85.8315L200.353 85.8315L197.512 90.0196L195.866 90.0196L198.783 85.7318C198.035 85.5573 197.412 85.1584 196.913 84.5352C196.415 83.912 196.165 83.214 196.165 82.4412C196.165 81.4938 196.489 80.6961 197.163 80.048C197.836 79.3749 198.633 79.0508 199.556 79.0508L203.943 79.0508L203.968 79.0508ZM199.583 84.5098L202.525 84.5098L202.525 80.4214L199.583 80.4214C199.06 80.4214 198.586 80.6208 198.212 81.0197C197.838 81.4186 197.639 81.8922 197.639 82.4656C197.639 83.039 197.838 83.5126 198.212 83.9115C198.586 84.3103 199.06 84.5098 199.583 84.5098L199.583 84.5098ZM213.118 90.0196L213.118 81.8428L207.484 90.0196L206.313 90.0196L206.313 79.0508L207.758 79.0508L207.758 87.2276L213.392 79.0508L214.564 79.0508L214.564 90.0196L213.118 90.0196L213.118 90.0196ZM208.331 79.175L208.331 76.6821L212.569 76.6821L212.569 79.175L208.331 79.175L208.331 79.175ZM222.07 90.2188C220.399 90.2188 219.028 89.6703 217.956 88.5734C216.884 87.4766 216.336 86.1304 216.336 84.5349C216.336 82.9395 216.884 81.5933 217.956 80.4964C219.028 79.3995 220.399 78.8511 222.07 78.8511C223.067 78.8511 223.989 79.1004 224.837 79.574C225.684 80.0477 226.333 80.6958 226.806 81.5185L225.535 82.2664C225.211 81.6681 224.762 81.1695 224.139 80.8205C223.516 80.4715 222.842 80.272 222.07 80.272C220.798 80.272 219.776 80.6709 218.978 81.4936C218.181 82.3162 217.782 83.3134 217.782 84.5349C217.782 85.7565 218.181 86.7536 218.978 87.5763C219.776 88.399 220.798 88.7978 222.07 88.7978C222.818 88.7978 223.516 88.6233 224.139 88.2494C224.762 87.9004 225.236 87.4018 225.535 86.8284L226.806 87.5514C226.357 88.374 225.684 89.0222 224.862 89.4958C224.039 89.9695 223.092 90.2188 222.095 90.2188L222.07 90.2188ZM235.329 79.0508L235.329 80.4219L232.089 80.4219L232.089 89.9947L230.643 89.9947L230.643 80.4219L227.427 80.4219L227.427 79.0508L235.329 79.0508L235.329 79.0508ZM244.228 82.0423C244.228 83.0145 243.829 83.7873 243.032 84.3358C243.53 84.5851 243.929 84.9091 244.228 85.3579C244.527 85.8066 244.677 86.3301 244.677 86.9035C244.677 87.776 244.378 88.5239 243.755 89.1222C243.131 89.7205 242.383 90.0196 241.511 90.0196L236.774 90.0196L236.774 79.0508L241.162 79.0508C242.01 79.0508 242.732 79.3499 243.331 79.9233C243.929 80.4967 244.228 81.1947 244.228 82.0423L244.228 82.0423L244.228 82.0423ZM241.162 80.4214L238.245 80.4214L238.245 83.7619L241.162 83.7619C241.611 83.7619 242.009 83.6123 242.309 83.2882C242.633 82.9642 242.782 82.5653 242.782 82.0916C242.782 81.618 242.633 81.2441 242.309 80.92C241.984 80.5959 241.611 80.4214 241.162 80.4214L241.162 80.4214ZM241.514 88.6484C242.013 88.6484 242.412 88.4739 242.761 88.1248C243.085 87.7758 243.259 87.352 243.259 86.8535C243.259 86.3549 243.085 85.956 242.761 85.607C242.412 85.258 242.013 85.0835 241.539 85.0835L238.273 85.0835L238.273 88.6484L241.539 88.6484L241.514 88.6484ZM247.869 88.6485L252.954 88.6485L252.954 90.0196L246.423 90.0196L246.423 79.0508L252.88 79.0508L252.88 80.4219L247.869 80.4219L247.869 83.7873L252.481 83.7873L252.481 85.1584L247.869 85.1584L247.869 88.6236L247.869 88.6485ZM261.481 79.0752L262.927 79.0752L262.927 90.044L261.481 90.044L261.481 85.1081L256.146 85.1081L256.146 90.044L254.7 90.044L254.7 79.0752L256.146 79.0752L256.146 83.737L261.481 83.737L261.481 79.0752L261.481 79.0752ZM272.052 79.0752L273.498 79.0752L273.498 90.044L272.052 90.044L272.052 85.1081L266.717 85.1081L266.717 90.044L265.271 90.044L265.271 79.0752L266.717 79.0752L266.717 83.737L272.052 83.737L272.052 79.0752L272.052 79.0752ZM283.044 90.044L282.147 87.576L277.211 87.576L276.313 90.044L274.768 90.044L278.856 79.0752L280.501 79.0752L284.59 90.044L283.044 90.044L283.044 90.044ZM277.709 86.2299L281.648 86.2299L279.678 80.8203L277.734 86.2299L277.709 86.2299ZM293.289 79.1001L293.289 90.0689L291.844 90.0689L291.844 85.8808L289.675 85.8808L286.833 90.0689L285.188 90.0689L288.104 85.7811C287.356 85.6066 286.733 85.2077 286.234 84.5845C285.736 83.9613 285.487 83.2633 285.487 82.4905C285.487 81.5432 285.811 80.7454 286.484 80.0973C287.157 79.4242 287.955 79.1001 288.877 79.1001L293.265 79.1001L293.289 79.1001ZM288.902 84.5601L291.844 84.5601L291.844 80.4717L288.902 80.4717C288.379 80.4717 287.905 80.6711 287.531 81.07C287.157 81.4688 286.958 81.9425 286.958 82.5159C286.958 83.0893 287.157 83.5629 287.531 83.9618C287.905 84.3606 288.379 84.5601 288.902 84.5601L288.902 84.5601ZM306.554 79.1001L306.554 80.4712L303.313 80.4712L303.313 90.044L301.867 90.044L301.867 80.4712L298.651 80.4712L298.651 79.1001L306.554 79.1001L306.554 79.1001ZM309.445 88.6729L314.53 88.6729L314.53 90.044L307.999 90.044L307.999 79.0752L314.456 79.0752L314.456 80.4463L309.445 80.4463L309.445 83.8117L314.057 83.8117L314.057 85.1828L309.445 85.1828L309.445 88.648L309.445 88.6729ZM324.078 90.044L322.408 90.044L319.716 85.7313L317.023 90.044L315.378 90.044L318.893 84.41L315.577 79.0752L317.223 79.0752L319.716 83.0639L322.209 79.0752L323.854 79.0752L320.538 84.3851L324.053 90.044L324.078 90.044ZM332.305 79.0752L333.751 79.0752L333.751 90.044L332.305 90.044L332.305 85.1081L326.97 85.1081L326.97 90.044L325.524 90.044L325.524 79.0752L326.97 79.0752L326.97 83.737L332.305 83.737L332.305 79.0752L332.305 79.0752ZM342.898 90.044L342.898 81.8673L337.264 90.044L336.093 90.044L336.093 79.0752L337.539 79.0752L337.539 87.252L343.173 79.0752L344.344 79.0752L344.344 90.044L342.898 90.044L342.898 90.044ZM354.665 90.044L352.87 90.044L348.133 84.784L348.133 90.044L346.688 90.044L346.688 79.0752L348.133 79.0752L348.133 84.0112L352.695 79.0752L354.49 79.0752L349.654 84.41L354.64 90.044L354.665 90.044ZM363.393 90.044L362.495 87.576L357.559 87.576L356.662 90.044L355.116 90.044L359.205 79.0752L360.85 79.0752L364.938 90.044L363.393 90.044L363.393 90.044ZM358.058 86.2299L361.996 86.2299L360.027 80.8203L358.083 86.2299L358.058 86.2299ZM372.739 85.8064C372.39 86.1555 371.991 86.33 371.493 86.33C370.994 86.33 370.595 86.1555 370.246 85.8064C369.897 85.4574 369.723 85.0336 369.723 84.56C369.723 84.0863 369.897 83.6625 370.246 83.3135C370.595 82.9645 371.019 82.8149 371.493 82.8149C371.966 82.8149 372.39 82.9894 372.739 83.3135C373.088 83.6625 373.238 84.0614 373.238 84.56C373.238 85.0586 373.063 85.4574 372.739 85.8064L372.739 85.8064ZM384.234 90.2432C382.563 90.2432 381.192 89.6947 380.12 88.5979C379.048 87.501 378.5 86.1548 378.5 84.5593C378.5 82.9639 379.048 81.6177 380.12 80.5208C381.192 79.4239 382.563 78.8755 384.234 78.8755C385.231 78.8755 386.153 79.1248 387.001 79.5984C387.848 80.0721 388.497 80.7203 388.97 81.5429L387.699 82.2908C387.375 81.6925 386.926 81.1939 386.303 80.8449C385.68 80.4959 385.006 80.2964 384.234 80.2964C382.962 80.2964 381.94 80.6953 381.142 81.518C380.345 82.3406 379.946 83.3378 379.946 84.5593C379.946 85.7809 380.345 86.778 381.142 87.6007C381.94 88.4234 382.962 88.8222 384.234 88.8222C384.982 88.8222 385.68 88.6477 386.303 88.2738C386.926 87.9248 387.4 87.4262 387.699 86.8528L388.97 87.5758C388.522 88.3984 387.848 89.0466 387.026 89.5202C386.203 89.9939 385.256 90.2432 384.259 90.2432L384.234 90.2432ZM392.059 88.6729L397.145 88.6729L397.145 90.044L390.613 90.044L390.613 79.0752L397.07 79.0752L397.07 80.4463L392.059 80.4463L392.059 83.8117L396.671 83.8117L396.671 85.1828L392.059 85.1828L392.059 88.648L392.059 88.6729ZM402.879 79.1001C403.901 79.1001 404.724 79.4491 405.397 80.1222C406.07 80.7953 406.419 81.6429 406.419 82.64C406.419 83.6372 406.07 84.4599 405.397 85.133C404.724 85.806 403.876 86.1551 402.879 86.1551L400.361 86.1551L400.361 90.0689L398.915 90.0689L398.915 79.1001L402.904 79.1001L402.879 79.1001ZM402.879 84.7844C403.477 84.7844 403.976 84.585 404.375 84.1612C404.774 83.7374 404.973 83.2388 404.973 82.6156C404.973 81.9924 404.774 81.4688 404.375 81.07C403.976 80.6711 403.477 80.4717 402.879 80.4717L400.361 80.4717L400.361 84.7844L402.879 84.7844L402.879 84.7844ZM415.592 82.0916C415.592 83.0638 415.194 83.8366 414.396 84.3851C414.894 84.6344 415.293 84.9585 415.592 85.4072C415.892 85.8559 416.041 86.3794 416.041 86.9528C416.041 87.8253 415.742 88.5732 415.119 89.1715C414.496 89.7698 413.748 90.0689 412.875 90.0689L408.139 90.0689L408.139 79.1001L412.526 79.1001C413.374 79.1001 414.097 79.3992 414.695 79.9726C415.293 80.546 415.592 81.244 415.592 82.0916L415.592 82.0916L415.592 82.0916ZM412.526 80.4717L409.609 80.4717L409.609 83.8122L412.526 83.8122C412.975 83.8122 413.374 83.6626 413.673 83.3385C413.997 83.0145 414.147 82.6156 414.147 82.1419C414.147 81.6683 413.997 81.2943 413.673 80.9703C413.349 80.6462 412.975 80.4717 412.526 80.4717L412.526 80.4717ZM412.875 88.6977C413.373 88.6977 413.772 88.5232 414.121 88.1742C414.445 87.8252 414.62 87.4014 414.62 86.9028C414.62 86.4042 414.445 86.0053 414.121 85.6563C413.772 85.3073 413.373 85.1328 412.9 85.1328L409.634 85.1328L409.634 88.6977L412.9 88.6977L412.875 88.6977ZM424.593 90.0689L424.593 81.8922L418.959 90.0689L417.787 90.0689L417.787 79.1001L419.233 79.1001L419.233 87.2769L424.867 79.1001L426.039 79.1001L426.039 90.0689L424.593 90.0689L424.593 90.0689ZM433.541 90.2681C431.871 90.2681 430.5 89.7197 429.428 88.6228C428.356 87.5259 427.808 86.1797 427.808 84.5842C427.808 82.9888 428.356 81.6426 429.428 80.5457C430.5 79.4488 431.871 78.9004 433.541 78.9004C434.538 78.9004 435.461 79.1497 436.308 79.6233C437.156 80.097 437.804 80.7452 438.278 81.5678L437.006 82.3157C436.682 81.7174 436.234 81.2188 435.61 80.8698C434.987 80.5208 434.314 80.3213 433.541 80.3213C432.27 80.3213 431.248 80.7202 430.45 81.5429C429.652 82.3655 429.253 83.3627 429.253 84.5842C429.253 85.8058 429.652 86.8029 430.45 87.6256C431.248 88.4483 432.27 88.8471 433.541 88.8471C434.289 88.8471 434.987 88.6726 435.61 88.2987C436.234 87.9497 436.707 87.4511 437.006 86.8777L438.278 87.6007C437.829 88.4233 437.156 89.0715 436.333 89.5452C435.511 90.0188 434.563 90.2681 433.566 90.2681L433.541 90.2681Z" id="Shape" fill="#90989C" fill-rule="evenodd" stroke="none" />
      <path d="M58.085 20.7906L47.5898 10.2954C47.0912 9.79682 46.2436 10.1458 46.2436 10.8438L46.2436 15.9294C46.2436 16.8767 46.6176 17.7742 47.2906 18.4472L51.5037 22.6603C60.8272 31.9838 66.0623 44.6478 66.0623 57.8354C66.0623 71.0229 61.1263 82.939 52.3014 92.1878L52.3014 92.3124L36.6957 107.918C36.4714 108.142 36.1224 108.142 35.9229 107.918L7.70312 79.6235C7.0051 78.9254 6.60623 77.9532 6.60623 76.956L6.60623 38.7147C6.60623 37.7175 7.0051 36.7453 7.70312 36.0472L31.5603 12.19C32.1088 11.6416 33.0312 12.0404 33.0312 12.7883L33.0312 91.415C33.0312 92.6365 34.5269 93.2597 35.3994 92.3872L58.9076 68.879C59.2566 68.505 59.481 68.0314 59.481 67.5079L59.481 61.5498C59.481 60.9515 58.7581 60.6274 58.3093 61.0761L39.6623 79.7232L39.6623 62.9209L52.3014 50.2818C52.6754 49.9079 52.8748 49.4342 52.8748 48.9107L52.8748 42.9526C52.8748 42.3543 52.1518 42.0552 51.7031 42.479L39.6623 54.5198L39.6623 37.7175L45.7201 31.6348C46.0691 31.2858 46.2686 30.7872 46.2686 30.2886L46.2686 24.3305C46.2686 23.7322 45.5456 23.4331 45.0969 23.8569L39.6623 29.3413L39.6623 3.29031C39.6623 2.66708 39.413 2.06878 38.9643 1.62005L38.017 0.672742C37.0946 -0.249638 35.6238 -0.249638 34.7014 0.672742L3.39037 31.9838C1.22153 34.1526 0 37.0943 0 40.1606L0 75.5351C0 78.6013 1.22153 81.543 3.39037 83.7118L34.4521 114.774C35.4742 115.796 37.1694 115.796 38.1915 114.774L58.2346 94.7305C67.4584 85.5067 72.6436 72.9674 72.6436 59.9045L72.6436 55.9407C72.6436 42.7532 67.4085 30.0892 58.085 20.7656" id="Shape" fill="#39A433" stroke="none" />
      <path d="M14.7825 37.3937L18.2725 33.9036C18.8459 33.3302 19.8181 33.7291 19.8181 34.5517L19.8181 55.3427C19.8181 56.7636 19.2448 58.1347 18.2476 59.1319L14.7575 62.622C14.1842 63.1954 13.2119 62.7965 13.2119 61.9738L13.2119 41.1829C13.2119 39.7619 13.7853 38.3908 14.7825 37.3937" id="Shape" fill="#90989C" stroke="none" />
      <path d="M21.3899 64.3922L24.88 60.9021C25.4533 60.3287 26.4256 60.7276 26.4256 61.5503L26.4256 87.8755C26.4256 88.6732 25.4533 89.097 24.88 88.5236L21.3899 85.0335C20.3927 84.0364 19.8193 82.6653 19.8193 81.2443L19.8193 68.2064C19.8193 66.7854 20.3927 65.4143 21.3899 64.4171" id="Shape" fill="#90989C" stroke="none" />
    </g>
  </g>
</svg>