<?xml version="1.0" encoding="utf-8"?>
<svg width="1016.145px" height="266.9036px" viewBox="0 0 1016.145 266.9036" version="1.1" xmlns:xlink="http://www.w3.org/1999/xlink" xmlns="http://www.w3.org/2000/svg">
  <defs>
    <path d="M0 0L1016.14 0L1016.14 266.904L0 266.904L0 0Z" id="path_1" />
    <clipPath id="mask_1">
      <use xlink:href="#path_1" />
    </clipPath>
  </defs>
  <g id="logo_h">
    <path d="M0 0L1016.14 0L1016.14 266.904L0 266.904L0 0Z" id="Background" fill="none" fill-rule="evenodd" stroke="none" />
    <g clip-path="url(#mask_1)">
      <path d="M215.49 125.334L215.49 121.476L230.804 121.476L230.804 127.061C230.804 131.263 231.495 134.43 232.819 136.445C234.144 138.46 236.562 139.496 240.073 139.496C243.01 139.496 245.197 138.345 246.809 136.099C248.364 133.854 249.17 130.688 249.17 126.658L249.17 112.553L236.331 112.553L236.331 100.29L249.17 100.29L249.17 93.6689C249.17 89.0632 248.537 85.6664 247.212 83.4211C245.946 81.1758 243.528 80.0244 240.073 80.0244C236.619 80.0244 234.259 81.1758 232.877 83.4787C231.495 85.7816 230.804 89.1783 230.804 93.6689L215.49 93.6689L215.49 90.2722C215.49 83.4211 217.62 77.9518 221.881 73.8642C226.141 69.7766 232.186 67.704 240.131 67.704C248.076 67.704 254.409 69.719 258.612 73.8066C262.814 77.8942 264.887 83.3635 264.887 90.2146L264.887 124.643C264.887 133.912 262.814 140.705 258.727 145.138C254.639 149.514 248.479 151.759 240.361 151.759C232.244 151.759 225.623 149.686 221.593 145.484C217.563 141.339 215.548 134.603 215.548 125.333L215.49 125.334ZM273.351 137.539L278.129 137.539C280.835 131.379 282.735 125.334 283.771 119.347C284.807 113.359 285.326 105.011 285.326 94.2453L285.326 69.0863L331.153 69.0863L331.153 137.539L336.046 137.539L336.046 166.037L321.481 166.037L321.481 149.802L287.859 149.802L287.859 166.037L273.293 166.037L273.293 137.539L273.351 137.539ZM293.156 137.539L315.897 137.539L315.897 81.3492L300.41 81.3492L300.41 99.6571C300.41 108.408 299.834 115.605 298.683 121.074C297.531 126.601 295.689 132.07 293.156 137.482L293.156 137.539ZM344.971 149.802L344.971 69.0863L388.15 69.0863L388.15 81.3491L360.343 81.3491L360.343 100.175L385.732 100.175L385.732 112.438L360.343 112.438L360.343 137.482L388.15 137.482L388.15 149.745L344.971 149.745L344.971 149.802ZM403.002 151.299C399.432 151.299 396.323 150.954 393.732 150.263L393.732 139.151C394.941 139.554 396.553 139.727 398.626 139.727C400.353 139.727 401.677 139.151 402.483 137.942C403.347 136.733 403.98 133.855 404.498 129.191C405.016 124.528 405.247 117.447 405.247 107.832L405.247 69.0287L451.995 69.0287L451.995 149.745L436.681 149.745L436.681 81.3491L420.331 81.3491L420.331 112.323C420.331 126.082 419.006 136.042 416.416 142.145C413.825 148.248 409.392 151.299 403.059 151.299L403.059 151.299L403.002 151.299ZM463.797 149.802L463.797 69.0863L479.112 69.0863L479.112 100.175L491.95 100.175C495.98 100.175 499.55 101.384 502.774 103.802C505.998 106.22 508.416 109.214 510.085 112.783C511.755 116.41 512.561 120.095 512.561 123.952C512.561 131.84 510.834 138.057 507.437 142.778C504.04 147.442 499.319 149.802 493.332 149.802L463.797 149.802L463.797 149.802ZM479.112 138.287L487.978 138.287C490.915 138.287 493.16 137.309 494.657 135.351C496.154 133.394 496.902 130.227 496.902 125.794C496.902 121.764 496.096 118.54 494.542 116.122C492.987 113.704 490.742 112.495 487.978 112.495L479.112 112.495L479.112 138.287L479.112 138.287ZM523.153 149.802L523.153 69.0863L551.939 69.0863C555.393 69.0863 558.502 69.6045 561.15 70.6983C563.799 71.7922 565.929 73.2315 567.483 75.1314C569.038 77.0312 570.189 79.1038 570.995 81.4067C571.744 83.7096 572.146 86.1852 572.146 88.8335C572.146 92.9211 571.053 96.7208 568.922 100.233C566.792 103.745 564.029 105.817 560.632 106.508C564.605 108.12 567.541 110.538 569.498 113.589C571.456 116.698 572.434 120.786 572.434 125.967C572.434 133.221 570.88 138.979 567.714 143.354C564.547 147.73 559.999 149.86 554.011 149.86L523.095 149.86L523.153 149.802ZM538.467 101.845L546.469 101.845C552.86 101.845 556.026 98.2178 556.026 90.9062C556.026 87.3943 555.335 84.8035 553.954 83.0764C552.572 81.4068 550.154 80.5432 546.757 80.5432L538.467 80.5432L538.467 101.787L538.467 101.845ZM538.467 138.288L548.312 138.288C551.248 138.288 553.378 137.309 554.76 135.351C556.141 133.394 556.832 130.227 556.832 125.794C556.832 121.764 556.141 118.713 554.702 116.583C553.263 114.453 551.133 113.359 548.369 113.359L538.524 113.359L538.524 138.288L538.467 138.288ZM582.05 149.802L582.05 69.0863L625.229 69.0863L625.229 81.3491L597.422 81.3491L597.422 100.175L622.811 100.175L622.811 112.438L597.422 112.438L597.422 137.482L625.229 137.482L625.229 149.745L582.05 149.745L582.05 149.802ZM634.787 149.802L634.787 69.0863L649.065 69.0863L649.065 99.3692C649.065 112.553 648.432 121.995 647.165 127.81L647.28 127.81L669.676 69.0863L686.199 69.0863L686.199 149.802L671.921 149.802L671.921 119.174C671.921 106.393 672.554 97.0663 673.821 91.2515L673.706 91.2515L651.31 149.802L634.787 149.802L634.787 149.802ZM659.715 63.9622C649.179 63.9622 643.94 58.3777 643.94 47.2087L651.885 47.2087C651.885 50.2025 652.576 52.4478 654.016 54.0598C655.455 55.6143 657.412 56.4203 659.945 56.4203C662.479 56.4203 664.436 55.6142 665.875 54.0598C667.315 52.5054 668.063 50.2025 668.063 47.2087L675.95 47.2087C675.95 58.3777 670.539 63.9622 659.715 63.9622L659.715 63.9622L659.715 63.9622ZM696.852 124.758L696.852 95.3968C696.852 86.0126 698.924 79.0463 703.127 74.4982C707.33 69.95 713.605 67.6471 722.01 67.6471C729.783 67.6471 735.77 69.7197 739.915 73.8649C744.118 78.01 746.191 83.8248 746.191 91.3092L746.191 95.3392L730.877 95.3392L730.877 93.5545C730.877 88.5457 730.186 84.9763 728.804 82.9612C727.422 80.9462 725.119 79.9099 721.838 79.9099C718.556 79.9099 716.138 80.9462 714.699 83.0188C713.26 85.0914 712.569 88.6033 712.569 93.5545L712.569 125.449C712.569 130.631 713.26 134.258 714.641 136.33C716.023 138.403 718.383 139.439 721.723 139.439C725.062 139.439 727.192 138.403 728.689 136.273C730.186 134.143 730.877 130.573 730.877 125.507L730.877 121.131L746.191 121.131L746.191 124.586C746.191 142.721 738.073 151.76 721.78 151.76C717.865 151.76 714.469 151.242 711.475 150.263C708.481 149.284 706.121 148.018 704.278 146.406C702.436 144.794 700.939 142.836 699.845 140.418C698.694 138.058 697.945 135.582 697.485 133.106C697.024 130.631 696.852 127.867 696.852 124.758L696.852 124.758ZM755.115 126.14L755.115 116.065L783.613 116.065L783.613 126.14L755.115 126.14L755.115 126.14ZM788.044 149.802L808.655 69.0863L829.208 69.0863L847.113 149.802L830.533 149.802L826.79 128.788L809.461 128.788L804.683 149.802L788.102 149.802L788.044 149.802ZM811.36 116.813L824.889 116.813L818.729 79.276L811.36 116.813L811.36 116.813ZM853.331 149.802L853.331 69.0863L895.761 69.0863L895.761 81.3491L868.702 81.3491L868.702 149.802L853.388 149.802L853.331 149.802ZM903.65 149.802L903.65 69.0863L932.609 69.0863C936.869 69.0863 940.611 70.1226 943.893 72.2528C947.174 74.3829 949.65 77.2039 951.319 80.7734C952.989 84.3429 953.853 88.2578 953.853 92.6332C953.853 97.0087 952.989 101.154 951.262 104.781C949.535 108.466 947.002 111.402 943.72 113.589C940.438 115.777 936.639 116.871 932.378 116.871L918.964 116.871L918.964 149.745L903.65 149.745L903.65 149.802ZM918.964 105.011L926.679 105.011C930.479 105.011 933.357 103.975 935.315 101.902C937.215 99.8296 938.193 96.8359 938.193 92.9785C938.193 89.1212 937.215 86.1851 935.315 84.1125C933.357 82.0975 930.536 81.0612 926.679 81.0612L918.964 81.0612L918.964 105.011L918.964 105.011ZM990.121 151.76C972.62 151.76 963.869 142.721 963.869 124.586L963.869 95.3392C963.869 90.3881 964.502 86.1277 965.769 82.5007C967.035 78.8737 968.877 75.9951 971.238 73.8649C973.598 71.7348 976.362 70.1803 979.471 69.2016C982.579 68.2229 986.091 67.7047 990.064 67.7047C994.036 67.7047 997.663 68.1653 1000.71 69.144C1003.77 70.1227 1006.47 71.6196 1008.83 73.7498C1011.19 75.8799 1012.98 78.701 1014.19 82.328C1015.4 85.955 1016.03 90.2729 1016.03 95.2817L1016.03 124.528C1016.03 129.537 1015.4 133.855 1014.19 137.424C1012.98 140.994 1011.19 143.815 1008.83 145.83C1006.47 147.845 1003.77 149.342 1000.71 150.263C997.663 151.184 994.094 151.645 990.064 151.645L990.064 151.645L990.121 151.76ZM979.527 126.485C979.527 135.121 983.039 139.496 990.12 139.496C993.459 139.496 995.992 138.402 997.777 136.157C999.562 133.912 1000.43 130.745 1000.43 126.485L1000.43 93.7265C1000.43 89.4086 999.504 86.0119 997.72 83.5938C995.935 81.1758 993.402 79.9668 990.12 79.9668C983.039 79.9668 979.527 84.4574 979.527 93.4962L979.527 126.485L979.527 126.485Z" id="Shape" fill="#90989C" fill-rule="evenodd" stroke="none" />
      <path d="M232.302 208.353C228.444 208.353 225.278 207.086 222.802 204.553C220.327 202.02 219.06 198.911 219.06 195.227C219.06 191.542 220.327 188.433 222.802 185.9C225.278 183.367 228.444 182.1 232.302 182.1C234.605 182.1 236.735 182.676 238.692 183.77C240.65 184.864 242.146 186.361 243.24 188.26L240.304 189.988C239.556 188.606 238.519 187.454 237.08 186.648C235.641 185.842 234.086 185.382 232.302 185.382C229.365 185.382 227.005 186.303 225.163 188.203C223.32 190.103 222.399 192.406 222.399 195.227C222.399 198.048 223.32 200.351 225.163 202.25C227.005 204.15 229.365 205.071 232.302 205.071C234.029 205.071 235.641 204.668 237.08 203.805C238.519 202.999 239.613 201.847 240.304 200.523L243.24 202.193C242.204 204.093 240.65 205.59 238.75 206.683C236.85 207.777 234.662 208.353 232.359 208.353L232.302 208.353ZM250.381 204.725L262.126 204.725L262.126 207.891L247.042 207.891L247.042 182.56L261.953 182.56L261.953 185.726L250.381 185.726L250.381 193.498L261.032 193.498L261.032 196.665L250.381 196.665L250.381 204.667L250.381 204.725ZM263.965 207.892L263.965 204.84C265.634 205.071 266.901 204.61 267.707 203.458C268.513 202.307 268.974 200.119 268.974 196.953L268.974 182.617L285.669 182.617L285.669 207.949L282.33 207.949L282.33 185.841L272.37 185.841L272.37 197.01C272.37 199.256 272.14 201.156 271.737 202.71C271.334 204.264 270.701 205.416 269.952 206.164C269.146 206.913 268.283 207.489 267.362 207.719C266.383 208.007 265.289 208.064 264.08 207.949L263.965 207.892ZM300.236 191.599C302.597 191.599 304.497 192.405 306.051 193.959C307.606 195.514 308.412 197.471 308.412 199.716C308.412 201.962 307.606 203.977 306.051 205.531C304.497 207.085 302.539 207.891 300.236 207.891L291.025 207.891L291.025 182.56L294.364 182.56L294.364 191.599L300.179 191.599L300.236 191.599ZM300.236 204.726C301.617 204.726 302.769 204.265 303.69 203.344C304.611 202.423 305.072 201.214 305.072 199.775C305.072 198.335 304.611 197.184 303.69 196.205C302.769 195.226 301.617 194.766 300.236 194.766L294.421 194.766L294.421 204.726L300.236 204.726L300.236 204.726ZM324.305 208.353C320.447 208.353 317.281 207.086 314.805 204.553C312.33 202.02 311.063 198.911 311.063 195.227C311.063 191.542 312.33 188.433 314.805 185.9C317.281 183.367 320.447 182.1 324.305 182.1C326.607 182.1 328.738 182.676 330.695 183.77C332.652 184.864 334.149 186.361 335.243 188.26L332.307 189.988C331.559 188.606 330.522 187.454 329.083 186.648C327.644 185.842 326.089 185.382 324.305 185.382C321.368 185.382 319.008 186.303 317.166 188.203C315.323 190.103 314.402 192.406 314.402 195.227C314.402 198.048 315.323 200.351 317.166 202.25C319.008 204.15 321.368 205.071 324.305 205.071C326.032 205.071 327.644 204.668 329.083 203.805C330.522 202.999 331.616 201.847 332.307 200.523L335.243 202.193C334.207 204.093 332.652 205.59 330.753 206.683C328.853 207.777 326.665 208.353 324.362 208.353L324.305 208.353ZM357.406 207.891L353.261 207.891L342.322 195.744L342.322 207.891L338.983 207.891L338.983 182.56L342.322 182.56L342.322 193.959L352.858 182.56L357.003 182.56L345.834 194.88L357.348 207.891L357.406 207.891ZM383.085 195.227C383.085 198.854 381.818 201.963 379.285 204.496C376.752 207.029 373.643 208.353 369.958 208.353C366.274 208.353 363.223 207.086 360.689 204.496C358.156 201.963 356.89 198.854 356.89 195.227C356.89 191.6 358.156 188.433 360.689 185.9C363.223 183.367 366.331 182.1 369.958 182.1C373.586 182.1 376.752 183.367 379.285 185.9C381.818 188.433 383.085 191.542 383.085 195.227L383.085 195.227L383.085 195.227ZM360.168 195.226C360.168 197.989 361.089 200.349 362.989 202.249C364.831 204.149 367.192 205.07 369.955 205.07C372.719 205.07 375.022 204.149 376.921 202.249C378.764 200.349 379.742 198.047 379.742 195.226C379.742 192.405 378.821 190.102 376.921 188.202C375.079 186.302 372.719 185.381 369.955 185.381C367.192 185.381 364.889 186.302 362.989 188.202C361.147 190.102 360.168 192.462 360.168 195.226L360.168 195.226L360.168 195.226ZM403.924 207.891L400.067 207.891L393.849 197.932L387.631 207.891L383.832 207.891L391.949 194.88L384.292 182.56L388.092 182.56L393.849 191.771L399.606 182.56L403.406 182.56L395.749 194.823L403.867 207.891L403.924 207.891ZM430.925 195.227C430.925 198.854 429.658 201.963 427.125 204.496C424.592 207.029 421.483 208.353 417.798 208.353C414.114 208.353 411.062 207.086 408.529 204.496C405.996 201.963 404.729 198.854 404.729 195.227C404.729 191.6 405.996 188.433 408.529 185.9C411.062 183.367 414.171 182.1 417.798 182.1C421.425 182.1 424.592 183.367 427.125 185.9C429.658 188.433 430.925 191.542 430.925 195.227L430.925 195.227L430.925 195.227ZM408.013 195.226C408.013 197.989 408.934 200.349 410.834 202.249C412.676 204.149 415.036 205.07 417.8 205.07C420.563 205.07 422.866 204.149 424.766 202.249C426.608 200.349 427.587 198.047 427.587 195.226C427.587 192.405 426.666 190.102 424.766 188.202C422.924 186.302 420.563 185.381 417.8 185.381C415.036 185.381 412.734 186.302 410.834 188.202C408.991 190.102 408.013 192.462 408.013 195.226L408.013 195.226L408.013 195.226ZM449.518 189.239C449.518 191.657 448.482 193.499 446.352 194.766C447.676 195.342 448.655 196.148 449.403 197.184C450.152 198.22 450.497 199.487 450.497 200.926C450.497 203.114 449.691 204.841 448.079 206.223C446.467 207.605 444.279 208.295 441.631 208.295C439.213 208.295 437.256 207.777 435.759 206.683C434.262 205.59 433.226 204.208 432.65 202.481L435.529 200.869C436.277 203.69 438.35 205.129 441.689 205.129C443.473 205.129 444.798 204.726 445.776 203.978C446.755 203.172 447.216 202.135 447.216 200.869C447.216 199.602 446.755 198.508 445.834 197.702C444.913 196.896 443.646 196.493 442.034 196.493L439.098 196.493L439.098 193.442L441.228 193.442C442.783 193.442 443.992 193.039 444.913 192.29C445.834 191.542 446.294 190.563 446.294 189.297C446.294 188.03 445.891 187.109 445.028 186.361C444.164 185.612 443.013 185.209 441.458 185.209C438.637 185.209 436.795 186.476 435.874 188.951L433.053 187.339C434.55 183.827 437.371 182.1 441.458 182.1C443.876 182.1 445.891 182.791 447.388 184.115C448.885 185.439 449.634 187.167 449.634 189.239L449.634 189.239L449.518 189.239ZM471.05 182.56L471.05 207.891L467.711 207.891L467.711 198.219L462.702 198.219L456.139 207.891L452.339 207.891L459.075 197.989C457.348 197.586 455.908 196.665 454.757 195.226C453.605 193.786 453.03 192.174 453.03 190.39C453.03 188.202 453.778 186.36 455.333 184.863C456.887 183.308 458.729 182.56 460.859 182.56L470.992 182.56L471.05 182.56ZM460.923 195.168L467.716 195.168L467.716 185.726L460.923 185.726C459.714 185.726 458.62 186.187 457.756 187.108C456.893 188.029 456.432 189.123 456.432 190.447C456.432 191.772 456.893 192.865 457.756 193.787C458.62 194.708 459.714 195.168 460.923 195.168L460.923 195.168ZM492.181 207.891L492.181 189.008L479.17 207.891L476.464 207.891L476.464 182.56L479.803 182.56L479.803 201.443L492.814 182.56L495.52 182.56L495.52 207.891L492.181 207.891L492.181 207.891ZM481.125 182.848L481.125 177.091L490.912 177.091L490.912 182.848L481.125 182.848L481.125 182.848ZM512.852 208.353C508.995 208.353 505.829 207.086 503.353 204.553C500.877 202.02 499.611 198.911 499.611 195.227C499.611 191.542 500.877 188.433 503.353 185.9C505.829 183.367 508.995 182.1 512.852 182.1C515.155 182.1 517.285 182.676 519.243 183.77C521.2 184.864 522.697 186.361 523.791 188.26L520.855 189.988C520.106 188.606 519.07 187.454 517.631 186.648C516.192 185.842 514.637 185.382 512.852 185.382C509.916 185.382 507.556 186.303 505.714 188.203C503.871 190.103 502.95 192.406 502.95 195.227C502.95 198.048 503.871 200.351 505.714 202.25C507.556 204.15 509.916 205.071 512.852 205.071C514.58 205.071 516.192 204.668 517.631 203.805C519.07 202.999 520.164 201.847 520.855 200.523L523.791 202.193C522.755 204.093 521.2 205.59 519.3 206.683C517.401 207.777 515.213 208.353 512.91 208.353L512.852 208.353ZM543.476 182.56L543.476 185.726L535.992 185.726L535.992 207.834L532.653 207.834L532.653 185.726L525.226 185.726L525.226 182.56L543.476 182.56L543.476 182.56ZM564.029 189.468C564.029 191.714 563.108 193.499 561.266 194.765C562.417 195.341 563.338 196.089 564.029 197.126C564.72 198.162 565.065 199.371 565.065 200.695C565.065 202.71 564.374 204.437 562.935 205.819C561.496 207.201 559.769 207.891 557.754 207.891L546.815 207.891L546.815 182.56L556.948 182.56C558.905 182.56 560.575 183.251 561.956 184.575C563.338 185.899 564.029 187.511 564.029 189.468L564.029 189.468L564.029 189.468ZM556.947 185.726L550.211 185.726L550.211 193.441L556.947 193.441C557.983 193.441 558.904 193.096 559.595 192.347C560.344 191.599 560.689 190.678 560.689 189.584C560.689 188.49 560.344 187.626 559.595 186.878C558.847 186.129 557.983 185.726 556.947 185.726L556.947 185.726ZM557.757 204.726C558.909 204.726 559.83 204.323 560.636 203.517C561.384 202.711 561.787 201.732 561.787 200.581C561.787 199.429 561.384 198.508 560.636 197.702C559.83 196.896 558.909 196.493 557.815 196.493L550.273 196.493L550.273 204.726L557.815 204.726L557.757 204.726ZM572.435 204.725L584.18 204.725L584.18 207.891L569.096 207.891L569.096 182.56L584.007 182.56L584.007 185.726L572.435 185.726L572.435 193.498L583.086 193.498L583.086 196.665L572.435 196.665L572.435 204.667L572.435 204.725ZM603.872 182.617L607.211 182.617L607.211 207.949L603.872 207.949L603.872 196.55L591.552 196.55L591.552 207.949L588.212 207.949L588.212 182.617L591.552 182.617L591.552 193.383L603.872 193.383L603.872 182.617L603.872 182.617ZM628.284 182.617L631.623 182.617L631.623 207.949L628.284 207.949L628.284 196.55L615.963 196.55L615.963 207.949L612.624 207.949L612.624 182.617L615.963 182.617L615.963 193.383L628.284 193.383L628.284 182.617L628.284 182.617ZM653.67 207.949L651.598 202.249L640.198 202.249L638.126 207.949L634.556 207.949L643.998 182.617L647.798 182.617L657.24 207.949L653.67 207.949L653.67 207.949ZM641.348 199.14L650.445 199.14L645.896 186.647L641.406 199.14L641.348 199.14ZM677.331 182.675L677.331 208.007L673.991 208.007L673.991 198.335L668.983 198.335L662.419 208.007L658.62 208.007L665.356 198.104C663.628 197.701 662.189 196.78 661.038 195.341C659.886 193.902 659.31 192.29 659.31 190.505C659.31 188.317 660.059 186.475 661.613 184.978C663.168 183.423 665.01 182.675 667.14 182.675L677.273 182.675L677.331 182.675ZM667.198 195.284L673.991 195.284L673.991 185.842L667.198 185.842C665.989 185.842 664.895 186.302 664.031 187.224C663.168 188.145 662.707 189.239 662.707 190.563C662.707 191.887 663.168 192.981 664.031 193.902C664.895 194.823 665.989 195.284 667.198 195.284L667.198 195.284ZM707.961 182.675L707.961 185.842L700.477 185.842L700.477 207.949L697.138 207.949L697.138 185.842L689.711 185.842L689.711 182.675L707.961 182.675L707.961 182.675ZM714.639 204.783L726.384 204.783L726.384 207.949L711.3 207.949L711.3 182.617L726.211 182.617L726.211 185.784L714.639 185.784L714.639 193.556L725.29 193.556L725.29 196.723L714.639 196.723L714.639 204.725L714.639 204.783ZM748.434 207.949L744.577 207.949L738.359 197.989L732.141 207.949L728.341 207.949L736.459 194.938L728.802 182.617L732.602 182.617L738.359 191.829L744.116 182.617L747.916 182.617L740.259 194.88L748.376 207.949L748.434 207.949ZM767.435 182.617L770.774 182.617L770.774 207.949L767.435 207.949L767.435 196.55L755.114 196.55L755.114 207.949L751.775 207.949L751.775 182.617L755.114 182.617L755.114 193.383L767.435 193.383L767.435 182.617L767.435 182.617ZM791.898 207.949L791.898 189.065L778.887 207.949L776.181 207.949L776.181 182.617L779.52 182.617L779.52 201.501L792.532 182.617L795.237 182.617L795.237 207.949L791.898 207.949L791.898 207.949ZM819.072 207.949L814.927 207.949L803.988 195.801L803.988 207.949L800.649 207.949L800.649 182.617L803.988 182.617L803.988 194.017L814.524 182.617L818.669 182.617L807.5 194.938L819.014 207.949L819.072 207.949ZM839.228 207.949L837.155 202.249L825.756 202.249L823.683 207.949L820.114 207.949L829.556 182.617L833.355 182.617L842.797 207.949L839.228 207.949L839.228 207.949ZM826.906 199.14L836.002 199.14L831.454 186.647L826.963 199.14L826.906 199.14ZM860.813 198.162C860.007 198.968 859.086 199.371 857.935 199.371C856.783 199.371 855.862 198.968 855.056 198.162C854.25 197.356 853.847 196.377 853.847 195.283C853.847 194.189 854.25 193.211 855.056 192.405C855.862 191.599 856.841 191.253 857.935 191.253C859.029 191.253 860.007 191.656 860.813 192.405C861.619 193.211 861.965 194.132 861.965 195.283C861.965 196.435 861.562 197.356 860.813 198.162L860.813 198.162ZM887.357 208.409C883.5 208.409 880.333 207.143 877.858 204.609C875.382 202.076 874.116 198.967 874.116 195.283C874.116 191.598 875.382 188.489 877.858 185.956C880.333 183.423 883.5 182.156 887.357 182.156C889.66 182.156 891.79 182.732 893.748 183.826C895.705 184.92 897.202 186.417 898.296 188.317L895.36 190.044C894.611 188.662 893.575 187.511 892.136 186.705C890.696 185.899 889.142 185.438 887.357 185.438C884.421 185.438 882.061 186.359 880.218 188.259C878.376 190.159 877.455 192.462 877.455 195.283C877.455 198.104 878.376 200.407 880.218 202.307C882.061 204.206 884.421 205.128 887.357 205.128C889.084 205.128 890.696 204.725 892.136 203.861C893.575 203.055 894.669 201.904 895.36 200.579L898.296 202.249C897.26 204.149 895.705 205.646 893.805 206.74C891.905 207.833 889.718 208.409 887.415 208.409L887.357 208.409ZM905.43 204.783L917.175 204.783L917.175 207.949L902.091 207.949L902.091 182.617L917.002 182.617L917.002 185.784L905.43 185.784L905.43 193.556L916.081 193.556L916.081 196.723L905.43 196.723L905.43 204.725L905.43 204.783ZM930.418 182.675C932.779 182.675 934.678 183.481 936.233 185.036C937.787 186.59 938.593 188.547 938.593 190.85C938.593 193.153 937.787 195.053 936.233 196.607C934.678 198.162 932.721 198.968 930.418 198.968L924.603 198.968L924.603 208.007L921.264 208.007L921.264 182.675L930.476 182.675L930.418 182.675ZM930.418 195.802C931.8 195.802 932.951 195.341 933.872 194.362C934.793 193.384 935.254 192.232 935.254 190.793C935.254 189.354 934.793 188.145 933.872 187.224C932.951 186.302 931.8 185.842 930.418 185.842L924.603 185.842L924.603 195.802L930.418 195.802L930.418 195.802ZM959.781 189.584C959.781 191.829 958.86 193.614 957.017 194.88C958.169 195.456 959.09 196.204 959.781 197.241C960.472 198.277 960.817 199.486 960.817 200.81C960.817 202.825 960.126 204.552 958.687 205.934C957.248 207.316 955.52 208.007 953.505 208.007L942.567 208.007L942.567 182.675L952.7 182.675C954.657 182.675 956.327 183.366 957.708 184.69C959.09 186.014 959.781 187.626 959.781 189.584L959.781 189.584L959.781 189.584ZM952.698 185.842L945.962 185.842L945.962 193.556L952.698 193.556C953.735 193.556 954.656 193.211 955.347 192.463C956.095 191.714 956.441 190.793 956.441 189.699C956.441 188.605 956.095 187.742 955.347 186.993C954.598 186.245 953.735 185.842 952.698 185.842L952.698 185.842ZM953.502 204.84C954.654 204.84 955.575 204.437 956.381 203.631C957.13 202.825 957.532 201.846 957.532 200.695C957.532 199.543 957.129 198.622 956.381 197.816C955.575 197.01 954.654 196.607 953.56 196.607L946.018 196.607L946.018 204.84L953.56 204.84L953.502 204.84ZM980.564 208.007L980.564 189.123L967.553 208.007L964.847 208.007L964.847 182.675L968.186 182.675L968.186 201.559L981.198 182.675L983.904 182.675L983.904 208.007L980.564 208.007L980.564 208.007ZM1001.23 208.467C997.373 208.467 994.206 207.2 991.731 204.667C989.255 202.134 987.989 199.025 987.989 195.34C987.989 191.656 989.255 188.547 991.731 186.014C994.206 183.481 997.373 182.214 1001.23 182.214C1003.53 182.214 1005.66 182.79 1007.62 183.884C1009.58 184.977 1011.08 186.474 1012.17 188.374L1009.23 190.101C1008.48 188.72 1007.45 187.568 1006.01 186.762C1004.57 185.956 1003.01 185.496 1001.23 185.496C998.294 185.496 995.934 186.417 994.091 188.317C992.249 190.216 991.328 192.519 991.328 195.34C991.328 198.161 992.249 200.464 994.091 202.364C995.934 204.264 998.294 205.185 1001.23 205.185C1002.96 205.185 1004.57 204.782 1006.01 203.919C1007.45 203.113 1008.54 201.961 1009.23 200.637L1012.17 202.307C1011.13 204.206 1009.58 205.703 1007.68 206.797C1005.78 207.891 1003.59 208.467 1001.29 208.467L1001.23 208.467Z" id="Shape" fill="#90989C" fill-rule="evenodd" stroke="none" />
      <path d="M134.143 48.0153L109.905 23.7776C108.753 22.6261 106.796 23.4321 106.796 25.0441L106.796 36.7888C106.796 38.9766 107.66 41.0491 109.214 42.6036L118.944 52.3332C140.476 73.8652 152.566 103.112 152.566 133.567C152.566 164.023 141.166 191.542 120.786 212.901L120.786 213.189L84.7459 249.229C84.2278 249.747 83.4218 249.747 82.9612 249.229L17.7897 183.885C16.1777 182.273 15.2566 180.028 15.2566 177.725L15.2566 89.4096C15.2566 87.1067 16.1777 84.8614 17.7897 83.2494L72.8861 28.153C74.1527 26.8864 76.2828 27.8076 76.2828 29.5347L76.2828 211.117C76.2828 213.938 79.7372 215.377 81.7522 213.362L136.043 159.072C136.849 158.208 137.367 157.114 137.367 155.905L137.367 142.145C137.367 140.764 135.697 140.015 134.661 141.052L91.597 184.115L91.597 145.312L120.786 116.123C121.65 115.259 122.11 114.166 122.11 112.957L122.11 99.1968C122.11 97.8151 120.441 97.1242 119.404 98.103L91.597 125.91L91.597 87.1067L105.587 73.0592C106.393 72.2531 106.854 71.1017 106.854 69.9503L106.854 56.1906C106.854 54.8088 105.184 54.118 104.148 55.0967L91.597 67.7625L91.597 7.59983C91.597 6.16053 91.0213 4.7788 89.985 3.74251L87.7972 1.55478C85.6671 -0.575387 82.2703 -0.575387 80.1402 1.55478L7.82979 73.8652C2.82103 78.8739 0 85.6674 0 92.7488L0 174.443C0 181.525 2.82103 188.318 7.82979 193.327L79.5644 265.062C81.9249 267.422 85.8398 267.422 88.2002 265.062L134.488 218.774C155.79 197.472 167.765 168.513 167.765 138.346L167.765 129.192C167.765 98.7362 155.675 69.4897 134.143 47.9577" id="Shape" fill="#39A433" stroke="none" />
      <path d="M34.1392 86.3582L42.1993 78.2981C43.5235 76.9739 45.7688 77.8951 45.7688 79.795L45.7688 127.81C45.7688 131.092 44.4446 134.258 42.1417 136.561L34.0817 144.621C32.7575 145.945 30.5122 145.024 30.5122 143.124L30.5122 95.1091C30.5122 91.8275 31.8364 88.661 34.1392 86.3582" id="Shape" fill="#90989C" stroke="none" />
      <path d="M49.398 148.709L57.4581 140.649C58.7823 139.325 61.0276 140.246 61.0276 142.146L61.0276 202.942C61.0276 204.784 58.7823 205.763 57.4581 204.439L49.398 196.379C47.0952 194.076 45.771 190.909 45.771 187.628L45.771 157.518C45.771 154.236 47.0951 151.069 49.398 148.767" id="Shape" fill="#90989C" stroke="none" />
    </g>
  </g>
</svg>