<?xml version="1.0" encoding="utf-8"?>
<svg width="437.43628px" height="342.13004px" viewBox="0 0 437.43628 342.13004" version="1.1" xmlns:xlink="http://www.w3.org/1999/xlink" xmlns="http://www.w3.org/2000/svg">
  <defs>
    <path d="M0 0L437.436 0L437.436 342.13L0 342.13L0 0Z" id="path_1" />
    <clipPath id="mask_1">
      <use xlink:href="#path_1" />
    </clipPath>
  </defs>
  <g id="logo_v">
    <path d="M0 0L437.436 0L437.436 342.13L0 342.13L0 0Z" id="Background" fill="none" fill-rule="evenodd" stroke="none" />
    <g clip-path="url(#mask_1)">
      <path d="M0 300.695L0 298.565L8.38696 298.565L8.38696 301.615C8.38696 303.929 8.75504 305.638 9.4912 306.742C10.2274 307.846 11.5419 308.425 13.4612 308.425C15.0387 308.425 16.2744 307.794 17.142 306.558C18.0096 305.322 18.4303 303.587 18.4303 301.378L18.4303 293.675L11.4105 293.675L11.4105 286.971L18.4303 286.971L18.4303 283.369C18.4303 280.871 18.0885 279.004 17.3786 277.769C16.6688 276.533 15.3805 275.928 13.4875 275.928C11.5945 275.928 10.3062 276.559 9.54378 277.821C8.78133 279.083 8.41325 280.95 8.41325 283.395L0 283.395L0 281.555C0 277.821 1.15682 274.824 3.49676 272.589C5.8104 270.355 9.14941 269.224 13.4612 269.224C17.773 269.224 21.2697 270.328 23.5571 272.563C25.8444 274.798 26.975 277.769 26.975 281.529L26.975 300.353C26.975 305.401 25.8444 309.134 23.6097 311.527C21.3749 313.946 18.0359 315.129 13.5927 315.129C9.14941 315.129 5.54749 313.998 3.33901 311.711C1.13053 309.424 0.0262926 305.769 0.0262926 300.695L0 300.695ZM31.6289 307.373L34.2318 307.373C35.7041 304.008 36.7557 300.695 37.3341 297.435C37.9126 294.175 38.2018 289.6 38.2018 283.711L38.2018 269.96L63.2575 269.96L63.2575 307.347L65.9392 307.347L65.9392 322.911L57.9729 322.911L57.9729 314.051L39.5952 314.051L39.5952 322.911L31.6289 322.911L31.6289 307.347L31.6289 307.373ZM42.4335 307.373L54.8431 307.373L54.8431 276.691L46.3772 276.691L46.3772 286.682C46.3772 291.467 46.0617 295.384 45.4307 298.408C44.7997 301.431 43.8007 304.402 42.4072 307.373L42.4335 307.373ZM70.751 314.077L70.751 269.987L94.3344 269.987L94.3344 276.691L79.1379 276.691L79.1379 286.971L92.9935 286.971L92.9935 293.675L79.1379 293.675L79.1379 307.373L94.3344 307.373L94.3344 314.077L70.751 314.077L70.751 314.077ZM102.458 314.892C100.512 314.892 98.8298 314.708 97.3838 314.34L97.3838 308.267C98.0411 308.477 98.935 308.609 100.066 308.609C101.012 308.609 101.722 308.293 102.195 307.636C102.642 306.979 103.01 305.401 103.273 302.877C103.536 300.353 103.667 296.462 103.667 291.204L103.667 269.987L129.196 269.987L129.196 314.077L120.809 314.077L120.809 276.691L111.87 276.691L111.87 293.623C111.87 301.142 111.16 306.558 109.741 309.897C108.321 313.236 105.902 314.892 102.432 314.892L102.432 314.892L102.458 314.892ZM135.662 314.077L135.662 269.987L144.049 269.987L144.049 286.971L151.069 286.971C153.251 286.971 155.223 287.628 156.984 288.943C158.746 290.257 160.061 291.887 160.981 293.859C161.875 295.831 162.348 297.855 162.348 299.985C162.348 304.271 161.428 307.715 159.561 310.265C157.694 312.815 155.118 314.104 151.831 314.104L135.688 314.104L135.662 314.077ZM144.05 307.793L148.887 307.793C150.491 307.793 151.727 307.268 152.542 306.19C153.357 305.112 153.778 303.376 153.778 300.984C153.778 298.776 153.357 297.014 152.489 295.699C151.622 294.385 150.439 293.728 148.887 293.728L144.05 293.728L144.05 307.82L144.05 307.793ZM168.107 314.077L168.107 269.987L183.856 269.987C185.749 269.987 187.432 270.276 188.878 270.854C190.324 271.433 191.48 272.248 192.322 273.273C193.163 274.298 193.82 275.429 194.241 276.691C194.662 277.953 194.872 279.294 194.872 280.74C194.872 282.975 194.294 285.052 193.137 286.945C191.98 288.864 190.455 289.994 188.615 290.362C190.771 291.256 192.401 292.545 193.452 294.227C194.504 295.91 195.056 298.171 195.056 300.984C195.056 304.928 194.189 308.109 192.48 310.475C190.771 312.842 188.273 314.051 184.987 314.051L168.107 314.051L168.107 314.077ZM176.493 287.865L180.884 287.865C184.354 287.865 186.09 285.867 186.09 281.897C186.09 279.978 185.695 278.558 184.933 277.638C184.17 276.717 182.856 276.271 181.015 276.271L176.493 276.271L176.493 287.865L176.493 287.865ZM176.493 307.794L181.857 307.794C183.434 307.794 184.617 307.268 185.38 306.19C186.142 305.138 186.51 303.377 186.51 300.958C186.51 298.776 186.116 297.093 185.327 295.91C184.538 294.727 183.382 294.148 181.857 294.148L176.493 294.148L176.493 307.767L176.493 307.794ZM200.288 314.077L200.288 269.987L223.871 269.987L223.871 276.691L208.675 276.691L208.675 286.971L222.531 286.971L222.531 293.675L208.675 293.675L208.675 307.373L223.871 307.373L223.871 314.077L200.288 314.077L200.288 314.077ZM229.102 314.077L229.102 269.987L236.91 269.987L236.91 286.524C236.91 293.728 236.568 298.907 235.858 302.062L235.911 302.062L248.137 269.987L257.181 269.987L257.181 314.077L249.372 314.077L249.372 297.356C249.372 290.389 249.714 285.288 250.424 282.081L250.371 282.081L238.146 314.077L229.102 314.077L229.102 314.077ZM242.723 267.173C236.965 267.173 234.1 264.124 234.1 258.024L238.464 258.024C238.464 259.654 238.858 260.89 239.621 261.757C240.41 262.625 241.488 263.046 242.855 263.046C244.222 263.046 245.326 262.625 246.089 261.757C246.877 260.89 247.272 259.654 247.272 258.024L251.583 258.024C251.583 264.124 248.639 267.173 242.723 267.173L242.723 267.173L242.723 267.173ZM263.02 300.406L263.02 284.368C263.02 279.241 264.176 275.429 266.464 272.957C268.751 270.46 272.195 269.224 276.77 269.224C281.003 269.224 284.289 270.355 286.55 272.616C288.838 274.877 289.968 278.058 289.968 282.159L289.968 284.368L281.581 284.368L281.581 283.395C281.581 280.661 281.213 278.715 280.451 277.611C279.688 276.507 278.426 275.928 276.638 275.928C274.851 275.928 273.536 276.481 272.747 277.611C271.959 278.742 271.564 280.661 271.564 283.369L271.564 300.774C271.564 303.587 271.959 305.585 272.721 306.716C273.484 307.846 274.772 308.425 276.586 308.425C278.4 308.425 279.583 307.846 280.398 306.689C281.213 305.533 281.608 303.561 281.608 300.8L281.608 298.408L289.995 298.408L289.995 300.274C289.995 310.186 285.551 315.129 276.665 315.129C274.535 315.129 272.668 314.866 271.038 314.314C269.408 313.788 268.094 313.078 267.095 312.184C266.096 311.317 265.281 310.212 264.676 308.924C264.071 307.61 263.624 306.295 263.388 304.928C263.151 303.561 263.02 302.062 263.02 300.379L263.02 300.406ZM294.859 301.142L294.859 295.621L310.424 295.621L310.424 301.142L294.859 301.142L294.859 301.142ZM312.867 314.077L324.146 269.987L335.373 269.987L345.153 314.077L336.082 314.077L334.032 302.588L324.567 302.588L321.938 314.077L312.867 314.077L312.867 314.077ZM325.593 296.068L332.981 296.068L329.615 275.56L325.593 296.068L325.593 296.068ZM348.518 314.077L348.518 269.987L371.681 269.987L371.681 276.691L356.879 276.691L356.879 314.077L348.492 314.077L348.518 314.077ZM375.993 314.077L375.993 269.987L391.821 269.987C394.134 269.987 396.211 270.565 397.973 271.722C399.761 272.879 401.101 274.43 402.022 276.375C402.942 278.321 403.415 280.477 403.415 282.869C403.415 285.262 402.942 287.523 401.995 289.521C401.049 291.519 399.682 293.123 397.868 294.332C396.08 295.542 394.003 296.147 391.689 296.147L384.354 296.147L384.354 314.104L375.967 314.104L375.993 314.077ZM384.382 289.6L388.588 289.6C390.665 289.6 392.243 289.021 393.295 287.891C394.346 286.76 394.872 285.13 394.872 283.001C394.872 280.871 394.346 279.294 393.295 278.163C392.243 277.059 390.665 276.48 388.588 276.48L384.382 276.48L384.382 289.574L384.382 289.6ZM423.265 315.129C413.695 315.129 408.91 310.186 408.91 300.274L408.91 284.289C408.91 281.581 409.252 279.241 409.962 277.269C410.645 275.297 411.644 273.72 412.959 272.563C414.274 271.406 415.772 270.539 417.455 270.013C419.138 269.487 421.083 269.198 423.265 269.198C425.447 269.198 427.419 269.461 429.102 269.987C430.785 270.512 432.257 271.354 433.545 272.51C434.833 273.667 435.806 275.218 436.464 277.217C437.121 279.188 437.463 281.555 437.463 284.289L437.463 300.274C437.463 303.009 437.121 305.375 436.464 307.32C435.806 309.266 434.807 310.817 433.519 311.921C432.231 313.026 430.758 313.841 429.076 314.34C427.393 314.84 425.474 315.103 423.265 315.103L423.265 315.103L423.265 315.129ZM417.481 301.326C417.481 306.058 419.401 308.424 423.266 308.424C425.08 308.424 426.473 307.82 427.446 306.61C428.419 305.401 428.918 303.639 428.918 301.326L428.918 283.421C428.918 281.055 428.419 279.215 427.446 277.9C426.473 276.586 425.08 275.928 423.292 275.928C419.427 275.928 417.508 278.4 417.508 283.316L417.508 301.326L417.481 301.326Z" id="Shape" fill="#90989C" fill-rule="evenodd" stroke="none" />
      <path d="M9.17642 342.13C7.07311 342.13 5.36417 341.446 3.99702 340.053C2.62987 338.66 1.94629 336.977 1.94629 334.952C1.94629 332.928 2.62987 331.245 3.99702 329.852C5.36417 328.458 7.0994 327.775 9.17642 327.775C10.4384 327.775 11.5952 328.09 12.6732 328.695C13.7248 329.3 14.5662 330.115 15.1446 331.14L13.5408 332.06C13.1464 331.298 12.568 330.693 11.7793 330.246C10.9905 329.799 10.1229 329.563 9.17642 329.563C7.57265 329.563 6.28437 330.089 5.2853 331.114C4.28622 332.139 3.78669 333.428 3.78669 334.979C3.78669 336.53 4.28622 337.792 5.2853 338.817C6.28437 339.843 7.59894 340.368 9.17642 340.368C10.1229 340.368 10.9905 340.132 11.7793 339.685C12.568 339.238 13.1464 338.633 13.5408 337.871L15.1446 338.791C14.5662 339.816 13.7511 340.631 12.6732 341.262C11.5952 341.867 10.4384 342.183 9.17643 342.183L9.17642 342.13ZM19.0611 340.132L25.4762 340.132L25.4762 341.867L17.2207 341.867L17.2207 328.038L25.371 328.038L25.371 329.773L19.0611 329.773L19.0611 334.032L24.8978 334.032L24.8978 335.741L19.0611 335.741L19.0611 340.132L19.0611 340.132ZM26.4766 341.867L26.4766 340.211C27.3968 340.342 28.054 340.079 28.5273 339.448C28.9742 338.817 29.2109 337.634 29.2109 335.873L29.2109 328.038L38.334 328.038L38.334 341.867L36.4936 341.867L36.4936 329.773L31.0513 329.773L31.0513 335.873C31.0513 337.108 30.9461 338.16 30.7095 338.975C30.4729 339.816 30.1574 340.447 29.7104 340.868C29.2897 341.289 28.8165 341.578 28.2907 341.736C27.7648 341.893 27.1601 341.92 26.4766 341.867L26.4766 341.867ZM46.3 332.981C47.5883 332.981 48.6399 333.401 49.4812 334.269C50.3226 335.137 50.7432 336.188 50.7432 337.424C50.7432 338.66 50.3226 339.738 49.4812 340.605C48.6399 341.446 47.562 341.867 46.3 341.867L41.2783 341.867L41.2783 328.038L43.1187 328.038L43.1187 332.981L46.3 332.981L46.3 332.981ZM46.3004 340.158C47.0629 340.158 47.6938 339.895 48.1934 339.396C48.6929 338.87 48.9558 338.239 48.9558 337.45C48.9558 336.661 48.6929 336.03 48.1934 335.505C47.6938 334.979 47.0628 334.716 46.3004 334.716L43.1191 334.716L43.1191 340.158L46.3004 340.158L46.3004 340.158ZM59.446 342.13C57.3426 342.13 55.6337 341.446 54.2666 340.053C52.8994 338.66 52.2158 336.977 52.2158 334.952C52.2158 332.928 52.8994 331.245 54.2666 329.852C55.6337 328.458 57.3689 327.775 59.446 327.775C60.7079 327.775 61.8648 328.09 62.9427 328.695C63.9944 329.3 64.8357 330.115 65.4141 331.14L63.8103 332.06C63.416 331.298 62.8375 330.693 62.0488 330.246C61.2601 329.799 60.3924 329.563 59.446 329.563C57.8422 329.563 56.5539 330.089 55.5548 331.114C54.5558 332.139 54.0562 333.428 54.0562 334.979C54.0562 336.53 54.5558 337.792 55.5548 338.817C56.5539 339.843 57.8685 340.368 59.446 340.368C60.3924 340.368 61.2601 340.132 62.0488 339.685C62.8375 339.238 63.416 338.633 63.8103 337.871L65.4141 338.791C64.8357 339.816 64.0207 340.631 62.9427 341.262C61.8648 341.867 60.7079 342.183 59.446 342.183L59.446 342.13ZM77.5335 341.867L75.2724 341.867L69.3043 335.242L69.3043 341.867L67.4639 341.867L67.4639 328.038L69.3043 328.038L69.3043 334.269L75.0621 328.038L77.3232 328.038L71.2235 334.742L77.5335 341.841L77.5335 341.867ZM91.574 334.953C91.574 336.951 90.8904 338.633 89.497 340.027C88.1035 341.42 86.4209 342.13 84.4227 342.13C82.4246 342.13 80.742 341.42 79.3485 340.027C77.9551 338.633 77.2715 336.951 77.2715 334.953C77.2715 332.954 77.9551 331.245 79.3485 329.878C80.742 328.485 82.4246 327.801 84.4227 327.801C86.4209 327.801 88.1298 328.485 89.497 329.878C90.8904 331.272 91.574 332.954 91.574 334.953L91.574 334.953L91.574 334.953ZM79.0586 334.952C79.0586 336.477 79.5581 337.739 80.5835 338.764C81.6089 339.79 82.8708 340.316 84.3958 340.316C85.9206 340.316 87.1826 339.79 88.208 338.764C89.2334 337.739 89.7329 336.451 89.7329 334.952C89.7329 333.454 89.2334 332.139 88.208 331.114C87.1826 330.088 85.9207 329.563 84.3958 329.563C82.8708 329.563 81.6089 330.088 80.5835 331.114C79.5581 332.139 79.0586 333.427 79.0586 334.952L79.0586 334.952L79.0586 334.952ZM102.958 341.867L100.854 341.867L97.4628 336.425L94.0712 341.867L91.9941 341.867L96.4374 334.768L92.257 328.064L94.3341 328.064L97.4627 333.112L100.591 328.064L102.668 328.064L98.4881 334.768L102.931 341.893L102.958 341.867ZM117.708 334.953C117.708 336.951 117.024 338.633 115.631 340.027C114.237 341.42 112.555 342.13 110.557 342.13C108.558 342.13 106.876 341.42 105.482 340.027C104.089 338.633 103.405 336.951 103.405 334.953C103.405 332.954 104.089 331.245 105.482 329.878C106.876 328.485 108.558 327.801 110.557 327.801C112.555 327.801 114.264 328.485 115.631 329.878C117.024 331.272 117.708 332.954 117.708 334.953L117.708 334.953L117.708 334.953ZM105.191 334.952C105.191 336.477 105.691 337.739 106.716 338.764C107.742 339.79 109.004 340.316 110.529 340.316C112.053 340.316 113.315 339.79 114.341 338.764C115.366 337.739 115.866 336.451 115.866 334.952C115.866 333.454 115.366 332.139 114.341 331.114C113.315 330.088 112.053 329.563 110.529 329.563C109.004 329.563 107.742 330.088 106.716 331.114C105.691 332.139 105.191 333.427 105.191 334.952L105.191 334.952L105.191 334.952ZM127.857 331.692C127.857 333.007 127.279 334.006 126.122 334.716C126.832 335.031 127.384 335.452 127.778 336.03C128.173 336.609 128.383 337.292 128.383 338.081C128.383 339.264 127.936 340.237 127.042 340.973C126.148 341.709 124.965 342.104 123.519 342.104C122.178 342.104 121.127 341.814 120.311 341.21C119.496 340.605 118.944 339.843 118.603 338.922L120.154 338.028C120.574 339.58 121.679 340.368 123.519 340.368C124.492 340.368 125.228 340.158 125.754 339.737C126.28 339.317 126.543 338.738 126.543 338.028C126.543 337.319 126.306 336.74 125.806 336.32C125.307 335.873 124.623 335.662 123.729 335.662L122.099 335.662L122.099 333.98L123.256 333.98C124.097 333.98 124.781 333.769 125.281 333.349C125.78 332.928 126.043 332.402 126.043 331.719C126.043 331.035 125.806 330.535 125.333 330.115C124.86 329.694 124.229 329.484 123.388 329.484C121.863 329.484 120.837 330.167 120.338 331.508L118.787 330.614C119.628 328.695 121.153 327.749 123.388 327.749C124.728 327.749 125.806 328.117 126.621 328.853C127.436 329.589 127.857 330.535 127.857 331.666L127.857 331.666L127.857 331.692ZM139.635 328.038L139.635 341.867L137.821 341.867L137.821 336.583L135.086 336.583L131.511 341.867L129.434 341.867L133.114 336.451C132.168 336.214 131.379 335.715 130.774 334.952C130.143 334.164 129.854 333.296 129.854 332.323C129.854 331.14 130.275 330.115 131.116 329.3C131.958 328.459 132.957 328.038 134.14 328.038L139.661 328.038L139.635 328.038ZM134.114 334.9L137.821 334.9L137.821 329.747L134.114 329.747C133.43 329.747 132.852 330.009 132.379 330.509C131.879 331.009 131.643 331.613 131.643 332.323C131.643 333.033 131.879 333.638 132.379 334.137C132.878 334.637 133.457 334.9 134.114 334.9L134.114 334.9ZM151.202 341.841L151.202 331.535L144.103 341.841L142.631 341.841L142.631 328.011L144.471 328.011L144.471 338.344L151.57 328.011L153.042 328.011L153.042 341.841L151.202 341.841L151.202 341.841ZM145.154 327.67L145.154 325.041L150.491 325.041L150.491 327.67L145.154 327.67L145.154 327.67ZM162.509 342.104C160.406 342.104 158.697 341.42 157.33 340.027C155.963 338.633 155.279 336.951 155.279 334.926C155.279 332.902 155.963 331.219 157.33 329.826C158.697 328.432 160.432 327.749 162.509 327.749C163.771 327.749 164.928 328.064 166.006 328.669C167.058 329.273 167.899 330.088 168.478 331.114L166.874 332.034C166.479 331.272 165.901 330.667 165.112 330.22C164.324 329.773 163.456 329.536 162.509 329.536C160.906 329.536 159.617 330.062 158.618 331.088C157.619 332.113 157.12 333.401 157.12 334.952C157.12 336.504 157.619 337.766 158.618 338.791C159.617 339.816 160.932 340.342 162.509 340.342C163.456 340.342 164.324 340.105 165.112 339.659C165.901 339.212 166.479 338.607 166.874 337.844L168.478 338.765C167.899 339.79 167.084 340.605 166.006 341.236C164.928 341.841 163.771 342.156 162.509 342.156L162.509 342.104ZM179.228 328.011L179.228 329.747L175.127 329.747L175.127 341.841L173.312 341.841L173.312 329.747L169.237 329.747L169.237 328.012L179.202 328.012L179.228 328.011ZM190.456 331.771C190.456 333.007 189.957 333.953 188.958 334.663C189.589 334.979 190.088 335.399 190.456 335.978C190.824 336.556 191.008 337.187 191.008 337.923C191.008 339.028 190.614 339.948 189.852 340.71C189.063 341.473 188.116 341.841 187.012 341.841L181.044 341.841L181.044 328.011L186.565 328.011C187.643 328.011 188.563 328.38 189.299 329.089C190.062 329.826 190.43 330.72 190.43 331.771L190.43 331.771L190.456 331.771ZM186.591 329.72L182.91 329.72L182.91 333.953L186.591 333.953C187.169 333.953 187.669 333.743 188.063 333.349C188.458 332.928 188.668 332.428 188.668 331.85C188.668 331.272 188.458 330.772 188.063 330.351C187.669 329.931 187.169 329.72 186.617 329.72L186.591 329.72ZM187.038 340.106C187.669 340.106 188.168 339.895 188.589 339.448C189.01 339.001 189.22 338.476 189.22 337.845C189.22 337.214 189.01 336.688 188.589 336.267C188.168 335.82 187.643 335.61 187.038 335.61L182.91 335.61L182.91 340.106L187.038 340.106L187.038 340.106ZM195.056 340.105L201.471 340.105L201.471 341.841L193.216 341.841L193.216 328.011L201.366 328.011L201.366 329.747L195.056 329.747L195.056 334.006L200.893 334.006L200.893 335.715L195.056 335.715L195.056 340.106L195.056 340.105ZM212.252 328.011L214.066 328.011L214.066 341.841L212.252 341.841L212.252 335.61L205.547 335.61L205.547 341.841L203.707 341.841L203.707 328.011L205.547 328.011L205.547 333.874L212.252 333.874L212.252 328.011L212.252 328.011ZM225.58 328.011L227.394 328.011L227.394 341.841L225.58 341.841L225.58 335.61L218.876 335.61L218.876 341.841L217.035 341.841L217.035 328.011L218.876 328.011L218.876 333.874L225.58 333.874L225.58 328.011L225.58 328.011ZM239.463 341.841L238.333 338.738L232.101 338.738L230.971 341.841L229.025 341.841L234.179 328.011L236.256 328.011L241.409 341.841L239.463 341.841L239.463 341.841ZM232.758 337.029L237.727 337.029L235.229 330.22L232.758 337.029L232.758 337.029ZM252.424 328.011L252.424 341.841L250.61 341.841L250.61 336.556L247.875 336.556L244.3 341.841L242.223 341.841L245.903 336.425C244.957 336.188 244.168 335.689 243.564 334.926C242.933 334.137 242.643 333.27 242.643 332.297C242.643 331.114 243.064 330.089 243.905 329.273C244.747 328.432 245.746 328.011 246.929 328.011L252.45 328.011L252.424 328.011ZM246.905 334.874L250.612 334.874L250.612 329.72L246.905 329.72C246.221 329.72 245.643 329.983 245.17 330.483C244.67 330.982 244.434 331.587 244.434 332.297C244.434 333.007 244.67 333.612 245.17 334.111C245.669 334.611 246.248 334.874 246.905 334.874L246.905 334.874ZM269.171 328.011L269.171 329.747L265.07 329.747L265.07 341.841L263.256 341.841L263.256 329.747L259.181 329.747L259.181 328.011L269.145 328.011L269.171 328.011ZM272.827 340.105L279.242 340.105L279.242 341.841L270.986 341.841L270.986 328.011L279.137 328.011L279.137 329.747L272.827 329.747L272.827 334.006L278.663 334.006L278.663 335.715L272.827 335.715L272.827 340.106L272.827 340.105ZM291.283 341.841L289.18 341.841L285.788 336.398L282.396 341.841L280.319 341.841L284.763 334.742L280.582 328.038L282.659 328.038L285.788 333.086L288.917 328.038L290.994 328.038L286.813 334.742L291.257 341.867L291.283 341.841ZM301.643 328.011L303.457 328.011L303.457 341.841L301.643 341.841L301.643 335.61L294.939 335.61L294.939 341.841L293.099 341.841L293.099 328.011L294.939 328.011L294.939 333.874L301.643 333.874L301.643 328.011L301.643 328.011ZM315.025 341.841L315.025 331.535L307.926 341.841L306.454 341.841L306.454 328.011L308.294 328.011L308.294 338.344L315.393 328.011L316.865 328.011L316.865 341.841L315.025 341.841L315.025 341.841ZM329.88 341.841L327.619 341.841L321.651 335.215L321.651 341.841L319.811 341.841L319.811 328.011L321.651 328.011L321.651 334.243L327.409 328.011L329.67 328.011L323.57 334.716L329.88 341.814L329.88 341.841ZM340.869 341.841L339.739 338.738L333.508 338.738L332.377 341.841L330.432 341.841L335.585 328.011L337.662 328.011L342.815 341.841L340.869 341.841L340.869 341.841ZM334.165 337.029L339.134 337.029L336.636 330.22L334.165 337.029L334.165 337.029ZM352.675 336.504C352.254 336.951 351.728 337.161 351.097 337.161C350.466 337.161 349.94 336.951 349.52 336.504C349.073 336.057 348.862 335.531 348.862 334.926C348.862 334.322 349.073 333.796 349.52 333.349C349.967 332.928 350.492 332.718 351.097 332.718C351.702 332.718 352.228 332.928 352.675 333.349C353.095 333.769 353.306 334.295 353.306 334.926C353.306 335.557 353.095 336.083 352.675 336.504L352.675 336.504ZM367.16 342.104C365.057 342.104 363.348 341.42 361.98 340.027C360.613 338.633 359.93 336.951 359.93 334.926C359.93 332.902 360.613 331.219 361.98 329.826C363.348 328.432 365.083 327.749 367.16 327.749C368.422 327.749 369.579 328.064 370.657 328.669C371.708 329.273 372.55 330.088 373.128 331.114L371.524 332.034C371.13 331.272 370.551 330.667 369.763 330.22C368.974 329.773 368.106 329.536 367.16 329.536C365.556 329.536 364.268 330.062 363.269 331.088C362.27 332.113 361.77 333.401 361.77 334.952C361.77 336.504 362.27 337.766 363.269 338.791C364.268 339.816 365.582 340.342 367.16 340.342C368.106 340.342 368.974 340.105 369.763 339.659C370.551 339.212 371.13 338.607 371.524 337.844L373.128 338.765C372.55 339.79 371.735 340.605 370.657 341.236C369.579 341.841 368.422 342.156 367.16 342.156L367.16 342.104ZM377.044 340.105L383.46 340.105L383.46 341.841L375.204 341.841L375.204 328.011L383.354 328.011L383.354 329.747L377.045 329.747L377.045 334.006L382.881 334.006L382.881 335.715L377.045 335.715L377.045 340.106L377.044 340.105ZM390.692 328.011C391.98 328.011 393.032 328.432 393.873 329.273C394.714 330.115 395.135 331.193 395.135 332.455C395.135 333.717 394.714 334.768 393.873 335.61C393.032 336.477 391.954 336.898 390.692 336.898L387.51 336.898L387.51 341.841L385.67 341.841L385.67 328.011L390.692 328.011L390.692 328.011ZM390.692 335.189C391.454 335.189 392.085 334.926 392.585 334.4C393.085 333.874 393.347 333.243 393.347 332.455C393.347 331.666 393.084 331.009 392.585 330.509C392.085 329.983 391.454 329.747 390.692 329.747L387.511 329.747L387.511 335.189L390.692 335.189L390.692 335.189ZM406.729 331.798C406.729 333.033 406.229 333.98 405.23 334.69C405.861 335.005 406.361 335.426 406.729 336.004C407.097 336.583 407.281 337.214 407.281 337.95C407.281 339.054 406.887 339.974 406.124 340.737C405.335 341.499 404.389 341.867 403.285 341.867L397.316 341.867L397.316 328.038L402.838 328.038C403.916 328.038 404.836 328.406 405.572 329.116C406.334 329.852 406.702 330.746 406.702 331.798L406.702 331.798L406.729 331.798ZM402.863 329.747L399.183 329.747L399.183 333.979L402.863 333.979C403.442 333.979 403.941 333.769 404.336 333.375C404.73 332.954 404.94 332.455 404.94 331.876C404.94 331.298 404.73 330.798 404.336 330.378C403.941 329.957 403.442 329.747 402.89 329.747L402.863 329.747ZM403.31 340.132C403.941 340.132 404.441 339.922 404.862 339.475C405.282 339.028 405.493 338.502 405.493 337.871C405.493 337.24 405.282 336.714 404.862 336.294C404.441 335.847 403.915 335.636 403.31 335.636L399.183 335.636L399.183 340.132L403.31 340.132L403.31 340.132ZM418.086 341.841L418.086 331.535L410.987 341.841L409.515 341.841L409.515 328.011L411.355 328.011L411.355 338.344L418.454 328.011L419.926 328.011L419.926 341.841L418.086 341.841L418.086 341.841ZM429.392 342.104C427.289 342.104 425.58 341.42 424.213 340.027C422.846 338.633 422.162 336.951 422.162 334.926C422.162 332.902 422.846 331.219 424.213 329.826C425.58 328.432 427.315 327.749 429.392 327.749C430.654 327.749 431.811 328.064 432.889 328.669C433.941 329.273 434.782 330.088 435.36 331.114L433.757 332.034C433.362 331.272 432.784 330.667 431.995 330.22C431.206 329.773 430.339 329.536 429.392 329.536C427.788 329.536 426.5 330.062 425.501 331.088C424.502 332.113 424.003 333.401 424.003 334.952C424.003 336.504 424.502 337.766 425.501 338.791C426.5 339.816 427.815 340.342 429.392 340.342C430.339 340.342 431.206 340.105 431.995 339.659C432.784 339.212 433.362 338.607 433.757 337.844L435.36 338.765C434.782 339.79 433.967 340.605 432.889 341.236C431.811 341.841 430.654 342.156 429.392 342.156L429.392 342.104Z" id="Shape" fill="#90989C" fill-rule="evenodd" stroke="none" />
      <path d="M261.835 41.2774L240.959 20.402C239.96 19.403 238.277 20.1128 238.277 21.5063L238.277 31.5759C238.277 33.4426 239.014 35.2567 240.354 36.5712L248.715 44.9319C267.251 63.4673 277.662 88.5756 277.662 114.788C277.662 141.001 267.855 164.663 250.319 183.014L250.319 183.277L219.295 214.275C218.874 214.695 218.164 214.695 217.744 214.275L161.769 158.116C160.376 156.723 159.587 154.804 159.587 152.832L159.587 76.9023C159.587 74.9041 160.376 73.0111 161.796 71.5914L209.173 24.2143C210.251 23.1363 212.065 23.8988 212.065 25.4237L212.065 181.542C212.065 183.987 215.01 185.197 216.745 183.488L263.412 136.82C264.122 136.111 264.543 135.138 264.543 134.112L264.543 122.281C264.543 121.072 263.096 120.467 262.229 121.335L225.184 158.379L225.184 125.016L250.293 99.9072C251.002 99.1974 251.423 98.2246 251.423 97.1992L251.423 85.3681C251.423 84.1587 249.977 83.554 249.109 84.4216L225.184 108.347L225.184 74.983L237.199 62.889C237.909 62.1791 238.304 61.2063 238.304 60.2072L238.304 48.3761C238.304 47.1667 236.831 46.562 235.99 47.4296L225.184 58.3142L225.184 6.54646C225.184 5.31076 224.685 4.12765 223.817 3.26003L221.924 1.36705C220.11 -0.447057 217.165 -0.447057 215.351 1.36705L153.225 63.4936C148.913 67.8054 146.494 73.6421 146.494 79.7417L146.494 149.992C146.494 156.092 148.913 161.929 153.225 166.24L214.931 227.946C216.981 229.997 220.294 229.997 222.345 227.946L262.15 188.141C280.475 169.816 290.781 144.944 290.781 118.995L290.781 111.134C290.781 84.9474 280.37 59.8128 261.861 41.2774" id="Shape" fill="#39A433" stroke="none" />
      <path d="M175.81 74.2468L182.725 67.3059C183.855 66.1754 185.801 66.9641 185.801 68.5942L185.801 109.898C185.801 112.711 184.671 115.419 182.699 117.417L175.758 124.332C174.627 125.462 172.682 124.674 172.682 123.07L172.682 81.7662C172.682 78.953 173.812 76.245 175.81 74.2468" id="Shape" fill="#90989C" stroke="none" />
      <path d="M188.929 127.855L195.844 120.94C196.975 119.81 198.92 120.599 198.92 122.202L198.92 174.47C198.92 176.073 196.975 176.888 195.844 175.732L188.929 168.791C186.931 166.793 185.801 164.085 185.801 161.271L185.801 135.348C185.801 132.535 186.931 129.827 188.929 127.829" id="Shape" fill="#90989C" stroke="none" />
    </g>
  </g>
</svg>