<?xml version="1.0" encoding="utf-8"?>
<svg width="454.7754px" height="177.02563px" viewBox="0 0 454.7754 177.02563" version="1.1" xmlns:xlink="http://www.w3.org/1999/xlink" xmlns="http://www.w3.org/2000/svg">
  <g id="Group">
    <g id="Group">
      <path d="M13.7362 177.026C10.3437 177.026 7.04615 175.768 4.53145 173.491C1.63718 170.857 -0.0234724 167.109 0.000251133 163.195L0.0951453 149.293C0.0951453 148.012 0.284934 146.754 0.640788 145.544L17.9115 85.4289L15.8001 85.6661C11.9095 86.0931 8.01882 84.8358 5.10082 82.2025C2.20654 79.5692 0.545893 75.8208 0.569616 71.9064L0.640787 60.1395C0.688234 53.1411 5.95487 47.3051 12.9059 46.5697L56.8419 41.7775C60.7326 41.3505 64.6233 42.6078 67.5413 45.2412C70.4593 47.8745 72.0962 51.6228 72.0725 55.5372L71.9776 69.202C71.9776 70.4356 71.7878 71.6455 71.4557 72.8317L54.2323 133.042L56.2488 132.829C60.1632 132.402 64.0302 133.659 66.9482 136.292C69.8662 138.926 71.5031 142.674 71.4794 146.588L71.4082 158.592C71.3608 165.567 66.0941 171.403 59.1668 172.162L15.2071 176.954C14.7089 177.002 14.2107 177.026 13.7125 177.026L13.7362 177.026ZM22.5374 150.621L22.5374 153.539L32.2878 152.472C32.1217 152.306 31.9794 152.14 31.8133 151.95C28.8479 148.439 27.8515 143.718 29.1088 139.305L49.5348 67.8261L49.5348 65.1454L40.0928 66.1655C40.0928 66.1655 40.2589 66.3553 40.3538 66.4739C43.3192 69.985 44.3156 74.706 43.0583 79.1186L22.5137 150.598L22.5374 150.621Z" id="Shape" fill="#000000" fill-rule="evenodd" stroke="none" />
      <path d="M69.2256 171C66.0941 171 63.0575 169.837 60.7088 167.726C58.0281 165.306 56.5098 161.866 56.5335 158.26L57.1503 59.3805L57.5773 57.6487C59.0007 52.1923 60.7326 48.4914 63.1524 45.7632C66.1653 42.3707 70.1508 40.3305 74.6583 39.8323L114.419 35.5146C118.571 35.0639 122.556 36.2026 125.664 38.741C127.609 40.3068 129.246 42.3233 130.504 44.6957C131.595 46.7359 132.354 49.0133 132.805 51.4094C133.161 53.3548 133.327 55.2526 133.327 57.0556L132.734 152.899C132.686 159.304 127.847 164.689 121.489 165.401L100.636 167.679C99.0936 167.821 97.5753 167.726 96.1044 167.346C94.7759 168.011 93.2813 168.485 91.7155 168.651L70.5779 170.952C70.1271 171 69.6764 171.024 69.2256 171.024L69.2256 171ZM79.616 62.346L79.0703 147.419L80.6124 147.253L80.6835 135.77C80.7072 130.86 83.5303 126.566 87.7057 124.502C86.733 124.004 85.8078 123.363 84.9775 122.628C82.2967 120.208 80.7784 116.744 80.8259 113.138L81.4427 62.4884C81.4901 62.2274 81.5376 61.9427 81.585 61.6818L79.7346 61.8716C79.6871 62.0139 79.6397 62.1562 79.5922 62.3223L79.616 62.346ZM103.434 124.905C103.979 125.261 104.525 125.664 105.023 126.139C107.704 128.558 109.222 131.998 109.198 135.604L109.151 144.169L110.337 144.05L110.883 58.5502L108.416 58.8111C109.246 60.5667 109.673 62.5357 109.673 64.6471L109.293 124.288L103.457 124.929L103.434 124.905Z" id="Shape" fill="#000000" fill-rule="evenodd" stroke="none" />
      <path d="M145.663 162.649C142.46 162.649 139.328 161.463 136.932 159.281C134.18 156.79 132.615 153.231 132.638 149.53L133.113 72.8556L132.876 72.8556C129.199 73.2589 125.498 72.0965 122.722 69.6055C119.97 67.1145 118.404 63.556 118.428 59.8551L118.499 46.6648C118.547 40.0459 123.529 34.5183 130.1 33.7829L180.228 28.3265C183.929 27.9232 187.606 29.1094 190.382 31.6003C193.157 34.0913 194.699 37.6498 194.676 41.3507L194.604 54.541C194.557 61.1599 189.575 66.6875 183.004 67.4229L179.872 67.7551L179.374 147.419C179.326 154.038 174.344 159.565 167.773 160.301L147.11 162.554C146.635 162.602 146.161 162.626 145.71 162.626L145.663 162.649ZM152.568 53.9242C154.561 56.2728 155.676 59.2857 155.652 62.4172L155.178 139.092L156.957 138.902L157.455 59.2383C157.455 57.0794 158.001 55.0392 158.95 53.2362L152.568 53.9242L152.568 53.9242Z" id="Shape" fill="#000000" fill-rule="evenodd" stroke="none" />
      <path d="M197.122 157.027C192.662 157.027 188.511 155.271 185.308 151.998C182.58 149.198 180.658 145.379 179.496 140.278L179.211 139.044L179.211 137.479L179.757 46.9971C179.757 44.8619 180.231 42.6082 181.109 40.2833C181.892 38.2668 182.912 36.3689 184.169 34.6608C185.308 33.095 186.613 31.6716 188.036 30.438C190.551 28.2317 193.54 26.9032 196.695 26.5473L237.144 22.1348C240.489 21.7789 243.739 22.3483 246.467 23.8428C248.863 25.1239 250.832 26.9506 252.327 29.2281C253.395 30.865 254.201 32.6443 254.794 34.5185L254.794 34.6371C255.198 35.8944 255.506 37.128 255.719 38.3379L255.909 39.3343L255.909 40.5917L255.364 129.65C255.364 130.955 255.198 132.449 254.913 134.347C254.604 136.198 254.177 138.024 253.608 139.78C252.849 142.129 251.805 144.264 250.477 146.138C247.938 149.744 244.237 151.974 240.086 152.448L199.02 156.932C198.38 157.003 197.763 157.027 197.122 157.027L197.122 157.027ZM202.198 48.5392L201.652 134.039L204.547 133.731C204.048 132.71 203.716 131.619 203.527 130.48L203.242 128.772L203.693 57.1983C203.716 53.5449 204.096 50.6506 204.902 48.2545L202.222 48.5392L202.198 48.5392ZM231.547 129.413L231.547 130.789L232.757 130.646C232.828 130.172 232.899 129.769 232.899 129.436L233.421 45.1466L230.717 45.4313C231.073 46.2379 231.357 47.0919 231.523 47.9934L231.689 48.8475C232.022 50.5793 232.188 51.718 232.188 52.9279L231.713 127.396C231.713 128.132 231.642 128.796 231.523 129.413L231.547 129.413ZM209.717 52.7855C209.717 52.7855 209.717 54.2089 209.717 55.1579L209.717 52.7855L209.717 52.7855Z" id="Shape" fill="#000000" fill-rule="evenodd" stroke="none" />
      <path d="M258.065 150.384C250.237 150.384 243.903 145.758 241.649 138.143L241.317 136.72L240.486 132.022L240.486 130.812L241.032 40.2832C241.032 38.1244 241.483 35.9181 242.384 33.5932C243.143 31.5767 244.187 29.7025 245.445 27.9944C246.607 26.405 247.912 24.9815 249.335 23.7479C251.826 21.5654 254.839 20.2131 257.994 19.8573L298.467 15.4447L298.467 15.4447C301.836 15.0888 305.062 15.6819 307.814 17.1528C310.186 18.4338 312.179 20.2606 313.674 22.538C314.741 24.1512 315.548 25.9305 316.141 27.8284C316.544 29.1806 316.852 30.4142 317.066 31.6479L317.256 32.6443L317.256 33.9016L316.995 77.292C316.971 82.44 313.697 87.0899 308.881 88.8928L307.577 89.391L306.675 89.4859C308.929 89.9129 311.016 90.9331 312.725 92.4988C315.358 94.8712 316.852 98.2636 316.829 101.822L316.686 122.96C316.686 124.336 316.52 125.902 316.236 127.776C315.951 129.602 315.5 131.405 314.955 133.185C314.172 135.557 313.175 137.645 311.918 139.448C309.403 143.054 305.75 145.284 301.646 145.734L260.367 150.242C259.608 150.313 258.848 150.361 258.113 150.361L258.065 150.384ZM263.503 41.8727L262.957 127.372L265.851 127.064C265.353 126.044 265.021 124.953 264.831 123.814L264.547 122.106L264.997 50.5318C265.021 46.8784 265.401 43.9841 266.207 41.588L263.526 41.8727L263.503 41.8727ZM293.276 113.067L293.209 120.73C293.209 121.916 293.008 123.078 292.607 124.146L294.679 123.98C294.779 123.529 294.846 123.15 294.88 122.817L294.98 112.925L293.309 113.043L293.276 113.067ZM292.014 38.7651C292.37 39.5954 292.654 40.4494 292.82 41.3509L292.986 42.1813C293.318 43.9605 293.485 45.0755 293.485 46.2617L293.318 68.4195L294.528 68.2772L294.718 38.4567L292.014 38.7413L292.014 38.7651Z" id="Shape" fill="#000000" fill-rule="evenodd" stroke="none" />
      <path d="M315.095 144.216C311.798 144.216 308.595 142.982 306.128 140.776C303.305 138.214 301.691 134.561 301.715 130.741L302.379 26.9742C302.427 20.1892 307.551 14.4956 314.312 13.7364L334.027 11.5776C335.83 11.3878 337.633 11.5776 339.317 12.0758C340.835 11.2217 342.543 10.6761 344.37 10.4626L363.728 8.35116C367.524 7.94786 371.32 9.18148 374.143 11.7199C376.966 14.282 378.579 17.9355 378.556 21.755L377.891 125.522C377.844 132.307 372.72 138 365.958 138.736L346.6 140.847C344.797 141.037 343.018 140.847 341.31 140.373C339.791 141.227 338.06 141.796 336.209 141.986L316.519 144.121C316.044 144.169 315.546 144.192 315.071 144.192L315.095 144.216ZM324.774 35.2063L324.229 120.706L325.771 120.54L325.913 98.0975C325.937 92.8545 329.021 88.2759 333.528 86.0933C332.437 85.5477 331.417 84.8597 330.492 84.0294C327.668 81.4672 326.055 77.8138 326.079 73.9943L326.316 35.0165L324.774 35.1825L324.774 35.2063ZM346.957 85.9983C348.048 86.5439 349.068 87.2319 349.994 88.0623C352.817 90.6244 354.43 94.2778 354.406 98.0973L354.288 117.456L355.474 117.337L356.019 31.8374L354.833 31.956L354.572 74.0179C354.549 79.2608 351.465 83.8632 346.957 86.022L346.957 85.9983Z" id="Shape" fill="#000000" fill-rule="evenodd" stroke="none" />
      <path d="M377.039 137.455C373.575 137.455 370.206 136.174 367.62 133.825C364.655 131.144 362.971 127.301 362.994 123.316L363.066 112.521C363.089 107.658 365.604 103.364 369.4 100.849L369.756 43.3908C369.21 43.035 368.688 42.6317 368.19 42.1809C365.224 39.5002 363.54 35.6807 363.564 31.6714L363.635 20.8534C363.682 13.7364 369.068 7.75802 376.137 6.97515L407.547 3.55895C411.509 3.13193 415.495 4.413 418.484 7.09376C421.449 9.77452 423.134 13.594 423.11 17.6033L423.039 28.4212C423.015 33.2609 420.524 37.5785 416.705 40.0695L416.349 97.528C416.894 97.8839 417.416 98.3109 417.914 98.7616C420.88 101.442 422.564 105.286 422.541 109.271L422.469 120.065C422.422 127.182 417.06 133.161 409.967 133.944L378.557 137.36C378.059 137.407 377.537 137.431 377.039 137.431L377.039 137.455ZM388.877 28.2078C391.06 30.7699 392.293 34.0438 392.269 37.4362L391.842 106.97C391.842 109.319 391.226 111.549 390.182 113.518L397.275 112.759C395.093 110.196 393.859 106.923 393.883 103.53L394.31 33.9963C394.31 31.6477 394.926 29.4177 395.97 27.4486L388.901 28.2078L388.877 28.2078Z" id="Shape" fill="#000000" fill-rule="evenodd" stroke="none" />
      <path d="M420.614 86.2594C417.553 86.2594 414.564 85.1207 412.263 83.0567C409.63 80.6844 408.111 77.2682 408.135 73.7334L408.515 14.7329C408.562 8.37494 413.354 3.08458 419.641 2.3966L440.921 0.0716882C444.456 -0.307889 447.991 0.830842 450.648 3.22692C453.281 5.59928 454.799 9.01547 454.776 12.574L454.396 71.5508C454.349 77.9087 449.556 83.1991 443.246 83.8871L421.99 86.212C421.539 86.2594 421.088 86.2831 420.637 86.2831L420.614 86.2594ZM431.037 23.7477L430.672 62.6306L432.679 62.4883L433.044 23.6053L431.037 23.7477L431.037 23.7477Z" id="Shape" fill="#000000" fill-rule="evenodd" stroke="none" />
      <path d="M424.957 109.461C417.247 109.461 410.984 104.93 408.683 97.457C408.303 96.2945 408.113 95.0135 408.113 93.7324L408.161 87.2558C408.161 85.9748 408.374 84.7649 408.73 83.6261C411.055 76.1058 416.938 71.2899 424.838 70.4121L434.897 69.3208C438.859 68.8938 442.512 69.4869 445.786 71.1001L445.834 71.1001C451.029 73.7097 454.09 78.8103 454.042 84.7886L453.995 91.4312C453.947 97.0062 451.409 101.893 446.996 104.811C444.197 106.662 440.97 107.824 437.436 108.204L427.14 109.319C426.404 109.39 425.669 109.437 424.933 109.437L424.957 109.461Z" id="Shape" fill="#000000" fill-rule="evenodd" stroke="none" />
    </g>
    <g id="Group" transform="translate(4.5996094 4.605713)">
      <path d="M9.13394 167.818C6.88021 167.818 4.69764 166.987 3.01326 165.469C1.09166 163.714 -0.0233519 161.223 0.000371608 158.637L0.0952658 144.735C0.0952658 143.881 0.213884 143.05 0.45112 142.244L19.6198 75.5093L10.6997 76.482C8.13755 76.7667 5.52796 75.9363 3.58263 74.1808C1.6373 72.4252 0.546012 69.9343 0.569736 67.3484L0.640906 55.5815C0.66463 50.9317 4.17572 47.0648 8.80181 46.5666L52.7379 41.7744C55.3475 41.4897 57.9096 42.32 59.8549 44.0756C61.7765 45.8074 62.8915 48.3221 62.8678 50.908L62.7729 64.5727C62.7729 65.3793 62.6543 66.2097 62.4408 66.9926L43.3433 133.774L52.1685 132.802C54.7544 132.517 57.3402 133.371 59.2856 135.103C61.2072 136.858 62.3222 139.349 62.2985 141.935L62.2273 153.939C62.2036 158.565 58.6925 162.456 54.0901 162.954L10.1303 167.747C9.7982 167.794 9.46607 167.794 9.13394 167.794L9.13394 167.818ZM13.3326 145.375L13.2852 154.106L49.0128 150.215L49.0128 146.467L38.7168 147.582C35.6802 147.914 32.7148 146.728 30.7457 144.403C28.7766 142.078 28.1124 138.923 28.9427 136.005L49.5348 63.9324L49.5822 55.4393L13.8545 59.33L13.8545 62.8411L24.2692 61.7024C27.2821 61.3939 30.2712 62.5564 32.2403 64.905C34.2093 67.2299 34.8736 70.3852 34.0433 73.3032L13.3326 145.399L13.3326 145.375Z" id="Shape" fill="#FFFFFF" fill-rule="evenodd" stroke="none" />
      <path d="M64.5992 161.768C62.6064 161.768 60.6848 161.033 59.1902 159.681C57.4822 158.139 56.5332 155.956 56.5332 153.655L57.15 55.3918L57.4347 54.2293C58.6683 49.5321 60.1392 46.3057 62.0134 44.1943C64.2434 41.6796 67.2088 40.1613 70.5776 39.7817L110.338 35.464C113.28 35.1793 116.008 35.9148 118.191 37.6703C119.662 38.8565 120.895 40.3748 121.844 42.2015C122.698 43.8147 123.315 45.6414 123.671 47.563L123.671 47.563C123.979 49.2237 124.122 50.8369 124.122 52.3789L123.529 148.198C123.505 152.279 120.421 155.695 116.364 156.146L95.5347 158.423C93.9453 158.589 92.3321 158.281 90.9324 157.545C89.7462 158.542 88.2516 159.206 86.6147 159.372L65.4533 161.673C65.1686 161.697 64.8839 161.721 64.5992 161.721L64.5992 161.768ZM70.3877 57.0526L69.8184 147.938L80.5889 146.775L80.6838 131.189C80.7075 127.085 83.7915 123.668 87.872 123.241L91.0272 122.886C93.3047 122.648 95.6059 123.384 97.2903 124.926C98.9984 126.468 99.9473 128.65 99.9473 130.952L99.8524 144.688L110.267 143.549L110.836 52.3554C110.836 51.6437 110.765 50.8371 110.599 49.983L110.599 49.983C110.528 49.556 110.409 49.1527 110.267 48.8206L71.9535 52.9959C71.9535 52.9959 71.2181 53.8974 70.3403 57.0764L70.3877 57.0526ZM88.9176 116.646C86.9248 116.646 85.0032 115.911 83.5086 114.558C81.8005 113.016 80.8516 110.834 80.8516 108.533L81.3972 58.5709C82.0377 54.5379 85.5488 51.5961 89.6293 51.7622L94.6112 52.0706C97.3157 52.7112 100.447 55.1547 100.4 59.9468L100.044 115.484L89.7479 116.599C89.4632 116.622 89.1785 116.646 88.8938 116.646L88.9176 116.646Z" id="Shape" fill="#FFFFFF" fill-rule="evenodd" stroke="none" />
      <path d="M141.058 153.441C138.994 153.441 136.978 152.682 135.412 151.259C133.633 149.646 132.613 147.344 132.636 144.948L133.158 63.102L127.773 63.6951C125.377 63.9798 123.005 63.1732 121.225 61.5837C119.446 59.9705 118.426 57.6693 118.45 55.2732L118.521 42.0829C118.545 37.8127 121.771 34.2304 126.017 33.7559L176.145 28.2995C178.518 28.0386 180.914 28.8214 182.693 30.4109C184.472 32.0241 185.492 34.3253 185.469 36.7214L185.398 49.9117C185.374 54.1819 182.147 57.7642 177.901 58.2387L170.689 59.0216L170.167 142.813C170.143 147.083 166.917 150.666 162.67 151.14L142.007 153.394C141.699 153.418 141.39 153.441 141.106 153.441L141.058 153.441ZM137.998 49.3422C140.062 49.3422 142.078 50.1014 143.644 51.5248C145.423 53.138 146.444 55.4392 146.42 57.8353L145.898 139.682L156.906 138.472L157.428 54.68C157.428 50.4098 160.678 46.8275 164.924 46.353L172.136 45.5702L172.136 42.0591L131.688 46.4717L131.688 49.9828L137.073 49.3897C137.381 49.3422 137.69 49.3422 137.974 49.3422L137.998 49.3422Z" id="Shape" fill="#FFFFFF" fill-rule="evenodd" stroke="none" />
      <path d="M192.544 147.819C189.317 147.819 186.328 146.561 183.979 144.165C181.844 142.006 180.35 138.899 179.377 134.628L179.211 133.893L179.211 132.849L179.757 42.3911C179.757 40.7779 180.112 39.1173 180.8 37.2905C181.417 35.6536 182.248 34.159 183.268 32.7593C184.217 31.4545 185.284 30.2921 186.447 29.272C188.25 27.7062 190.361 26.7336 192.567 26.4963L233.04 22.0837C235.507 21.8228 237.737 22.2024 239.682 23.2699C241.39 24.1951 242.814 25.4999 243.881 27.1369C244.712 28.3942 245.329 29.7702 245.779 31.241L245.779 31.3122C246.111 32.4035 246.372 33.471 246.562 34.5386L246.681 35.962L246.111 124.997C246.111 126.064 245.969 127.345 245.708 129.006C245.447 130.619 245.068 132.209 244.569 133.774C243.953 135.672 243.122 137.38 242.055 138.875C240.275 141.39 237.761 142.932 234.938 143.24L193.872 147.724C193.421 147.771 192.971 147.795 192.52 147.795L192.544 147.819ZM192.404 132.256C192.713 133.418 192.997 134.13 193.187 134.51L231.785 130.311C231.857 130.145 231.928 129.955 231.975 129.765C232.284 128.84 232.497 127.867 232.663 126.918C232.877 125.613 232.9 125.068 232.9 124.949L233.446 36.5076C233.375 36.1518 233.28 35.7959 233.185 35.4401L194.777 39.6154C194.468 39.9238 194.184 40.256 193.923 40.6355C193.59 41.0626 193.33 41.537 193.14 42.0589C192.997 42.4622 192.974 42.652 192.974 42.652L192.404 132.28L192.404 132.256ZM211.217 131.663C209.651 131.663 208.086 131.189 206.781 130.287C205.025 129.077 203.815 127.203 203.46 125.092L203.246 122.98L203.697 52.6163C203.721 48.9154 204.148 46.2109 205.025 44.1233C205.951 41.9644 208.109 39.165 213.163 38.1449C215.227 37.7179 217.338 38.1449 219.093 39.3311C220.825 40.4936 222.011 42.2491 222.415 44.2893L222.581 45.1197C222.889 46.7566 222.984 47.5395 222.984 48.2986L222.51 122.743C222.51 123.265 222.438 123.811 222.32 124.356L222.32 125.068L221.75 126.231C220.754 128.555 218.666 130.264 216.128 130.785L212.807 131.473C212.285 131.592 211.763 131.64 211.217 131.64L211.217 131.663Z" id="Shape" fill="#FFFFFF" fill-rule="evenodd" stroke="none" />
      <path d="M253.461 141.153C247.649 141.153 243.142 137.855 241.457 132.209L241.244 131.307L240.461 126.207L241.03 35.7015C241.03 34.0883 241.386 32.4276 242.074 30.6009C242.691 28.9877 243.521 27.4694 244.541 26.0697C245.514 24.7649 246.582 23.5787 247.72 22.5823C249.5 21.0166 251.635 20.0439 253.841 19.8067L294.313 15.3941L294.313 15.3941C296.781 15.1331 299.011 15.5364 300.956 16.5803C302.664 17.5055 304.088 18.8103 305.155 20.4472C305.962 21.7046 306.602 23.0805 307.053 24.5514C307.385 25.7138 307.646 26.7814 307.836 27.849L307.954 29.2724L307.67 72.6391C307.67 75.8892 305.606 78.8309 302.569 79.9696L301.81 80.2543L280.269 82.6741C279.51 82.8402 278.727 82.8876 277.944 82.8165L277.897 91.5942L298.821 89.3167C301.051 89.0795 303.305 89.8149 304.965 91.3095C306.626 92.8041 307.575 94.9392 307.551 97.1929L307.409 118.331C307.409 119.469 307.266 120.822 307.006 122.459C306.745 124.048 306.365 125.638 305.867 127.203C305.25 129.125 304.443 130.809 303.447 132.233C301.715 134.724 299.224 136.242 296.472 136.55L255.17 141.058C254.576 141.129 253.983 141.153 253.414 141.153L253.461 141.153ZM253.725 125.78L254.08 127.867L293.153 123.621C293.201 123.479 293.248 123.336 293.319 123.17C293.604 122.269 293.841 121.296 293.984 120.371C294.197 119.09 294.221 118.473 294.221 118.283L294.316 103.195L283.901 104.334L283.83 116.124C283.806 120.774 280.959 123.218 278.279 123.977L277.828 124.095L274.127 124.855C272.039 125.282 269.833 124.855 268.077 123.645C266.322 122.435 265.112 120.561 264.756 118.473L264.543 116.362L264.993 45.9974C265.017 42.2966 265.444 39.5921 266.322 37.5044C267.247 35.3456 269.382 32.5462 274.459 31.5261C276.523 31.099 278.611 31.5261 280.366 32.6885C282.122 33.851 283.308 35.6302 283.735 37.6942L283.901 38.5008C284.209 40.1852 284.304 40.9206 284.304 41.6798L284.115 69.0093L294.553 67.8468L294.79 29.8654C294.719 29.5096 294.624 29.1537 294.529 28.7979L256.121 32.9732C255.812 33.2816 255.528 33.6137 255.243 33.9933C254.935 34.4203 254.674 34.8948 254.484 35.393C254.341 35.7963 254.294 35.9861 254.294 35.9861L253.725 125.827L253.725 125.78Z" id="Shape" fill="#FFFFFF" fill-rule="evenodd" stroke="none" />
      <path d="M310.493 134.984C308.334 134.984 306.223 134.178 304.61 132.731C302.759 131.046 301.692 128.65 301.715 126.159L302.379 22.3923C302.403 17.9323 305.772 14.2077 310.208 13.7095L329.923 11.5506C331.797 11.3609 333.671 11.7642 335.284 12.6894C336.613 11.4558 338.344 10.6254 340.266 10.4356L359.624 8.32424C362.139 8.06328 364.606 8.86988 366.457 10.5305C368.307 12.2149 369.375 14.611 369.351 17.102L368.687 120.869C368.663 125.329 365.294 129.053 360.858 129.528L341.5 131.639C339.626 131.829 337.751 131.426 336.138 130.501C334.786 131.734 333.078 132.565 331.132 132.754L311.442 134.889C311.133 134.913 310.801 134.937 310.493 134.937L310.493 134.984ZM315.572 26.4491L314.979 121.248L325.749 120.086L325.915 93.5156C325.939 89.0556 329.308 85.331 333.72 84.8565L335.452 84.6667C337.943 84.4057 340.434 85.2123 342.284 86.873C344.135 88.5574 345.202 90.9535 345.179 93.4444L345.013 117.975L355.427 116.836L356.02 22.0365L345.606 23.1752L345.321 69.3413C345.297 73.8013 341.928 77.5259 337.492 78.0241L335.76 78.2139C333.269 78.4749 330.778 77.6683 328.928 76.0076C327.078 74.3232 326.01 71.9272 326.034 69.4362L326.318 25.2866L315.548 26.4491L315.572 26.4491Z" id="Shape" fill="#FFFFFF" fill-rule="evenodd" stroke="none" />
      <path d="M372.436 128.247C370.112 128.247 367.858 127.393 366.102 125.803C364.11 124 362.971 121.438 362.995 118.734L363.066 107.939C363.089 103.883 365.699 100.372 369.4 99.0906L369.803 36.0096C368.664 35.6063 367.621 34.9658 366.719 34.1591C364.726 32.3562 363.588 29.794 363.611 27.0895L363.682 16.2716C363.706 11.4794 367.312 7.47014 372.081 6.94822L403.491 3.53203C406.148 3.24734 408.828 4.10139 410.821 5.90438C412.814 7.70737 413.953 10.2695 413.929 12.9503L413.858 23.7682C413.834 27.825 411.224 31.3361 407.524 32.6171L407.12 95.6981C408.259 96.1014 409.303 96.7419 410.228 97.5722C412.221 99.3752 413.36 101.937 413.336 104.642L413.265 115.436C413.241 120.228 409.635 124.238 404.867 124.759L373.457 128.176C373.124 128.223 372.769 128.223 372.436 128.223L372.436 128.247ZM376.279 111.189L376.279 114.582L400.05 111.996L400.05 107.868C398.935 107.465 397.891 106.824 396.99 106.018C394.997 104.215 393.858 101.653 393.882 98.9717L394.309 29.438C394.309 25.3812 396.943 21.8702 400.643 20.5891L400.643 17.2203L376.872 19.8062L376.872 23.9104C377.987 24.3137 379.031 24.9542 379.956 25.7845C381.949 27.5875 383.088 30.1497 383.064 32.8542L382.637 102.388C382.614 106.445 380.004 109.956 376.303 111.237L376.279 111.189Z" id="Shape" fill="#FFFFFF" fill-rule="evenodd" stroke="none" />
      <path d="M416.019 77.0515C414.073 77.0515 412.199 76.3398 410.752 75.035C409.092 73.5404 408.143 71.3815 408.143 69.1515L408.522 10.151C408.546 6.14172 411.582 2.7967 415.544 2.36968L436.824 0.044765C439.054 -0.192472 441.284 0.519236 442.945 2.03755C444.606 3.53213 445.555 5.69097 445.531 7.94471L445.151 66.9215C445.128 70.9308 442.091 74.2758 438.129 74.7028L416.849 77.0277C416.564 77.0515 416.28 77.0752 415.995 77.0752L416.019 77.0515ZM421.736 15.0145L421.428 63.197L431.961 62.0583L432.269 13.8757L421.736 15.0145L421.736 15.0145Z" id="Shape" fill="#FFFFFF" fill-rule="evenodd" stroke="none" />
      <path d="M420.283 100.253C414.566 100.253 410.225 97.0739 408.469 91.4751C408.232 90.7397 408.113 89.9331 408.113 89.1265L408.161 82.6974C408.161 81.8908 408.279 81.1317 408.517 80.3962C410.272 74.7026 414.732 71.0491 420.71 70.4086L430.769 69.3173C433.853 68.9852 436.653 69.4359 439.12 70.6459L439.144 70.6459C442.773 72.4726 444.837 75.9362 444.814 80.159L444.766 86.8016C444.742 90.8821 442.987 94.2745 439.832 96.3622C437.649 97.8093 435.111 98.7108 432.335 99.0192L422.039 100.134C421.446 100.205 420.853 100.229 420.26 100.229L420.283 100.253ZM421.398 83.7649L421.398 86.8964L430.912 85.8526C431.149 85.8526 431.362 85.8051 431.552 85.734L431.552 82.5076L422.158 83.5277C421.612 83.5751 421.422 83.6937 421.398 83.7175L421.398 83.7175L421.398 83.7649Z" id="Shape" fill="#FFFFFF" fill-rule="evenodd" stroke="none" />
    </g>
    <g id="Group" transform="translate(11.224609 11.215698)">
      <path d="M49.63 44.2265L49.5351 57.8913C49.5351 58.1285 49.5114 58.342 49.4402 58.5556L28.6821 131.173C28.1839 132.882 29.6073 134.566 31.3629 134.352L46.2613 132.739C47.7559 132.573 49.0607 133.759 49.0369 135.254L48.9658 147.258C48.9658 148.539 47.9931 149.607 46.7357 149.749L2.77598 154.541C1.28139 154.707 -0.023404 153.521 0.000319006 152.026L0.0952132 138.124C0.0952132 137.887 0.118937 137.674 0.190107 137.436L21.0668 64.7948C21.565 63.0867 20.1654 61.4024 18.3861 61.5922L3.36907 63.2291C1.87448 63.3951 0.569685 62.209 0.593408 60.7144L0.664579 48.9475C0.664579 47.6664 1.63725 46.5989 2.89459 46.4565L46.8544 41.6644C48.3489 41.4983 49.6537 42.6845 49.63 44.179L49.63 44.2265Z" id="Shape" fill="#FFFFFF" fill-rule="evenodd" stroke="none" />
      <path d="M110.528 42.1625C110.766 43.4199 110.86 44.6298 110.86 45.7448L110.267 141.564C110.267 142.3 109.722 142.893 108.986 142.988L88.1807 145.265C87.3267 145.36 86.5912 144.696 86.5912 143.842L86.7099 124.293C86.7099 123.439 85.9744 122.775 85.1204 122.87L81.9414 123.226C81.2297 123.297 80.6604 123.914 80.6604 124.649L80.5417 144.862C80.5417 145.597 79.9961 146.19 79.2607 146.285L58.0992 148.586C57.2452 148.681 56.5098 148.017 56.5098 147.163L57.1266 49.7778C57.1266 49.7778 57.1266 49.5643 57.174 49.4694C58.123 45.8159 59.1668 43.3487 60.3055 42.0913C61.4443 40.8103 62.8914 40.0511 64.6469 39.8613L104.408 35.5199C105.594 35.4013 106.566 35.6385 107.349 36.2791C108.132 36.9196 108.797 37.7499 109.342 38.7938C109.888 39.8139 110.267 40.9763 110.505 42.2337L110.528 42.1625ZM86.8517 102.942L87.1601 53.3126C87.1601 52.506 86.9229 52.0552 86.4721 51.9366L82.7712 51.7942C82.0358 51.7705 81.419 52.2924 81.3004 53.0041L81.158 53.9768C81.158 53.9768 81.158 54.1191 81.158 54.1903L80.8496 101.993C80.8496 102.847 81.585 103.512 82.4391 103.417L86.8754 102.942" id="Shape" fill="#FFFFFF" fill-rule="evenodd" stroke="none" />
      <path d="M172.208 30.0873L172.113 43.2776C172.113 44.2028 171.425 44.962 170.5 45.0569L159.018 46.3142C158.116 46.4091 157.404 47.192 157.404 48.0935L156.859 136.155C156.859 137.081 156.171 137.84 155.245 137.935L134.606 140.188C133.538 140.307 132.589 139.453 132.613 138.385L133.159 51.1538C133.159 50.0863 132.234 49.2322 131.166 49.3509L120.396 50.5133C119.328 50.6319 118.379 49.7779 118.403 48.7103L118.498 35.52C118.498 34.5948 119.186 33.8357 120.111 33.7408L170.215 28.2843C171.283 28.1657 172.232 29.0198 172.208 30.0873L172.208 30.0873Z" id="Shape" fill="#FFFFFF" fill-rule="evenodd" stroke="none" />
      <path d="M232.847 26.6C233.108 27.4541 233.297 28.3081 233.463 29.1384C233.463 29.2096 233.463 29.3045 233.463 29.3757L232.894 118.363C232.894 119.098 232.775 120.095 232.586 121.352C232.372 122.633 232.064 123.89 231.684 125.148C231.281 126.405 230.735 127.496 230.071 128.469C229.407 129.418 228.576 129.964 227.627 130.058L186.562 134.518C184.83 134.708 183.336 134.163 182.078 132.882C180.845 131.624 179.872 129.513 179.184 126.5C179.184 126.405 179.16 126.31 179.16 126.191L179.73 35.781C179.73 34.9744 179.943 34.0492 180.346 33.0053C180.75 31.9615 181.295 30.9651 181.96 30.0399C182.624 29.1147 183.359 28.3081 184.166 27.6201C184.949 26.9321 185.779 26.5288 186.657 26.4339L227.129 22.0213C228.244 21.9027 229.169 22.0213 229.905 22.4484C230.664 22.8517 231.257 23.421 231.732 24.1327C232.206 24.8444 232.562 25.651 232.847 26.5525L232.847 26.6ZM209.288 116.109L209.762 41.6407C209.762 41.4035 209.667 40.7867 209.478 39.7903C209.43 39.5056 209.359 39.2446 209.312 39.0074C209.169 38.3431 208.529 37.8924 207.841 38.0347C206.038 38.3906 204.923 39.0786 204.496 40.0987C203.974 41.3323 203.713 43.3014 203.689 46.0533L203.238 116.536C203.238 116.536 203.238 116.678 203.238 116.75L203.333 117.39C203.452 118.102 204.116 118.553 204.828 118.41L208.149 117.722C208.576 117.627 208.932 117.343 209.074 116.939L209.074 116.939C209.193 116.56 209.264 116.275 209.264 116.133" id="Shape" fill="#FFFFFF" fill-rule="evenodd" stroke="none" />
      <path d="M288.432 15.4027C289.547 15.2841 290.472 15.4027 291.208 15.8297C291.967 16.233 292.56 16.8024 293.035 17.5141C293.509 18.2258 293.865 19.0324 294.15 19.9339C294.411 20.7879 294.6 21.642 294.766 22.4723C294.766 22.5435 294.766 22.6384 294.766 22.7095L294.482 66.0288C294.482 66.5507 294.15 67.0014 293.675 67.1912L272.49 69.5636C271.66 69.872 270.782 69.2552 270.806 68.3774L271.043 34.9509C271.043 34.7137 270.948 34.0968 270.758 33.1005C270.711 32.8158 270.64 32.5548 270.592 32.3176C270.45 31.6533 269.809 31.2026 269.121 31.3449C267.318 31.7008 266.203 32.3888 265.776 33.4089C265.254 34.6425 264.993 36.6115 264.97 39.3635L264.519 109.846C264.519 109.846 264.519 109.989 264.519 110.06L264.614 110.7C264.732 111.412 265.397 111.863 266.108 111.72L269.809 110.961C270.284 110.819 270.521 110.321 270.521 109.443L270.616 92.8839C270.616 92.2433 271.09 91.7214 271.731 91.6502L292.892 89.349C293.628 89.2779 294.292 89.8472 294.292 90.6064L294.15 111.72C294.15 112.527 294.031 113.571 293.841 114.828C293.628 116.109 293.319 117.367 292.94 118.624C292.536 119.881 292.014 120.973 291.374 121.874C290.733 122.799 289.974 123.297 289.12 123.392L247.817 127.9C244.306 128.279 242.076 126.903 241.127 123.748C241.127 123.701 241.104 123.653 241.08 123.582L240.439 119.858C240.439 119.858 240.439 119.715 240.439 119.644L241.009 29.1861C241.009 28.3795 241.222 27.4543 241.626 26.3867C242.029 25.3428 242.575 24.3465 243.239 23.4212C243.903 22.496 244.639 21.6894 245.445 21.0014C246.228 20.3135 247.058 19.9102 247.936 19.8153L288.409 15.4027L288.432 15.4027Z" id="Shape" fill="#FFFFFF" fill-rule="evenodd" stroke="none" />
      <path d="M356.091 10.4681L355.427 114.235C355.427 115.326 354.596 116.252 353.505 116.37L334.17 118.482C332.889 118.624 331.774 117.604 331.774 116.323L331.964 86.7869C331.964 85.5058 330.849 84.4857 329.568 84.628L327.86 84.8178C326.769 84.9364 325.938 85.8616 325.938 86.9529L325.748 117.485C325.748 118.576 324.918 119.502 323.827 119.62L304.136 121.755C302.855 121.898 301.74 120.878 301.74 119.597L302.404 15.8297C302.404 14.7384 303.235 13.8132 304.326 13.6946L324.017 11.5594C325.298 11.4171 326.413 12.4372 326.413 13.7183L326.104 62.8735C326.104 64.1546 327.219 65.1747 328.5 65.0324L330.208 64.8426C331.3 64.7239 332.13 63.7987 332.13 62.7074L332.438 12.5558C332.438 11.4645 333.269 10.5393 334.36 10.4207L353.695 8.30931C354.976 8.16697 356.091 9.18708 356.091 10.4682L356.091 10.4681Z" id="Shape" fill="#FFFFFF" fill-rule="evenodd" stroke="none" />
      <path d="M400.691 6.34011L400.62 17.1343C400.62 18.5577 399.529 19.7677 398.105 19.91L396.824 20.0523C395.401 20.2184 394.333 21.4046 394.31 22.828L393.883 92.3618C393.883 94.0461 395.33 95.3509 396.99 95.1849L396.99 95.1849C398.651 94.9951 400.122 96.3236 400.098 98.008L400.027 108.802C400.027 110.226 398.936 111.436 397.512 111.578L366.102 114.994C364.442 115.184 362.971 113.855 362.994 112.171L363.066 101.377C363.066 99.9533 364.157 98.7434 365.58 98.601L366.861 98.4587C368.285 98.2926 369.352 97.1065 369.376 95.6831L369.803 26.1493C369.803 24.4649 368.356 23.1601 366.695 23.3262L366.695 23.3262C365.035 23.516 363.564 22.1874 363.587 20.5031L363.659 9.70884C363.659 8.28543 364.75 7.07553 366.173 6.93318L397.583 3.51699C399.244 3.3272 400.715 4.65572 400.691 6.34009L400.691 6.34011Z" id="Shape" fill="#FFFFFF" fill-rule="evenodd" stroke="none" />
      <path d="M409.637 2.33092L430.917 0.00601134C431.653 -0.0651587 432.317 0.504206 432.317 1.26336L431.937 60.2401C431.937 60.8807 431.463 61.4026 430.822 61.4738L409.542 63.7987C408.807 63.8698 408.143 63.3005 408.143 62.5413L408.522 3.56455C408.522 2.92401 408.997 2.40209 409.637 2.33092L409.637 2.33092Z" id="Shape" fill="#FFFFFF" fill-rule="evenodd" stroke="none" />
      <path d="M429.612 69.9669C430.941 70.6311 431.605 71.8173 431.605 73.5017L431.558 80.168C431.558 82.0185 430.893 83.3944 429.589 84.2485C428.284 85.1262 426.766 85.6482 425.034 85.838L414.738 86.953C411.345 87.3325 409.163 85.9803 408.19 82.8962C408.143 82.7776 408.143 82.6353 408.143 82.5167L408.19 76.1113C408.19 75.9927 408.19 75.8503 408.237 75.7317C409.234 72.529 411.44 70.726 414.833 70.3465L424.891 69.2552C426.718 69.0654 428.284 69.3026 429.612 69.9432L429.612 69.9669Z" id="Shape" fill="#FFFFFF" fill-rule="evenodd" stroke="none" />
    </g>
    <g id="Group" transform="translate(6.2421875 7.063965)">
      <path d="M49.63 44.2264L49.5351 57.8912C49.5351 58.1284 49.5114 58.3419 49.4402 58.5554L28.6821 131.173C28.1839 132.881 29.6073 134.566 31.3629 134.352L46.2613 132.739C47.7559 132.573 49.0607 133.759 49.0369 135.254L48.9658 147.258C48.9658 148.539 47.9931 149.606 46.7357 149.749L2.77598 154.541C1.28139 154.707 -0.023404 153.521 0.000319006 152.026L0.0952132 138.124C0.0952132 137.887 0.118937 137.674 0.190107 137.436L21.0668 64.7947C21.565 63.0866 20.1654 61.4022 18.3861 61.592L3.36907 63.229C1.87448 63.395 0.569685 62.2088 0.593408 60.7143L0.664579 48.9474C0.664579 47.6663 1.63725 46.5987 2.89459 46.4564L46.8544 41.6642C48.3489 41.4982 49.6538 42.6843 49.63 44.1789L49.63 44.2264Z" id="Shape" fill="#FF3600" fill-rule="evenodd" stroke="none" />
      <path d="M110.552 42.1625C110.789 43.4199 110.884 44.6298 110.884 45.7448L110.291 141.564C110.291 142.3 109.745 142.893 109.01 142.988L88.2042 145.265C87.3501 145.36 86.6147 144.696 86.6147 143.842L86.7333 124.293C86.7333 123.439 85.9979 122.775 85.1438 122.87L81.9649 123.226C81.2532 123.297 80.6838 123.914 80.6838 124.649L80.5652 144.862C80.5652 145.597 80.0195 146.19 79.2841 146.285L58.1227 148.586C57.2686 148.681 56.5332 148.017 56.5332 147.163L57.15 49.7778C57.15 49.7778 57.15 49.5643 57.1975 49.4694C58.1464 45.8159 59.1902 43.3487 60.329 42.0913C61.4677 40.8103 62.9148 40.0511 64.6704 39.8613L104.431 35.5199C105.617 35.4013 106.59 35.6385 107.373 36.2791C108.156 36.9196 108.82 37.7499 109.366 38.7938C109.911 39.8139 110.291 40.9763 110.528 42.2337L110.552 42.1625ZM86.8751 102.942L87.1835 53.3126C87.1835 52.506 86.9463 52.0552 86.4955 51.9366L82.7947 51.7942C82.0592 51.7705 81.4424 52.2924 81.3238 53.0041L81.1815 53.9768C81.1815 53.9768 81.1815 54.1191 81.1815 54.1903L80.873 101.993C80.873 102.847 81.6085 103.512 82.4625 103.417L86.8988 102.942" id="Shape" fill="#FF3600" fill-rule="evenodd" stroke="none" />
      <path d="M172.233 30.0873L172.138 43.2776C172.138 44.2029 171.45 44.962 170.525 45.0569L159.043 46.3143C158.141 46.4091 157.43 47.192 157.43 48.0935L156.884 136.155C156.884 137.081 156.196 137.84 155.271 137.935L134.631 140.188C133.564 140.307 132.615 139.453 132.639 138.385L133.184 51.1538C133.184 50.0863 132.259 49.2322 131.191 49.3509L120.421 50.5133C119.353 50.6319 118.404 49.7779 118.428 48.7103L118.523 35.52C118.523 34.5948 119.211 33.8357 120.136 33.7408L170.24 28.2843C171.308 28.1657 172.257 29.0198 172.233 30.0873L172.233 30.0873Z" id="Shape" fill="#FF3600" fill-rule="evenodd" stroke="none" />
      <path d="M232.847 26.6C233.108 27.4541 233.297 28.3081 233.463 29.1384C233.463 29.2096 233.463 29.3045 233.463 29.3757L232.894 118.363C232.894 119.098 232.775 120.095 232.586 121.352C232.372 122.633 232.064 123.89 231.684 125.148C231.281 126.405 230.735 127.496 230.071 128.469C229.407 129.418 228.576 129.964 227.627 130.058L186.562 134.518C184.83 134.708 183.336 134.163 182.078 132.882C180.845 131.624 179.872 129.513 179.184 126.5C179.184 126.405 179.16 126.31 179.16 126.191L179.73 35.781C179.73 34.9744 179.943 34.0492 180.346 33.0053C180.75 31.9615 181.295 30.9651 181.96 30.0399C182.624 29.1147 183.359 28.3081 184.166 27.6201C184.949 26.9321 185.779 26.5288 186.657 26.4339L227.129 22.0213C228.244 21.9027 229.169 22.0213 229.905 22.4484C230.664 22.8517 231.257 23.421 231.732 24.1327C232.206 24.8444 232.562 25.651 232.847 26.5525L232.847 26.6ZM209.288 116.109L209.762 41.6407C209.762 41.4035 209.667 40.7867 209.478 39.7903C209.43 39.5056 209.359 39.2446 209.312 39.0074C209.169 38.3431 208.529 37.8924 207.841 38.0347C206.038 38.3906 204.923 39.0786 204.496 40.0987C203.974 41.3323 203.713 43.3014 203.689 46.0533L203.238 116.536C203.238 116.536 203.238 116.678 203.238 116.75L203.333 117.39C203.452 118.102 204.116 118.553 204.828 118.41L208.149 117.722C208.576 117.627 208.932 117.343 209.074 116.939L209.074 116.939C209.193 116.56 209.264 116.275 209.264 116.133" id="Shape" fill="#FF3600" fill-rule="evenodd" stroke="none" />
      <path d="M288.432 15.4027C289.547 15.2841 290.472 15.4027 291.208 15.8297C291.967 16.233 292.56 16.8024 293.035 17.5141C293.509 18.2258 293.865 19.0324 294.15 19.9339C294.411 20.7879 294.6 21.642 294.766 22.4723C294.766 22.5435 294.766 22.6384 294.766 22.7095L294.482 66.0288C294.482 66.5507 294.15 67.0014 293.675 67.1912L272.49 69.5636C271.66 69.872 270.782 69.2552 270.806 68.3774L271.043 34.9509C271.043 34.7137 270.948 34.0968 270.758 33.1005C270.711 32.8158 270.64 32.5548 270.592 32.3176C270.45 31.6533 269.809 31.2026 269.121 31.3449C267.318 31.7008 266.203 32.3888 265.776 33.4089C265.254 34.6425 264.993 36.6115 264.97 39.3635L264.519 109.846C264.519 109.846 264.519 109.989 264.519 110.06L264.614 110.7C264.732 111.412 265.397 111.863 266.108 111.72L269.809 110.961C270.284 110.819 270.521 110.321 270.521 109.443L270.616 92.8839C270.616 92.2433 271.09 91.7214 271.731 91.6502L292.892 89.349C293.628 89.2779 294.292 89.8472 294.292 90.6064L294.15 111.72C294.15 112.527 294.031 113.571 293.841 114.828C293.628 116.109 293.319 117.367 292.94 118.624C292.536 119.881 292.014 120.973 291.374 121.874C290.733 122.799 289.974 123.297 289.12 123.392L247.817 127.9C244.306 128.279 242.076 126.903 241.127 123.748C241.127 123.701 241.104 123.653 241.08 123.582L240.439 119.858C240.439 119.858 240.439 119.715 240.439 119.644L241.009 29.1861C241.009 28.3795 241.222 27.4543 241.626 26.3867C242.029 25.3428 242.575 24.3465 243.239 23.4212C243.903 22.496 244.639 21.6894 245.445 21.0014C246.228 20.3135 247.058 19.9102 247.936 19.8153L288.409 15.4027L288.432 15.4027Z" id="Shape" fill="#FF3600" fill-rule="evenodd" stroke="none" />
      <path d="M356.091 10.4681L355.427 114.235C355.427 115.326 354.596 116.252 353.505 116.37L334.17 118.482C332.889 118.624 331.774 117.604 331.774 116.323L331.964 86.7868C331.964 85.5058 330.849 84.4857 329.568 84.628L327.86 84.8178C326.769 84.9364 325.938 85.8616 325.938 86.9529L325.748 117.485C325.748 118.576 324.918 119.502 323.827 119.62L304.136 121.755C302.855 121.898 301.74 120.878 301.74 119.597L302.404 15.8297C302.404 14.7384 303.235 13.8132 304.326 13.6946L324.017 11.5594C325.298 11.4171 326.413 12.4372 326.413 13.7183L326.104 62.8735C326.104 64.1546 327.219 65.1747 328.5 65.0323L330.208 64.8426C331.3 64.7239 332.13 63.7987 332.13 62.7074L332.438 12.5558C332.438 11.4645 333.269 10.5393 334.36 10.4207L353.695 8.30931C354.976 8.16697 356.091 9.18708 356.091 10.4682L356.091 10.4681Z" id="Shape" fill="#FF3600" fill-rule="evenodd" stroke="none" />
      <path d="M400.691 6.3401L400.62 17.1343C400.62 18.5577 399.529 19.7676 398.105 19.91L396.824 20.0523C395.401 20.2184 394.333 21.4046 394.31 22.828L393.883 92.3617C393.883 94.0461 395.33 95.3509 396.99 95.1848L396.99 95.1848C398.651 94.9951 400.122 96.3236 400.098 98.0079L400.027 108.802C400.027 110.226 398.936 111.435 397.512 111.578L366.102 114.994C364.442 115.184 362.971 113.855 362.994 112.171L363.066 101.377C363.066 99.9533 364.157 98.7434 365.58 98.601L366.861 98.4587C368.285 98.2926 369.352 97.1065 369.376 95.683L369.803 26.1493C369.803 24.4649 368.356 23.1601 366.695 23.3262L366.695 23.3262C365.035 23.516 363.564 22.1874 363.587 20.5031L363.659 9.70884C363.659 8.28542 364.75 7.07552 366.173 6.93318L397.583 3.51699C399.244 3.3272 400.715 4.65572 400.691 6.34009L400.691 6.3401Z" id="Shape" fill="#FF3600" fill-rule="evenodd" stroke="none" />
      <path d="M409.637 2.33092L430.917 0.00601134C431.653 -0.0651587 432.317 0.504206 432.317 1.26336L431.937 60.2401C431.937 60.8807 431.463 61.4026 430.822 61.4738L409.542 63.7987C408.807 63.8698 408.143 63.3005 408.143 62.5413L408.522 3.56455C408.522 2.92401 408.997 2.40209 409.637 2.33092L409.637 2.33092Z" id="Shape" fill="#FF3600" fill-rule="evenodd" stroke="none" />
      <path d="M429.612 69.9669C430.941 70.6311 431.605 71.8173 431.605 73.5017L431.558 80.168C431.558 82.0185 430.893 83.3944 429.589 84.2485C428.284 85.1262 426.766 85.6482 425.034 85.838L414.738 86.953C411.345 87.3325 409.163 85.9803 408.19 82.8962C408.143 82.7776 408.143 82.6353 408.143 82.5167L408.19 76.1113C408.19 75.9927 408.19 75.8503 408.237 75.7317C409.234 72.529 411.44 70.726 414.833 70.3465L424.891 69.2552C426.718 69.0654 428.284 69.3026 429.612 69.9432L429.612 69.9669Z" id="Shape" fill="#FF3600" fill-rule="evenodd" stroke="none" />
    </g>
  </g>
</svg>