<?xml version="1.0" encoding="utf-8"?>
<svg width="131.0039px" height="131.03638px" viewBox="0 0 131.0039 131.03638" version="1.1" xmlns:xlink="http://www.w3.org/1999/xlink" xmlns="http://www.w3.org/2000/svg">
  <defs>
    <path d="M0 0L130.633 0L130.633 130.666L0 130.666L0 0Z" id="path_1" />
    <path d="M35.6753 25.2934L37.3615 30.8811C35.3116 24.1032 31.1126 17.9203 24.7644 13.2584C18.0195 8.26583 9.91899 5.78608 1.68623 5.5877L0 0C8.23276 0.198381 16.3333 2.71119 23.0782 7.67069C29.4263 12.3657 33.6254 18.5485 35.6753 25.2934L35.6753 25.2934Z" id="path_2" />
    <path d="M0 0L2.71972 5.5877C2.93303 6.01752 3.14634 6.44735 3.30633 6.91023L0.586609 1.32253C0.426622 0.892711 0.213316 0.42982 0 0L0 0Z" id="path_3" />
    <path d="M0 0L2.34199 5.5877C2.70936 6.48041 3.0308 7.34006 3.30633 8.23276L0.964342 2.64506C0.688817 1.75235 0.36737 0.859641 0 0L0 0Z" id="path_4" />
    <path d="M1.18721 0L3.27504 5.5877C3.4388 6.28203 2.94754 6.97636 2.08784 7.27393L0 1.68623C0.859694 1.38866 1.39189 0.694333 1.18721 0L1.18721 0Z" id="path_5" />
    <path d="M8.56339 0L11.5722 8.26583C12.1342 9.78674 12.5971 11.3738 12.9608 12.9939C13.5229 15.5067 11.7044 18.1187 8.92709 18.813C7.30699 19.2428 5.68689 18.9122 4.52967 18.0856C3.83534 17.5897 3.30632 16.8954 3.00876 16.1018L0 7.83601C0.29757 8.66259 0.826583 9.32386 1.52091 9.81981C2.67813 10.6464 4.29823 10.977 5.91833 10.5472C8.69565 9.85287 10.5141 7.24087 9.95205 4.72806C9.58835 3.10795 9.12547 1.52092 8.56339 0L8.56339 0Z" id="path_6" />
    <path d="M37.7583 23.5741L38.3534 25.2273C36.3035 19.5735 32.5343 14.7132 27.3764 11.0431C21.0944 6.5796 13.4568 4.3313 5.25707 4.56274C4.06679 4.5958 2.9757 4.26517 2.14912 3.67003C1.42172 3.17408 0.892711 2.47975 0.595141 1.65317L0 0C0.29757 0.793519 0.826583 1.48785 1.55398 2.01686C2.38056 2.612 3.47165 2.94263 4.66193 2.90957C12.8947 2.67813 20.5323 4.92643 26.7813 9.38998C31.9392 13.06 35.7084 17.9203 37.7583 23.5741L37.7583 23.5741Z" id="path_7" />
    <path d="M11.0762 0L11.2085 0.42982C11.7044 2.01686 11.3077 3.86841 10.0182 5.29013C7.96826 7.5715 4.3313 8.03438 1.91767 6.24896C1.02496 5.5877 0.429824 4.69499 0.132253 3.73615L0 3.30633C0.29757 4.26517 0.892711 5.15788 1.78542 5.81914C4.16598 7.60457 7.80294 7.14168 9.88593 4.86031C11.1754 3.40552 11.5722 1.58704 11.0762 0L11.0762 0Z" id="path_8" />
    <path d="M11.0762 0L11.2085 0.42982C11.7044 2.01686 11.3077 3.8684 10.0182 5.29013C7.9352 7.60456 4.3313 8.03438 1.91767 6.24897C1.02496 5.5877 0.429824 4.69499 0.132253 3.73615L0 3.30633C0.29757 4.26517 0.892711 5.15788 1.78542 5.81915C4.16598 7.60457 7.80294 7.17474 9.88593 4.86031C11.1754 3.40552 11.5722 1.58704 11.0762 0L11.0762 0Z" id="path_9" />
    <path d="M11.0762 0L11.2085 0.42982C11.7044 2.01686 11.3077 3.8684 10.0182 5.29013C7.93519 7.60456 4.33129 8.03438 1.91767 6.24897C1.02496 5.5877 0.429823 4.69499 0.132253 3.73615L0 3.30633C0.29757 4.26517 0.892711 5.15788 1.78542 5.81914C4.16598 7.60457 7.80294 7.17474 9.88593 4.86031C11.1754 3.40552 11.5722 1.58704 11.0762 0L11.0762 0Z" id="path_10" />
    <path d="M11.0762 0L11.2085 0.42982C11.7044 2.01686 11.3077 3.86841 10.0182 5.29013C7.93521 7.60456 4.33131 8.03438 1.91768 6.24897C1.02497 5.5877 0.429827 4.69499 0.132256 3.73615L0 3.30633C0.29757 4.26517 0.892711 5.15788 1.78542 5.81914C4.16598 7.60457 7.80295 7.17474 9.88594 4.86031C11.1754 3.40552 11.5722 1.58704 11.0762 0L11.0762 0Z" id="path_11" />
    <clipPath id="mask_1">
      <use xlink:href="#path_1" />
    </clipPath>
    <clipPath id="mask_2">
      <use xlink:href="#path_2" />
    </clipPath>
    <clipPath id="mask_3">
      <use xlink:href="#path_3" />
    </clipPath>
    <clipPath id="mask_4">
      <use xlink:href="#path_4" />
    </clipPath>
    <clipPath id="mask_5">
      <use xlink:href="#path_5" />
    </clipPath>
    <clipPath id="mask_6">
      <use xlink:href="#path_6" />
    </clipPath>
    <clipPath id="mask_7">
      <use xlink:href="#path_7" />
    </clipPath>
    <clipPath id="mask_8">
      <use xlink:href="#path_8" />
    </clipPath>
    <clipPath id="mask_9">
      <use xlink:href="#path_9" />
    </clipPath>
    <clipPath id="mask_10">
      <use xlink:href="#path_10" />
    </clipPath>
    <clipPath id="mask_11">
      <use xlink:href="#path_11" />
    </clipPath>
  </defs>
  <g id="pizza_icon" transform="translate(0.18554688 0.1850586)">
    <path d="M0 0L130.633 0L130.633 130.666L0 130.666L0 0Z" id="Background" fill="none" fill-rule="evenodd" stroke="none" />
    <g clip-path="url(#mask_1)">
      <g id="a" transform="translate(-172.13086 29.657715)">
        <g id="Group" transform="translate(203.10547 0)">
          <path d="M68.6402 45.5943C68.6402 45.5943 68.6072 45.8919 68.5741 46.0241L68.508 46.3878L66.9209 49.595C66.6564 49.9256 66.3589 50.2562 66.0613 50.5538C65.7968 50.8183 65.4992 51.0828 65.2016 51.3143L64.5073 51.8102C64.2759 51.9755 64.0444 52.0747 63.846 52.207L63.284 52.4715L63.1187 52.5376L62.8872 52.6368C62.8872 52.6368 62.6558 52.736 62.5566 52.7691C62.3913 52.8352 62.1929 52.9013 61.9945 52.9674L61.2671 53.1327C61.2671 53.1327 60.9034 53.1989 60.672 53.2319C60.4075 53.265 60.2091 53.2981 60.0107 53.2981L59.7462 53.2981C59.7462 53.2981 59.6139 53.2981 59.5478 53.2981L59.0849 53.2981C59.0849 53.2981 58.7212 53.2981 58.4237 53.2981C58.1922 53.2981 57.9277 53.2319 57.6963 53.1989L57.4979 53.1989L57.3987 53.1327C56.9689 53.0336 56.6713 52.9674 56.4068 52.8682L55.7455 52.6368C55.3818 52.5045 55.0843 52.3392 54.7867 52.1739L8.76256 71.1192C8.76256 71.1192 8.56417 71.1853 8.43192 71.2184L7.20858 71.3837C7.0102 71.3837 6.81182 71.3837 6.58038 71.3837L6.18362 71.3176C5.19172 71.1192 4.46433 70.7886 3.83612 70.3257C2.87729 69.5983 2.21602 68.6394 1.88539 67.5484L0.232221 61.9937L0.232221 61.9937C-0.0653493 61.0679 -0.0653493 60.1091 0.166093 59.1833L11.0439 15.8373C10.4488 15.1099 9.95283 14.2834 9.6222 13.3906L9.02706 11.7375L9.02706 11.7375C8.72949 10.944 8.56417 10.0843 8.53111 9.25773L8.53111 8.53033C8.53111 8.33195 8.53111 8.13358 8.59724 7.93519C8.76256 6.34816 9.39076 4.89337 10.3496 3.70309C11.5399 2.18218 13.2592 0.9919 15.1768 0.429823C16.0695 0.165317 16.9292 0 17.7558 0C18.0864 0 18.384 0 18.6815 0L19.1114 0C28.0054 0 36.3043 2.01686 43.7105 6.08365C45.5951 7.10861 47.116 8.03439 48.5047 9.05935C49.8603 10.0182 51.1828 11.1093 52.6706 12.4649C57.8285 17.1268 61.6308 22.7476 63.9452 29.1288L63.9452 29.1288L66.9871 37.3946C67.1193 37.7252 67.2185 38.0889 67.3507 38.4526C67.7144 39.5437 68.0451 40.6679 68.3096 41.792L68.508 42.6517C68.508 42.6517 68.5741 42.8831 68.6072 43.0815C68.6402 43.3791 68.6733 43.6105 68.7064 43.8419C68.7064 43.9411 68.7064 44.0734 68.7064 44.2056L68.7064 44.7677C68.7064 44.9661 68.7064 45.1645 68.6733 45.3298C68.6733 45.4621 68.6733 45.5612 68.6402 45.6604L68.6402 45.5943ZM60.5743 45.8258L62.5911 48.3717L60.409 45.0653L60.8388 44.4041L60.6735 43.6106C60.442 42.6848 60.1775 41.7921 59.88 40.8994L56.7059 32.1707L56.7059 32.1707C54.8543 26.8475 51.7133 22.1855 47.382 18.251C46.1256 17.0938 45.0345 16.2011 43.9434 15.4406C42.8193 14.6471 41.5298 13.8536 39.9428 12.9609L39.9428 12.9609C33.7269 9.55535 26.7175 7.83605 19.146 7.86912L18.4847 7.86912C18.3194 7.86912 18.121 7.86912 17.9557 7.86912C17.8896 7.86912 17.7573 7.86912 17.4597 7.96831C17.096 8.0675 16.7654 8.29894 16.567 8.53039C16.4678 8.66264 16.4017 8.79489 16.4017 8.96021L16.4017 9.02634L16.4017 9.02634L16.4678 9.19165L16.6001 9.4231L16.5009 9.48922L16.9638 10.7787L19.7411 12.2335L19.2452 15.4406L7.9375 60.5059L8.59877 62.7212L56.5736 42.9493L58.4252 45.2307C58.4252 45.2307 58.6566 45.396 58.8219 45.4291L59.6816 45.4291L60.3429 45.1976L60.5412 45.8258L60.5743 45.8258ZM7.01172 62.9858L10.0535 60.6714L10.3181 62.6551C10.3181 62.6551 10.1858 60.6714 10.0535 59.6794L10.0535 59.6794L7.14396 62.9858L7.01172 62.9858Z" id="Shape" fill="#000000" fill-rule="evenodd" stroke="none" />
          <g id="Group" transform="translate(3.8613281 3.8806152)">
            <g id="Group" transform="translate(0 4.946167)">
              <g id="Group" transform="translate(15.4140625 2.9107666)">
                <path d="M35.6753 25.2934L37.3615 30.8811C35.3116 24.1032 31.1126 17.9203 24.7644 13.2584C18.0195 8.26583 9.91899 5.78608 1.68623 5.5877L0 0C8.23276 0.198381 16.3333 2.71119 23.0782 7.67069C29.4263 12.3657 33.6254 18.5485 35.6753 25.2934L35.6753 25.2934Z" id="Shape" fill="#020202" fill-rule="evenodd" stroke="none" />
                <g id="Mask-group">
                  <path d="M35.6753 25.2934L37.3615 30.8811C35.3116 24.1032 31.1126 17.9203 24.7644 13.2584C18.0195 8.26583 9.91899 5.78608 1.68623 5.5877L0 0C8.23276 0.198381 16.3333 2.71119 23.0782 7.67069C29.4263 12.3657 33.6254 18.5485 35.6753 25.2934L35.6753 25.2934Z" id="Shape" fill="none" fill-rule="evenodd" stroke="none" />
                  <g clip-path="url(#mask_2)">
                    <g id="Group">
                      <g id="Group">
                        <path d="M35.6737 25.2934L37.3599 30.8811C35.31 24.1031 31.111 17.9203 24.7628 13.2583C20.1009 9.7867 14.7446 7.53839 9.15693 6.41424L7.4707 0.826538C13.0584 1.95069 18.3816 4.23206 23.0766 7.67064C29.4247 12.3656 33.6238 18.5485 35.6737 25.2934" id="Shape" fill="#020202" fill-rule="evenodd" stroke="none" />
                        <path d="M7.50874 0.826773L9.19497 6.41447C7.57487 6.08384 5.95477 5.8524 4.33467 5.72015L2.64844 0.132446C4.3016 0.264699 5.92171 0.496142 7.50874 0.826776" id="Shape" fill="#020202" fill-rule="evenodd" stroke="none" />
                        <path d="M2.612 0.132253L4.29823 5.71995C3.43858 5.65382 2.57894 5.5877 1.68623 5.5877L0 0C0.859647 0 1.75235 0.0661281 2.612 0.132253" id="Shape" fill="#020202" fill-rule="evenodd" stroke="none" />
                      </g>
                    </g>
                  </g>
                </g>
              </g>
              <g id="Group" transform="translate(51.091797 28.204346)">
                <path d="M0 0L2.71972 5.5877C2.93303 6.01752 3.14634 6.44735 3.30633 6.91023L0.586609 1.32253C0.426622 0.892711 0.213316 0.42982 0 0L0 0Z" id="Shape" fill="#020202" fill-rule="evenodd" stroke="none" />
                <g id="Mask-group">
                  <path d="M0 0L2.71972 5.5877C2.93303 6.01752 3.14634 6.44735 3.30633 6.91023L0.586609 1.32253C0.426622 0.892711 0.213316 0.42982 0 0L0 0Z" id="Shape" fill="none" fill-rule="evenodd" stroke="none" />
                  <g clip-path="url(#mask_3)">
                    <g id="Group">
                      <g id="Group">
                        <path d="M0 0L3.18156 5.5877L3.30633 5.78608L0.12477 0.198378L0 0" id="Shape" fill="#020202" fill-rule="evenodd" stroke="none" />
                        <path d="M0.0332031 0.198486L2.84358 5.78619C3.0089 6.14988 3.17421 6.54664 3.33953 6.91034L0.529153 1.32264C0.363833 0.958941 0.198523 0.562185 0.0332031 0.198486" id="Shape" fill="#020202" fill-rule="evenodd" stroke="none" />
                      </g>
                    </g>
                  </g>
                </g>
              </g>
              <g id="Group" transform="translate(54.134766 27.311523)">
                <path d="M0 0L2.34199 5.5877C2.70936 6.48041 3.0308 7.34006 3.30633 8.23276L0.964342 2.64506C0.688817 1.75235 0.36737 0.859641 0 0L0 0Z" id="Shape" fill="#020202" fill-rule="evenodd" stroke="none" />
                <g id="Mask-group">
                  <path d="M0 0L2.34199 5.5877C2.70936 6.48041 3.0308 7.34006 3.30633 8.23276L0.964342 2.64506C0.688817 1.75235 0.36737 0.859641 0 0L0 0Z" id="Shape" fill="none" fill-rule="evenodd" stroke="none" />
                  <g clip-path="url(#mask_4)">
                    <g id="Group">
                      <g id="Group">
                        <path d="M0 0L3.18156 5.5877L3.30633 5.78608L0.12477 0.198378L0 0" id="Shape" fill="#020202" fill-rule="evenodd" stroke="none" />
                        <path d="M0.0332031 0.198486L2.4421 5.78619C2.77273 6.61277 3.10336 7.40629 3.33953 8.23287L0.930636 2.64517C0.694474 1.81859 0.363834 0.992005 0.0332031 0.198486" id="Shape" fill="#020202" fill-rule="evenodd" stroke="none" />
                      </g>
                    </g>
                  </g>
                </g>
              </g>
              <g id="Group" transform="translate(53.83789 29.956299)">
                <path d="M1.18721 0L3.27504 5.5877C3.4388 6.28203 2.94754 6.97636 2.08784 7.27393L0 1.68623C0.859694 1.38866 1.39189 0.694333 1.18721 0L1.18721 0Z" id="Shape" fill="#020202" fill-rule="evenodd" stroke="none" />
                <g id="Mask-group">
                  <path d="M1.18721 0L3.27504 5.5877C3.4388 6.28203 2.94754 6.97636 2.08784 7.27393L0 1.68623C0.859694 1.38866 1.39189 0.694333 1.18721 0L1.18721 0Z" id="Shape" fill="none" fill-rule="evenodd" stroke="none" />
                  <g clip-path="url(#mask_5)">
                    <g id="Group" transform="translate(0.033203125 0)">
                      <g id="Group">
                        <path d="M-42.9971 47.2242L-42.1372 56.6674L-42.1372 56.6674L-42.9803 47.2801L-42.9971 47.2242" id="Polyline" fill="#020202" fill-rule="evenodd" stroke="none" />
                        <path d="M0.955078 0.0330811L4.26141 5.62078L4.26141 5.71997L1.01991 0.132273L1.01991 0.0330811" id="Shape" fill="#020202" fill-rule="evenodd" stroke="none" />
                        <path d="M0.955078 0.132446L4.26141 5.72015C4.26141 5.72015 4.26141 5.78627 4.26141 5.8524L0.955078 0.264703C0.955078 0.264703 0.955078 0.198574 0.955078 0.132446" id="Shape" fill="#020202" fill-rule="evenodd" stroke="none" />
                        <path d="M0.955078 0.264282L4.26141 5.85198C4.26141 5.85198 4.26141 5.95117 4.26141 5.98424L0.955078 0.396538C0.955078 0.396538 0.955078 0.297346 0.955078 0.264282" id="Shape" fill="#020202" fill-rule="evenodd" stroke="none" />
                        <path d="M0.955078 0.396729L4.26141 5.98443C4.26141 5.98443 4.26141 6.08362 4.26141 6.14974L0.955078 0.562043C0.955078 0.562043 0.955078 0.46285 0.955078 0.396729" id="Shape" fill="#020202" fill-rule="evenodd" stroke="none" />
                        <path d="M1.01735 0.529053L4.19891 6.11675C4.19891 6.11675 4.19891 6.24901 4.07414 6.31513L0.892578 0.727431C0.892578 0.727431 0.954963 0.595175 1.01735 0.529053" id="Shape" fill="#020202" fill-rule="evenodd" stroke="none" />
                        <path d="M1.12783 0.727295L3.80438 6.31499C3.69941 6.54644 3.48949 6.74482 3.1746 6.91014L0.498047 1.32244C0.76045 1.15712 0.97038 0.958737 1.12783 0.727295" id="Shape" fill="#020202" fill-rule="evenodd" stroke="none" />
                        <path d="M0.623329 1.32263L3.63446 6.91033C3.63446 6.91033 3.45733 7.00952 3.33925 7.04259L0.328125 1.45489C0.328125 1.45489 0.505254 1.3557 0.623329 1.32263" id="Shape" fill="#020202" fill-rule="evenodd" stroke="none" />
                        <path d="M0.441637 1.45459L3.5075 7.04229C3.5075 7.04229 3.32715 7.10842 3.26704 7.14148L0.201172 1.55378C0.201172 1.55378 0.381521 1.48765 0.441637 1.45459" id="Shape" fill="#020202" fill-rule="evenodd" stroke="none" />
                        <path d="M0.304919 1.55396L3.37078 7.14166C3.37078 7.14166 3.25055 7.17472 3.13032 7.20778L0.0644531 1.62008C0.0644531 1.62008 0.244802 1.58702 0.304919 1.55396" id="Shape" fill="#020202" fill-rule="evenodd" stroke="none" />
                        <path d="M0.183689 1.62L3.30633 7.2077L3.12264 7.27382L0 1.68612L0.183689 1.62" id="Shape" fill="#020202" fill-rule="evenodd" stroke="none" />
                      </g>
                    </g>
                  </g>
                </g>
              </g>
              <path d="M15.4158 2.91077L17.102 8.4654L5.49678 54.721L3.81055 49.1663L15.4158 2.91077L15.4158 2.91077Z" id="Polygon" fill="#020202" fill-rule="evenodd" stroke="none" />
              <path d="M51.4548 29.5265L53.141 35.1142L5.49678 54.7207L3.81055 49.1661L51.4548 29.5265L51.4548 29.5265Z" id="Polygon" fill="#020202" fill-rule="evenodd" stroke="none" />
              <path d="M53.8344 31.6426L55.5206 37.1972L3.87568 58.49L2.18945 52.9354L53.8344 31.6426L53.8344 31.6426Z" id="Polygon" fill="#020202" fill-rule="evenodd" stroke="none" />
              <g id="Group" transform="translate(0.0703125 52.042847)">
                <path d="M1.68623 5.5877L0 0C0.0661281 0.264506 0.231442 0.495948 0.495948 0.694327C0.925772 1.02496 1.55397 1.09109 2.11605 0.859641L3.80228 6.44734C3.2402 6.67879 2.64506 6.61266 2.18218 6.28203C1.95074 6.11671 1.78542 5.85221 1.68623 5.5877L1.68623 5.5877Z" id="Shape" fill="#020202" fill-rule="evenodd" stroke="none" />
                <g id="Group" transform="translate(0.033203125 0.033081055)">
                  <g id="Group">
                    <path d="M-15.6949 63.0253L-14.818 72.3571L-14.8352 72.3571L-15.7121 63.0253L-15.6949 63.0253" id="Polyline" fill="#020202" fill-rule="evenodd" stroke="none" />
                    <path d="M2.15843 0.859619L5.2243 6.44732L4.98384 6.44732L1.91797 0.925747L2.15843 0.925747" id="Shape" fill="#020202" fill-rule="evenodd" stroke="none" />
                    <path d="M2.06077 0.892822L5.12664 6.48052L4.88618 6.48052L1.82031 0.925886L2.06077 0.925886" id="Shape" fill="#020202" fill-rule="evenodd" stroke="none" />
                    <path d="M1.92601 0.925903L4.99188 6.51361L4.75142 6.51361L1.68555 0.958967L1.92601 0.958967" id="Shape" fill="#020202" fill-rule="evenodd" stroke="none" />
                    <path d="M1.7971 0.958862L4.86297 6.54656L4.62251 6.54656L1.55664 0.991926L1.7971 0.991926" id="Shape" fill="#020202" fill-rule="evenodd" stroke="none" />
                    <path d="M1.66038 0.958862L4.72625 6.54656C4.72625 6.54656 4.54591 6.54656 4.48579 6.54656L1.41992 0.958862C1.41992 0.958862 1.60027 0.958862 1.66038 0.958862" id="Shape" fill="#020202" fill-rule="evenodd" stroke="none" />
                    <path d="M1.55497 0.992065L4.5661 6.57977C4.5661 6.57977 4.38897 6.57977 4.27089 6.57977L1.25977 0.992065C1.25977 0.992065 1.43689 0.992065 1.55497 0.992065" id="Shape" fill="#020202" fill-rule="evenodd" stroke="none" />
                    <path d="M1.43983 0.958862L4.39813 6.54656C4.39813 6.54656 4.16611 6.54656 4.05009 6.54656L1.0918 0.958862C1.0918 0.958862 1.32382 0.958862 1.43983 0.958862" id="Shape" fill="#020202" fill-rule="evenodd" stroke="none" />
                    <path d="M1.29892 0.958833L3.30633 6.54654C3.03081 6.51347 2.79464 6.41428 2.59783 6.28203C2.3223 6.11671 2.1255 5.85221 2.00742 5.5877L0 0C0.078724 0.264506 0.275526 0.495948 0.590415 0.694327C0.787221 0.826583 1.06275 0.925769 1.29892 0.958833" id="Shape" fill="#020202" fill-rule="evenodd" stroke="none" />
                  </g>
                </g>
              </g>
              <path d="M54.7934 29.9565C52.9749 21.6246 48.1807 13.9539 40.5431 8.30007C32.9054 2.64625 23.6146 -0.0649457 14.2577 0.00117928C13.4973 0.00117928 12.8029 0.497128 12.6376 1.19146L0.0405087 51.3485C-0.0917444 51.8775 0.106637 52.4065 0.536457 52.7372C0.966281 53.0678 1.59448 53.1339 2.15656 52.9025L53.8015 31.6097C54.4958 31.3121 54.9256 30.6178 54.7603 29.9235L54.7934 29.9565ZM46.4001 17.9217C45.3669 16.761 44.2923 15.6706 43.0938 14.6154C44.2923 15.6706 45.4082 16.7961 46.4001 17.9217L46.4001 17.9217ZM35.7829 10.2508C34.7346 9.14868 33.6055 8.04656 32.4766 6.94446C33.6055 8.04656 34.6539 9.14868 35.7829 10.2508L35.7829 10.2508Z" id="Shape" fill="#FFFFFF" fill-rule="evenodd" stroke="none" />
            </g>
            <g id="Group" transform="translate(8.595703 0)">
              <g id="Group" transform="translate(39.25586 26.537842)">
                <path d="M8.56339 0L11.5722 8.26583C12.1342 9.78674 12.5971 11.3738 12.9608 12.9939C13.5229 15.5067 11.7044 18.1187 8.92709 18.813C7.30699 19.2428 5.68689 18.9122 4.52967 18.0856C3.83534 17.5897 3.30632 16.8954 3.00876 16.1018L0 7.83601C0.29757 8.66259 0.826583 9.32386 1.52091 9.81981C2.67813 10.6464 4.29823 10.977 5.91833 10.5472C8.69565 9.85287 10.5141 7.24087 9.95205 4.72806C9.58835 3.10795 9.12547 1.52092 8.56339 0L8.56339 0Z" id="Shape" fill="#020202" fill-rule="evenodd" stroke="none" />
                <g id="Mask-group">
                  <path d="M8.56339 0L11.5722 8.26583C12.1342 9.78674 12.5971 11.3738 12.9608 12.9939C13.5229 15.5067 11.7044 18.1187 8.92709 18.813C7.30699 19.2428 5.68689 18.9122 4.52967 18.0856C3.83534 17.5897 3.30632 16.8954 3.00876 16.1018L0 7.83601C0.29757 8.66259 0.826583 9.32386 1.52091 9.81981C2.67813 10.6464 4.29823 10.977 5.91833 10.5472C8.69565 9.85287 10.5141 7.24087 9.95205 4.72806C9.58835 3.10795 9.12547 1.52092 8.56339 0L8.56339 0Z" id="Shape" fill="none" fill-rule="evenodd" stroke="none" />
                  <g clip-path="url(#mask_6)">
                    <g id="Group">
                      <g id="Group">
                        <path d="M8.5625 0L11.5713 8.26583C11.7035 8.59646 11.8027 8.89404 11.9019 9.22467L8.89313 0.958839C8.79394 0.628205 8.66169 0.330634 8.5625 0" id="Shape" fill="#020202" fill-rule="evenodd" stroke="none" />
                        <path d="M8.89258 0.958862L11.9013 9.22469C12.232 10.2166 12.5295 11.2085 12.794 12.2335L9.78529 3.96762C9.52078 2.94266 9.25628 1.95076 8.89258 0.958862" id="Shape" fill="#020202" fill-rule="evenodd" stroke="none" />
                        <path d="M9.75 3.96753L12.8202 12.2334C12.8876 12.4979 12.9551 12.7293 12.9889 12.9938C12.9889 13.093 13.0226 13.1591 13.0563 13.2583L9.98617 4.99249C9.98617 4.99249 9.98617 4.82718 9.91869 4.72798C9.85121 4.46348 9.78373 4.23204 9.75 3.96753" id="Shape" fill="#020202" fill-rule="evenodd" stroke="none" />
                        <path d="M9.98438 4.99268L13.2548 13.2585C13.2548 13.2585 13.2548 13.4899 13.2907 13.6222L10.0203 5.35637C10.0203 5.35637 10.0203 5.12493 9.98438 4.99268" id="Shape" fill="#020202" fill-rule="evenodd" stroke="none" />
                        <path d="M10.0488 5.32312L13.3552 13.5889C13.3552 13.5889 13.3552 13.8535 13.3552 13.9526L10.0488 5.68682C10.0488 5.68682 10.0488 5.42231 10.0488 5.32312" id="Shape" fill="#020202" fill-rule="evenodd" stroke="none" />
                        <path d="M10.0488 5.71997L13.3552 13.9858C13.3552 13.9858 13.3552 14.2503 13.3552 14.3826L10.0488 6.11673C10.0488 6.11673 10.0488 5.85223 10.0488 5.71997" id="Shape" fill="#020202" fill-rule="evenodd" stroke="none" />
                        <path d="M10.0223 6.11658L13.2575 14.3824C13.2575 14.3824 13.2219 14.68 13.1864 14.8453L9.95117 6.57946C9.95117 6.57946 10.0223 6.28189 10.0223 6.11658" id="Shape" fill="#020202" fill-rule="evenodd" stroke="none" />
                        <path d="M9.95451 6.57959L13.0563 14.8454C13.0222 15.0438 12.9541 15.2752 12.8518 15.4736L9.75 7.20779C9.81817 7.00942 9.88635 6.81103 9.95451 6.57959" id="Shape" fill="#020202" fill-rule="evenodd" stroke="none" />
                        <path d="M9.7546 7.20801L12.7634 15.4738C12.4988 16.1682 12.1021 16.7964 11.54 17.3584L8.53125 9.09262C9.09333 8.5636 9.49009 7.90233 9.7546 7.20801" id="Shape" fill="#020202" fill-rule="evenodd" stroke="none" />
                        <path d="M8.56222 9.09241L11.571 17.3582C11.571 17.3582 11.2403 17.6558 11.042 17.8211L8.0332 9.55529C8.23158 9.42304 8.3969 9.25772 8.56222 9.09241" id="Shape" fill="#020202" fill-rule="evenodd" stroke="none" />
                        <path d="M8.03724 9.52222L11.046 17.788C11.046 17.788 10.7815 17.9864 10.6162 18.0856L7.60742 9.81979C7.60742 9.81979 7.90499 9.62141 8.03724 9.52222" id="Shape" fill="#020202" fill-rule="evenodd" stroke="none" />
                        <path d="M7.60379 9.8197L10.6126 18.0855C10.6126 18.0855 10.348 18.2508 10.2158 18.317L7.20703 10.0511C7.20703 10.0511 7.47154 9.91889 7.60379 9.8197" id="Shape" fill="#020202" fill-rule="evenodd" stroke="none" />
                        <path d="M7.20745 10.0514L10.2162 18.3172C10.2162 18.3172 9.98477 18.4495 9.85251 18.4825L6.84375 10.2167C6.84375 10.2167 7.10826 10.0844 7.20745 10.0514" id="Shape" fill="#020202" fill-rule="evenodd" stroke="none" />
                        <path d="M6.84807 10.2495L9.85683 18.5153C9.85683 18.5153 9.62539 18.6145 9.49314 18.6476L6.48438 10.3818C6.48438 10.3818 6.71582 10.2826 6.84807 10.2495" id="Shape" fill="#020202" fill-rule="evenodd" stroke="none" />
                        <path d="M6.47893 10.3818L9.48769 18.6477C9.48769 18.6477 9.25625 18.7469 9.12399 18.7799L6.11523 10.5141C6.11523 10.5141 6.34668 10.448 6.47893 10.3818" id="Shape" fill="#020202" fill-rule="evenodd" stroke="none" />
                        <path d="M6.1176 10.5143L9.12636 18.7801C9.12636 18.7801 8.9941 18.8132 8.92798 18.8462L8.76267 18.8462L5.75391 10.6135L5.91922 10.6135C5.91922 10.6135 6.05148 10.5473 6.1176 10.5143" id="Shape" fill="#020202" fill-rule="evenodd" stroke="none" />
                        <path d="M5.75028 10.6132L8.75904 18.879C8.75904 18.879 8.49453 18.9451 8.36228 18.9451L5.35352 10.6793C5.35352 10.6793 5.61802 10.6462 5.75028 10.6132" id="Shape" fill="#020202" fill-rule="evenodd" stroke="none" />
                        <path d="M5.3577 10.6794L8.36646 18.9453C8.36646 18.9453 8.10195 18.9783 7.9697 18.9783L4.96094 10.7125C4.96094 10.7125 5.22544 10.7125 5.3577 10.6794" id="Shape" fill="#020202" fill-rule="evenodd" stroke="none" />
                        <path d="M4.95716 10.7124L7.96593 18.9782C7.96593 18.9782 7.66835 18.9782 7.53611 18.9782L4.52734 10.7124C4.52734 10.7124 4.82491 10.7124 4.95716 10.7124" id="Shape" fill="#020202" fill-rule="evenodd" stroke="none" />
                        <path d="M4.5311 10.7456L7.53987 19.0114C7.53987 19.0114 7.20923 19.0114 7.04392 19.0114L4.03516 10.7456C4.03516 10.7456 4.36579 10.7456 4.5311 10.7456" id="Shape" fill="#020202" fill-rule="evenodd" stroke="none" />
                        <path d="M4.03069 10.7124L7.03945 18.9782C6.84107 18.9782 6.64269 18.9451 6.44431 18.879L3.43555 10.6132C3.63392 10.6462 3.83231 10.6793 4.03069 10.7124" id="Shape" fill="#020202" fill-rule="evenodd" stroke="none" />
                        <path d="M3.43858 10.6464L6.44734 18.9123C5.75302 18.78 5.09175 18.4825 4.52967 18.0857C3.83534 17.5897 3.30633 16.8954 3.00876 16.1019L0 7.83606C0.29757 8.66264 0.826583 9.32391 1.52091 9.81986C2.08299 10.2166 2.74426 10.4811 3.43858 10.6464" id="Shape" fill="#020202" fill-rule="evenodd" stroke="none" />
                      </g>
                    </g>
                  </g>
                </g>
              </g>
              <path d="M33.7667 8.35291C41.801 14.0729 47.1242 22.0081 49.2072 31.2658C49.7693 33.7786 47.9508 36.3906 45.1735 37.0849C43.5534 37.5148 41.9333 37.1841 40.7761 36.3575C39.9164 35.7624 39.3213 34.9028 39.0899 33.8447C37.4367 26.6039 33.3038 20.421 27.0548 15.9575C20.7728 11.4939 13.1351 9.24562 4.90238 9.47706C3.71211 9.47706 2.62102 9.17949 1.79443 8.55129C0.637217 7.72471 -0.0901742 6.40218 0.00901489 4.88126C0.141268 2.26926 2.55489 0.0870841 5.39834 0.0209559C15.9125 -0.276614 25.7323 2.59989 33.7667 8.31985L33.7667 8.35291Z" id="Shape" fill="#020202" fill-rule="evenodd" stroke="none" />
            </g>
            <g id="Group" transform="translate(8.595703 0)">
              <g id="Group" transform="translate(0.24023438 6.567505)">
                <path d="M37.7583 23.5741L38.3534 25.2273C36.3035 19.5735 32.5343 14.7132 27.3764 11.0431C21.0944 6.5796 13.4568 4.3313 5.25707 4.56274C4.06679 4.5958 2.9757 4.26517 2.14912 3.67003C1.42172 3.17408 0.892711 2.47975 0.595141 1.65317L0 0C0.29757 0.793519 0.826583 1.48785 1.55398 2.01686C2.38056 2.612 3.47165 2.94263 4.66193 2.90957C12.8947 2.67813 20.5323 4.92643 26.7813 9.38998C31.9392 13.06 35.7084 17.9203 37.7583 23.5741L37.7583 23.5741Z" id="Shape" fill="#020202" fill-rule="evenodd" stroke="none" />
                <g id="Mask-group">
                  <path d="M37.7583 23.5741L38.3534 25.2273C36.3035 19.5735 32.5343 14.7132 27.3764 11.0431C21.0944 6.5796 13.4568 4.3313 5.25707 4.56274C4.06679 4.5958 2.9757 4.26517 2.14912 3.67003C1.42172 3.17408 0.892711 2.47975 0.595141 1.65317L0 0C0.29757 0.793519 0.826583 1.48785 1.55398 2.01686C2.38056 2.612 3.47165 2.94263 4.66193 2.90957C12.8947 2.67813 20.5323 4.92643 26.7813 9.38998C31.9392 13.06 35.7084 17.9203 37.7583 23.5741L37.7583 23.5741Z" id="Shape" fill="none" fill-rule="evenodd" stroke="none" />
                  <g clip-path="url(#mask_7)">
                    <g id="Group">
                      <g id="Group">
                        <path d="M37.7576 23.574L38.3527 25.2272C36.3028 19.5733 32.5336 14.713 27.3757 11.043C23.342 8.1665 18.7462 6.21576 13.8197 5.25693L13.2246 3.60376C18.1841 4.5626 22.7799 6.51333 26.7806 9.38984C31.9384 13.0599 35.7077 17.9202 37.7576 23.574" id="Shape" fill="#020202" fill-rule="evenodd" stroke="none" />
                        <path d="M13.2264 3.88412L13.8215 6.31524C12.4329 5.92626 11.0442 5.63453 9.62248 5.44004L9.02734 3.00891C10.4491 3.2034 11.8377 3.44651 13.2264 3.88412" id="Shape" fill="#020202" fill-rule="evenodd" stroke="none" />
                        <path d="M9.0262 3.12138L9.62133 6.1828C8.46412 5.99911 7.3069 5.93788 6.11662 5.93788L5.52148 2.87646C6.71176 2.87646 7.86898 2.93769 9.02619 3.12138" id="Shape" fill="#020202" fill-rule="evenodd" stroke="none" />
                        <path d="M6.5938 2.87646L7.83367 6.1828C7.21374 6.1828 6.66268 6.1828 6.04275 6.1828L5.76722 6.1828L4.52734 2.87646L4.80287 2.87646C5.42281 2.87646 5.97386 2.87646 6.5938 2.87646" id="Shape" fill="#020202" fill-rule="evenodd" stroke="none" />
                        <path d="M5.53803 2.90967L7.34149 6.216C6.84053 6.216 6.33956 6.216 5.83861 6.216L4.03516 2.90967C4.03516 2.90967 5.03708 2.90967 5.53803 2.90967" id="Shape" fill="#020202" fill-rule="evenodd" stroke="none" />
                        <path d="M5.08871 2.93747L6.74188 6.11663C6.19082 6.11663 5.63977 6.05305 5.08871 5.98946L3.43555 2.8103C3.98661 2.87389 4.53765 2.93747 5.08871 2.93747" id="Shape" fill="#020202" fill-rule="evenodd" stroke="none" />
                        <path d="M3.43858 2.81038L4.03372 4.46355C3.3394 4.33129 2.67813 4.03372 2.14912 3.67003C1.42172 3.17408 0.892711 2.47975 0.595141 1.65317L0 0C0.29757 0.793519 0.826583 1.48785 1.55398 2.01686C2.08299 2.41362 2.74425 2.67813 3.43858 2.81038" id="Shape" fill="#020202" fill-rule="evenodd" stroke="none" />
                      </g>
                    </g>
                  </g>
                </g>
              </g>
              <path d="M33.7667 8.35291C41.801 14.0729 47.1242 21.975 49.2072 31.2658C49.7693 33.7786 47.9839 36.3906 45.1735 37.0849C43.5534 37.4817 41.9333 37.1841 40.7761 36.3245C39.9495 35.7293 39.3213 34.8697 39.0899 33.8117C37.4698 26.5708 33.2707 20.388 27.0217 15.9244C20.7397 11.4609 13.1021 9.21256 4.90238 9.444C3.71211 9.47707 2.62102 9.14643 1.79443 8.55129C0.637217 7.72471 -0.0901742 6.40218 0.0090149 4.88126C0.141268 2.26926 2.55489 0.0870841 5.39834 0.0209559C15.9455 -0.276614 25.7323 2.59989 33.7667 8.31985L33.7667 8.35291Z" id="Shape" fill="#FFB000" fill-rule="evenodd" stroke="none" />
            </g>
            <g id="Group" transform="translate(13.917969 19.4021)">
              <g id="Group" transform="translate(0.17382812 3.5981445)">
                <g id="Mask-group">
                  <path d="M11.0762 0L11.2085 0.42982C11.7044 2.01686 11.3077 3.86841 10.0182 5.29013C7.96826 7.5715 4.3313 8.03438 1.91767 6.24896C1.02496 5.5877 0.429824 4.69499 0.132253 3.73615L0 3.30633C0.29757 4.26517 0.892711 5.15788 1.78542 5.81914C4.16598 7.60457 7.80294 7.14168 9.88593 4.86031C11.1754 3.40552 11.5722 1.58704 11.0762 0L11.0762 0Z" id="Shape" fill="none" fill-rule="evenodd" stroke="none" />
                  <g clip-path="url(#mask_8)">
                    <g id="Group" transform="translate(0.033203125 0)">
                      <g id="Group">
                        <path d="M-46.5666 -48.6229L-46.5613 -48.5628L-46.5613 -48.5581L-46.5666 -48.6183L-46.5666 -48.6229" id="Polyline" fill="#891812" fill-rule="evenodd" stroke="none" />
                        <path d="M11.043 0.0330811L12.9323 1.75236C12.9323 1.75236 13.877 2.81039 14.3493 3.33941L12.46 1.62013C12.46 1.62013 11.5153 0.562106 11.043 0.0330811" id="Shape" fill="#8C1A13" fill-rule="evenodd" stroke="none" />
                        <path d="M11.1387 0.42981L13.3429 2.08298C13.3429 2.08298 13.8939 3.10031 14.445 3.73614L12.2408 2.08298C12.2408 2.08298 11.6897 1.06564 11.1387 0.42981" id="Shape" fill="#901B15" fill-rule="evenodd" stroke="none" />
                        <path d="M11.2109 0.859619L14.5173 2.51278C14.5173 2.51278 14.5173 3.65729 14.5173 4.16595L11.2109 2.51278C11.2109 2.51278 11.2109 1.36828 11.2109 0.859619" id="Shape" fill="#941C16" fill-rule="evenodd" stroke="none" />
                        <path d="M11.2441 1.28943L14.5505 2.88136C14.5505 2.88136 14.5505 4.10594 14.5505 4.59576L11.2441 3.00382C11.2441 3.00382 11.2441 1.77925 11.2441 1.28943" id="Shape" fill="#971D18" fill-rule="evenodd" stroke="none" />
                        <path d="M12.2798 1.75244L14.4841 3.18518C14.4841 3.84644 13.933 4.39751 13.382 5.05877L11.1777 3.62603C11.7288 2.96477 12.2798 2.4137 12.2798 1.75244" id="Shape" fill="#9B1E19" fill-rule="evenodd" stroke="none" />
                        <path d="M12.9291 2.31433L14.2516 3.57851C13.921 4.25923 13.2597 4.93995 12.2679 5.62066L10.9453 4.35648C11.6066 3.67576 12.2679 2.99505 12.9291 2.31433" id="Shape" fill="#FF3600" fill-rule="evenodd" stroke="none" />
                        <path d="M12.5562 3.00891L12.8317 3.54619C12.3496 4.37277 11.5918 5.15802 10.4897 5.90195C10.2831 6.06727 10.0076 6.19125 9.80092 6.31524L9.52539 5.77797C9.52539 5.77797 10.0076 5.48866 10.2142 5.36467C11.3163 4.66208 12.074 3.83549 12.5562 3.00891" id="Shape" fill="#FF3600" fill-rule="evenodd" stroke="none" />
                        <path d="M11.629 5.22388L12.2302 6.75896C11.3284 7.34937 10.4267 7.9398 9.52499 8.53021L8.92383 6.99513C9.82554 6.40472 10.7273 5.93237 11.629 5.22388" id="Shape" fill="#FF3600" fill-rule="evenodd" stroke="none" />
                        <path d="M11.0438 5.71997L11.7399 7.58876C11.7399 7.58876 9.99975 8.59503 9.12968 9.0263L8.43359 7.15751C9.30367 6.72624 10.1738 6.295 11.0438 5.71997" id="Shape" fill="#9B1E19" fill-rule="evenodd" stroke="none" />
                        <path d="M10.5403 6.05054L11.2751 8.19965C11.2751 8.19965 9.62192 9.02623 8.70351 9.35687L7.96875 7.20775C7.96875 7.20775 9.62192 6.38118 10.5403 6.05054" id="Shape" fill="#971D18" fill-rule="evenodd" stroke="none" />
                        <path d="M10.0655 6.2821L10.8434 8.54433C10.8434 8.54433 9.09303 9.24042 8.31509 9.58844L7.53711 7.32621C7.53711 7.32621 9.28752 6.63012 10.0655 6.2821" id="Shape" fill="#941C16" fill-rule="evenodd" stroke="none" />
                        <path d="M9.63773 6.48035L10.4157 8.86826C10.4157 8.86826 8.66529 9.41933 7.88735 9.78668L7.10938 7.39877C7.10938 7.39877 8.85979 6.84769 9.63773 6.48035" id="Shape" fill="#901B15" fill-rule="evenodd" stroke="none" />
                        <path d="M9.20609 6.64575L9.98407 9.1741C9.98407 9.1741 8.23365 9.75759 7.45571 9.95208L6.67773 7.42373C6.67773 7.42373 8.42815 7.03474 9.20609 6.64575" id="Shape" fill="#8C1A13" fill-rule="evenodd" stroke="none" />
                        <path d="M8.79033 6.74512L9.52508 9.4315C9.52508 9.4315 7.87192 9.8448 6.95351 10.0514L6.21875 7.36507C6.21875 7.36507 7.87192 6.95177 8.79033 6.74512" id="Shape" fill="#891812" fill-rule="evenodd" stroke="none" />
                        <path d="M8.32548 6.84387L9.06024 9.70935C9.06024 9.70935 7.22338 9.92978 6.48866 10.1502L5.75391 7.28473C5.75391 7.28473 7.59076 7.0643 8.32548 6.84387" id="Shape" fill="#851710" fill-rule="evenodd" stroke="none" />
                        <path d="M7.83486 6.91016L8.53094 10.2165C7.66087 10.2165 6.79076 10.2165 5.92069 10.2165L5.22461 6.91016C6.09468 6.91016 6.96479 6.91016 7.83486 6.91016" id="Shape" fill="#82160F" fill-rule="evenodd" stroke="none" />
                        <path d="M7.33865 6.94324L7.96844 10.2496C7.02379 10.2496 6.23655 10.2496 5.2919 10.2496L4.66211 6.94324C5.60676 6.94324 6.394 6.94324 7.33865 6.94324" id="Shape" fill="#80140D" fill-rule="evenodd" stroke="none" />
                        <path d="M6.7441 7.43111L7.27313 10.1175C6.34736 10.1175 5.42159 9.70419 4.49582 9.49754L3.9668 6.81116C4.89257 7.01781 5.81833 7.22446 6.7441 7.43111" id="Shape" fill="#80130B" fill-rule="evenodd" stroke="none" />
                        <path d="M3.96759 6.81113L4.09985 7.24095C3.30633 7.07564 2.54587 6.745 1.91767 6.28211C1.02496 5.62084 0.429823 4.72814 0.132253 3.7693L0 3.33948C0.29757 4.29832 0.892711 5.19102 1.78542 5.85229C2.44668 6.34824 3.20714 6.64581 3.9676 6.81113" id="Shape" fill="#801109" fill-rule="evenodd" stroke="none" />
                      </g>
                    </g>
                  </g>
                </g>
              </g>
              <path d="M0.202105 6.94091C-0.628899 4.17804 1.17818 1.19214 4.23832 0.271727C7.29845 -0.648688 10.4529 0.844915 11.2839 3.60779C12.1149 6.37066 10.3078 9.35655 7.24765 10.277C4.18751 11.1974 1.03311 9.70378 0.202105 6.94091Z" id="Ellipse" fill="#FFB000" fill-rule="evenodd" stroke="none" />
            </g>
            <g id="Group" transform="translate(13.775391 19.565186)">
              <g id="Group" transform="translate(0.18554688 3.6333008)">
                <g id="Mask-group">
                  <path d="M11.0762 0L11.2085 0.42982C11.7044 2.01686 11.3077 3.8684 10.0182 5.29013C7.9352 7.60456 4.3313 8.03438 1.91767 6.24897C1.02496 5.5877 0.429824 4.69499 0.132253 3.73615L0 3.30633C0.29757 4.26517 0.892711 5.15788 1.78542 5.81915C4.16598 7.60457 7.80294 7.17474 9.88593 4.86031C11.1754 3.40552 11.5722 1.58704 11.0762 0L11.0762 0Z" id="Shape" fill="none" fill-rule="evenodd" stroke="none" />
                  <g clip-path="url(#mask_9)">
                    <g id="Group">
                      <g id="Group">
                        <path d="M-46.4064 -49.3608L-46.4011 -49.3093L-46.4011 -49.305L-46.4051 -49.3608L-46.4064 -49.3608" id="Polyline" fill="#891812" fill-rule="evenodd" stroke="#000000" stroke-width="0.37" />
                        <path d="M11.1074 0L12.9968 1.71928C12.9968 1.71928 13.9414 2.77731 14.4138 3.30633L12.5244 1.58705C12.5244 1.58705 11.5798 0.529025 11.1074 0" id="Shape" fill="#8C1A13" fill-rule="evenodd" stroke="#000000" stroke-width="0.37" />
                        <path d="M11.2109 0.42981L13.4152 2.08298C13.4152 2.08298 13.9662 3.10031 14.5173 3.73614L12.313 2.08298C12.313 2.08298 11.762 1.06564 11.2109 0.42981" id="Shape" fill="#901B15" fill-rule="evenodd" stroke="#000000" stroke-width="0.37" />
                        <path d="M11.2441 0.826538L14.5505 2.4797C14.5505 2.4797 14.5505 3.62421 14.5505 4.13287L11.2441 2.4797C11.2441 2.4797 11.2441 1.3352 11.2441 0.826538" id="Shape" fill="#941C16" fill-rule="evenodd" stroke="#000000" stroke-width="0.37" />
                        <path d="M11.2754 1.25647L14.5817 2.84841C14.5817 2.84841 14.5817 4.07298 14.5817 4.5628L11.2754 2.97087C11.2754 2.97087 11.2754 1.74629 11.2754 1.25647" id="Shape" fill="#000000" fill-rule="evenodd" stroke="none" />
                        <path d="M12.313 1.75244L14.5173 3.18518C14.5173 3.84644 13.9662 4.39751 13.4152 5.05877L11.2109 3.62604C11.762 2.96477 12.313 2.4137 12.313 1.75244" id="Shape" fill="#9B1E19" fill-rule="evenodd" stroke="#000000" stroke-width="0.37" />
                        <path d="M12.9935 2.28113L14.3161 3.54531C13.9855 4.22603 13.3242 4.90674 12.3323 5.58746L11.0098 4.32328C11.671 3.64256 12.3323 2.96184 12.9935 2.28113" id="Shape" fill="#FF3600" fill-rule="evenodd" stroke="none" />
                        <path d="M12.5874 2.97583L12.863 3.51311C12.3808 4.33969 11.6231 5.12494 10.521 5.86887C10.3143 6.03419 10.0388 6.15817 9.83217 6.28216L9.55664 5.74489C9.55664 5.74489 10.0388 5.45558 10.2455 5.33159C11.3476 4.629 12.1053 3.80241 12.5874 2.97583" id="Shape" fill="#FF3600" fill-rule="evenodd" stroke="none" />
                        <path d="M11.6681 5.19067L12.2692 6.72575C11.3675 7.31616 10.4658 7.9066 9.56405 8.49701L8.96289 6.96193C9.8646 6.37152 10.7663 5.89917 11.6681 5.19067" id="Shape" fill="#FF3600" fill-rule="evenodd" stroke="none" />
                        <path d="M11.0751 5.68677L11.7712 7.55556C11.7712 7.55556 10.031 8.56183 9.16093 8.9931L8.46484 7.12431C9.33492 6.69304 10.205 6.2618 11.0751 5.68677" id="Shape" fill="#9B1E19" fill-rule="evenodd" stroke="#000000" stroke-width="0.37" />
                        <path d="M10.5735 6.01733L11.3083 8.16645C11.3083 8.16645 9.65512 8.99302 8.73671 9.32367L8.00195 7.17455C8.00195 7.17455 9.65512 6.34798 10.5735 6.01733" id="Shape" fill="#000000" fill-rule="evenodd" stroke="none" />
                        <path d="M10.1358 6.2821L10.9138 8.54433C10.9138 8.54433 9.16334 9.24043 8.3854 9.58844L7.60742 7.32621C7.60742 7.32621 9.35784 6.63012 10.1358 6.2821" id="Shape" fill="#941C16" fill-rule="evenodd" stroke="#000000" stroke-width="0.37" />
                        <path d="M9.67093 6.48035L10.4489 8.86826C10.4489 8.86826 8.6985 9.41933 7.92056 9.78668L7.14258 7.39877C7.14258 7.39877 8.89299 6.84769 9.67093 6.48035" id="Shape" fill="#901B15" fill-rule="evenodd" stroke="#000000" stroke-width="0.37" />
                        <path d="M9.23734 6.61267L10.0153 9.14103C10.0153 9.14103 8.2649 9.72451 7.48696 9.919L6.70898 7.39065C6.70898 7.39065 8.4594 7.00166 9.23734 6.61267" id="Shape" fill="#8C1A13" fill-rule="evenodd" stroke="#000000" stroke-width="0.37" />
                        <path d="M8.82158 6.74512L9.55633 9.4315C9.55633 9.4315 7.90317 9.8448 6.98476 10.0514L6.25 7.36507C6.25 7.36507 7.90317 6.95177 8.82158 6.74512" id="Shape" fill="#891812" fill-rule="evenodd" stroke="#000000" stroke-width="0.37" />
                        <path d="M8.35868 6.84387L9.09344 9.70935C9.09344 9.70935 7.25659 9.92978 6.52187 10.1502L5.78711 7.28473C5.78711 7.28473 7.62396 7.0643 8.35868 6.84387" id="Shape" fill="#851710" fill-rule="evenodd" stroke="#000000" stroke-width="0.37" />
                        <path d="M7.89931 6.87695L8.59539 10.1833C7.72532 10.1833 6.85522 10.1833 5.98515 10.1833L5.28906 6.87695C6.15913 6.87695 7.02924 6.87695 7.89931 6.87695" id="Shape" fill="#82160F" fill-rule="evenodd" stroke="#000000" stroke-width="0.37" />
                        <path d="M7.37186 6.91016L8.00164 10.2165C7.05699 10.2165 6.26975 10.2165 5.3251 10.2165L4.69531 6.91016C5.63997 6.91016 6.4272 6.91016 7.37186 6.91016" id="Shape" fill="#80140D" fill-rule="evenodd" stroke="#000000" stroke-width="0.37" />
                        <path d="M6.78121 7.43111L7.31024 10.1175C6.38447 10.1175 5.45869 9.70419 4.53292 9.49754L4.00391 6.81116C4.92969 7.01781 5.85546 7.22446 6.78124 7.43111" id="Shape" fill="#80130B" fill-rule="evenodd" stroke="#000000" stroke-width="0.37" />
                        <path d="M4.00066 6.81113L4.13291 7.24095C3.3394 7.07564 2.57894 6.745 1.91767 6.28211C1.02496 5.62084 0.429823 4.72814 0.132253 3.7693L0 3.33948C0.29757 4.29832 0.892711 5.19102 1.78542 5.85229C2.44668 6.34824 3.20714 6.64581 4.00066 6.81113" id="Shape" fill="#801109" fill-rule="evenodd" stroke="#000000" stroke-width="0.37" />
                      </g>
                    </g>
                  </g>
                </g>
                <path d="M11.0762 0L11.2085 0.42982C11.7044 2.01686 11.3077 3.8684 10.0182 5.29013C7.9352 7.60456 4.3313 8.03438 1.91767 6.24897C1.02496 5.5877 0.429824 4.69499 0.132253 3.73615L0 3.30633C0.29757 4.26517 0.892711 5.15788 1.78542 5.81915C4.16598 7.60457 7.80294 7.17474 9.88593 4.86031C11.1754 3.40552 11.5722 1.58704 11.0762 0L11.0762 0Z" id="Shape" fill="none" fill-rule="evenodd" stroke="#000000" stroke-width="0.37" />
              </g>
              <path d="M0.202105 6.94091C-0.628899 4.17804 1.17818 1.19214 4.23832 0.271727C7.29846 -0.648688 10.4529 0.844916 11.2839 3.60779C12.1149 6.37066 10.3078 9.35656 7.24765 10.277C4.18751 11.1974 1.03311 9.70378 0.202105 6.94091Z" id="Ellipse" fill="#FFB000" fill-rule="evenodd" stroke="none" />
            </g>
            <g id="Group" transform="translate(7.8964844 35.529663)">
              <g id="Group" transform="translate(0.20703125 3.6053467)">
                <g id="Mask-group">
                  <path d="M11.0762 0L11.2085 0.42982C11.7044 2.01686 11.3077 3.8684 10.0182 5.29013C7.93519 7.60456 4.33129 8.03438 1.91767 6.24897C1.02496 5.5877 0.429823 4.69499 0.132253 3.73615L0 3.30633C0.29757 4.26517 0.892711 5.15788 1.78542 5.81914C4.16598 7.60457 7.80294 7.17474 9.88593 4.86031C11.1754 3.40552 11.5722 1.58704 11.0762 0L11.0762 0Z" id="Shape" fill="none" fill-rule="evenodd" stroke="none" />
                  <g clip-path="url(#mask_10)">
                    <g id="Group">
                      <g id="Group">
                        <path d="M-40.7883 -63.2256L-40.7843 -63.174L-40.783 -63.1697L-40.7883 -63.2256L-40.7883 -63.2256" id="Polyline" fill="#891812" fill-rule="evenodd" stroke="#000000" stroke-width="0.37" />
                        <path d="M11.0762 0L12.9655 1.71928C12.9655 1.71928 13.9102 2.77731 14.3825 3.30633L12.4932 1.58705C12.4932 1.58705 11.5485 0.529025 11.0762 0" id="Shape" fill="#8C1A13" fill-rule="evenodd" stroke="#000000" stroke-width="0.37" />
                        <path d="M11.1777 0.396729L13.382 2.04989C13.382 2.04989 13.933 3.06723 14.4841 3.70306L12.2798 2.04989C12.2798 2.04989 11.7288 1.03256 11.1777 0.396729" id="Shape" fill="#901B15" fill-rule="evenodd" stroke="#000000" stroke-width="0.37" />
                        <path d="M11.2441 0.826538L14.5505 2.4797C14.5505 2.4797 14.5505 3.62421 14.5505 4.13287L11.2441 2.4797C11.2441 2.4797 11.2441 1.3352 11.2441 0.826538" id="Shape" fill="#941C16" fill-rule="evenodd" stroke="#000000" stroke-width="0.37" />
                        <path d="M11.2754 1.25647L14.5817 2.84841C14.5817 2.84841 14.5817 4.07298 14.5817 4.5628L11.2754 2.97087C11.2754 2.97087 11.2754 1.74629 11.2754 1.25647" id="Shape" fill="#000000" fill-rule="evenodd" stroke="none" />
                        <path d="M12.2798 1.75244L14.4841 3.18518C14.4841 3.84644 13.933 4.39751 13.382 5.05877L11.1777 3.62604C11.7288 2.96477 12.2798 2.4137 12.2798 1.75244" id="Shape" fill="#9B1E19" fill-rule="evenodd" stroke="#000000" stroke-width="0.37" />
                        <path d="M12.9623 2.28113L14.2848 3.54531C13.9542 4.22603 13.2929 4.90674 12.3011 5.58746L10.9785 4.32328C11.6398 3.64256 12.3011 2.96184 12.9623 2.28113" id="Shape" fill="#FF3600" fill-rule="evenodd" stroke="none" />
                        <path d="M12.5562 2.97583L12.8317 3.51311C12.3496 4.33969 11.5918 5.12494 10.4897 5.86887C10.2831 6.03419 10.0076 6.15817 9.80092 6.28216L9.52539 5.74489C9.52539 5.74489 10.0076 5.45558 10.2142 5.33159C11.3163 4.629 12.074 3.80241 12.5562 2.97583" id="Shape" fill="#FF3600" fill-rule="evenodd" stroke="none" />
                        <path d="M11.629 5.19067L12.2302 6.72575C11.3284 7.31616 10.4267 7.9066 9.52498 8.49701L8.92383 6.96193C9.82556 6.37152 10.7273 5.89917 11.629 5.19067" id="Shape" fill="#FF3600" fill-rule="evenodd" stroke="none" />
                        <path d="M11.0751 5.68677L11.7712 7.55556C11.7712 7.55556 10.031 8.56183 9.16091 8.9931L8.46484 7.12431C9.33494 6.69304 10.205 6.2618 11.0751 5.68677" id="Shape" fill="#9B1E19" fill-rule="evenodd" stroke="#000000" stroke-width="0.37" />
                        <path d="M10.5735 6.01733L11.3083 8.16645C11.3083 8.16645 9.65512 8.99302 8.73669 9.32367L8.00195 7.17455C8.00195 7.17455 9.65512 6.34798 10.5735 6.01733" id="Shape" fill="#000000" fill-rule="evenodd" stroke="none" />
                        <path d="M10.0967 6.24902L10.8747 8.51125C10.8747 8.51125 9.12428 9.20734 8.34632 9.55536L7.56836 7.29313C7.56836 7.29313 9.31877 6.59704 10.0967 6.24902" id="Shape" fill="#941C16" fill-rule="evenodd" stroke="#000000" stroke-width="0.37" />
                        <path d="M9.67095 6.44714L10.4489 8.83506C10.4489 8.83506 8.6985 9.38613 7.92054 9.75348L7.14258 7.36556C7.14258 7.36556 8.89299 6.81449 9.67095 6.44714" id="Shape" fill="#901B15" fill-rule="evenodd" stroke="#000000" stroke-width="0.37" />
                        <path d="M9.20611 6.61267L9.98407 9.14102C9.98407 9.14102 8.23365 9.72451 7.45569 9.919L6.67773 7.39065C6.67773 7.39065 8.42815 7.00166 9.20611 6.61267" id="Shape" fill="#8C1A13" fill-rule="evenodd" stroke="#000000" stroke-width="0.37" />
                        <path d="M8.79034 6.74512L9.52508 9.4315C9.52508 9.4315 7.87192 9.8448 6.95349 10.0514L6.21875 7.36507C6.21875 7.36507 7.87192 6.95177 8.79034 6.74512" id="Shape" fill="#891812" fill-rule="evenodd" stroke="#000000" stroke-width="0.37" />
                        <path d="M8.3587 6.84387L9.09344 9.70935C9.09344 9.70935 7.25659 9.92978 6.52185 10.1502L5.78711 7.28473C5.78711 7.28473 7.62396 7.0643 8.3587 6.84387" id="Shape" fill="#851710" fill-rule="evenodd" stroke="#000000" stroke-width="0.37" />
                        <path d="M7.86612 6.87695L8.56219 10.1833C7.6921 10.1833 6.82201 10.1833 5.95193 10.1833L5.25586 6.87695C6.12595 6.87695 6.99604 6.87695 7.86612 6.87695" id="Shape" fill="#82160F" fill-rule="evenodd" stroke="#000000" stroke-width="0.37" />
                        <path d="M7.37187 6.91016L8.00164 10.2165C7.05697 10.2165 6.26976 10.2165 5.32509 10.2165L4.69531 6.91016C5.63999 6.91016 6.42719 6.91016 7.37187 6.91016" id="Shape" fill="#80140D" fill-rule="evenodd" stroke="#000000" stroke-width="0.37" />
                        <path d="M6.78123 7.39803L7.31024 10.0844C6.38447 10.0844 5.45869 9.67111 4.53292 9.46446L4.00391 6.77808C4.92968 6.98473 5.85546 7.19138 6.78123 7.39803" id="Shape" fill="#80130B" fill-rule="evenodd" stroke="#000000" stroke-width="0.37" />
                        <path d="M4.00066 6.77805L4.13291 7.20787C3.3394 7.04255 2.57894 6.71192 1.91767 6.24903C1.02496 5.58776 0.429823 4.69506 0.132253 3.73622L0 3.3064C0.29757 4.26524 0.892711 5.15794 1.78542 5.81921C2.44668 6.31516 3.20714 6.61273 4.00066 6.77805" id="Shape" fill="#801109" fill-rule="evenodd" stroke="#000000" stroke-width="0.37" />
                      </g>
                    </g>
                  </g>
                </g>
                <path d="M11.0762 0L11.2085 0.42982C11.7044 2.01686 11.3077 3.8684 10.0182 5.29013C7.93519 7.60456 4.33129 8.03438 1.91767 6.24897C1.02496 5.5877 0.429823 4.69499 0.132253 3.73615L0 3.30633C0.29757 4.26517 0.892711 5.15788 1.78542 5.81914C4.16598 7.60457 7.80294 7.17474 9.88593 4.86031C11.1754 3.40552 11.5722 1.58704 11.0762 0L11.0762 0Z" id="Shape" fill="none" fill-rule="evenodd" stroke="#000000" stroke-width="0.37" />
              </g>
              <path d="M0.202105 6.94091C-0.628898 4.17804 1.17818 1.19214 4.23831 0.271727C7.29846 -0.648688 10.4528 0.844915 11.2839 3.60779C12.1149 6.37066 10.3078 9.35655 7.24765 10.277C4.18751 11.1974 1.03311 9.70378 0.202105 6.94091Z" id="Ellipse" fill="#FFB000" fill-rule="evenodd" stroke="none" />
            </g>
            <g id="Group" transform="translate(29.705078 25.37622)">
              <g id="Group" transform="translate(0.18554688 3.5750732)">
                <g id="Mask-group">
                  <path d="M11.0762 0L11.2085 0.42982C11.7044 2.01686 11.3077 3.86841 10.0182 5.29013C7.93521 7.60456 4.33131 8.03438 1.91768 6.24897C1.02497 5.5877 0.429827 4.69499 0.132256 3.73615L0 3.30633C0.29757 4.26517 0.892711 5.15788 1.78542 5.81914C4.16598 7.60457 7.80295 7.17474 9.88594 4.86031C11.1754 3.40552 11.5722 1.58704 11.0762 0L11.0762 0Z" id="Shape" fill="none" fill-rule="evenodd" stroke="none" />
                  <g clip-path="url(#mask_11)">
                    <g id="Group">
                      <g id="Group">
                        <path d="M-61.7054 -53.741L-61.7001 -53.6809L-61.7001 -53.6762L-61.7054 -53.7364L-61.7054 -53.741" id="Polyline" fill="#891812" fill-rule="evenodd" stroke="none" />
                        <path d="M11.0762 0.0330811L12.9655 1.75236C12.9655 1.75236 13.9102 2.81039 14.3825 3.33941L12.4932 1.62013C12.4932 1.62013 11.5485 0.562106 11.0762 0.0330811" id="Shape" fill="#8C1A13" fill-rule="evenodd" stroke="none" />
                        <path d="M11.1777 0.42981L13.382 2.08298C13.382 2.08298 13.933 3.10031 14.4841 3.73614L12.2798 2.08298C12.2798 2.08298 11.7288 1.06564 11.1777 0.42981" id="Shape" fill="#901B15" fill-rule="evenodd" stroke="none" />
                        <path d="M11.2441 0.859619L14.5505 2.51279C14.5505 2.51279 14.5505 3.65729 14.5505 4.16595L11.2441 2.51279C11.2441 2.51279 11.2441 1.36828 11.2441 0.859619" id="Shape" fill="#941C16" fill-rule="evenodd" stroke="none" />
                        <path d="M11.2754 1.28943L14.5817 2.88136C14.5817 2.88136 14.5817 4.10594 14.5817 4.59576L11.2754 3.00382C11.2754 3.00382 11.2754 1.77925 11.2754 1.28943" id="Shape" fill="#971D18" fill-rule="evenodd" stroke="none" />
                        <path d="M12.313 1.75244L14.5173 3.18518C14.5173 3.84644 13.9662 4.39751 13.4152 5.05877L11.2109 3.62604C11.762 2.96477 12.313 2.4137 12.313 1.75244" id="Shape" fill="#9B1E19" fill-rule="evenodd" stroke="none" />
                        <path d="M12.9623 2.31433L14.2848 3.57852C13.9542 4.25923 13.2929 4.93995 12.3011 5.62066L10.9785 4.35648C11.6398 3.67576 12.3011 2.99505 12.9623 2.31433" id="Shape" fill="#FF3600" fill-rule="evenodd" stroke="none" />
                        <path d="M12.5874 3.00891L12.863 3.54619C12.3808 4.37277 11.6231 5.15802 10.521 5.90195C10.3143 6.06727 10.0388 6.19125 9.83217 6.31524L9.55664 5.77797C9.55664 5.77797 10.0388 5.48866 10.2455 5.36467C11.3476 4.66208 12.1053 3.83549 12.5874 3.00891" id="Shape" fill="#FF3600" fill-rule="evenodd" stroke="none" />
                        <path d="M11.6681 5.22388L12.2692 6.75896C11.3675 7.34937 10.4658 7.9398 9.56405 8.53021L8.96289 6.99513C9.8646 6.40472 10.7663 5.93237 11.6681 5.22388" id="Shape" fill="#FF3600" fill-rule="evenodd" stroke="none" />
                        <path d="M11.0751 5.71997L11.7712 7.58876C11.7712 7.58876 10.031 8.59503 9.16093 9.0263L8.46484 7.15752C9.33492 6.72624 10.205 6.295 11.0751 5.71997" id="Shape" fill="#9B1E19" fill-rule="evenodd" stroke="none" />
                        <path d="M10.5735 6.05054L11.3083 8.19965C11.3083 8.19965 9.65512 9.02623 8.73671 9.35687L8.00195 7.20775C8.00195 7.20775 9.65512 6.38118 10.5735 6.05054" id="Shape" fill="#971D18" fill-rule="evenodd" stroke="none" />
                        <path d="M10.0967 6.2821L10.8747 8.54433C10.8747 8.54433 9.12428 9.24043 8.34634 9.58844L7.56836 7.32621C7.56836 7.32621 9.31877 6.63012 10.0967 6.2821" id="Shape" fill="#941C16" fill-rule="evenodd" stroke="none" />
                        <path d="M9.67093 6.48035L10.4489 8.86826C10.4489 8.86826 8.6985 9.41933 7.92056 9.78668L7.14258 7.39877C7.14258 7.39877 8.89299 6.84769 9.67093 6.48035" id="Shape" fill="#901B15" fill-rule="evenodd" stroke="none" />
                        <path d="M9.23734 6.64575L10.0153 9.17411C10.0153 9.17411 8.2649 9.75759 7.48696 9.95208L6.70898 7.42373C6.70898 7.42373 8.4594 7.03474 9.23734 6.64575" id="Shape" fill="#8C1A13" fill-rule="evenodd" stroke="none" />
                        <path d="M8.82158 6.74512L9.55633 9.4315C9.55633 9.4315 7.90317 9.8448 6.98476 10.0514L6.25 7.36507C6.25 7.36507 7.90317 6.95177 8.82158 6.74512" id="Shape" fill="#891812" fill-rule="evenodd" stroke="none" />
                        <path d="M8.35868 6.84387L9.09344 9.70935C9.09344 9.70935 7.25659 9.92978 6.52187 10.1502L5.78711 7.28473C5.78711 7.28473 7.62396 7.0643 8.35868 6.84387" id="Shape" fill="#851710" fill-rule="evenodd" stroke="none" />
                        <path d="M7.89931 6.91016L8.59539 10.2165C7.72532 10.2165 6.85522 10.2165 5.98515 10.2165L5.28906 6.91016C6.15913 6.91016 7.02924 6.91016 7.89931 6.91016" id="Shape" fill="#82160F" fill-rule="evenodd" stroke="none" />
                        <path d="M7.37186 6.94324L8.00164 10.2496C7.05699 10.2496 6.26975 10.2496 5.3251 10.2496L4.69531 6.94324C5.63997 6.94324 6.4272 6.94324 7.37186 6.94324" id="Shape" fill="#80140D" fill-rule="evenodd" stroke="none" />
                        <path d="M6.78121 7.43111L7.31024 10.1175C6.38447 10.1175 5.4587 9.70419 4.53293 9.49754L4.00391 6.81116C4.92968 7.01781 5.85544 7.22446 6.78121 7.43111" id="Shape" fill="#80130B" fill-rule="evenodd" stroke="none" />
                        <path d="M4.00066 6.81113L4.13292 7.24095C3.3394 7.07564 2.57895 6.745 1.91768 6.28211C1.02497 5.62084 0.429827 4.72814 0.132256 3.7693L0 3.33948C0.29757 4.29832 0.892711 5.19102 1.78542 5.85229C2.44669 6.34824 3.20715 6.64581 4.00066 6.81113" id="Shape" fill="#801109" fill-rule="evenodd" stroke="none" />
                      </g>
                    </g>
                  </g>
                </g>
              </g>
              <path d="M0.202105 6.94091C-0.628899 4.17804 1.17817 1.19214 4.23832 0.271727C7.29846 -0.648688 10.4529 0.844915 11.2839 3.60779C12.1149 6.37066 10.3078 9.35655 7.24765 10.277C4.1875 11.1974 1.03311 9.70378 0.202105 6.94091Z" id="Ellipse" fill="#FFB000" fill-rule="evenodd" stroke="none" />
            </g>
            <g id="Group" transform="translate(29.705078 25.37622)">
              <g id="Group" transform="translate(0.18554688 3.5750732)">
                <g id="Mask-group">
                  <path d="M11.0762 0L11.2085 0.42982C11.7044 2.01686 11.3077 3.86841 10.0182 5.29013C7.93521 7.60456 4.33131 8.03438 1.91768 6.24897C1.02497 5.5877 0.429827 4.69499 0.132256 3.73615L0 3.30633C0.29757 4.26517 0.892711 5.15788 1.78542 5.81914C4.16598 7.60457 7.80295 7.17474 9.88594 4.86031C11.1754 3.40552 11.5722 1.58704 11.0762 0L11.0762 0Z" id="Shape" fill="none" fill-rule="evenodd" stroke="none" />
                  <g clip-path="url(#mask_11)">
                    <g id="Group">
                      <g id="Group">
                        <path d="M-61.7054 -53.741L-61.7001 -53.6809L-61.7001 -53.6762L-61.7054 -53.7364L-61.7054 -53.741" id="Polyline" fill="#891812" fill-rule="evenodd" stroke="#000000" stroke-width="0.37" />
                        <path d="M11.0762 0.0330811L12.9655 1.75236C12.9655 1.75236 13.9102 2.81039 14.3825 3.33941L12.4932 1.62013C12.4932 1.62013 11.5485 0.562106 11.0762 0.0330811" id="Shape" fill="#8C1A13" fill-rule="evenodd" stroke="#000000" stroke-width="0.37" />
                        <path d="M11.1777 0.42981L13.382 2.08298C13.382 2.08298 13.933 3.10031 14.4841 3.73614L12.2798 2.08298C12.2798 2.08298 11.7288 1.06564 11.1777 0.42981" id="Shape" fill="#901B15" fill-rule="evenodd" stroke="#000000" stroke-width="0.37" />
                        <path d="M11.2441 0.859619L14.5505 2.51279C14.5505 2.51279 14.5505 3.65729 14.5505 4.16595L11.2441 2.51279C11.2441 2.51279 11.2441 1.36828 11.2441 0.859619" id="Shape" fill="#941C16" fill-rule="evenodd" stroke="#000000" stroke-width="0.37" />
                        <path d="M11.2754 1.28943L14.5817 2.88136C14.5817 2.88136 14.5817 4.10594 14.5817 4.59576L11.2754 3.00382C11.2754 3.00382 11.2754 1.77925 11.2754 1.28943" id="Shape" fill="#000000" fill-rule="evenodd" stroke="none" />
                        <path d="M12.313 1.75244L14.5173 3.18518C14.5173 3.84644 13.9662 4.39751 13.4152 5.05877L11.2109 3.62604C11.762 2.96477 12.313 2.4137 12.313 1.75244" id="Shape" fill="#9B1E19" fill-rule="evenodd" stroke="#000000" stroke-width="0.37" />
                        <path d="M12.9623 2.31433L14.2848 3.57852C13.9542 4.25923 13.2929 4.93995 12.3011 5.62066L10.9785 4.35648C11.6398 3.67576 12.3011 2.99505 12.9623 2.31433" id="Shape" fill="#FF3600" fill-rule="evenodd" stroke="none" />
                        <path d="M12.5874 3.00891L12.863 3.54619C12.3808 4.37277 11.6231 5.15802 10.521 5.90195C10.3143 6.06727 10.0388 6.19125 9.83217 6.31524L9.55664 5.77797C9.55664 5.77797 10.0388 5.48866 10.2455 5.36467C11.3476 4.66208 12.1053 3.83549 12.5874 3.00891" id="Shape" fill="#FF3600" fill-rule="evenodd" stroke="none" />
                        <path d="M11.6681 5.22388L12.2692 6.75896C11.3675 7.34937 10.4658 7.9398 9.56405 8.53021L8.96289 6.99513C9.8646 6.40472 10.7663 5.93237 11.6681 5.22388" id="Shape" fill="#FF3600" fill-rule="evenodd" stroke="none" />
                        <path d="M11.0751 5.71997L11.7712 7.58876C11.7712 7.58876 10.031 8.59503 9.16093 9.0263L8.46484 7.15752C9.33492 6.72624 10.205 6.295 11.0751 5.71997" id="Shape" fill="#9B1E19" fill-rule="evenodd" stroke="#000000" stroke-width="0.37" />
                        <path d="M10.5735 6.05054L11.3083 8.19965C11.3083 8.19965 9.65512 9.02623 8.73671 9.35687L8.00195 7.20775C8.00195 7.20775 9.65512 6.38118 10.5735 6.05054" id="Shape" fill="#000000" fill-rule="evenodd" stroke="none" />
                        <path d="M10.0967 6.2821L10.8747 8.54433C10.8747 8.54433 9.12428 9.24043 8.34634 9.58844L7.56836 7.32621C7.56836 7.32621 9.31877 6.63012 10.0967 6.2821" id="Shape" fill="#941C16" fill-rule="evenodd" stroke="#000000" stroke-width="0.37" />
                        <path d="M9.67093 6.48035L10.4489 8.86826C10.4489 8.86826 8.6985 9.41933 7.92056 9.78668L7.14258 7.39877C7.14258 7.39877 8.89299 6.84769 9.67093 6.48035" id="Shape" fill="#901B15" fill-rule="evenodd" stroke="#000000" stroke-width="0.37" />
                        <path d="M9.23734 6.64575L10.0153 9.17411C10.0153 9.17411 8.2649 9.75759 7.48696 9.95208L6.70898 7.42373C6.70898 7.42373 8.4594 7.03474 9.23734 6.64575" id="Shape" fill="#8C1A13" fill-rule="evenodd" stroke="#000000" stroke-width="0.37" />
                        <path d="M8.82158 6.74512L9.55633 9.4315C9.55633 9.4315 7.90317 9.8448 6.98476 10.0514L6.25 7.36507C6.25 7.36507 7.90317 6.95177 8.82158 6.74512" id="Shape" fill="#891812" fill-rule="evenodd" stroke="#000000" stroke-width="0.37" />
                        <path d="M8.35868 6.84387L9.09344 9.70935C9.09344 9.70935 7.25659 9.92978 6.52187 10.1502L5.78711 7.28473C5.78711 7.28473 7.62396 7.0643 8.35868 6.84387" id="Shape" fill="#851710" fill-rule="evenodd" stroke="#000000" stroke-width="0.37" />
                        <path d="M7.89931 6.91016L8.59539 10.2165C7.72532 10.2165 6.85522 10.2165 5.98515 10.2165L5.28906 6.91016C6.15913 6.91016 7.02924 6.91016 7.89931 6.91016" id="Shape" fill="#82160F" fill-rule="evenodd" stroke="#000000" stroke-width="0.37" />
                        <path d="M7.37186 6.94324L8.00164 10.2496C7.05699 10.2496 6.26975 10.2496 5.3251 10.2496L4.69531 6.94324C5.63997 6.94324 6.4272 6.94324 7.37186 6.94324" id="Shape" fill="#80140D" fill-rule="evenodd" stroke="#000000" stroke-width="0.37" />
                        <path d="M6.78121 7.43111L7.31024 10.1175C6.38447 10.1175 5.4587 9.70419 4.53293 9.49754L4.00391 6.81116C4.92968 7.01781 5.85544 7.22446 6.78121 7.43111" id="Shape" fill="#80130B" fill-rule="evenodd" stroke="#000000" stroke-width="0.37" />
                        <path d="M4.00066 6.81113L4.13292 7.24095C3.3394 7.07564 2.57895 6.745 1.91768 6.28211C1.02497 5.62084 0.429827 4.72814 0.132256 3.7693L0 3.33948C0.29757 4.29832 0.892711 5.19102 1.78542 5.85229C2.44669 6.34824 3.20715 6.64581 4.00066 6.81113" id="Shape" fill="#801109" fill-rule="evenodd" stroke="#000000" stroke-width="0.37" />
                      </g>
                    </g>
                  </g>
                </g>
                <path d="M11.0762 0L11.2085 0.42982C11.7044 2.01686 11.3077 3.86841 10.0182 5.29013C7.93521 7.60456 4.33131 8.03438 1.91768 6.24897C1.02497 5.5877 0.429827 4.69499 0.132256 3.73615L0 3.30633C0.29757 4.26517 0.892711 5.15788 1.78542 5.81914C4.16598 7.60457 7.80295 7.17474 9.88594 4.86031C11.1754 3.40552 11.5722 1.58704 11.0762 0L11.0762 0Z" id="Shape" fill="none" fill-rule="evenodd" stroke="#000000" stroke-width="0.37" />
              </g>
              <path d="M0.202105 6.94091C-0.628899 4.17804 1.17817 1.19214 4.23832 0.271727C7.29846 -0.648688 10.4529 0.844915 11.2839 3.60779C12.1149 6.37066 10.3078 9.35655 7.24765 10.277C4.1875 11.1974 1.03311 9.70378 0.202105 6.94091Z" id="Ellipse" fill="#FFB000" fill-rule="evenodd" stroke="none" />
            </g>
          </g>
        </g>
      </g>
    </g>
  </g>
</svg>