<?xml version="1.0" encoding="utf-8"?>
<svg width="130.63281px" height="130.66626px" viewBox="0 0 130.63281 130.66626" version="1.1" xmlns:xlink="http://www.w3.org/1999/xlink" xmlns="http://www.w3.org/2000/svg">
  <defs>
    <path d="M0 0L130.633 0L130.633 130.666L0 130.666L0 0Z" id="path_1" />
    <path d="M15.1099 0L25.062 6.05059C16.73 6.84411 9.95206 14.5479 9.95206 23.2766L0 17.226C0 8.53034 6.77798 0.793522 15.1099 0L15.1099 0Z" id="path_2" />
    <path d="M16.6308 18.5155L6.67879 12.4649C2.64506 10.0182 0 5.45545 0 0L9.95206 6.05059C9.95206 11.506 12.5971 16.0688 16.6308 18.5155L16.6308 18.5155Z" id="path_3" />
    <path d="M10.8117 6.51347C10.5141 6.38121 10.2496 6.2159 9.95206 6.05058L0 0C0.264506 0.165314 0.562077 0.330634 0.859647 0.462884C4.16598 2.47975 7.50537 4.4966 10.8117 6.51347L10.8117 6.51347Z" id="path_4" />
    <path d="M9.95206 6.05059C9.95206 6.05059 9.8198 5.98446 9.75368 5.95139C6.51347 3.96759 3.2402 1.98379 0 0C0.529013 0.264506 1.12415 0.529013 1.68623 0.727391C4.99256 2.74425 8.33196 4.76111 11.6383 6.77798C11.0431 6.5796 10.4811 6.34816 9.95206 6.05059L9.95206 6.05059Z" id="path_5" />
    <path d="M15.8373 6.74491C13.7543 6.94329 11.7705 6.67878 9.95205 6.05059C6.64573 4.03372 3.30633 2.01686 0 0C1.81848 0.628205 3.80228 0.892711 5.88527 0.694327L15.8373 6.74491L15.8373 6.74491Z" id="path_6" />
    <path d="M9.95206 6.05059L0 0C2.71119 1.65317 5.9514 2.44668 9.45611 2.11605L19.4082 8.16664C15.9035 8.49726 12.6632 7.70375 9.95206 6.05059L9.95206 6.05059Z" id="path_7" />
    <path d="M8.43114 1.95034L18.3832 8.00093C15.9696 6.54614 13.06 5.81875 9.95206 6.11632L0 0.065734C3.10795 -0.231836 6.01752 0.495557 8.43114 1.95034L8.43114 1.95034Z" id="path_8" />
    <path d="M9.95206 6.05059C12.3657 7.53844 14.2833 9.75368 15.4406 12.4649C12.1342 10.448 8.79484 8.43115 5.48851 6.41429C4.33129 3.70309 2.41362 1.45479 0 0C2.9757 1.81848 6.97636 4.2321 9.95206 6.05059L9.95206 6.05059Z" id="path_9" />
    <path d="M9.95205 6.05059C10.7125 7.86907 11.1423 9.88593 11.1423 12.0681L1.19028 6.01752C1.19028 3.83534 0.760461 1.81848 0 0L1.15722 0.69433L2.38056 1.45478L4.9595 3.04182L6.24897 3.83534L8.76178 5.35625C9.12548 5.55464 9.65449 5.75301 9.91899 6.05058L9.95205 6.05059Z" id="path_10" />
    <path d="M0 0L9.95206 6.05059C14.4817 8.79484 17.4574 13.9197 17.4574 20.0694L7.50537 14.0188C7.50537 7.90213 4.52968 2.77732 0 0L0 0Z" id="path_11" />
    <path d="M15.143 6.30633e-06L25.0951 6.05059C25.0951 14.7463 18.3171 22.4831 9.95206 23.2766L0 17.226C8.33196 16.4325 15.143 8.69566 15.143 0L15.143 6.30633e-06Z" id="path_12" />
    <path d="M16.9945 0L26.9466 6.05059C26.9466 15.8373 19.309 24.533 9.95206 25.4257L0 19.3751C9.38998 18.4824 16.9945 9.78674 16.9945 0L16.9945 0Z" id="path_13" />
    <path d="M4.16598 3.30633L2.67813 2.33183C1.88461 1.42694 0.991897 0.661268 0 0L1.48785 0.974497C2.47975 1.60096 3.37246 2.40144 4.16598 3.30633L4.16598 3.30633Z" id="path_14" />
    <path d="M9.48917 26.8805C6.51347 27.145 3.76922 26.4507 1.48785 25.0289L0 24.1032C2.28137 25.5249 5.02562 26.2192 8.00132 25.9547C15.9034 25.2604 22.4169 17.9534 22.4831 9.68755C22.4831 5.85221 21.1605 2.47975 18.8792 0L20.367 0.925772C22.6153 3.37246 24.004 6.77798 23.9709 10.6133C23.9048 18.8792 17.4244 26.1861 9.48917 26.8805L9.48917 26.8805Z" id="path_15" />
    <path d="M17.1268 3.15316e-06L18.6146 0.925775C22.6484 3.40552 25.2604 8.00133 25.2273 13.4898C25.1612 22.2185 18.3171 29.9223 9.95205 30.6497C6.81104 30.9142 3.90147 30.1868 1.48785 28.699L0 27.7732C2.41362 29.261 5.32319 29.9884 8.46421 29.7239C16.8292 28.9965 23.6733 21.2928 23.7395 12.5641C23.7725 7.10861 21.1605 2.51281 17.1268 0L17.1268 3.15316e-06Z" id="path_16" />
    <clipPath id="mask_1">
      <use xlink:href="#path_1" />
    </clipPath>
    <clipPath id="mask_2">
      <use xlink:href="#path_2" />
    </clipPath>
    <clipPath id="mask_3">
      <use xlink:href="#path_3" />
    </clipPath>
    <clipPath id="mask_4">
      <use xlink:href="#path_4" />
    </clipPath>
    <clipPath id="mask_5">
      <use xlink:href="#path_5" />
    </clipPath>
    <clipPath id="mask_6">
      <use xlink:href="#path_6" />
    </clipPath>
    <clipPath id="mask_7">
      <use xlink:href="#path_7" />
    </clipPath>
    <clipPath id="mask_8">
      <use xlink:href="#path_8" />
    </clipPath>
    <clipPath id="mask_9">
      <use xlink:href="#path_9" />
    </clipPath>
    <clipPath id="mask_10">
      <use xlink:href="#path_10" />
    </clipPath>
    <clipPath id="mask_11">
      <use xlink:href="#path_11" />
    </clipPath>
    <clipPath id="mask_12">
      <use xlink:href="#path_12" />
    </clipPath>
    <clipPath id="mask_13">
      <use xlink:href="#path_13" />
    </clipPath>
    <clipPath id="mask_14">
      <use xlink:href="#path_14" />
    </clipPath>
    <clipPath id="mask_15">
      <use xlink:href="#path_15" />
    </clipPath>
    <clipPath id="mask_16">
      <use xlink:href="#path_16" />
    </clipPath>
  </defs>
  <g id="rolls_icon">
    <path d="M0 0L130.633 0L130.633 130.666L0 130.666L0 0Z" id="Background" fill="none" fill-rule="evenodd" stroke="none" />
    <g clip-path="url(#mask_1)">
      <g id="a" transform="translate(25.263672 23.830322)">
        <g id="Group">
          <g id="Group">
            <g id="Group" transform="translate(1.8535156 5.496704)">
              <g id="Mask-group">
                <path d="M15.1099 0L25.062 6.05059C16.73 6.84411 9.95206 14.5479 9.95206 23.2766L0 17.226C0 8.53034 6.77798 0.793522 15.1099 0L15.1099 0Z" id="Shape" fill="none" fill-rule="evenodd" stroke="none" />
                <g clip-path="url(#mask_2)">
                  <g id="Group">
                    <g id="Group">
                      <path d="M15.1118 0L25.0639 6.05059C22.7825 6.28203 20.6334 7.00942 18.7157 8.13358L8.76367 2.08299C10.6813 0.958836 12.8635 0.231442 15.1118 0" id="Shape" fill="#020202" fill-rule="evenodd" stroke="none" />
                      <path d="M8.76254 2.04993L18.7146 8.10051C18.1525 8.43115 17.5904 8.79484 17.0614 9.1916L7.10938 3.14102C7.63839 2.74426 8.20046 2.38056 8.76254 2.04993" id="Shape" fill="#020202" fill-rule="evenodd" stroke="none" />
                      <path d="M7.10615 3.17395L17.0582 9.22454C16.6284 9.55517 16.2316 9.8858 15.8349 10.2495L5.88281 4.19891C6.27957 3.83522 6.67633 3.50458 7.10615 3.17395" id="Shape" fill="#020202" fill-rule="evenodd" stroke="none" />
                      <path d="M5.88825 4.16602L15.8403 10.2166C15.4766 10.5472 15.146 10.8779 14.8153 11.2085L4.86328 5.15792C5.19392 4.79422 5.52455 4.46359 5.88825 4.16602" id="Shape" fill="#020202" fill-rule="evenodd" stroke="none" />
                      <path d="M4.85951 5.19067L14.8116 11.2413C14.514 11.5719 14.2164 11.9025 13.9189 12.2662L3.9668 6.21564C4.26437 5.85194 4.52887 5.52131 4.85951 5.19067" id="Shape" fill="#020202" fill-rule="evenodd" stroke="none" />
                      <path d="M3.9693 6.18286L13.9214 12.2334C13.6569 12.5641 13.3923 12.9278 13.1278 13.2584L3.17578 7.20783C3.40722 6.84413 3.67173 6.5135 3.9693 6.18286" id="Shape" fill="#020202" fill-rule="evenodd" stroke="none" />
                      <path d="M3.1748 7.20801L13.1269 13.2586C12.8954 13.6223 12.664 13.9529 12.4325 14.3497L2.48047 8.2991C2.71191 7.9354 2.94336 7.5717 3.1748 7.20801" id="Shape" fill="#020202" fill-rule="evenodd" stroke="none" />
                      <path d="M2.48172 8.29883L12.4338 14.3494C12.2023 14.7131 12.004 15.1099 11.8056 15.4736L1.85352 9.42298C2.0519 9.02622 2.25027 8.66253 2.48172 8.29883" id="Shape" fill="#020202" fill-rule="evenodd" stroke="none" />
                      <path d="M1.85505 9.42297L11.8071 15.4736C11.6087 15.8703 11.4103 16.2671 11.245 16.6969L1.29297 10.6463C1.45829 10.2165 1.65666 9.81973 1.85505 9.42297" id="Shape" fill="#020202" fill-rule="evenodd" stroke="none" />
                      <path d="M1.29087 10.6464L11.2429 16.697C11.0445 17.1268 10.8792 17.5897 10.747 18.0525L0.794922 12.002C0.927175 11.5391 1.09249 11.0762 1.29087 10.6464" id="Shape" fill="#020202" fill-rule="evenodd" stroke="none" />
                      <path d="M0.791152 12.0021L10.7432 18.0527C10.5779 18.5817 10.4456 19.1107 10.3134 19.6397L0.361328 13.5891C0.493581 13.0601 0.625834 12.5311 0.791152 12.0021" id="Shape" fill="#020202" fill-rule="evenodd" stroke="none" />
                      <path d="M0.395087 13.6221L10.3471 19.6727C10.1818 20.367 10.0826 21.0613 10.0165 21.7556L0.0644531 15.7051C0.130581 15.0107 0.22977 14.2833 0.395087 13.6221" id="Shape" fill="#020202" fill-rule="evenodd" stroke="none" />
                      <path d="M0.0661281 15.7051L10.0182 21.7557C9.98512 22.2516 9.95206 22.7476 9.95206 23.2766L0 17.226C0 16.73 0 16.201 0.0661281 15.7051" id="Shape" fill="#020202" fill-rule="evenodd" stroke="none" />
                    </g>
                  </g>
                </g>
              </g>
            </g>
            <path d="M1.85338 22.7229L11.8054 28.7735L11.7724 66.6641L1.82031 60.5804L1.85338 22.7229L1.85338 22.7229Z" id="Polygon" fill="#020202" fill-rule="evenodd" stroke="none" />
            <g id="Group" transform="translate(1.8203125 60.613403)">
              <g id="Mask-group">
                <path d="M16.6308 18.5155L6.67879 12.4649C2.64506 10.0182 0 5.45545 0 0L9.95206 6.05059C9.95206 11.506 12.5971 16.0688 16.6308 18.5155L16.6308 18.5155Z" id="Shape" fill="none" fill-rule="evenodd" stroke="none" />
                <g clip-path="url(#mask_3)">
                  <g id="Group" transform="translate(0 -0.033081055)">
                    <g id="Group">
                      <path d="M0 0L9.95206 6.05059C9.95206 8.23277 10.3819 10.2827 11.1423 12.1342L1.19028 6.08365C0.429823 4.26517 0 2.21524 0 0" id="Shape" fill="#020202" fill-rule="evenodd" stroke="none" />
                      <path d="M1.1875 6.0835L11.1396 12.1341C11.4041 12.7623 11.7016 13.3244 12.0323 13.8864L2.08021 7.83585C1.74958 7.27378 1.45201 6.67864 1.1875 6.0835" id="Shape" fill="#020202" fill-rule="evenodd" stroke="none" />
                      <path d="M2.11914 7.83606L12.0712 13.8866C12.3357 14.3165 12.6333 14.7463 12.9308 15.1761L2.97879 9.12553C2.68122 8.72876 2.38365 8.29894 2.11914 7.83606" id="Shape" fill="#020202" fill-rule="evenodd" stroke="none" />
                      <path d="M2.97656 9.12549L12.9286 15.1761C13.1931 15.5398 13.4907 15.8704 13.7883 16.201L3.83621 10.1504C3.53864 9.81981 3.24107 9.48918 2.97656 9.12549" id="Shape" fill="#020202" fill-rule="evenodd" stroke="none" />
                      <path d="M3.83594 10.15L13.788 16.2006C14.0856 16.4982 14.3501 16.7958 14.6807 17.0603L4.72865 11.0097C4.43108 10.7452 4.13351 10.4476 3.83594 10.15" id="Shape" fill="#020202" fill-rule="evenodd" stroke="none" />
                      <path d="M4.72656 11.0099L14.6786 17.0605C14.9762 17.325 15.2738 17.5895 15.6044 17.8209L5.65233 11.7703C5.3217 11.5389 5.02413 11.2744 4.72656 11.0099" id="Shape" fill="#020202" fill-rule="evenodd" stroke="none" />
                      <path d="M5.61719 11.7706L15.5692 17.8212C15.8668 18.0527 16.1974 18.2841 16.5281 18.4825L6.57602 12.4319C6.24539 12.2335 5.91476 12.0021 5.61719 11.7706" id="Shape" fill="#020202" fill-rule="evenodd" stroke="none" />
                      <path d="M6.58203 12.4318L16.5341 18.4824L16.6333 18.5485L6.68122 12.4979L6.58203 12.4318" id="Shape" fill="#020202" fill-rule="evenodd" stroke="none" />
                    </g>
                  </g>
                </g>
              </g>
            </g>
            <g id="Group" transform="translate(8.498047 73.07849)">
              <g id="Mask-group">
                <path d="M10.8117 6.51347C10.5141 6.38121 10.2496 6.2159 9.95206 6.05058L0 0C0.264506 0.165314 0.562077 0.330634 0.859647 0.462884C4.16598 2.47975 7.50537 4.4966 10.8117 6.51347L10.8117 6.51347Z" id="Shape" fill="none" fill-rule="evenodd" stroke="none" />
                <g clip-path="url(#mask_4)">
                  <g id="Group" transform="translate(0 -0.033203125)">
                    <g id="Group">
                      <path d="M8.43114 1.88461L18.3832 7.93519C15.2753 8.23276 12.3657 7.50537 9.95206 6.05058L0 0C2.41362 1.45479 5.29013 2.18218 8.43114 1.88461" id="Shape" fill="#858585" fill-rule="evenodd" stroke="none" />
                    </g>
                  </g>
                </g>
              </g>
            </g>
            <path d="M53.2333 2.02527L63.1854 8.07585L26.9149 11.5475L16.9629 5.49692L53.2333 2.02527L53.2333 2.02527Z" id="Polygon" fill="#020202" fill-rule="evenodd" stroke="none" />
            <g id="Group" transform="translate(9.357422 73.54138)">
              <g id="Mask-group">
                <path d="M9.95206 6.05059C9.95206 6.05059 9.8198 5.98446 9.75368 5.95139C6.51347 3.96759 3.2402 1.98379 0 0C0.529013 0.264506 1.12415 0.529013 1.68623 0.727391C4.99256 2.74425 8.33196 4.76111 11.6383 6.77798C11.0431 6.5796 10.4811 6.34816 9.95206 6.05059L9.95206 6.05059Z" id="Shape" fill="none" fill-rule="evenodd" stroke="none" />
                <g clip-path="url(#mask_5)">
                  <g id="Group" transform="translate(-0.859375 -0.49609375)">
                    <g id="Group">
                      <path d="M8.43114 1.88461L18.3832 7.93519C15.2753 8.23276 12.3657 7.50537 9.95206 6.05059L0 0C2.41362 1.45479 5.29013 2.18218 8.43114 1.88461" id="Shape" fill="#858585" fill-rule="evenodd" stroke="none" />
                    </g>
                  </g>
                </g>
              </g>
            </g>
            <g id="Group" transform="translate(11.042969 74.26868)">
              <g id="Mask-group">
                <path d="M15.8373 6.74491C13.7543 6.94329 11.7705 6.67878 9.95205 6.05059C6.64573 4.03372 3.30633 2.01686 0 0C1.81848 0.628205 3.80228 0.892711 5.88527 0.694327L15.8373 6.74491L15.8373 6.74491Z" id="Shape" fill="none" fill-rule="evenodd" stroke="none" />
                <g clip-path="url(#mask_6)">
                  <g id="Group" transform="translate(-2.5449219 -1.2233887)">
                    <g id="Group">
                      <path d="M8.43114 1.88461L18.3832 7.93519C15.2753 8.23276 12.3657 7.50537 9.95206 6.05059L0 0C2.41362 1.45479 5.29013 2.18218 8.43114 1.88461" id="Shape" fill="#858585" fill-rule="evenodd" stroke="none" />
                    </g>
                  </g>
                </g>
              </g>
            </g>
            <g id="Group" transform="translate(7.439453 74.79773)">
              <g id="Mask-group">
                <path d="M9.95206 6.05059L0 0C2.71119 1.65317 5.9514 2.44668 9.45611 2.11605L19.4082 8.16664C15.9035 8.49726 12.6632 7.70375 9.95206 6.05059L9.95206 6.05059Z" id="Shape" fill="none" fill-rule="evenodd" stroke="none" />
                <g clip-path="url(#mask_7)">
                  <g id="Group" transform="translate(0.033203125 0)">
                    <g id="Group">
                      <path d="M9.45611 2.11605L19.4082 8.16664C15.9035 8.49726 12.6632 7.70375 9.95206 6.05059L0 0C2.71119 1.65317 5.9514 2.44668 9.45611 2.11605" id="Shape" fill="#020202" fill-rule="evenodd" stroke="none" />
                    </g>
                  </g>
                </g>
              </g>
            </g>
            <g id="Group" transform="translate(53.26367 1.9594727)">
              <g id="Mask-group">
                <path d="M8.43114 1.95034L18.3832 8.00093C15.9696 6.54614 13.06 5.81875 9.95206 6.11632L0 0.065734C3.10795 -0.231836 6.01752 0.495557 8.43114 1.95034L8.43114 1.95034Z" id="Shape" fill="none" fill-rule="evenodd" stroke="none" />
                <g clip-path="url(#mask_8)">
                  <g id="Group">
                    <g id="Group">
                      <path d="M8.43114 1.95034L18.3832 8.00093C15.9696 6.54614 13.06 5.81875 9.95206 6.11632L0 0.065734C3.10795 -0.231836 6.01752 0.495557 8.43114 1.95034" id="Shape" fill="#020202" fill-rule="evenodd" stroke="none" />
                    </g>
                  </g>
                </g>
              </g>
            </g>
            <g id="Group" transform="translate(61.695312 3.909668)">
              <g id="Mask-group">
                <path d="M9.95206 6.05059C12.3657 7.53844 14.2833 9.75368 15.4406 12.4649C12.1342 10.448 8.79484 8.43115 5.48851 6.41429C4.33129 3.70309 2.41362 1.45479 0 0C2.9757 1.81848 6.97636 4.2321 9.95206 6.05059L9.95206 6.05059Z" id="Shape" fill="none" fill-rule="evenodd" stroke="none" />
                <g clip-path="url(#mask_9)">
                  <g id="Group">
                    <g id="Group">
                      <path d="M0 0L9.95206 6.05059L10.0512 6.11671L0.0991922 0.0661282L0 0" id="Shape" fill="#9E9E9E" fill-rule="evenodd" stroke="none" />
                      <path d="M0.0976563 0.0661621L10.0497 6.11675C10.3803 6.31513 10.711 6.54657 11.0086 6.77801L1.0565 0.727428C0.758925 0.495986 0.428291 0.26454 0.0976563 0.0661621" id="Shape" fill="#A3A3A3" fill-rule="evenodd" stroke="none" />
                      <path d="M1.02734 0.727295L10.9794 6.77788C11.31 7.00932 11.6076 7.27383 11.9052 7.53834L1.95312 1.48775C1.65555 1.22324 1.35798 0.991801 1.02734 0.727295" id="Shape" fill="#A8A8A8" fill-rule="evenodd" stroke="none" />
                      <path d="M1.94922 1.45459L11.9013 7.50518C12.1988 7.76968 12.4964 8.06725 12.794 8.36482L2.84193 2.31424C2.57742 2.01667 2.27985 1.7191 1.94922 1.45459" id="Shape" fill="#ADADAD" fill-rule="evenodd" stroke="none" />
                      <path d="M2.8418 2.31433L12.7939 8.36492C13.0914 8.69555 13.389 9.02618 13.6535 9.38988L3.70144 3.3393C3.43694 2.9756 3.13937 2.64497 2.8418 2.31433" id="Shape" fill="#B3B3B3" fill-rule="evenodd" stroke="none" />
                      <path d="M3.70117 3.33948L13.6532 9.39007C13.9508 9.78682 14.2484 10.2166 14.5129 10.6795L4.56082 4.62895C4.29631 4.19912 3.99874 3.7693 3.70117 3.33948" id="Shape" fill="#B8B8B8" fill-rule="evenodd" stroke="none" />
                      <path d="M4.56445 4.62891L14.5165 10.6795C14.8471 11.2416 15.1447 11.8367 15.4092 12.4318L5.45716 6.38126C5.19266 5.75306 4.89509 5.19098 4.56445 4.62891" id="Shape" fill="#BDBDBD" fill-rule="evenodd" stroke="none" />
                      <path d="M5.45703 6.38135L15.4091 12.4319C16.1695 14.2504 16.5994 16.3003 16.5994 18.4825L6.64731 12.4319C6.64731 10.2498 6.21749 8.19983 5.45703 6.38135" id="Shape" fill="#C2C2C2" fill-rule="evenodd" stroke="none" />
                    </g>
                  </g>
                </g>
              </g>
            </g>
            <g id="Group" transform="translate(67.18555 10.3573)">
              <g id="Mask-group">
                <path d="M9.95205 6.05059C10.7125 7.86907 11.1423 9.88593 11.1423 12.0681L1.19028 6.01752C1.19028 3.83534 0.760461 1.81848 0 0L1.15722 0.69433L2.38056 1.45478L4.9595 3.04182L6.24897 3.83534L8.76178 5.35625C9.12548 5.55464 9.65449 5.75301 9.91899 6.05058L9.95205 6.05059Z" id="Shape" fill="none" fill-rule="evenodd" stroke="none" />
                <g clip-path="url(#mask_10)">
                  <g id="Group" transform="translate(-0.033203125 -0.06616211)">
                    <g id="Group">
                      <path d="M0 0L9.95205 6.05059C10.7125 7.86907 11.1423 9.91899 11.1423 12.1012L1.19028 6.05059C1.19028 3.86841 0.760461 1.81848 0 0" id="Shape" fill="#C2C2C2" fill-rule="evenodd" stroke="none" />
                    </g>
                  </g>
                </g>
              </g>
            </g>
            <g id="Group" transform="translate(62.722656 2.1904297)">
              <g id="Mask-group">
                <path d="M0 0L9.95206 6.05059C14.4817 8.79484 17.4574 13.9197 17.4574 20.0694L7.50537 14.0188C7.50537 7.90213 4.52968 2.77732 0 0L0 0Z" id="Shape" fill="none" fill-rule="evenodd" stroke="none" />
                <g clip-path="url(#mask_11)">
                  <g id="Group">
                    <g id="Group">
                      <path d="M0 0L9.95206 6.05059L10.0513 6.11671L0.0991922 0.0661282L0 1.57658e-06" id="Shape" fill="#020202" fill-rule="evenodd" stroke="none" />
                      <path d="M0.0976563 0.0661621L10.0497 6.11675C10.4134 6.34819 10.7771 6.57964 11.1408 6.84414L1.18875 0.793558C0.825047 0.529051 0.494419 0.297607 0.0976563 0.0661653" id="Shape" fill="#020202" fill-rule="evenodd" stroke="none" />
                      <path d="M1.1875 0.793579L11.1396 6.84417C11.5033 7.10867 11.8339 7.40624 12.1645 7.67075L2.21246 1.62016C1.88183 1.32259 1.55119 1.05809 1.1875 0.793579" id="Shape" fill="#020202" fill-rule="evenodd" stroke="none" />
                      <path d="M2.21484 1.62L12.1669 7.67058C12.4975 7.96815 12.8282 8.29878 13.1588 8.62942L3.20674 2.57883C2.87611 2.2482 2.54547 1.91757 2.21484 1.62" id="Shape" fill="#020202" fill-rule="evenodd" stroke="none" />
                      <path d="M3.20898 2.61206L13.161 8.66265C13.4917 9.02634 13.8223 9.4231 14.1199 9.81987L4.16782 3.76928C3.87025 3.37252 3.53962 2.97576 3.20898 2.61206" id="Shape" fill="#020202" fill-rule="evenodd" stroke="none" />
                      <path d="M4.16602 3.76929L14.1181 9.81987C14.4818 10.2828 14.7793 10.7456 15.11 11.2747L5.15791 5.22407C4.86034 4.72812 4.52971 4.23217 4.16602 3.76929" id="Shape" fill="#020202" fill-rule="evenodd" stroke="none" />
                      <path d="M5.16016 5.19067L15.1122 11.2413C15.4759 11.8695 15.8396 12.5307 16.1372 13.2251L6.18512 7.17447C5.88755 6.48014 5.55691 5.81888 5.16016 5.19067" id="Shape" fill="#020202" fill-rule="evenodd" stroke="none" />
                      <path d="M6.14844 7.17493L16.1005 13.2255C16.9601 15.2754 17.4561 17.5899 17.4561 20.0366L7.50403 13.986C7.50403 11.5062 7.00808 9.22485 6.14844 7.17493" id="Shape" fill="#020202" fill-rule="evenodd" stroke="none" />
                    </g>
                  </g>
                </g>
              </g>
            </g>
            <path d="M53.1962 71.4913L63.1483 77.5419L26.8778 81.0136L16.9258 74.9299L53.1962 71.4913L53.1962 71.4913Z" id="Polygon" fill="#808080" fill-rule="evenodd" stroke="none" />
            <path d="M53.1962 73.442L63.1483 79.4926L26.8448 82.9642L16.9258 76.9137L53.1962 73.442L53.1962 73.442Z" id="Polygon" fill="#020202" fill-rule="evenodd" stroke="none" />
            <path d="M68.3749 16.3746L78.2939 22.4252L78.2939 60.3158L68.3418 54.2652L68.3749 16.3746L68.3749 16.3746Z" id="Polygon" fill="#D0D0D0" fill-rule="evenodd" stroke="none" />
            <path d="M70.2264 16.176L80.1785 22.2597L80.1454 60.1172L70.1934 54.0666L70.2264 16.176L70.2264 16.176Z" id="Polygon" fill="#020202" fill-rule="evenodd" stroke="none" />
            <g id="Group" transform="translate(53.197266 54.265015)">
              <g id="Mask-group">
                <path d="M15.143 6.30633e-06L25.0951 6.05059C25.0951 14.7463 18.3171 22.4831 9.95206 23.2766L0 17.226C8.33196 16.4325 15.143 8.69566 15.143 0L15.143 6.30633e-06Z" id="Shape" fill="none" fill-rule="evenodd" stroke="none" />
                <g clip-path="url(#mask_12)">
                  <g id="Group">
                    <g id="Group">
                      <path d="M15.1462 0L25.0983 6.05059C25.0983 6.54654 25.0983 7.07555 25.0321 7.5715L15.0801 1.52091C15.1131 1.02496 15.1462 0.529013 15.1462 0" id="Shape" fill="#C2C2C2" fill-rule="evenodd" stroke="none" />
                      <path d="M15.0787 1.48767L25.0307 7.53826C24.9646 8.23258 24.8654 8.95998 24.7001 9.62124L14.748 3.57066C14.9134 2.87633 15.0126 2.182 15.0787 1.48767" id="Shape" fill="#BDBDBD" fill-rule="evenodd" stroke="none" />
                      <path d="M14.7462 3.60376L24.6983 9.65435C24.566 10.1834 24.4338 10.7124 24.2685 11.2414L14.3164 5.1908C14.4817 4.66179 14.614 4.13277 14.7462 3.60376" id="Shape" fill="#B8B8B8" fill-rule="evenodd" stroke="none" />
                      <path d="M14.3163 5.19067L24.2683 11.2413C24.1361 11.7041 23.9707 12.167 23.7724 12.5969L13.8203 6.54627C14.0187 6.11645 14.184 5.65356 14.3163 5.19067" id="Shape" fill="#B3B3B3" fill-rule="evenodd" stroke="none" />
                      <path d="M13.8199 6.54639L23.7719 12.597C23.6066 13.0268 23.4082 13.4236 23.2099 13.8203L13.2578 7.76973C13.4562 7.37297 13.6546 6.97621 13.8199 6.54639" id="Shape" fill="#ADADAD" fill-rule="evenodd" stroke="none" />
                      <path d="M13.2591 7.76978L23.2111 13.8204C23.0127 14.2171 22.8144 14.5808 22.5829 14.9445L12.6309 8.89393C12.8623 8.53023 13.0607 8.13347 13.2591 7.76978" id="Shape" fill="#A8A8A8" fill-rule="evenodd" stroke="none" />
                      <path d="M12.6279 8.89392L22.58 14.9445C22.3485 15.3082 22.1171 15.6719 21.8857 16.0356L11.9336 9.98501C12.165 9.62131 12.3965 9.29068 12.6279 8.89392" id="Shape" fill="#A3A3A3" fill-rule="evenodd" stroke="none" />
                      <path d="M11.9322 9.98523L21.8842 16.0358C21.6197 16.3995 21.3883 16.7301 21.0907 17.0608L11.1387 11.0102C11.4032 10.6796 11.6677 10.3159 11.9322 9.98523" id="Shape" fill="#9E9E9E" fill-rule="evenodd" stroke="none" />
                      <path d="M11.1427 11.0099L21.0948 17.0605C20.7972 17.4242 20.5327 17.7548 20.2021 18.0854L10.25 12.0348C10.5476 11.7042 10.8451 11.3736 11.1427 11.0099" id="Shape" fill="#999999" fill-rule="evenodd" stroke="none" />
                      <path d="M10.2847 12.035L20.2368 18.0856C19.9062 18.4493 19.5755 18.7799 19.2118 19.0775L9.25977 13.0269C9.62346 12.6963 9.95409 12.3657 10.2847 12.035" id="Shape" fill="#949494" fill-rule="evenodd" stroke="none" />
                      <path d="M9.25655 13.0267L19.2086 19.0773C18.8118 19.441 18.4151 19.7716 17.9853 20.1023L8.0332 14.0517C8.46302 13.7211 8.85979 13.3904 9.25655 13.0267" id="Shape" fill="#8F8F8F" fill-rule="evenodd" stroke="none" />
                      <path d="M8.03403 14.0519L17.9861 20.1025C17.4571 20.4992 16.895 20.8629 16.3329 21.1936L6.38086 15.143C6.94294 14.8123 7.50501 14.4486 8.03403 14.0519" id="Shape" fill="#8A8A8A" fill-rule="evenodd" stroke="none" />
                      <path d="M6.34816 15.1428L16.3002 21.1934C14.3825 22.3176 12.2004 23.045 9.95206 23.2764L0 17.2258C2.28137 16.9944 4.43048 16.267 6.34816 15.1428" id="Shape" fill="#858585" fill-rule="evenodd" stroke="none" />
                    </g>
                  </g>
                </g>
              </g>
            </g>
            <path d="M53.2338 2.0251C61.5657 1.23158 68.3437 7.64587 68.3437 16.3746L68.3437 54.2651C68.3437 62.9608 61.5326 70.6976 53.2007 71.4911L16.9302 74.9628C8.59829 75.7563 1.82031 69.309 1.82031 60.6133L1.82031 22.7227C1.82031 14.0271 8.63135 6.29027 16.9633 5.49675L53.2337 2.0251L53.2338 2.0251Z" id="Shape" fill="#FFFFFF" fill-rule="evenodd" stroke="none" />
            <path d="M53.265 0.0744352C62.655 -0.818274 70.2595 6.42259 70.2595 16.2093L70.2595 54.0999C70.2595 63.8866 62.6219 72.5823 53.2319 73.475L16.9615 76.9467C7.60456 77.8394 0 70.5985 0 60.8118L0 22.8881C0 13.1014 7.63762 4.40573 17.0276 3.51302L53.298 0.0413727L53.265 0.0744352ZM68.344 54.2652L68.344 16.3747C68.344 7.679 61.5991 1.23165 53.2671 2.02517L16.9967 5.49682C8.6647 6.29034 1.88672 13.9941 1.88672 22.7228L1.88672 60.6134C1.88672 69.309 8.63163 75.7564 16.9636 74.9629L53.234 71.4912C61.566 70.6977 68.377 62.9609 68.377 54.2652" id="Shape" fill="#020202" fill-rule="evenodd" stroke="none" />
            <g id="Group" transform="translate(53.197266 54.066895)">
              <g id="Mask-group">
                <path d="M16.9945 0L26.9466 6.05059C26.9466 15.8373 19.309 24.533 9.95206 25.4257L0 19.3751C9.38998 18.4824 16.9945 9.78674 16.9945 0L16.9945 0Z" id="Shape" fill="none" fill-rule="evenodd" stroke="none" />
                <g clip-path="url(#mask_13)">
                  <g id="Group">
                    <g id="Group">
                      <path d="M16.9919 0L26.944 6.05059C26.944 6.61266 26.944 7.17474 26.8778 7.73682L16.9258 1.68623C16.9919 1.12415 16.9919 0.562077 16.9919 0" id="Shape" fill="#020202" fill-rule="evenodd" stroke="none" />
                      <path d="M16.9282 1.71936L26.8802 7.76995C26.8141 8.56347 26.6818 9.35698 26.5165 10.1174L16.5645 4.06685C16.7298 3.3064 16.862 2.51288 16.9282 1.71936" id="Shape" fill="#020202" fill-rule="evenodd" stroke="none" />
                      <path d="M16.5624 4.06677L26.5144 10.1174C26.3822 10.7125 26.2168 11.3076 26.0185 11.9028L16.0664 5.85219C16.2648 5.25705 16.4301 4.66191 16.5624 4.06677" id="Shape" fill="#020202" fill-rule="evenodd" stroke="none" />
                      <path d="M16.0992 5.85229L26.0512 11.9029C25.8859 12.4319 25.6875 12.9278 25.4892 13.4238L15.5371 7.3732C15.7355 6.87726 15.9339 6.38131 16.0992 5.85229" id="Shape" fill="#020202" fill-rule="evenodd" stroke="none" />
                      <path d="M15.5403 7.37305L25.4924 13.4236C25.294 13.8865 25.0956 14.3494 24.8642 14.8123L14.9121 8.76171C15.1436 8.29882 15.3419 7.83593 15.5403 7.37305" id="Shape" fill="#020202" fill-rule="evenodd" stroke="none" />
                      <path d="M14.915 8.76184L24.8671 14.8124C24.6356 15.2422 24.4042 15.6721 24.1728 16.1019L14.2207 10.0513C14.4852 9.62149 14.7167 9.19166 14.915 8.76184" id="Shape" fill="#020202" fill-rule="evenodd" stroke="none" />
                      <path d="M14.1861 10.0183L24.1382 16.0689C23.9067 16.4987 23.6422 16.8955 23.3446 17.2922L13.3926 11.2417C13.6571 10.8449 13.9216 10.4481 14.1861 10.0183" id="Shape" fill="#020202" fill-rule="evenodd" stroke="none" />
                      <path d="M13.4201 11.2417L23.3721 17.2923C23.1076 17.689 22.81 18.0858 22.4794 18.4495L12.5273 12.3989C12.8249 12.0352 13.1225 11.6385 13.4201 11.2417" id="Shape" fill="#020202" fill-rule="evenodd" stroke="none" />
                      <path d="M12.531 12.3988L22.483 18.4494C22.1524 18.8462 21.8217 19.2098 21.4911 19.5735L11.5391 13.523C11.8697 13.1593 12.2003 12.7625 12.531 12.3988" id="Shape" fill="#020202" fill-rule="evenodd" stroke="none" />
                      <path d="M11.542 13.5558L21.494 19.6064C21.1303 20.0031 20.7336 20.3668 20.3368 20.7305L10.3848 14.6799C10.7815 14.3162 11.1783 13.9525 11.542 13.5558" id="Shape" fill="#020202" fill-rule="evenodd" stroke="none" />
                      <path d="M10.3848 14.6799L20.3368 20.7305C19.907 21.1273 19.4441 21.524 18.9482 21.8547L8.99609 15.8041C9.45898 15.4404 9.92187 15.0767 10.3848 14.6799" id="Shape" fill="#020202" fill-rule="evenodd" stroke="none" />
                      <path d="M9.02732 15.8043L18.9794 21.8549C18.3842 22.3178 17.756 22.7146 17.1278 23.0783L7.17578 17.0277C7.83705 16.664 8.43218 16.2341 9.02732 15.8043" id="Shape" fill="#020202" fill-rule="evenodd" stroke="none" />
                      <path d="M7.14168 17.0609L17.0937 23.1115C14.9116 24.3679 12.4979 25.1945 9.95206 25.4259L0 19.3753C2.54588 19.1439 4.9595 18.3173 7.14168 17.0609" id="Shape" fill="#020202" fill-rule="evenodd" stroke="none" />
                    </g>
                  </g>
                </g>
              </g>
            </g>
          </g>
          <g id="Group" transform="translate(18.84375 21.01416)">
            <g id="Group" transform="translate(0.7949219 0.8601074)">
              <g id="Group">
                <g id="Group">
                  <path d="M22.4483 2.15046L23.9361 3.19447C21.6547 1.59116 18.9105 0.808144 15.9678 1.10643C13.7857 1.33015 11.7027 2.11317 9.85113 3.30633L8.36328 2.26231C10.2148 1.06915 12.2978 0.286137 14.48 0.0624168C17.4557 -0.235874 20.1999 0.54714 22.4483 2.15046" id="Shape" fill="#020202" fill-rule="evenodd" stroke="none" />
                  <path d="M8.48774 2.00586L10.0876 3.57496C9.4832 4.13536 8.94992 4.69575 8.38109 5.31219L6.78125 3.74309C7.31453 3.12665 7.88336 2.51022 8.48775 2.00586" id="Shape" fill="#020202" fill-rule="evenodd" stroke="none" />
                  <path d="M7.06371 3.06421L8.92352 4.68837C8.42757 5.21042 7.93162 5.79048 7.477 6.37054L5.61719 4.74638C6.07181 4.16632 6.56776 3.58626 7.06371 3.06421" id="Shape" fill="#020202" fill-rule="evenodd" stroke="none" />
                  <path d="M5.95144 4.02307L7.93524 5.64723C7.49439 6.16929 7.05355 6.74934 6.6127 7.3294L4.62891 5.70524C5.02567 5.12518 5.46651 4.54513 5.95144 4.02307" id="Shape" fill="#020202" fill-rule="evenodd" stroke="none" />
                  <path d="M4.98225 4.98169L7.07782 6.60585C6.6587 7.12791 6.28616 7.70796 5.86705 8.28802L3.77148 6.66386C4.14403 6.0838 4.56314 5.50374 4.98225 4.98169" id="Shape" fill="#020202" fill-rule="evenodd" stroke="none" />
                  <path d="M4.12808 5.94068L6.3161 7.53684C5.92712 8.1069 5.58676 8.67696 5.19778 9.24701L3.00977 7.65085C3.35012 7.08079 3.7391 6.51073 4.12808 5.94067" id="Shape" fill="#020202" fill-rule="evenodd" stroke="none" />
                  <path d="M3.40015 6.93226L5.68914 8.50136C5.33308 9.06176 4.97701 9.62216 4.67181 10.2386L2.38281 8.66948C2.68801 8.05304 3.04408 7.49265 3.40015 6.93225" id="Shape" fill="#020202" fill-rule="evenodd" stroke="none" />
                  <path d="M2.72592 7.95752L5.08758 9.47518C4.77269 10.0714 4.4578 10.6676 4.14291 11.2639L1.78125 9.74619C2.09614 9.14996 2.41103 8.55375 2.72592 7.95752" id="Shape" fill="#020202" fill-rule="evenodd" stroke="none" />
                  <path d="M2.127 9.01526L4.5661 10.4847C4.24088 11.1145 3.96987 11.6918 3.69886 12.3216L1.25977 10.8521C1.53078 10.2223 1.80179 9.59256 2.127 9.01526" id="Shape" fill="#020202" fill-rule="evenodd" stroke="none" />
                  <path d="M1.57948 10.2059L4.10125 11.5877C3.82105 12.2292 3.54086 12.8707 3.3167 13.5123L0.794922 12.1305C1.01908 11.489 1.29928 10.8475 1.57948 10.2059" id="Shape" fill="#020202" fill-rule="evenodd" stroke="none" />
                  <path d="M1.0574 11.4951L3.66766 12.7295C3.37763 13.3907 3.14561 14.0961 2.97159 14.8014L0.361328 13.5671C0.535344 12.8617 0.825374 12.2005 1.0574 11.4951" id="Shape" fill="#020202" fill-rule="evenodd" stroke="none" />
                  <path d="M0.615509 13.0162L3.37078 14.0564C3.12587 14.7994 2.94219 15.5424 2.81973 16.3226L0.0644531 15.2824C0.186913 14.5022 0.370596 13.7592 0.615509 13.0162" id="Shape" fill="#020202" fill-rule="evenodd" stroke="none" />
                  <path d="M0.0847797 15.0331L1.99228 15.9589C1.94989 16.3887 1.9075 16.8185 1.9075 17.2153C1.9075 19.2652 2.37377 21.2159 3.30633 22.9352L1.39883 22.0094C0.466276 20.2901 0 18.3394 0 16.2895C0 15.8597 0 15.4298 0.0847797 15.0331" id="Shape" fill="#020202" fill-rule="evenodd" stroke="none" />
                  <path d="M1.0918 22.0425L3.18736 23.1997C3.51333 23.9436 3.93245 24.6462 4.39813 25.3488L2.30257 24.1916C1.83688 23.5303 1.46434 22.7864 1.0918 22.0425" id="Shape" fill="#020202" fill-rule="evenodd" stroke="none" />
                  <path d="M1.91797 23.7618L4.04347 25.1861C4.42133 25.8474 4.7992 26.5086 5.2243 27.0682L3.0988 25.6439C2.6737 25.0335 2.29584 24.4231 1.91797 23.7618" id="Shape" fill="#020202" fill-rule="evenodd" stroke="none" />
                  <path d="M2.74414 24.9851L4.86964 26.5813C5.24751 27.1513 5.62537 27.7214 6.05047 28.2914L3.92497 26.6953C3.49987 26.1822 3.12201 25.6122 2.74414 24.9851" id="Shape" fill="#020202" fill-rule="evenodd" stroke="none" />
                  <path d="M3.57031 25.9768L5.69581 27.7235C6.07368 28.285 6.49878 28.7841 6.87664 29.2831L4.75115 27.5364C4.32605 27.0373 3.94818 26.5383 3.57031 25.9768" id="Shape" fill="#020202" fill-rule="evenodd" stroke="none" />
                  <path d="M4.39648 26.8033L6.49205 28.6549C6.86459 29.1839 7.2837 29.6468 7.70282 30.1097L5.60725 28.2581C5.18814 27.7952 4.76903 27.3324 4.39648 26.8033" id="Shape" fill="#020202" fill-rule="evenodd" stroke="none" />
                  <path d="M5.28906 27.5311L7.32721 29.5009C7.73484 29.9933 8.14247 30.4154 8.59539 30.8375L6.55724 28.8677C6.14961 28.4457 5.69669 28.0236 5.28906 27.5311" id="Shape" fill="#020202" fill-rule="evenodd" stroke="none" />
                  <path d="M6.17969 28.1592L9.34532 31.4655L9.48602 31.4655L6.32039 28.2773L6.17969 28.2773" id="Shape" fill="#020202" fill-rule="evenodd" stroke="none" />
                </g>
              </g>
            </g>
            <g id="Group" transform="translate(23.242188 2.7340088)">
              <g id="Mask-group">
                <path d="M4.16598 3.30633L2.67813 2.33183C1.88461 1.42694 0.991897 0.661268 0 0L1.48785 0.974497C2.47975 1.60096 3.37246 2.40144 4.16598 3.30633L4.16598 3.30633Z" id="Shape" fill="none" fill-rule="evenodd" stroke="none" />
                <g clip-path="url(#mask_14)">
                  <g id="Group" transform="translate(0 0.033081055)">
                    <g id="Group">
                      <path d="M0 0L3.16563 3.30633L3.30633 3.30633L0.140698 0.118075L0 0.118075" id="Shape" fill="#9E9E9E" fill-rule="evenodd" stroke="none" />
                      <path d="M0.0644531 0.0330811L2.13091 2.00281C2.5442 2.4249 3.00341 2.84698 3.37078 3.33941L1.30433 1.36968C0.891036 0.877251 0.477744 0.455163 0.0644531 0.0330811" id="Shape" fill="#A3A3A3" fill-rule="evenodd" stroke="none" />
                      <path d="M0.994141 0.661133L3.0897 2.51268C3.50882 2.97556 3.92793 3.43845 4.30047 3.96746L2.20491 2.11592C1.83237 1.58691 1.41325 1.12402 0.994141 0.661133" id="Shape" fill="#A8A8A8" fill-rule="evenodd" stroke="none" />
                      <path d="M1.85352 1.38892L3.97901 3.13566C4.40411 3.63473 4.78198 4.13379 5.15985 4.69525L3.03435 2.94851C2.65648 2.38705 2.23138 1.88798 1.85352 1.38892" id="Shape" fill="#ADADAD" fill-rule="evenodd" stroke="none" />
                    </g>
                  </g>
                </g>
              </g>
            </g>
            <g id="Group" transform="translate(7.044922 4.9489746)">
              <g id="Mask-group">
                <path d="M9.48917 26.8805C6.51347 27.145 3.76922 26.4507 1.48785 25.0289L0 24.1032C2.28137 25.5249 5.02562 26.2192 8.00132 25.9547C15.9034 25.2604 22.4169 17.9534 22.4831 9.68755C22.4831 5.85221 21.1605 2.47975 18.8792 0L20.367 0.925772C22.6153 3.37246 24.004 6.77798 23.9709 10.6133C23.9048 18.8792 17.4244 26.1861 9.48917 26.8805L9.48917 26.8805Z" id="Shape" fill="none" fill-rule="evenodd" stroke="none" />
                <g clip-path="url(#mask_15)">
                  <g id="Group" transform="translate(0 -0.7935791)">
                    <g id="Group">
                      <path d="M18.0547 0L20.1802 1.74674C20.6053 2.24581 20.9832 2.74488 21.361 3.30633L19.2355 1.55959C18.8577 0.998137 18.4326 0.499069 18.0547 0" id="Shape" fill="#ADADAD" fill-rule="evenodd" stroke="none" />
                      <path d="M18.8828 0.826538L21.0083 2.4227C21.4334 2.93575 21.8113 3.5058 22.1891 4.13287L20.0636 2.53671C19.6858 1.96665 19.3079 1.3966 18.8828 0.826538" id="Shape" fill="#B3B3B3" fill-rule="evenodd" stroke="none" />
                      <path d="M19.709 1.78552L21.8345 3.20979C22.2596 3.82018 22.6375 4.43058 23.0153 5.09185L20.8898 3.66759C20.5119 3.00632 20.1341 2.34506 19.709 1.78553" id="Shape" fill="#B8B8B8" fill-rule="evenodd" stroke="none" />
                      <path d="M20.5352 3.04187L22.6307 4.19909C23.0964 4.86035 23.4689 5.60428 23.8415 6.3482L21.7459 5.19098C21.42 4.44706 21.0008 3.74447 20.5352 3.04187" id="Shape" fill="#BDBDBD" fill-rule="evenodd" stroke="none" />
                      <path d="M21.3945 4.76086L23.302 5.68664C24.2346 7.40593 24.7009 9.35667 24.7009 11.4066C24.7009 11.8364 24.7009 12.2662 24.6161 12.663L22.7086 11.7372C22.751 11.3074 22.7934 10.8776 22.7934 10.4808C22.7934 8.39783 22.3271 6.48015 21.3945 4.76086" id="Shape" fill="#C2C2C2" fill-rule="evenodd" stroke="none" />
                      <path d="M22.6682 11.7377L25.4235 12.7779C25.3011 13.558 25.1174 14.301 24.8725 15.044L22.1172 14.0038C22.3621 13.2608 22.5458 12.5178 22.6682 11.7377" id="Shape" fill="#BDBDBD" fill-rule="evenodd" stroke="none" />
                      <path d="M22.3875 13.7545L24.9977 14.9889C24.8237 15.6942 24.5337 16.3555 24.3017 17.0608L21.6914 15.8265C21.9814 15.1652 22.2135 14.4599 22.3875 13.7545" id="Shape" fill="#B8B8B8" fill-rule="evenodd" stroke="none" />
                      <path d="M22.0111 15.3083L24.5329 16.6901C24.3087 17.3316 24.0285 17.9732 23.7483 18.6147L21.2266 17.2329C21.5068 16.5914 21.787 15.9499 22.0111 15.3083" id="Shape" fill="#B3B3B3" fill-rule="evenodd" stroke="none" />
                      <path d="M21.5645 16.5979L24.0036 18.0674C23.7326 18.6972 23.4616 19.3269 23.1364 19.9042L20.6973 18.4347C21.0225 17.805 21.2935 17.2277 21.5645 16.5979" id="Shape" fill="#ADADAD" fill-rule="evenodd" stroke="none" />
                      <path d="M21.015 17.755L23.3766 19.2727C23.0618 19.8689 22.7469 20.4651 22.432 21.0613L20.0703 19.5437C20.3852 18.9474 20.7001 18.3512 21.015 17.755" id="Shape" fill="#A8A8A8" fill-rule="evenodd" stroke="none" />
                      <path d="M20.4236 18.8459L22.7126 20.4151C22.4074 21.0315 22.0513 21.5919 21.6952 22.1523L19.4063 20.5832C19.7623 20.0228 20.1184 19.4624 20.4236 18.8459" id="Shape" fill="#A3A3A3" fill-rule="evenodd" stroke="none" />
                      <path d="M19.7687 19.8711L21.9567 21.4673C21.6164 22.0373 21.2274 22.6074 20.8384 23.1774L18.6504 21.5813C19.0394 21.0112 19.3797 20.4411 19.7687 19.8711" id="Shape" fill="#9E9E9E" fill-rule="evenodd" stroke="none" />
                      <path d="M19.033 20.8632L21.1286 22.4873C20.7561 23.0674 20.3369 23.6474 19.9178 24.1695L17.8223 22.5453C18.2414 22.0233 18.6139 21.4432 19.033 20.8632" id="Shape" fill="#999999" fill-rule="evenodd" stroke="none" />
                      <path d="M18.1507 21.8217L20.1345 23.4458C19.7377 24.0259 19.2969 24.6059 18.8119 25.128L16.8281 23.5038C17.269 22.9818 17.7098 22.4017 18.1507 21.8217" id="Shape" fill="#949494" fill-rule="evenodd" stroke="none" />
                      <path d="M17.1203 22.7806L18.9802 24.4048C18.5255 24.9849 18.0296 25.5649 17.5336 26.087L15.6738 24.4628C16.1698 23.9408 16.6657 23.3607 17.1203 22.7806" id="Shape" fill="#8F8F8F" fill-rule="evenodd" stroke="none" />
                      <path d="M15.7905 23.7396L17.3903 25.3087C16.857 25.9252 16.2882 26.5416 15.6838 27.046L14.084 25.4768C14.6884 24.9164 15.2216 24.3561 15.7905 23.7396" id="Shape" fill="#8A8A8A" fill-rule="evenodd" stroke="none" />
                      <path d="M14.085 24.7975L15.5728 25.8415C13.7213 27.0347 11.6383 27.8177 9.48917 28.0414C6.51347 28.3397 3.76922 27.5567 1.48785 25.9534L0 24.9093C2.28137 26.5127 5.02562 27.2957 8.00132 26.9974C10.1835 26.7737 12.2334 25.9906 14.085 24.7975" id="Shape" fill="#858585" fill-rule="evenodd" stroke="none" />
                    </g>
                  </g>
                </g>
              </g>
            </g>
            <g id="Group" transform="translate(6.5820312 2.0063477)">
              <g id="Mask-group">
                <path d="M17.1268 3.15316e-06L18.6146 0.925775C22.6484 3.40552 25.2604 8.00133 25.2273 13.4898C25.1612 22.2185 18.3171 29.9223 9.95205 30.6497C6.81104 30.9142 3.90147 30.1868 1.48785 28.699L0 27.7732C2.41362 29.261 5.32319 29.9884 8.46421 29.7239C16.8292 28.9965 23.6733 21.2928 23.7395 12.5641C23.7725 7.10861 21.1605 2.51281 17.1268 0L17.1268 3.15316e-06Z" id="Shape" fill="none" fill-rule="evenodd" stroke="none" />
                <g clip-path="url(#mask_16)">
                  <g id="Group">
                    <g id="Group">
                      <path d="M17.127 0L20.2926 3.30633L20.4333 3.30633L17.2677 0.118075L17.127 0.118075" id="Shape" fill="#020202" fill-rule="evenodd" stroke="none" />
                      <path d="M17.1895 0.0661621L19.2001 1.99486C19.6469 2.40815 20.0937 2.89032 20.4958 3.37249L18.4852 1.4438C18.0831 0.961629 17.6363 0.47945 17.1895 0.0661621" id="Shape" fill="#020202" fill-rule="evenodd" stroke="none" />
                      <path d="M18.1523 0.727295L20.1905 2.54254C20.6434 2.99635 21.051 3.51499 21.4587 4.03363L19.4205 2.21838C19.0129 1.69974 18.6053 1.1811 18.1523 0.727295" id="Shape" fill="#020202" fill-rule="evenodd" stroke="none" />
                      <path d="M19.0762 1.48767L21.1426 3.17089C21.5559 3.65181 21.9692 4.19285 22.3825 4.794L20.316 3.11078C19.9028 2.56974 19.5354 2.02871 19.0762 1.48767" id="Shape" fill="#020202" fill-rule="evenodd" stroke="none" />
                      <path d="M19.9355 2.34729L22.0311 3.91639C22.4502 4.47679 22.8693 5.03718 23.2419 5.65362L21.1463 4.08452C20.7738 3.46808 20.3547 2.90769 19.9355 2.34729" id="Shape" fill="#020202" fill-rule="evenodd" stroke="none" />
                      <path d="M20.832 3.37244L22.9276 4.73387C23.3467 5.36596 23.7658 5.99805 24.1384 6.67877L22.0428 5.31734C21.6703 4.63662 21.2511 4.00453 20.832 3.37244" id="Shape" fill="#020202" fill-rule="evenodd" stroke="none" />
                      <path d="M21.6914 4.69507L23.7579 5.81046C24.2171 6.48766 24.6304 7.24453 24.9977 8.0014L22.9313 6.88601C22.5639 6.12914 22.1506 5.4121 21.6914 4.69507" id="Shape" fill="#020202" fill-rule="evenodd" stroke="none" />
                      <path d="M22.582 6.51343L24.4418 7.4392C25.3924 9.25768 25.8884 11.3076 25.8884 13.4898C25.8884 13.9527 25.8884 14.3825 25.8057 14.8454L23.9459 13.9196C23.9872 13.4898 24.0286 13.0269 24.0286 12.564C24.0286 10.3818 23.5326 8.33191 22.582 6.51343" id="Shape" fill="#020202" fill-rule="evenodd" stroke="none" />
                      <path d="M23.9449 13.9196L26.6501 14.9258C26.5299 15.7165 26.3495 16.4712 26.0489 17.2259L23.3438 16.2196C23.6443 15.4649 23.8247 14.7102 23.9449 13.9196" id="Shape" fill="#020202" fill-rule="evenodd" stroke="none" />
                      <path d="M23.6532 16.0356L26.2184 17.2379C25.9904 17.9679 25.7624 18.6549 25.4774 19.342L22.9121 18.1397C23.1971 17.4526 23.4822 16.7227 23.6532 16.0356" id="Shape" fill="#020202" fill-rule="evenodd" stroke="none" />
                      <path d="M23.2426 17.6558L25.7223 18.9975C25.5019 19.6683 25.1713 20.3392 24.8958 20.9621L22.416 19.6204C22.7466 18.9495 23.0222 18.3266 23.2426 17.6558" id="Shape" fill="#020202" fill-rule="evenodd" stroke="none" />
                      <path d="M22.7601 19.0115L25.1598 20.4357C24.8932 21.097 24.5732 21.7074 24.2533 22.3178L21.8535 20.8935C22.1735 20.2831 22.4935 19.6219 22.7601 19.0115" id="Shape" fill="#020202" fill-rule="evenodd" stroke="none" />
                      <path d="M22.2081 20.2678L24.5329 21.7373C24.2229 22.3671 23.913 22.9444 23.5513 23.5742L21.2266 22.1047C21.5882 21.5274 21.8982 20.8976 22.2081 20.2678" id="Shape" fill="#020202" fill-rule="evenodd" stroke="none" />
                      <path d="M21.5872 21.3918L23.8415 22.9095C23.4908 23.5057 23.1401 24.102 22.7895 24.6982L20.5352 23.1805C20.8858 22.5843 21.2866 21.9881 21.5872 21.3918" id="Shape" fill="#020202" fill-rule="evenodd" stroke="none" />
                      <path d="M20.8922 22.4832L23.0485 24.0261C22.6652 24.6323 22.3298 25.1833 21.8985 25.7895L19.7422 24.2465C20.1255 23.6955 20.5089 23.0893 20.8922 22.4832" id="Shape" fill="#020202" fill-rule="evenodd" stroke="none" />
                      <path d="M20.0836 23.5081L22.1501 25.0772C21.7368 25.6936 21.3235 26.254 20.9102 26.8144L18.8438 25.2453C19.257 24.6849 19.6703 24.1245 20.0836 23.5081" id="Shape" fill="#020202" fill-rule="evenodd" stroke="none" />
                      <path d="M19.1709 24.5332L21.1286 26.1294C20.6936 26.7564 20.2585 27.3265 19.78 27.8395L17.8223 26.2434C18.3008 25.6733 18.7359 25.1033 19.1709 24.5332" id="Shape" fill="#020202" fill-rule="evenodd" stroke="none" />
                      <path d="M18.0876 25.5579L19.902 27.127C19.4182 27.7434 18.894 28.3038 18.4102 28.8642L16.5957 27.2951C17.1199 26.7347 17.6037 26.1743 18.0876 25.5579" id="Shape" fill="#020202" fill-rule="evenodd" stroke="none" />
                      <path d="M16.6523 26.5499L18.2184 28.0676C17.6616 28.718 17.0699 29.3142 16.4783 29.8563L14.9121 28.3386C15.5038 27.7966 16.0954 27.2004 16.6523 26.5499" id="Shape" fill="#020202" fill-rule="evenodd" stroke="none" />
                      <path d="M14.9116 27.674L16.3994 28.6844C14.4487 29.9114 12.2334 30.7054 9.95205 30.9219C6.81104 31.2106 3.90147 30.4167 1.48785 28.7927L0 27.7822C2.41362 29.4062 5.32319 30.2002 8.46421 29.9114C10.7786 29.6949 12.9608 28.901 14.9116 27.674" id="Shape" fill="#020202" fill-rule="evenodd" stroke="none" />
                    </g>
                  </g>
                </g>
              </g>
            </g>
            <path d="M15.2757 0.0557101C23.6408 -0.671684 30.3857 5.80873 30.3195 14.5374C30.2534 23.2662 23.4093 30.9699 15.0443 31.6973C6.67927 32.4247 -0.0656426 25.9443 0.000482434 17.2156C0.0666106 8.48686 6.94378 0.783107 15.3088 0.0226492L15.2757 0.0557101ZM15.0457 30.871C22.9478 30.1767 29.4613 22.8697 29.5275 14.6038C29.5936 6.33801 23.2124 0.188234 15.2772 0.882567C7.34197 1.5769 0.861558 8.88389 0.795433 17.1497C0.729308 25.4156 7.11053 31.5653 15.0457 30.871" id="Shape" fill="#020202" fill-rule="evenodd" stroke="none" />
            <path d="M15.2772 0.915156C23.1793 0.220826 29.5936 6.3706 29.5274 14.6364C29.4613 22.9023 22.9809 30.2093 15.0457 30.9036C7.11052 31.5979 0.729305 25.4481 0.795433 17.1823C0.861561 8.91648 7.34197 1.60949 15.2772 0.915156L15.2772 0.915156Z" id="Shape" fill="#FF3600" fill-rule="evenodd" stroke="none" />
          </g>
        </g>
      </g>
    </g>
  </g>
</svg>