<?xml version="1.0" encoding="utf-8"?>
<svg width="382px" height="179.672px" viewBox="0 0 382 179.672" version="1.1" xmlns:xlink="http://www.w3.org/1999/xlink" xmlns="http://www.w3.org/2000/svg">
  <defs>
    <path d="M0 0L382 0L382 179.672L0 179.672L0 0Z" id="path_1" />
    <clipPath id="mask_1">
      <use xlink:href="#path_1" />
    </clipPath>
  </defs>
  <g id="wok">
    <path d="M0 0L382 0L382 179.672L0 179.672L0 0Z" id="Background" fill="none" fill-rule="evenodd" stroke="none" />
    <g clip-path="url(#mask_1)">
      <g id="a" transform="translate(47.04297 15.504578)">
        <g id="Group">
          <g id="Group" transform="translate(32.132812 30.79248)">
            <path d="M29.0391 55.4777L9.35792 38.2591L8.86539 38.8304L6.04817 40.2292L0 29.2755L23.1091 0.92594L23.6016 0L41.7265 2.67932L49.528 7.54544L48.0701 11.1704L47.7746 11.1704L61.6243 31.7775L45.6863 47.4594L29.0588 55.4777L29.0391 55.4777ZM8.94587 32.3292L29.7106 50.5131L43.2254 43.9921L56.2083 31.226L39.9156 6.97419L40.7234 6.97419L40.2506 6.67868L25.4946 4.49188L5.02539 29.6893L7.4289 34.0432L8.92616 32.2898L8.94587 32.3292Z" id="Shape" fill="#000000" fill-rule="evenodd" stroke="none" />
            <g id="Group" transform="translate(2.5195312 2.2852783)">
              <g id="Group" transform="translate(0 0.13793945)">
                <path d="M22.3027 0L38.4377 2.34441L56.4049 29.0785L43.9737 33.2551L22.3027 0L22.3027 0Z" id="Polygon" fill="#FFFFFF" fill-rule="evenodd" stroke="none" />
                <path d="M43.9736 33.2551L56.4048 29.0785L41.9444 43.3025L26.8535 50.5721L43.9736 33.2551L43.9736 33.2551Z" id="Polygon" fill="#FFFFFF" fill-rule="evenodd" stroke="none" />
                <path d="M22.3014 0L43.9724 33.2551L26.8523 50.5722L0 27.069L22.3014 0L22.3014 0Z" id="Polygon" fill="#B324AA" fill-rule="evenodd" stroke="none" />
              </g>
              <g id="Group" transform="translate(0 0.03942871)">
                <path d="M24.9227 11.328L25.5728 11.0128L5.0642 34.8115L4.41406 35.1267L24.9227 11.328L24.9227 11.328Z" id="Polygon" fill="#050505" fill-rule="evenodd" stroke="none" />
                <path d="M21.8086 0.334915L22.4587 0L25.5715 11.0128L24.9213 11.328L21.8086 0.334915L21.8086 0.334915Z" id="Polygon" fill="#050505" fill-rule="evenodd" stroke="none" />
                <path d="M0 27.1675L21.8089 0.3349L24.9216 11.328L4.41299 35.1266L0 27.1675L0 27.1675Z" id="Polygon" fill="#050505" fill-rule="evenodd" stroke="none" />
              </g>
              <g id="Group" transform="translate(21.929688 0)">
                <path d="M0.316406 0L16.5499 2.40351L22.4996 6.10727L8.9848 5.92996L0.316406 0L0.316406 0Z" id="Polygon" fill="#B324AA" fill-rule="evenodd" stroke="none" />
                <path d="M8.9853 5.92999L22.5001 6.1073L22.2243 6.79683L8.65039 6.77713L8.9853 5.92999L8.9853 5.92999Z" id="Polygon" fill="#050505" fill-rule="evenodd" stroke="none" />
                <path d="M0.315214 0L8.9836 5.92996L8.64869 6.7771L0 0.571327L0.315214 0L0.315214 0Z" id="Polygon" fill="#050505" fill-rule="evenodd" stroke="none" />
              </g>
            </g>
          </g>
          <g id="Group" transform="translate(226.30664 73.7995)">
            <path d="M29.0391 55.4777L9.35792 38.2591L8.86539 38.8304L6.04818 40.2292L0 29.2755L23.0894 0.925944L23.582 0L41.7068 2.67932L49.5083 7.54544L48.0307 11.1704L47.7352 11.1704L61.585 31.7775L45.647 47.4594L29.0194 55.4777L29.0391 55.4777ZM8.94591 32.3292L29.7106 50.5131L43.2254 43.9922L56.2083 31.226L39.9157 6.9742L40.7234 6.9742L40.2506 6.67868L25.4946 4.49188L5.02539 29.6893L7.4289 34.0629L8.92616 32.3095L8.94591 32.3292Z" id="Shape" fill="#000000" fill-rule="evenodd" stroke="none" />
            <g id="Group" transform="translate(2.5195312 2.2852783)">
              <g id="Group" transform="translate(0 0.13793945)">
                <path d="M22.3027 0L38.4377 2.3444L56.3852 29.0785L43.9737 33.2551L22.3027 0L22.3027 0Z" id="Polygon" fill="#FFFFFF" fill-rule="evenodd" stroke="none" />
                <path d="M43.9736 33.2551L56.3851 29.0785L41.9247 43.3025L26.8535 50.5722L43.9736 33.2551L43.9736 33.2551Z" id="Polygon" fill="#FF7F00" fill-rule="evenodd" stroke="none" />
                <path d="M22.3014 0L43.9724 33.2551L26.8523 50.5722L0 27.069L22.3014 0L22.3014 0Z" id="Polygon" fill="#B324AA" fill-rule="evenodd" stroke="none" />
              </g>
              <g id="Group" transform="translate(0 0.03942871)">
                <path d="M24.9032 11.328L25.5533 11.0128L5.04466 34.8115L4.39453 35.1267L24.9032 11.328L24.9032 11.328Z" id="Polygon" fill="#050505" fill-rule="evenodd" stroke="none" />
                <path d="M21.791 0.334919L22.4411 0L25.5539 11.0128L24.9038 11.328L21.791 0.334919L21.791 0.334919Z" id="Polygon" fill="#050505" fill-rule="evenodd" stroke="none" />
                <path d="M0 27.1675L21.7892 0.3349L24.9019 11.328L4.39329 35.1266L0 27.1675L0 27.1675Z" id="Polygon" fill="#050505" fill-rule="evenodd" stroke="none" />
              </g>
              <g id="Group" transform="translate(21.929688 0)">
                <path d="M0.316406 0L16.5499 2.4035L22.4996 6.10727L8.96509 5.92996L0.316406 0L0.316406 0Z" id="Polygon" fill="#B324AA" fill-rule="evenodd" stroke="none" />
                <path d="M8.96561 5.92999L22.5001 6.1073L22.2046 6.79683L8.65039 6.77713L8.96561 5.92999L8.96561 5.92999Z" id="Polygon" fill="#050505" fill-rule="evenodd" stroke="none" />
                <path d="M0.315221 0L8.9639 5.92996L8.64868 6.7771L0 0.57132L0.315221 0L0.315221 0Z" id="Polygon" fill="#050505" fill-rule="evenodd" stroke="none" />
              </g>
            </g>
          </g>
          <g id="Group" transform="translate(163.08203 0)">
            <path d="M29.2755 61.6243L0.925944 38.5152L0 38.0227L2.67932 19.8979L7.54544 12.0963L11.1704 13.5542L11.1704 13.8497L31.7775 0L47.4594 15.938L55.4777 32.5656L38.2591 52.2467L38.8305 52.7392L40.2292 55.5565L29.2755 61.6046L29.2755 61.6243ZM4.50992 36.1314L29.7073 56.6006L34.0809 54.1971L32.3276 52.6998L50.5115 31.9351L43.9905 18.4203L31.2243 5.43744L6.97255 21.7301L6.97255 20.9223L6.67703 21.3952L4.49023 36.1511L4.50992 36.1314Z" id="Shape" fill="#000000" fill-rule="evenodd" stroke="none" />
            <g id="Group" transform="translate(2.2851562 2.71875)">
              <g id="Group" transform="translate(0.15820312 0)">
                <path d="M0 34.1022L2.34439 17.9672L29.0588 0L33.2551 12.4313L0 34.1022L0 34.1022Z" id="Polygon" fill="#FFFFFF" fill-rule="evenodd" stroke="none" />
                <path d="M33.2549 12.4313L29.0586 0L43.3023 14.4604L50.572 29.5513L33.2549 12.4313L33.2549 12.4313Z" id="Polygon" fill="#FF7F00" fill-rule="evenodd" stroke="none" />
                <path d="M0 34.1022L33.2551 12.4313L50.5722 29.5513L27.0493 56.3839L0 34.1022L0 34.1022Z" id="Polygon" fill="#B324AA" fill-rule="evenodd" stroke="none" />
              </g>
              <g id="Group" transform="translate(0.05859375 30.83191)">
                <path d="M11.3291 0.650129L10.9941 0L34.7928 20.5086L35.1277 21.1587L11.3291 0.650129L11.3291 0.650129Z" id="Polygon" fill="#050505" fill-rule="evenodd" stroke="none" />
                <path d="M0.315221 3.76287L0 3.11274L10.9931 0L11.328 0.650129L0.315221 3.76287L0.315221 3.76287Z" id="Polygon" fill="#050505" fill-rule="evenodd" stroke="none" />
                <path d="M27.149 25.5521L0.316406 3.76288L11.3292 0.650146L35.1278 21.1588L27.149 25.5521L27.149 25.5521Z" id="Polygon" fill="#050505" fill-rule="evenodd" stroke="none" />
              </g>
              <g id="Group" transform="translate(0 11.978149)">
                <path d="M0 22.1832L2.40351 5.94967L6.10727 0L5.94966 13.5148L0 22.1832L0 22.1832Z" id="Polygon" fill="#B324AA" fill-rule="evenodd" stroke="none" />
                <path d="M5.94922 13.5148L6.10683 0L6.79636 0.275813L6.79636 13.8497L5.94922 13.5148L5.94922 13.5148Z" id="Polygon" fill="#050505" fill-rule="evenodd" stroke="none" />
                <path d="M0 22.1832L5.94966 13.5148L6.7968 13.8497L0.591032 22.4984L0 22.1832L0 22.1832Z" id="Polygon" fill="#050505" fill-rule="evenodd" stroke="none" />
              </g>
            </g>
          </g>
          <g id="Group" transform="translate(0 36.263)">
            <path d="M8.19586 105.662C6.18637 105.662 4.21628 104.913 2.69931 103.554C0.965636 101.978 -0.0194082 99.7518 0.000289339 97.4073L0.0593933 89.1133C0.0593933 88.4238 0.157896 87.6751 0.354906 86.9659L10.6782 51.0118L9.41731 51.1497C7.09261 51.4058 4.7679 50.6572 3.03423 49.0811C1.30055 47.5247 0.315507 45.2788 0.315507 42.9344L0.354909 35.9012C0.394312 31.7246 3.52675 28.2376 7.68363 27.8042L33.9055 24.9475C36.2302 24.6914 38.5549 25.4401 40.2886 27.0161C42.0223 28.5725 43.0073 30.8184 42.9876 33.1628L42.9285 41.319C42.9285 42.0282 42.83 42.7768 42.6133 43.5058L32.3491 79.4402L33.5509 79.3022C35.8756 79.0461 38.2003 79.7948 39.934 81.3708C41.6677 82.9469 42.6527 85.1731 42.633 87.5175L42.5936 94.6689C42.5542 98.8455 39.4218 102.313 35.2846 102.766L9.043 105.623C8.74749 105.662 8.45198 105.662 8.15646 105.662L8.19586 105.662ZM13.4572 89.9013L13.4572 91.6547L19.269 91.0243C19.1705 90.9258 19.0719 90.8076 18.9931 90.7091C17.2201 88.6208 16.629 85.7838 17.3777 83.1636L29.5725 40.5112L29.5725 38.8958L23.9381 39.5065C23.9381 39.5065 24.0563 39.6247 24.0957 39.7035C25.849 41.7918 26.4598 44.6287 25.6914 47.2489L13.4375 89.9013L13.4572 89.9013ZM29.5703 41.2007C29.5703 41.2007 29.5703 42.5142 29.5703 43.1708L29.5703 41.2007L29.5703 41.2007Z" id="Shape" fill="#050505" fill-rule="evenodd" stroke="none" />
            <path d="M41.3151 102.077C39.4633 102.077 37.6508 101.387 36.252 100.146C34.6562 98.7077 33.75 96.6588 33.75 94.4917L34.1243 36.3544C34.1243 35.7437 34.2031 35.0935 34.3804 34.4631C35.2473 31.1731 36.2717 28.9666 37.7099 27.3314C39.5027 25.3022 41.8865 24.0808 44.5658 23.8049L68.2856 21.2241C70.7877 20.9483 73.1518 21.6378 75.0036 23.1548C76.166 24.1005 77.1313 25.3022 77.88 26.701C78.5301 27.9224 78.9832 29.2621 79.2393 30.7002C79.456 31.8626 79.5546 33.0052 79.5546 34.0888L79.1999 91.2607C79.1605 95.1221 76.2645 98.3137 72.4425 98.7274L60.0507 100.087C59.1247 100.185 58.2185 100.126 57.3517 99.8897C56.5636 100.284 55.6968 100.56 54.7708 100.658L42.1229 102.037C41.8471 102.057 41.5713 102.077 41.3151 102.077L41.3151 102.077ZM47.5203 37.241L47.2051 88.0101L48.131 87.9116L48.1704 81.0557C48.1901 78.1203 49.8844 75.5789 52.3667 74.3377C51.7757 74.0422 51.2438 73.6679 50.7512 73.2148C49.1555 71.7766 48.2492 69.708 48.2689 67.5606L48.5053 38.0881L48.6236 37.3395C48.6432 37.1819 48.6827 37.0243 48.7221 36.8666L47.6188 36.9848C47.6188 36.9848 47.5597 37.1622 47.54 37.2607L47.5203 37.241ZM61.7461 74.5742C62.081 74.7909 62.3765 75.0273 62.672 75.2834C64.2678 76.7216 65.174 78.7704 65.174 80.9375L65.1347 86.0598L65.8439 85.981L66.1591 34.9557L64.6815 35.1133C65.174 36.1574 65.4302 37.3395 65.4302 38.6004L65.2135 74.1998L61.7461 74.5742L61.7461 74.5742ZM47.5215 36.4136L47.5215 38.3837L47.5215 38.3837L47.5215 36.4136L47.5215 36.4136Z" id="Shape" fill="#050505" fill-rule="evenodd" stroke="none" />
            <path d="M86.941 97.0922C85.0301 97.0922 83.1585 96.3829 81.7203 95.0827C80.0654 93.6051 79.1395 91.4774 79.1592 89.2512L79.4547 43.5058L79.2971 43.5058C77.0906 43.7619 74.8841 43.0527 73.2489 41.5554C71.594 40.0778 70.6681 37.9501 70.6878 35.7239L70.7469 27.8436C70.7666 23.8837 73.7611 20.5937 77.6816 20.1603L107.588 16.9096C109.814 16.6732 112.001 17.3824 113.655 18.86C115.291 20.3376 116.236 22.4653 116.217 24.6718L116.157 32.5521C116.138 36.512 113.143 39.8217 109.223 40.2355L107.371 40.4325L107.075 87.9707C107.056 91.9306 104.061 95.2403 100.121 95.654L87.8079 96.9937C87.5321 97.0331 87.2563 97.0331 86.9607 97.0331L86.941 97.0922ZM91.0588 32.2172C92.2408 33.616 92.9107 35.4285 92.891 37.2803L92.5954 83.0258L93.6593 82.9076L93.9548 35.3694C93.9548 34.0888 94.27 32.8674 94.8413 31.7838L91.0391 32.1975L91.0588 32.2172Z" id="Shape" fill="#050505" fill-rule="evenodd" stroke="none" />
            <path d="M117.653 93.7431C114.993 93.7431 112.511 92.6989 110.6 90.7485C108.965 89.074 107.822 86.7887 107.133 83.7547L106.936 82.9076L107.27 28.0603C107.27 26.7601 107.546 25.4204 108.078 24.0414C108.531 22.8593 109.142 21.7364 109.891 20.7119C110.58 19.7663 111.349 18.9191 112.196 18.1902C113.693 16.8899 115.486 16.0822 117.357 15.8655L141.511 13.2256C143.52 13.0089 145.451 13.3635 147.066 14.2303C148.504 14.9986 149.686 16.0822 150.573 17.4613C151.203 18.4266 151.696 19.4904 152.031 20.6331L152.031 20.6922C152.267 21.4408 152.445 22.1501 152.582 22.879L152.72 23.7064L152.72 24.2778L152.72 24.2778L152.385 77.3913C152.385 78.1794 152.287 79.0659 152.11 80.1889C151.932 81.2921 151.676 82.3756 151.322 83.4395C150.888 84.8186 150.258 86.0991 149.45 87.2221C147.933 89.3694 145.727 90.7091 143.244 90.9849L118.736 93.6445C118.362 93.6839 117.988 93.7037 117.613 93.7037L117.653 93.7431ZM120.675 29.0059L120.354 80.0312L122.123 79.8539C121.821 79.2432 121.6 78.5733 121.499 77.8838L121.339 76.9776L121.339 76.288L121.6 34.1873C121.6 32.0202 121.841 30.2865 122.324 28.8483L120.695 29.0256L120.675 29.0059ZM138.428 76.0517C138.428 76.7215 138.308 77.3913 138.067 78.1202L139.173 78.0217C139.221 77.7262 139.269 77.4898 139.293 77.2928L139.677 26.9965L137.707 27.1738C137.971 27.6663 138.164 28.1785 138.308 28.7104L138.428 29.2424C138.644 30.2274 138.788 30.8972 138.788 31.6065L138.452 76.0714L138.428 76.0517Z" id="Shape" fill="#050505" fill-rule="evenodd" stroke="none" />
            <path d="M154 89.7634C149.331 89.7634 145.549 87.0053 144.209 82.4741L144.012 81.627L143.52 78.9279L143.52 78.1005L143.854 24.0807C143.854 22.8001 144.13 21.4605 144.662 20.0814C145.115 18.8797 145.746 17.7567 146.494 16.7323C147.184 15.7866 147.952 14.9395 148.799 14.2106C150.297 12.9103 152.089 12.1026 153.961 11.8859L178.114 9.24594C180.124 9.02923 182.035 9.38385 183.67 10.2704C185.108 11.0387 186.29 12.1223 187.177 13.5013C187.807 14.4667 188.28 15.5108 188.635 16.6338C188.871 17.4612 189.048 18.1901 189.186 18.8994L189.304 19.6086L189.304 20.2587L189.147 46.1654C189.147 49.2387 187.177 52.0166 184.3 53.1001L183.532 53.3956L183 53.4547C184.32 53.7108 185.581 54.3216 186.605 55.2475C188.181 56.666 189.068 58.7149 189.068 60.8426L188.989 73.4314C188.989 74.2588 188.891 75.1848 188.713 76.3077C188.536 77.3913 188.28 78.4748 187.945 79.5387C187.492 80.9572 186.881 82.1983 186.133 83.2819C184.635 85.4293 182.468 86.7492 180.025 87.025L155.379 89.7044C154.926 89.7635 154.473 89.7832 154.04 89.7832L154 89.7634ZM157.259 25.0066L156.938 76.0319L158.707 75.8546C158.405 75.2439 158.184 74.574 158.083 73.8845L157.923 72.9782L157.923 72.2887L158.184 30.1879C158.184 28.0208 158.425 26.2872 158.908 24.849L157.279 25.0263L157.259 25.0066ZM175.177 67.4818L175.177 72.0524C175.098 72.7616 174.94 73.4511 174.625 74.1012L176.359 74.0027C176.437 73.7269 176.516 73.4905 176.516 73.3132L176.595 67.403L175.177 67.4818L175.177 67.4818ZM174.271 23.1351C174.536 23.6277 174.728 24.1399 174.872 24.6718L174.992 25.1446C175.233 26.2282 175.353 26.8586 175.353 27.5678L175.233 40.8265L176.097 40.7477L176.242 22.9578L174.271 23.1351L174.271 23.1351Z" id="Shape" fill="#050505" fill-rule="evenodd" stroke="none" />
            <path d="M188.065 86.0794C186.095 86.0794 184.184 85.3504 182.706 84.0108C181.012 82.4938 180.066 80.307 180.066 78.0217L180.46 16.1019C180.48 12.0435 183.553 8.65492 187.572 8.2018L199.334 6.92125C200.417 6.80304 201.481 6.92125 202.486 7.21676C203.392 6.70454 204.417 6.36962 205.52 6.25142L217.065 4.99056C219.33 4.73445 221.596 5.48308 223.29 7.00005C224.984 8.51702 225.95 10.7038 225.93 12.9694L225.93 12.9694L225.536 74.909C225.516 78.9674 222.443 82.3756 218.404 82.809L206.879 84.0699C205.796 84.1881 204.732 84.0699 203.727 83.7744C202.821 84.2866 201.796 84.6215 200.713 84.7397L188.952 86.0203C188.656 86.0597 188.38 86.0597 188.085 86.0597L188.065 86.0794ZM193.837 21.0271L193.521 72.0524L194.447 71.9539L194.526 58.5573C194.546 55.4248 196.378 52.6864 199.057 51.4058C198.407 51.0906 197.797 50.6769 197.245 50.1647C195.551 48.628 194.585 46.4609 194.605 44.1756L194.763 20.9286L193.837 21.0271L193.837 21.0271ZM207.078 51.3271C207.728 51.6423 208.339 52.056 208.891 52.5485C210.585 54.0655 211.55 56.2523 211.531 58.5179L211.452 70.0823L212.161 70.0035L212.476 18.9782L211.767 19.057L211.609 44.1559C211.609 47.2884 209.757 50.0268 207.078 51.3074L207.078 51.3271Z" id="Shape" fill="#050505" fill-rule="evenodd" stroke="none" />
            <path d="M225.025 82.0604C222.957 82.0604 220.947 81.2921 219.411 79.8933C217.638 78.2975 216.633 76.0122 216.653 73.6284L216.692 67.1665C216.712 64.2705 218.209 61.7094 220.475 60.2121L220.691 25.9326C220.376 25.7159 220.061 25.4795 219.765 25.2037C217.992 23.6079 216.988 21.3226 217.007 18.9388L217.047 12.4769C217.066 8.22151 220.297 4.65565 224.513 4.20253L243.269 2.15364C245.652 1.89753 248.016 2.66586 249.79 4.26163C251.563 5.8574 252.567 8.1427 252.548 10.5462L252.508 16.9884C252.489 19.8844 250.991 22.4455 248.726 23.9428L248.509 58.2223C248.844 58.439 249.139 58.6952 249.455 58.9513C251.228 60.547 252.232 62.8323 252.213 65.2358L252.173 71.678C252.154 75.9334 248.923 79.4993 244.687 79.9524L225.951 82.0013C225.656 82.0407 225.341 82.0604 225.045 82.0604L225.025 82.0604ZM232.078 16.8702C233.379 18.3872 234.107 20.3573 234.107 22.3668L233.851 63.8568C233.851 65.2556 233.497 66.5952 232.866 67.7576L237.082 67.3045C235.782 65.7875 235.053 63.8371 235.053 61.8079L235.309 20.3179C235.309 18.9191 235.684 17.5795 236.294 16.4171L232.059 16.8702L232.078 16.8702Z" id="Shape" fill="#050505" fill-rule="evenodd" stroke="none" />
            <path d="M251.031 51.5043C249.199 51.5043 247.406 50.8148 246.027 49.5737C244.451 48.1552 243.564 46.1063 243.564 43.9786L243.781 8.79284C243.781 5.01027 246.658 1.83843 250.42 1.42471L250.42 1.42471L263.127 0.0456479C265.255 -0.190764 267.363 0.498767 268.939 1.93693C270.515 3.35539 271.402 5.40428 271.382 7.51228L271.165 42.698C271.126 46.5003 268.269 49.6525 264.526 50.0662L251.819 51.4452C251.543 51.4649 251.287 51.4846 251.011 51.4846L251.031 51.5043ZM257.313 14.2106L257.02 37.4182L258.696 37.3394L258.99 14.1318L257.313 14.2106L257.313 14.2106Z" id="Shape" fill="#050505" fill-rule="evenodd" stroke="none" />
            <path d="M253.629 65.3344C249.039 65.3344 245.296 62.6354 243.917 58.183C243.681 57.4146 243.582 56.6857 243.582 55.9568L243.582 52.0954C243.621 51.2877 243.74 50.5981 243.937 49.948C245.335 45.4365 248.842 42.5602 253.551 42.0479L259.54 41.3978C261.904 41.1417 264.091 41.4963 266.041 42.4617L266.061 42.4617C269.154 44.018 270.986 47.052 270.966 50.6178L270.966 54.5974C270.927 57.9268 269.39 60.8426 266.75 62.5763C265.095 63.6795 263.165 64.369 261.057 64.6054L254.91 65.2753C254.457 65.3147 254.024 65.3541 253.59 65.3541L253.629 65.3344Z" id="Shape" fill="#050505" fill-rule="evenodd" stroke="none" />
          </g>
          <g id="Group" transform="translate(2.7597656 39.016235)">
            <path d="M5.43787 100.17C4.09821 100.17 2.79795 99.6779 1.7932 98.7716C0.650553 97.7275 -0.0192767 96.2499 0.000424614 94.6936L0.0595286 86.3995C0.0595286 85.9267 0.118633 85.4341 0.256538 84.9613L11.7224 45.0867L6.38351 45.6581C4.84684 45.8157 3.29047 45.3232 2.14782 44.279C1.00517 43.2349 0.33534 41.7573 0.355041 40.2009L0.394444 33.1677C0.414145 30.3899 2.50244 28.0849 5.26056 27.7894L31.4824 24.9327C33.0191 24.7554 34.5755 25.2676 35.7181 26.3118C36.8608 27.3559 37.5306 28.8335 37.5109 30.3899L37.4518 38.546C37.4518 39.0189 37.373 39.5114 37.2548 40.0039L25.8677 79.8588L31.1278 79.2875C32.6645 79.1299 34.2209 79.6224 35.3832 80.6665C36.5259 81.7107 37.1957 83.1882 37.176 84.7446L37.1366 91.896C37.1169 94.6738 35.0286 96.9788 32.2705 97.2744L6.02891 100.131C5.8319 100.151 5.63489 100.17 5.43788 100.17L5.43787 100.17ZM7.93979 86.7738L7.90039 91.9946L29.2364 89.6699L29.2364 87.4437L23.0898 88.1135C21.297 88.3105 19.5042 87.6013 18.3419 86.2025C17.1795 84.8038 16.7658 82.9322 17.278 81.1788L29.5714 38.1718L29.6108 33.1086L8.27471 35.4333L8.27471 37.5216L14.4805 36.8518C16.293 36.6548 18.066 37.364 19.2481 38.7628C20.4104 40.1616 20.8242 42.0331 20.3119 43.7865L7.9595 86.7935L7.93979 86.7738Z" id="Shape" fill="#B324AA" fill-rule="evenodd" stroke="none" />
            <path d="M38.557 96.5653C37.375 96.5653 36.2323 96.1318 35.3458 95.3241C34.3213 94.4179 33.75 93.0979 33.75 91.7385L34.1243 33.6013C34.1243 33.2269 34.1834 32.8132 34.2819 32.4192C35.0306 29.5823 35.8974 27.6713 37.0203 26.4104C38.36 24.9132 40.1134 24.0069 42.1229 23.7902L65.8427 21.2094C67.5961 21.0124 69.2313 21.4655 70.5315 22.5294C71.4181 23.2386 72.147 24.1645 72.7183 25.2481C73.2306 26.2134 73.6049 27.297 73.8019 28.4396L73.8019 28.4396C73.9792 29.4444 74.0777 30.4097 74.058 31.3159L73.7034 88.4879C73.6837 90.9308 71.8318 92.9797 69.4086 93.2358L56.997 94.5952C56.0514 94.6937 55.0861 94.5164 54.2586 94.0829C53.5494 94.674 52.6826 95.068 51.6975 95.1862L39.0692 96.5652C38.8919 96.5652 38.7146 96.5849 38.557 96.5849L38.557 96.5653ZM42.0224 34.0741L41.6875 88.3106L48.11 87.6014L48.1691 78.3026C48.1888 75.8596 50.021 73.8305 52.4442 73.5546L54.3552 73.3576C55.6948 73.2197 57.0739 73.6531 58.0786 74.5594C59.0834 75.4656 59.6744 76.7856 59.6744 78.1449L59.6153 86.3405L65.8408 85.6707L66.1757 31.2371C66.1757 30.8037 66.1363 30.3309 66.0378 29.8187L66.0378 29.8187C65.9984 29.5626 65.9196 29.3262 65.8408 29.1292L42.9681 31.6115C42.9681 31.6115 42.5346 32.1631 42.0027 34.0544L42.0224 34.0741ZM53.0556 69.6342C51.8735 69.6342 50.7112 69.2008 49.8246 68.3931C48.8002 67.4671 48.2288 66.1668 48.2485 64.7878L48.4653 35.6502L48.5638 34.9607C48.9381 32.5571 51.0461 30.8038 53.489 30.9023L56.4638 31.0796C58.0793 31.4539 59.9509 32.9118 59.9312 35.7684L59.7144 68.9053L53.5678 69.5751C53.3905 69.5751 53.2132 69.5948 53.0556 69.5948L53.0556 69.6342Z" id="Shape" fill="#B324AA" fill-rule="evenodd" stroke="none" />
            <path d="M84.1831 91.6006C82.9419 91.6006 81.7402 91.1474 80.8142 90.3003C79.7504 89.335 79.1396 87.9756 79.1593 86.5374L79.4746 37.699L76.2633 38.0536C74.8448 38.2112 73.4067 37.7384 72.3428 36.7927C71.279 35.8471 70.6683 34.468 70.688 33.0298L70.7471 25.1495C70.7471 22.5884 72.6975 20.4607 75.2192 20.1849L105.125 16.9342C106.544 16.7766 107.982 17.2494 109.046 18.1951C110.109 19.1604 110.72 20.5198 110.7 21.9579L110.641 29.8383C110.641 32.3994 108.691 34.5271 106.15 34.8029L101.855 35.2757L101.54 85.2766C101.54 87.8377 99.5891 89.9654 97.0477 90.2412L84.7347 91.5808C84.5574 91.6006 84.3801 91.6006 84.1831 91.6006L84.1831 91.6006ZM82.3508 29.464C83.5919 29.464 84.7937 29.9171 85.7196 30.7643C86.7835 31.7296 87.3942 33.089 87.3745 34.5271L87.0593 83.3656L93.6197 82.6564L93.9349 32.6556C93.9349 30.0945 95.8656 27.9668 98.4267 27.6909L102.721 27.2181L102.721 25.1298L78.5879 27.7697L78.5879 29.858L81.7991 29.5034C81.9764 29.5034 82.1537 29.4837 82.3508 29.4837L82.3508 29.464Z" id="Shape" fill="#B324AA" fill-rule="evenodd" stroke="none" />
            <path d="M114.914 88.2317C112.984 88.2317 111.191 87.4831 109.812 86.0646C108.531 84.7644 107.645 82.9125 107.054 80.3711L106.936 79.8786L106.936 79.189L107.27 25.3268C107.27 24.3615 107.487 23.337 107.901 22.2732C108.256 21.3275 108.748 20.4213 109.359 19.5742C109.93 18.7861 110.561 18.0966 111.27 17.4859C112.334 16.5402 113.594 15.9689 114.914 15.831L139.068 13.1911C140.526 13.0335 141.865 13.2699 143.028 13.9003C144.052 14.4519 144.899 15.24 145.549 16.2053C146.042 16.954 146.416 17.7814 146.692 18.6679L146.692 18.7073C146.889 19.3575 147.047 19.9879 147.165 20.6183L147.244 21.0517L147.244 21.6231L146.909 74.5987C146.909 75.2489 146.83 75.9975 146.672 76.9825C146.515 77.9479 146.278 78.8935 145.983 79.8195C145.628 80.9424 145.116 81.9669 144.485 82.8731C143.422 84.3704 141.924 85.2963 140.23 85.4736L115.722 88.1332C115.446 88.153 115.17 88.1726 114.914 88.1726L114.914 88.2317ZM114.836 78.9525C115.013 79.6421 115.191 80.0558 115.309 80.2922L138.339 77.7902C138.378 77.6917 138.418 77.5735 138.457 77.475C138.635 76.9036 138.773 76.352 138.871 75.7807C139.009 74.9729 139.009 74.638 139.009 74.5986L139.344 21.8003C139.304 21.623 139.245 21.4063 139.186 21.1699L116.254 23.6719C116.077 23.8492 115.9 24.0659 115.742 24.2826C115.545 24.5387 115.407 24.8145 115.289 25.11C115.191 25.3464 115.171 25.4647 115.171 25.4647L114.836 78.9722L114.836 78.9525ZM126.065 78.5783C125.119 78.5783 124.173 78.2827 123.385 77.7508C122.341 77.0416 121.632 75.8989 121.415 74.6578L121.277 73.4954L121.533 31.4144C121.533 29.2079 121.79 27.5924 122.321 26.3512C122.873 25.051 124.154 23.3961 127.188 22.7854C128.409 22.549 129.65 22.7854 130.714 23.4749C131.758 24.1644 132.467 25.2283 132.724 26.4694L132.822 26.9817C132.999 27.9273 133.058 28.3804 133.058 28.8138L132.783 73.2787C132.783 73.7909 132.684 74.3032 132.487 74.9336C131.955 76.5491 130.616 77.7508 128.961 78.0857L126.991 78.4994C126.675 78.5585 126.36 78.5979 126.045 78.5979L126.065 78.5783Z" id="Shape" fill="#B324AA" fill-rule="evenodd" stroke="none" />
            <path d="M151.242 84.2521C147.775 84.2521 145.076 82.282 144.071 78.9132L143.953 78.3813L143.5 75.3473L143.835 21.3472C143.835 20.3819 144.052 19.3771 144.465 18.3133C144.84 17.3479 145.332 16.4417 145.943 15.6143C146.514 14.8262 147.145 14.1367 147.854 13.526C148.918 12.5803 150.179 12.009 151.499 11.8711L175.652 9.23118C177.11 9.07357 178.449 9.30999 179.612 9.94042C180.636 10.492 181.483 11.2801 182.133 12.2454C182.606 12.9743 183 13.8018 183.276 14.6883C183.473 15.3976 183.631 16.028 183.749 16.6584L183.828 17.5253L183.67 43.4122C183.67 45.3429 182.429 47.116 180.616 47.7858L180.163 47.9631L167.318 49.4013C166.865 49.4998 166.392 49.5392 165.939 49.4801L165.9 54.7205L178.39 53.3612C179.71 53.2233 181.05 53.6567 182.055 54.5432C183.04 55.4494 183.611 56.73 183.611 58.0697L183.532 70.6585C183.532 71.3481 183.453 72.1361 183.296 73.1211C183.138 74.0668 182.921 75.0321 182.606 75.9581C182.232 77.1007 181.759 78.1055 181.148 78.9526C180.124 80.4302 178.646 81.3364 176.991 81.5334L152.346 84.2127C151.991 84.2521 151.636 84.2718 151.302 84.2718L151.242 84.2521ZM151.4 75.0715L151.617 76.3127L174.943 73.7713C174.943 73.7713 175.002 73.6137 175.041 73.5152C175.219 72.9636 175.357 72.3922 175.435 71.8406C175.554 71.0723 175.573 70.698 175.573 70.5798L175.632 61.5764L169.407 62.2463L169.368 69.2795C169.348 72.0376 167.654 73.5152 166.078 73.9683L165.782 74.0471L163.576 74.5002C162.315 74.7563 161.014 74.5002 159.97 73.7713C158.926 73.0621 158.217 71.9194 158 70.6783L157.862 69.5159L158.118 27.4348C158.118 25.2283 158.374 23.6129 158.906 22.3717C159.458 21.0911 160.739 19.4166 163.773 18.8058C164.994 18.5694 166.235 18.8058 167.299 19.4954C168.343 20.1849 169.052 21.2487 169.308 22.4899L169.407 22.9627C169.604 23.9675 169.663 24.4009 169.663 24.8343L169.545 41.186L175.77 40.4965L175.908 17.8208C175.869 17.6435 175.81 17.4268 175.751 17.1904L152.819 19.6924C152.642 19.8697 152.464 20.0864 152.307 20.3031C152.11 20.5592 151.952 20.835 151.853 21.1502C151.775 21.3867 151.755 21.5049 151.755 21.5049L151.42 75.1307L151.4 75.0715ZM177.949 17.0524C177.949 17.0524 177.949 17.0524 178.035 17.0524L176.064 13.1319L177.949 17.0524L177.949 17.0524Z" id="Shape" fill="#B324AA" fill-rule="evenodd" stroke="none" />
            <path d="M185.307 80.5682C184.007 80.5682 182.766 80.0954 181.781 79.2088C180.677 78.2041 180.047 76.7856 180.047 75.2883L180.441 13.3685C180.441 10.7089 182.47 8.48266 185.11 8.18714L196.871 6.90658C197.994 6.78838 199.117 7.02479 200.063 7.57642C200.851 6.84748 201.895 6.35496 203.038 6.21705L214.583 4.9562C216.08 4.79859 217.557 5.27141 218.661 6.27616C219.764 7.2809 220.394 8.69937 220.394 10.1966L220.394 10.1966L220 72.1362C220 74.7958 217.971 77.022 215.311 77.3175L203.767 78.5784C202.644 78.6966 201.521 78.4602 200.575 77.8889C199.787 78.6178 198.743 79.1103 197.6 79.2482L185.839 80.5288C185.662 80.5485 185.465 80.5682 185.268 80.5682L185.307 80.5682ZM188.339 15.7917L187.984 72.3727L194.407 71.6634L194.505 55.8042C194.525 53.1446 196.535 50.9184 199.174 50.6229L200.199 50.5047C201.676 50.3471 203.154 50.8199 204.277 51.8246C205.38 52.8294 206.011 54.2478 206.011 55.7451L205.912 70.4026L212.138 69.7327L212.492 13.1715L206.267 13.8413L206.089 41.4029C206.089 44.0625 204.06 46.2887 201.42 46.5842L200.396 46.7024C198.899 46.86 197.421 46.3872 196.318 45.3825C195.215 44.3777 194.584 42.9593 194.584 41.462L194.742 15.1219L188.319 15.8311L188.339 15.7917Z" id="Shape" fill="#B324AA" fill-rule="evenodd" stroke="none" />
            <path d="M222.268 76.549C220.889 76.549 219.529 76.0368 218.485 75.0912C217.303 74.0273 216.614 72.4907 216.633 70.8752L216.673 64.433C216.673 62.0098 218.249 59.9215 220.455 59.1532L220.692 21.5048C220.022 21.2684 219.391 20.8941 218.84 20.4015C217.658 19.3377 216.968 17.801 216.988 16.1856L217.027 9.74337C217.027 6.88674 219.214 4.50293 222.051 4.18772L240.806 2.13883C242.382 1.96152 243.998 2.49344 245.199 3.55729C246.382 4.64083 247.071 6.1578 247.051 7.77327L247.012 14.2155C247.012 16.6387 245.436 18.727 243.229 19.4953L242.993 57.1437C243.663 57.3801 244.293 57.7741 244.845 58.2666C246.027 59.3502 246.716 60.8868 246.697 62.4826L246.657 68.9248C246.657 71.7814 244.471 74.1849 241.634 74.4804L222.898 76.5293C222.701 76.549 222.484 76.5687 222.287 76.5687L222.268 76.549ZM224.57 66.3637L224.57 68.3929L238.755 66.8562L238.755 64.3936C238.105 64.1572 237.474 63.7828 236.923 63.2903C235.721 62.2068 235.051 60.6898 235.071 59.0743L235.327 17.5843C235.327 15.1611 236.903 13.0728 239.11 12.3045L239.11 10.2753L224.925 11.8119L224.925 14.2745C225.575 14.511 226.205 14.8853 226.757 15.3778C227.939 16.4613 228.629 17.9783 228.609 19.5938L228.353 61.0838C228.353 63.507 226.797 65.5953 224.57 66.3637L224.57 66.3637Z" id="Shape" fill="#B324AA" fill-rule="evenodd" stroke="none" />
            <path d="M248.271 45.993C247.109 45.993 245.986 45.5596 245.119 44.7716C244.134 43.8654 243.563 42.5848 243.583 41.2451L243.799 6.05937C243.799 3.67556 245.612 1.68577 247.996 1.40996L247.996 1.40996L260.703 0.0308954C262.023 -0.126712 263.362 0.326408 264.367 1.21295C265.352 2.11919 265.923 3.39975 265.904 4.7394L265.687 39.9252C265.667 42.309 263.855 44.2988 261.491 44.5746L248.784 45.9536C248.606 45.9536 248.449 45.9733 248.271 45.9733L248.271 45.993ZM251.677 8.97511L251.5 37.7384L257.785 37.0489L257.962 8.28558L251.677 8.97511L251.677 8.97511Z" id="Shape" fill="#B324AA" fill-rule="evenodd" stroke="none" />
            <path d="M250.814 59.8427C247.406 59.8427 244.806 57.9515 243.781 54.622C243.643 54.1492 243.564 53.6764 243.564 53.2233L243.564 49.3816C243.604 48.8694 243.663 48.4359 243.801 48.0222C244.845 44.614 247.505 42.4272 251.09 42.0529L257.099 41.4027C258.931 41.2057 260.606 41.4618 262.083 42.1908L262.083 42.1908C264.25 43.2743 265.472 45.3429 265.472 47.8646L265.472 51.8442C265.432 54.2674 264.388 56.2966 262.497 57.5575C261.197 58.4243 259.68 58.9562 258.025 59.1335L251.878 59.8034C251.524 59.8428 251.169 59.8624 250.814 59.8624L250.814 59.8427ZM251.485 50.0121L251.485 51.8837L257.158 51.2729C257.296 51.2729 257.415 51.2335 257.533 51.2138L257.533 49.2831L251.918 49.8939C251.603 49.9333 251.485 49.9924 251.465 49.9924L251.465 49.9924L251.485 50.0121Z" id="Shape" fill="#B324AA" fill-rule="evenodd" stroke="none" />
          </g>
          <g id="Group" transform="translate(6.6796875 42.98419)">
            <path d="M29.6502 26.4024L29.5911 34.5585C29.5911 34.6964 29.5714 34.8343 29.532 34.9525L17.1401 78.2945C16.8446 79.3189 17.6917 80.304 18.7359 80.2055L27.621 79.2401C28.5075 79.1416 29.2956 79.8508 29.2759 80.7374L29.2365 87.9085C29.2365 88.6768 28.6651 89.3073 27.8968 89.3861L1.65523 92.2427C0.768694 92.3412 -0.0193406 91.632 0.000360734 90.7454L0.0594647 82.4514C0.0594647 82.3134 0.079166 82.1755 0.118569 82.0376L12.5695 38.6957C12.865 37.6713 12.0179 36.6665 10.9737 36.7847L2.00985 37.7698C1.12331 37.8683 0.335276 37.159 0.354977 36.2725L0.39438 29.2393C0.39438 28.471 0.965707 27.8405 1.73404 27.7617L27.9756 24.9051C28.8621 24.8066 29.6502 25.5158 29.6305 26.4024L29.6502 26.4024Z" id="Shape" fill="#FFFFFF" fill-rule="evenodd" stroke="none" />
            <path d="M65.9982 25.1611C66.1361 25.9098 66.1952 26.6387 66.1952 27.3085L65.8406 84.5002C65.8406 84.9336 65.5057 85.2882 65.0723 85.3473L52.6607 86.7067C52.1485 86.7658 51.7151 86.3718 51.7151 85.8595L51.7939 74.1966C51.7939 73.6844 51.3605 73.2904 50.8482 73.3495L48.957 73.5465C48.5235 73.5859 48.1886 73.9602 48.1886 74.3936L48.1098 86.4506C48.1098 86.884 47.7749 87.2386 47.3415 87.2977L34.7132 88.6768C34.201 88.7359 33.7676 88.3419 33.7676 87.8296L34.1419 29.712C34.1419 29.712 34.1419 29.5938 34.1616 29.515C34.7329 27.3282 35.3633 25.8704 36.0332 25.102C36.7227 24.3337 37.5895 23.8806 38.614 23.7821L62.3339 21.2013C63.0431 21.1224 63.6341 21.2801 64.0872 21.6544C64.5601 22.0287 64.9541 22.5409 65.2693 23.1516C65.6042 23.7624 65.8209 24.4519 65.9588 25.2005L65.9982 25.1611ZM51.8707 61.4305L52.048 31.8003C52.048 31.3275 51.9101 31.0517 51.6343 30.9729L49.4278 30.8941C48.9944 30.8941 48.6201 31.1896 48.561 31.623L48.4625 32.2141C48.4625 32.2141 48.4625 32.2929 48.4625 32.3323L48.2852 60.8591C48.2852 61.3714 48.7186 61.7654 49.2308 61.7063L51.8707 61.4108" id="Shape" fill="#FFFFFF" fill-rule="evenodd" stroke="none" />
            <path d="M102.798 17.9507L102.739 25.831C102.739 26.3827 102.325 26.8358 101.774 26.8949L94.918 27.6435C94.3663 27.7026 93.9526 28.1558 93.9526 28.7074L93.6177 81.2693C93.6177 81.8209 93.204 82.2741 92.6524 82.3332L80.3393 83.6728C79.6892 83.7516 79.1376 83.2394 79.1376 82.5893L79.4725 30.5199C79.4725 29.8697 78.9209 29.3772 78.2707 29.4363L71.8482 30.1455C71.1981 30.2243 70.6465 29.7121 70.6465 29.062L70.7056 21.1816C70.7056 20.63 71.1193 20.1769 71.6709 20.1178L101.577 16.8671C102.227 16.7883 102.779 17.3006 102.779 17.9507L102.798 17.9507Z" id="Shape" fill="#FFFFFF" fill-rule="evenodd" stroke="none" />
            <path d="M138.99 15.8623C139.147 16.3746 139.265 16.8868 139.364 17.3793C139.364 17.4187 139.364 17.4778 139.364 17.5172L139.029 70.6308C139.029 71.0642 138.97 71.6552 138.832 72.4236C138.714 73.1919 138.537 73.9405 138.28 74.6892C138.044 75.4378 137.729 76.0879 137.315 76.679C136.921 77.2503 136.429 77.5655 135.857 77.6246L111.349 80.2842C110.305 80.4024 109.419 80.0675 108.67 79.3189C107.941 78.5703 107.35 77.3094 106.956 75.5166C106.956 75.4575 106.936 75.3984 106.956 75.3393L107.291 21.3786C107.291 20.9058 107.409 20.3345 107.646 19.7237C107.882 19.0933 108.197 18.5023 108.611 17.9507C109.005 17.399 109.458 16.9262 109.931 16.5125C110.404 16.0988 110.896 15.8624 111.408 15.8033L135.562 13.1633C136.212 13.0845 136.763 13.1633 137.217 13.4195C137.67 13.6559 138.024 13.9908 138.3 14.4242C138.576 14.8576 138.793 15.3304 138.97 15.8624L138.99 15.8623ZM124.923 69.2714L125.199 24.8263C125.199 24.6884 125.14 24.314 125.022 23.723C124.983 23.5457 124.963 23.3881 124.923 23.2502C124.845 22.8562 124.451 22.5804 124.057 22.6592C122.973 22.8759 122.323 23.2896 122.067 23.9003C121.752 24.6293 121.594 25.8113 121.594 27.4465L121.338 69.5079C121.338 69.5079 121.338 69.5867 121.338 69.6458L121.397 70.0201C121.476 70.4338 121.87 70.7096 122.284 70.6308L124.254 70.2171C124.51 70.158 124.726 69.9807 124.805 69.7443L124.805 69.7443C124.884 69.5079 124.904 69.3503 124.904 69.2517" id="Shape" fill="#FFFFFF" fill-rule="evenodd" stroke="none" />
            <path d="M172.145 9.18377C172.795 9.10496 173.347 9.18377 173.8 9.43988C174.253 9.67629 174.608 10.0112 174.883 10.4446C175.159 10.878 175.376 11.3509 175.553 11.8828C175.711 12.395 175.829 12.9072 175.927 13.3998C175.927 13.4392 175.927 13.4983 175.927 13.5377L175.77 39.3852C175.77 39.7004 175.573 39.9762 175.277 40.0747L162.629 41.4932C162.137 41.6705 161.625 41.3159 161.625 40.784L161.763 20.8467C161.763 20.7088 161.703 20.3345 161.585 19.7434C161.546 19.5661 161.526 19.4085 161.487 19.2706C161.408 18.8766 161.014 18.6008 160.62 18.6796C159.536 18.8963 158.886 19.31 158.63 19.9207C158.315 20.6497 158.157 21.8317 158.157 23.4669L157.901 65.5283C157.901 65.5283 157.901 65.6071 157.901 65.6662L157.96 66.0405C158.039 66.4542 158.433 66.73 158.847 66.6512L161.053 66.1981C161.329 66.1193 161.487 65.8238 161.487 65.2919L161.546 55.402C161.546 55.0277 161.841 54.7125 162.216 54.6534L174.844 53.2743C175.297 53.2349 175.671 53.5698 175.671 54.023L175.593 66.6315C175.593 67.1043 175.533 67.7348 175.396 68.4834C175.277 69.2517 175.1 70.0004 174.844 70.749C174.608 71.4976 174.292 72.1478 173.918 72.6994C173.544 73.251 173.091 73.5465 172.578 73.6056L147.933 76.2849C145.825 76.5214 144.505 75.6939 143.933 73.8026C143.933 73.7632 143.933 73.7435 143.914 73.7041L143.52 71.4779C143.52 71.4779 143.52 71.3794 143.52 71.34L143.854 17.3596C143.854 16.8868 143.973 16.3155 144.209 15.7047C144.445 15.0743 144.761 14.4833 145.174 13.9317C145.588 13.38 146.022 12.9072 146.494 12.4935C146.967 12.0798 147.46 11.8434 147.972 11.7843L172.125 9.14435L172.145 9.18377Z" id="Shape" fill="#FFFFFF" fill-rule="evenodd" stroke="none" />
            <path d="M212.533 6.2286L212.139 68.1485C212.139 68.7986 211.647 69.3502 210.997 69.429L199.452 70.6899C198.684 70.7687 198.014 70.1776 198.034 69.4093L198.152 51.777C198.152 51.0087 197.482 50.398 196.733 50.4965L195.709 50.6147C195.059 50.6935 194.566 51.2254 194.566 51.8952L194.448 70.1185C194.448 70.7687 193.955 71.3203 193.305 71.3991L181.544 72.6797C180.776 72.7585 180.106 72.1674 180.125 71.3991L180.519 9.47924C180.519 8.82911 181.012 8.27749 181.662 8.19868L193.424 6.91812C194.192 6.83932 194.862 7.43034 194.842 8.19868L194.665 37.5333C194.665 38.3016 195.335 38.9123 196.083 38.8138L197.108 38.6956C197.758 38.6168 198.25 38.0849 198.25 37.4151L198.447 7.48945C198.447 6.83932 198.94 6.2877 199.59 6.20889L211.135 4.94804C211.903 4.86923 212.573 5.46026 212.553 6.2286L212.533 6.2286Z" id="Shape" fill="#FFFFFF" fill-rule="evenodd" stroke="none" />
            <path d="M239.151 3.7857L239.111 10.2279C239.111 11.075 238.461 11.7843 237.614 11.8828L236.846 11.9616C235.999 12.0601 235.349 12.7693 235.349 13.6164L235.092 55.1065C235.092 56.1112 235.959 56.8993 236.944 56.7811L236.944 56.7811C237.949 56.6628 238.816 57.4509 238.796 58.4556L238.757 64.8978C238.757 65.7449 238.107 66.4542 237.26 66.5527L218.524 68.6016C217.519 68.7198 216.653 67.9318 216.672 66.927L216.712 60.4848C216.712 59.6377 217.362 58.9285 218.209 58.8299L218.977 58.7511C219.824 58.6526 220.474 57.9434 220.474 57.0963L220.731 15.6062C220.731 14.6015 219.864 13.8134 218.879 13.9317L218.879 13.9317C217.874 14.0499 217.007 13.2618 217.027 12.2571L217.066 5.81489C217.066 4.96776 217.716 4.25852 218.563 4.16002L237.299 2.11113C238.304 1.99292 239.171 2.78096 239.151 3.7857L239.151 3.7857Z" id="Shape" fill="#FFFFFF" fill-rule="evenodd" stroke="none" />
            <path d="M244.488 1.38221L257.195 0.00314891C257.648 -0.0362538 258.023 0.298661 258.023 0.751781L257.806 35.9572C257.806 36.3316 257.51 36.6468 257.136 36.7059L244.429 38.0849C243.976 38.1243 243.602 37.7894 243.602 37.3363L243.818 2.13084C243.818 1.75653 244.114 1.44131 244.488 1.38221L244.488 1.38221Z" id="Shape" fill="#FFFFFF" fill-rule="evenodd" stroke="none" />
            <path d="M256.407 41.7493C257.195 42.1433 257.609 42.8525 257.589 43.8572L257.589 47.8368C257.55 48.9401 257.156 49.7675 256.388 50.2797C255.6 50.792 254.693 51.1072 253.669 51.2254L247.522 51.8952C245.493 52.1119 244.193 51.3042 243.621 49.472C243.602 49.3932 243.582 49.3144 243.582 49.2356L243.582 45.4136C243.582 45.4136 243.621 45.256 243.641 45.1969C244.232 43.2859 245.552 42.2024 247.581 41.9857L253.59 41.3355C254.674 41.2173 255.619 41.3552 256.407 41.7493L256.407 41.7493Z" id="Shape" fill="#FFFFFF" fill-rule="evenodd" stroke="none" />
          </g>
          <g id="Group" transform="translate(2.7773438 39.541748)">
            <path d="M4.37412 97.9901C3.31027 97.9901 2.24643 97.5961 1.43869 96.8671C0.512753 96.0397 -0.0191715 94.8379 0.000529828 93.5968L0.0596338 85.3027C0.0596338 84.889 0.118738 84.4753 0.236942 84.101L12.1166 42.7291L5.18186 43.4777C3.94071 43.6157 2.69955 43.2019 1.77361 42.3745C0.847672 41.5471 0.335449 40.3453 0.335449 39.1041L0.374851 32.0906C0.374851 29.8644 2.06913 28.0125 4.27562 27.7761L30.5172 24.9195C31.778 24.8013 32.9995 25.1953 33.9254 26.0228C34.8514 26.8502 35.3636 28.052 35.3636 29.2931L35.3045 37.4493C35.3045 37.863 35.2454 38.2373 35.1469 38.6116L23.3067 80.0032L30.1626 79.2545C31.384 79.1166 32.6252 79.5303 33.5708 80.3578C34.4968 81.1852 35.0287 82.387 35.009 83.6281L34.9696 90.7993C34.9696 93.0255 33.2753 94.8773 31.0688 95.1138L4.82725 97.9704C4.66964 97.9704 4.51203 97.9901 4.35443 97.9901L4.37412 97.9901ZM5.79136 85.5194L5.75195 92.0798L29.2354 89.5187L29.2354 85.1057L21.9067 85.9135C20.4685 86.0711 19.0303 85.4997 18.0847 84.3768C17.1391 83.2538 16.8238 81.7566 17.2179 80.3578L29.5506 37.1932L29.59 30.7707L6.10657 33.3318L6.10657 37.5872L13.5141 36.7795C14.972 36.6218 16.3904 37.1932 17.3361 38.3161C18.2817 39.4391 18.5969 40.9363 18.1832 42.3351L5.77166 85.4997L5.79136 85.5194Z" id="Shape" fill="#FFFFFF" fill-rule="evenodd" stroke="none" />
            <path d="M37.4741 94.3849C36.5678 94.3849 35.6616 94.05 34.9721 93.4195C34.184 92.7103 33.7309 91.6859 33.7506 90.622L34.1249 32.1498L34.2234 31.6179C34.9327 28.8992 35.7404 27.1261 36.7254 26.0031C37.8878 24.7029 39.4245 23.9148 41.1581 23.7178L64.878 21.137C66.3556 20.9794 67.6952 21.3537 68.7591 22.2206C69.5077 22.8313 70.1578 23.639 70.6701 24.5847C71.1429 25.4515 71.4581 26.4366 71.6551 27.4807C71.8127 28.4067 71.9112 29.2932 71.8915 30.1403L71.5369 87.332C71.5369 89.2233 70.0987 90.819 68.2075 91.0161L55.7959 92.3754C54.8109 92.4739 53.7864 92.1784 53.0181 91.548C52.4271 92.3163 51.5208 92.8483 50.4767 92.9665L37.8484 94.3455C37.7105 94.3455 37.5726 94.3652 37.4347 94.3652L37.4741 94.3849ZM39.837 32.8196L39.4824 88.4155L48.072 87.4895L48.1311 77.2254C48.1311 75.3341 49.5693 73.758 51.4606 73.5413L53.3518 73.3443C54.396 73.2261 55.4598 73.561 56.2479 74.2702C57.0359 74.9795 57.489 76.0039 57.489 77.0678L57.4299 86.4848L65.8028 85.5785L66.1574 30.1797C66.1574 29.6871 66.0983 29.1355 65.9998 28.5642L65.9998 28.5642C65.921 28.0914 65.7831 27.6776 65.6058 27.3427C65.527 27.1851 65.4285 27.0275 65.33 26.929L41.7677 29.4901C41.4328 29.5295 41.2358 29.628 41.0191 29.8644C40.96 29.9235 40.4872 30.5146 39.837 32.8393L39.837 32.8196ZM51.9526 67.4538C51.0267 67.4538 50.1401 67.1189 49.4506 66.4885C48.6625 65.7792 48.2094 64.7745 48.2291 63.7106L48.5443 34.0214C48.8399 32.1695 50.475 30.8496 52.3663 30.889L55.1244 31.0466C56.3459 31.3224 57.7644 32.4454 57.7644 34.6716L57.5674 66.8628L52.386 67.4341C52.2481 67.4341 52.1299 67.4538 51.992 67.4538L51.9526 67.4538Z" id="Shape" fill="#FFFFFF" fill-rule="evenodd" stroke="none" />
            <path d="M83.0978 89.4202C82.1128 89.4202 81.1869 89.0656 80.4579 88.3958C79.6305 87.6471 79.138 86.5636 79.1577 85.4406L79.4729 35.3807L75.0402 35.8535C73.8975 35.9717 72.7943 35.6171 71.9668 34.8685C71.1394 34.1198 70.6469 33.0363 70.6666 31.9133L70.7257 24.033C70.7257 22.0235 72.2624 20.3489 74.2521 20.1322L104.158 16.8816C105.281 16.7634 106.404 17.118 107.231 17.8666C108.059 18.6153 108.551 19.6988 108.532 20.8217L108.473 28.7021C108.473 30.7116 106.936 32.3862 104.946 32.6029L99.686 33.1742L99.3708 84.1404C99.3708 86.1499 97.8341 87.8244 95.8443 88.0412L83.5313 89.3808C83.3934 89.3808 83.2554 89.4005 83.0978 89.4005L83.0978 89.4202ZM81.2642 29.4508C82.2493 29.4508 83.1752 29.8054 83.9041 30.4752C84.7316 31.2238 85.2241 32.3074 85.2044 33.4303L84.8892 83.4903L93.6167 82.5446L93.9319 31.5784C93.9319 29.569 95.4686 27.8944 97.4584 27.6777L102.718 27.1063L102.718 22.851L76.4375 25.7273L76.4375 29.9827L80.8308 29.5098C80.9687 29.5098 81.1066 29.4901 81.2642 29.4901L81.2642 29.4508Z" id="Shape" fill="#FFFFFF" fill-rule="evenodd" stroke="none" />
            <path d="M113.811 86.0514C112.176 86.0514 110.698 85.421 109.497 84.1995C108.374 83.0569 107.566 81.3626 107.034 79.0379L106.936 78.2105L107.27 24.23C107.27 23.4026 107.448 22.5358 107.822 21.5704C108.157 20.7036 108.61 19.8762 109.162 19.1275C109.694 18.4183 110.265 17.7682 110.915 17.2165C111.821 16.4088 112.866 15.9557 113.988 15.8178L138.142 13.1975C139.403 13.0596 140.506 13.2566 141.471 13.7689C142.338 14.2417 143.067 14.8918 143.599 15.739C144.032 16.3891 144.367 17.118 144.604 17.9061L144.604 17.9061C144.781 18.5365 144.939 19.1472 145.037 19.7382L145.096 20.3884L144.761 73.502C144.761 74.0733 144.682 74.7825 144.545 75.7281C144.387 76.6344 144.19 77.5406 143.894 78.4075C143.559 79.4319 143.106 80.3578 142.535 81.1656C141.412 82.7614 140.013 83.2145 139.048 83.313L114.54 85.9726C114.304 85.9923 114.048 86.012 113.831 86.012L113.811 86.0514ZM112.668 77.9741C113.062 79.5896 113.495 80.0821 113.574 80.1806C113.732 80.3382 113.752 80.3185 113.889 80.3185L137.944 77.6983C138.121 77.4028 138.279 77.0679 138.397 76.6935C138.594 76.0828 138.752 75.4524 138.85 74.8417C138.988 74.0339 139.008 73.6596 139.008 73.502L139.343 20.5854C139.284 20.2899 139.185 19.9353 139.087 19.5807C139.008 19.3049 138.89 19.0685 138.772 18.8715L114.599 21.5311C114.382 21.8266 114.067 22.1418 113.791 22.5161C113.535 22.851 113.338 23.2254 113.2 23.5997C113.023 24.0528 113.023 24.2498 113.023 24.2498L112.688 77.9544L112.668 77.9741ZM124.979 76.4177C124.25 76.4177 123.541 76.201 122.93 75.7873C122.122 75.2357 121.571 74.3688 121.413 73.4035L121.295 72.4184L121.551 30.3374C121.551 28.2688 121.787 26.7912 122.26 25.6683C122.694 24.6241 123.777 23.2648 126.338 22.7525C128.289 22.3585 130.2 23.6391 130.594 25.5895L130.692 26.082C130.87 27.0473 130.909 27.4019 130.909 27.7172L130.633 72.1623C130.633 72.4382 130.594 72.714 130.535 73.0095L130.535 73.1868L130.338 73.6596C129.904 74.8023 128.899 75.6691 127.678 75.9252L125.708 76.3389C125.472 76.398 125.215 76.4177 124.979 76.4177L124.979 76.4177Z" id="Shape" fill="#FFFFFF" fill-rule="evenodd" stroke="none" />
            <path d="M150.159 82.0916C147.164 82.0916 144.918 80.4367 144.052 77.521L143.953 77.127L143.5 74.231L143.835 20.2308C143.835 19.4034 144.012 18.5366 144.387 17.5712C144.721 16.7044 145.175 15.877 145.726 15.1283C146.238 14.4388 146.81 13.7887 147.46 13.237C148.386 12.4293 149.41 11.9565 150.533 11.8383L174.667 9.21805C175.908 9.08015 177.031 9.27715 177.996 9.78938C178.863 10.2622 179.572 10.9123 180.124 11.7398C180.557 12.4096 180.892 13.1385 181.129 13.9266C181.326 14.5767 181.464 15.1677 181.582 15.7588L181.641 16.074L181.483 42.2958C181.483 43.7931 180.518 45.1525 179.119 45.6647L178.449 45.8223L166.018 47.2211C165.25 47.3984 164.442 47.3196 163.733 47.0044L163.674 55.0029C164.009 54.865 164.363 54.7665 164.738 54.7271L177.366 53.348C178.39 53.2298 179.415 53.5648 180.183 54.2543C180.951 54.9438 181.385 55.9289 181.385 56.9533L181.306 69.5619C181.306 70.1726 181.227 70.9212 181.089 71.8472C180.951 72.7534 180.735 73.64 180.439 74.5265C180.104 75.5509 179.671 76.4572 179.139 77.2452C178.055 78.8016 176.696 79.2547 175.731 79.3729L151.085 82.0522C150.77 82.0916 150.454 82.1113 150.139 82.1113L150.159 82.0916ZM149.744 76.2996C149.744 76.2996 149.941 76.3784 150.493 76.3193L174.587 73.6991C174.745 73.4233 174.863 73.1278 174.981 72.7731C175.178 72.1624 175.316 71.5517 175.415 70.9213C175.533 70.1529 175.572 69.7195 175.572 69.5028L175.631 59.278L167.259 60.1843L167.199 68.1828C167.199 70.3499 165.899 71.4926 164.678 71.8472L164.481 71.8866L162.274 72.3397C161.309 72.5367 160.304 72.3397 159.496 71.7881C158.689 71.2365 158.137 70.3696 157.979 69.4043L157.861 68.4193L158.117 26.3382C158.117 24.2696 158.354 22.792 158.827 21.6888C159.26 20.6446 160.344 19.2852 162.905 18.7533C164.855 18.3593 166.766 19.6399 167.16 21.5902L167.259 22.0631C167.436 22.9693 167.475 23.3633 167.475 23.7179L167.337 41.2714L175.73 40.3258L175.888 16.5862C175.828 16.271 175.73 15.9164 175.631 15.5618C175.553 15.3057 175.454 15.0693 175.316 14.8723L175.316 14.9117L151.143 17.5319C150.907 17.8274 150.611 18.1426 150.355 18.5169C150.099 18.8518 149.902 19.2262 149.764 19.6202C149.587 20.0733 149.587 20.2703 149.587 20.2703L149.252 74.0734L149.587 75.9647C149.666 76.2208 149.744 76.2996 149.744 76.2996L149.744 76.2996L149.744 76.2996Z" id="Shape" fill="#FFFFFF" fill-rule="evenodd" stroke="none" />
            <path d="M184.223 78.4075C183.199 78.4075 182.214 78.0332 181.445 77.3437C180.559 76.5556 180.066 75.413 180.066 74.2309L180.46 12.2913C180.46 10.1636 182.076 8.41027 184.184 8.17386L195.926 6.89331C197.127 6.7554 198.29 7.14942 199.176 7.93745L199.176 7.93745C199.846 6.99181 200.89 6.34168 202.112 6.20378L213.656 4.94292C214.819 4.82472 216.02 5.19903 216.887 5.98707C217.774 6.77511 218.266 7.91776 218.266 9.09981L217.872 71.0197C217.872 73.1474 216.257 74.9007 214.149 75.1372L202.604 76.398C201.422 76.5359 200.24 76.1419 199.373 75.3539L199.373 75.3539C198.703 76.2798 197.659 76.9496 196.438 77.0678L184.676 78.3484C184.519 78.3484 184.381 78.3681 184.223 78.3681L184.223 78.4075ZM186.193 13.7493L185.818 72.4973L194.408 71.5714L194.506 54.7665C194.506 52.6585 196.122 50.8854 198.21 50.649L199.235 50.5308C200.417 50.4126 201.599 50.7869 202.466 51.575C203.352 52.363 203.845 53.5056 203.845 54.6877L203.746 70.5469L212.119 69.6407L212.493 10.8926L204.12 11.7989L203.943 40.3257C203.943 42.4534 202.328 44.2068 200.22 44.4432L199.195 44.5614C198.033 44.6993 196.831 44.3053 195.964 43.5173C195.078 42.7293 194.585 41.5866 194.585 40.4046L194.763 12.843L186.173 13.769L186.193 13.7493Z" id="Shape" fill="#FFFFFF" fill-rule="evenodd" stroke="none" />
            <path d="M221.184 74.3688C220.061 74.3688 218.978 73.9551 218.131 73.2064C217.165 72.3396 216.614 71.0984 216.633 69.7982L216.673 63.356C216.673 61.1495 218.288 59.2779 220.436 58.9036L220.692 19.6003C219.884 19.4427 219.116 19.0684 218.485 18.5168C217.52 17.65 216.968 16.4088 216.988 15.1085L217.027 8.66635C217.027 6.36135 218.781 4.43066 221.086 4.17455L239.821 2.12566C241.102 1.98776 242.402 2.40147 243.367 3.26831C244.333 4.13515 244.884 5.37631 244.865 6.67656L244.825 13.1187C244.825 15.3252 243.21 17.1968 241.062 17.5711L240.806 56.8744C241.634 57.032 242.382 57.4063 243.013 57.9777C243.978 58.8445 244.53 60.0856 244.51 61.3859L244.471 67.8281C244.471 70.1331 242.717 72.0638 240.412 72.3199L221.677 74.3688C221.519 74.3688 221.342 74.3885 221.184 74.3885L221.184 74.3688ZM222.404 64.4396L222.404 68.4979L238.736 66.7249L238.736 62.4892C237.948 62.3316 237.18 61.9572 236.55 61.4056C235.584 60.5388 235.033 59.2976 235.052 57.9974L235.308 16.5073C235.308 14.3008 236.924 12.4292 239.071 12.0549L239.071 7.99652L222.739 9.7696L222.739 14.0053C223.527 14.1629 224.296 14.5372 224.926 15.1085C225.891 15.9754 226.423 17.2165 226.423 18.5168L226.167 60.0069C226.167 62.2133 224.552 64.0849 222.404 64.4592L222.404 64.4396Z" id="Shape" fill="#FFFFFF" fill-rule="evenodd" stroke="none" />
            <path d="M247.187 43.8127C246.301 43.8127 245.434 43.4778 244.784 42.8868C244.015 42.1973 243.582 41.2122 243.582 40.1681L243.799 4.96258C243.799 3.1304 245.198 1.59373 247.01 1.39672L247.01 1.39672L259.717 0.0176572C260.722 -0.0808457 261.766 0.234368 262.534 0.923896C263.303 1.61343 263.736 2.59847 263.736 3.64262L263.519 38.8284C263.519 40.6606 262.121 42.1972 260.308 42.3942L247.601 43.7733C247.463 43.7733 247.345 43.793 247.207 43.793L247.187 43.8127ZM249.531 6.89335L249.334 37.8237L257.786 36.8978L257.983 5.96741L249.531 6.89335L249.531 6.89335Z" id="Shape" fill="#FFFFFF" fill-rule="evenodd" stroke="none" />
            <path d="M249.77 57.6625C246.835 57.6625 244.609 56.047 243.722 53.1904C243.624 52.8555 243.564 52.4812 243.564 52.1068L243.564 48.2652C243.604 47.8514 243.643 47.5165 243.761 47.2013C244.687 44.2068 246.953 42.3549 250.125 42.0003L256.114 41.3502C257.729 41.1728 259.227 41.4093 260.507 42.0397L260.507 42.0397C262.28 42.9262 263.305 44.6402 263.285 46.7482L263.285 50.7278C263.246 52.7964 262.379 54.4906 260.803 55.5348C259.64 56.3031 258.281 56.7759 256.803 56.9335L250.657 57.6034C250.342 57.6428 250.046 57.6625 249.751 57.6625L249.77 57.6625ZM249.395 51.8902C249.395 51.8902 249.592 51.969 250.065 51.8902L256.212 51.2204C256.743 51.1613 257.177 51.0233 257.551 50.8066C257.551 50.7672 257.551 50.7278 257.551 50.6687L257.551 47.0438C257.335 47.0044 257.059 47.0044 256.743 47.0438L250.754 47.6939C249.947 47.7727 249.592 48.0091 249.336 48.6395L249.336 51.7326C249.356 51.8311 249.395 51.8705 249.415 51.8705L249.415 51.8705L249.395 51.8902Z" id="Shape" fill="#FFFFFF" fill-rule="evenodd" stroke="none" />
          </g>
          <g id="Group" transform="translate(3.7050781 40.501892)">
            <path d="M29.6502 26.4024L29.5911 34.5585C29.5911 34.6964 29.5714 34.8343 29.532 34.9525L17.1401 78.2945C16.8446 79.3189 17.6917 80.304 18.7359 80.2055L27.621 79.2401C28.5075 79.1416 29.2956 79.8508 29.2759 80.7374L29.2365 87.9085C29.2365 88.6768 28.6651 89.3073 27.8968 89.3861L1.65523 92.2427C0.768694 92.3412 -0.0193406 91.632 0.000360734 90.7454L0.0594647 82.4514C0.0594647 82.3134 0.079166 82.1755 0.118569 82.0376L12.5695 38.6957C12.865 37.6713 12.0179 36.6665 10.9738 36.7847L2.00985 37.7698C1.12331 37.8683 0.335276 37.159 0.354977 36.2725L0.39438 29.2393C0.39438 28.471 0.965707 27.8405 1.73404 27.7617L27.9756 24.9051C28.8622 24.8066 29.6502 25.5158 29.6305 26.4024L29.6502 26.4024Z" id="Shape" fill="#FF7F00" fill-rule="evenodd" stroke="none" />
            <path d="M65.9982 25.1611C66.1361 25.9098 66.1952 26.6387 66.1952 27.3085L65.8406 84.5002C65.8406 84.9336 65.5057 85.2882 65.0723 85.3473L52.6607 86.7067C52.1485 86.7658 51.7151 86.3718 51.7151 85.8595L51.7939 74.1966C51.7939 73.6844 51.3605 73.2904 50.8482 73.3495L48.957 73.5465C48.5235 73.5859 48.1886 73.9602 48.1886 74.3936L48.1098 86.4506C48.1098 86.884 47.7749 87.2386 47.3415 87.2977L34.7132 88.6768C34.201 88.7359 33.7676 88.3419 33.7676 87.8296L34.1419 29.712C34.1419 29.712 34.1419 29.5938 34.1616 29.515C34.7329 27.3282 35.3633 25.8704 36.0332 25.102C36.7227 24.3337 37.5895 23.8806 38.614 23.7821L62.3339 21.2013C63.0431 21.1224 63.6341 21.2801 64.0872 21.6544C64.5601 22.0287 64.9541 22.5409 65.2693 23.1516C65.6042 23.7624 65.8209 24.4519 65.9588 25.2005L65.9982 25.1611ZM51.8707 61.4305L52.048 31.8003C52.048 31.3275 51.9101 31.0517 51.6343 30.9729L49.4278 30.8941C48.9944 30.8941 48.6201 31.1896 48.561 31.623L48.4625 32.2141C48.4625 32.2141 48.4625 32.2929 48.4625 32.3323L48.2852 60.8591C48.2852 61.3714 48.7186 61.7654 49.2308 61.7063L51.8707 61.4108" id="Shape" fill="#FF7F00" fill-rule="evenodd" stroke="none" />
            <path d="M102.798 17.9507L102.739 25.831C102.739 26.3827 102.325 26.8358 101.774 26.8949L94.918 27.6435C94.3663 27.7026 93.9526 28.1557 93.9526 28.7074L93.6177 81.2693C93.6177 81.8209 93.204 82.2741 92.6524 82.3332L80.3393 83.6728C79.6892 83.7516 79.1376 83.2394 79.1376 82.5893L79.4725 30.5199C79.4725 29.8697 78.9209 29.3772 78.2707 29.4363L71.8482 30.1455C71.1981 30.2243 70.6465 29.7121 70.6465 29.062L70.7056 21.1816C70.7056 20.63 71.1193 20.1769 71.6709 20.1178L101.577 16.8671C102.227 16.7883 102.779 17.3006 102.779 17.9507L102.798 17.9507Z" id="Shape" fill="#FF7F00" fill-rule="evenodd" stroke="none" />
            <path d="M138.99 15.8623C139.147 16.3746 139.265 16.8868 139.364 17.3793C139.364 17.4187 139.364 17.4778 139.364 17.5172L139.029 70.6308C139.029 71.0642 138.97 71.6552 138.832 72.4236C138.714 73.1919 138.537 73.9405 138.28 74.6892C138.044 75.4378 137.729 76.0879 137.315 76.679C136.921 77.2503 136.429 77.5655 135.857 77.6246L111.349 80.2842C110.305 80.4024 109.419 80.0675 108.67 79.3189C107.941 78.5703 107.35 77.3094 106.956 75.5166C106.956 75.4575 106.936 75.3984 106.956 75.3393L107.291 21.3786C107.291 20.9058 107.409 20.3345 107.646 19.7237C107.882 19.0933 108.197 18.5023 108.611 17.9507C109.005 17.399 109.458 16.9262 109.931 16.5125C110.404 16.0988 110.896 15.8624 111.408 15.8033L135.562 13.1633C136.212 13.0845 136.763 13.1633 137.217 13.4195C137.67 13.6559 138.024 13.9908 138.3 14.4242C138.576 14.8576 138.793 15.3304 138.97 15.8624L138.99 15.8623ZM124.923 69.2714L125.199 24.8263C125.199 24.6884 125.14 24.314 125.022 23.723C124.983 23.5457 124.963 23.3881 124.923 23.2502C124.845 22.8562 124.451 22.5804 124.057 22.6592C122.973 22.8759 122.323 23.2896 122.067 23.9003C121.752 24.6293 121.594 25.8113 121.594 27.4465L121.338 69.5079C121.338 69.5079 121.338 69.5867 121.338 69.6458L121.397 70.0201C121.476 70.4338 121.87 70.7096 122.284 70.6308L124.254 70.2171C124.51 70.158 124.726 69.9807 124.805 69.7443L124.805 69.7443C124.884 69.5079 124.904 69.3502 124.904 69.2517" id="Shape" fill="#FF7F00" fill-rule="evenodd" stroke="none" />
            <path d="M172.164 9.18377C172.815 9.10497 173.366 9.18377 173.819 9.43989C174.272 9.6763 174.627 10.0112 174.903 10.4446C175.179 10.878 175.395 11.3509 175.573 11.8828C175.73 12.395 175.849 12.9072 175.947 13.3998C175.947 13.4392 175.947 13.4983 175.947 13.5377L175.789 39.3852C175.789 39.7004 175.592 39.9762 175.297 40.0747L162.649 41.4932C162.156 41.6705 161.644 41.3159 161.644 40.784L161.782 20.8467C161.782 20.7088 161.723 20.3345 161.605 19.7434C161.565 19.5661 161.546 19.4085 161.506 19.2706C161.427 18.8766 161.033 18.6008 160.639 18.6796C159.556 18.8963 158.906 19.31 158.65 19.9207C158.334 20.6497 158.177 21.8317 158.177 23.4669L157.921 65.5283C157.921 65.5283 157.921 65.6071 157.921 65.6662L157.98 66.0405C158.059 66.4542 158.453 66.73 158.866 66.6512L161.073 66.1981C161.349 66.1193 161.506 65.8238 161.506 65.2919L161.565 55.402C161.565 55.0277 161.861 54.7125 162.235 54.6534L174.863 53.2743C175.317 53.2349 175.691 53.5698 175.691 54.023L175.612 66.6315C175.612 67.1043 175.553 67.7348 175.415 68.4834C175.297 69.2517 175.12 70.0004 174.863 70.749C174.627 71.4976 174.312 72.1478 173.938 72.6994C173.563 73.251 173.11 73.5465 172.598 73.6056L147.952 76.2849C145.844 76.5214 144.524 75.6939 143.953 73.8026C143.953 73.7632 143.953 73.7435 143.933 73.7041L143.539 71.4779C143.539 71.4779 143.539 71.3794 143.539 71.34L143.874 17.3596C143.874 16.8868 143.992 16.3155 144.229 15.7047C144.465 15.0743 144.78 14.4833 145.194 13.9317C145.608 13.38 146.041 12.9072 146.514 12.4935C146.987 12.0798 147.479 11.8434 147.991 11.7843L172.145 9.14435L172.164 9.18377Z" id="Shape" fill="#FF7F00" fill-rule="evenodd" stroke="none" />
            <path d="M212.533 6.22858L212.139 68.1484C212.139 68.7986 211.647 69.3502 210.997 69.429L199.452 70.6899C198.684 70.7687 198.014 70.1776 198.034 69.4093L198.152 51.777C198.152 51.0087 197.482 50.398 196.733 50.4965L195.709 50.6147C195.059 50.6935 194.566 51.2254 194.566 51.8952L194.448 70.1185C194.448 70.7687 193.955 71.3203 193.305 71.3991L181.544 72.6796C180.776 72.7585 180.106 72.1674 180.125 71.3991L180.519 9.47924C180.519 8.82911 181.012 8.27748 181.662 8.19868L193.424 6.91812C194.192 6.83932 194.862 7.43035 194.842 8.19868L194.665 37.5333C194.665 38.3016 195.335 38.9123 196.083 38.8138L197.108 38.6956C197.758 38.6168 198.25 38.0849 198.25 37.4151L198.447 7.48945C198.447 6.83932 198.94 6.28769 199.59 6.20889L211.135 4.94804C211.903 4.86923 212.573 5.46026 212.553 6.22859L212.533 6.22858Z" id="Shape" fill="#FF7F00" fill-rule="evenodd" stroke="none" />
            <path d="M239.151 3.7857L239.111 10.2279C239.111 11.075 238.461 11.7843 237.614 11.8828L236.846 11.9616C235.999 12.0601 235.349 12.7693 235.349 13.6164L235.092 55.1065C235.092 56.1112 235.959 56.8993 236.944 56.7811L236.944 56.7811C237.949 56.6629 238.816 57.4509 238.796 58.4556L238.757 64.8978C238.757 65.745 238.107 66.4542 237.26 66.5527L218.524 68.6016C217.519 68.7198 216.653 67.9318 216.672 66.927L216.712 60.4848C216.712 59.6377 217.362 58.9285 218.209 58.83L218.977 58.7512C219.824 58.6526 220.474 57.9434 220.474 57.0963L220.731 15.6062C220.731 14.6015 219.864 13.8134 218.879 13.9317L218.879 13.9317C217.874 14.0499 217.007 13.2618 217.027 12.2571L217.066 5.81489C217.066 4.96776 217.716 4.25852 218.563 4.16002L237.299 2.11113C238.304 1.99292 239.171 2.78096 239.151 3.7857L239.151 3.7857Z" id="Shape" fill="#FF7F00" fill-rule="evenodd" stroke="none" />
            <path d="M244.488 1.38221L257.195 0.00314891C257.648 -0.0362538 258.023 0.298661 258.023 0.751781L257.806 35.9573C257.806 36.3316 257.51 36.6468 257.136 36.7059L244.429 38.085C243.976 38.1244 243.602 37.7894 243.602 37.3363L243.818 2.13085C243.818 1.75653 244.114 1.44132 244.488 1.38222L244.488 1.38221Z" id="Shape" fill="#FF7F00" fill-rule="evenodd" stroke="none" />
            <path d="M256.427 41.7493C257.215 42.1433 257.629 42.8525 257.609 43.8572L257.609 47.8368C257.569 48.9401 257.175 49.7675 256.407 50.2797C255.619 50.792 254.713 51.1072 253.688 51.2254L247.542 51.8952C245.513 52.1119 244.212 51.3042 243.641 49.472C243.621 49.3932 243.602 49.3144 243.602 49.2356L243.602 45.4136C243.602 45.4136 243.641 45.256 243.661 45.1969C244.252 43.2859 245.572 42.2024 247.601 41.9857L253.61 41.3355C254.693 41.2173 255.639 41.3552 256.427 41.7493L256.427 41.7493Z" id="Shape" fill="#FF7F00" fill-rule="evenodd" stroke="none" />
          </g>
          <g id="Group" transform="translate(87.333984 98.40588)">
            <path d="M25.0004 50.2373L7.21053 45.2923L3.78258 19.366L3.05364 19.4645L0 18.6567L2.67932 6.44218L38.594 0.334911L38.7319 0.374314L39.717 0L51.5769 13.9679L54.2365 22.7742L50.7495 24.5276L50.5131 24.3306L47.3215 48.9567L24.9807 50.2373L25.0004 50.2373ZM10.9921 42.0022L25.4526 46.0212L43.6365 44.9771L47.3797 16.0168L47.9904 16.5487L47.8328 16.0168L38.1793 4.64935L6.16541 10.1065L5.10156 14.9726L7.38687 14.6574L11.0118 42.0219L10.9921 42.0022Z" id="Shape" fill="#000000" fill-rule="evenodd" stroke="none" />
            <g id="Group" transform="translate(2.4628906 2.4625854)">
              <g id="Group" transform="translate(1.9511719 0.15765381)">
                <path d="M34.6169 0L45.1962 12.3919L41.0788 44.3467L28.9824 39.3032L34.6169 0L34.6169 0Z" id="Polygon" fill="#FFFFFF" fill-rule="evenodd" stroke="none" />
                <path d="M28.9826 39.3033L41.0789 44.3467L20.8067 45.5091L4.69141 41.0173L28.9826 39.3033L28.9826 39.3033Z" id="Polygon" fill="#FF7F00" fill-rule="evenodd" stroke="none" />
                <path d="M34.6144 0L28.98 39.3032L4.68882 41.0172L0 5.63445L34.6144 0L34.6144 0Z" id="Polygon" fill="#B324AA" fill-rule="evenodd" stroke="none" />
              </g>
              <g id="Group">
                <path d="M31.1274 10.3232L31.8169 10.5006L0.709233 14.8742L0 14.6968L31.1274 10.3232L31.1274 10.3232Z" id="Polygon" fill="#050505" fill-rule="evenodd" stroke="none" />
                <path d="M36.0344 0L36.7437 0.177308L31.8184 10.5006L31.1289 10.3233L36.0344 0L36.0344 0Z" id="Polygon" fill="#050505" fill-rule="evenodd" stroke="none" />
                <path d="M1.95038 5.79206L36.0329 0L31.1274 10.3233L0 14.6969L1.95038 5.79206L1.95038 5.79206Z" id="Polygon" fill="#050505" fill-rule="evenodd" stroke="none" />
              </g>
              <g id="Group" transform="translate(35.992188 0)">
                <path d="M0.611328 0L11.2498 12.5298L13.2593 19.2281L3.21184 10.1854L0.611328 0L0.611328 0Z" id="Polygon" fill="#B324AA" fill-rule="evenodd" stroke="none" />
                <path d="M3.21204 10.1853L13.2595 19.228L12.6094 19.5629L2.4043 10.6187L3.21204 10.1853L3.21204 10.1853Z" id="Polygon" fill="#050505" fill-rule="evenodd" stroke="none" />
                <path d="M0.610722 0L3.21124 10.1854L2.40349 10.6188L0 0.236408L0.610722 0L0.610722 0Z" id="Polygon" fill="#050505" fill-rule="evenodd" stroke="none" />
              </g>
            </g>
          </g>
          <g id="Group" transform="translate(134.63477 93.18512)">
            <path d="M36.8406 51.7148C34.4962 51.7148 32.4867 50.3751 31.285 48.0307L28.0737 41.6082L24.8428 48.0307C23.6805 50.3751 21.6316 51.7345 19.2675 51.7345C16.9033 51.7345 14.8939 50.3948 13.6921 48.0504L0.669823 22.0059C0.236401 21.1784 0 20.2328 0 19.228C0 17.5535 0.709233 16.0168 1.98979 14.8544C3.19155 13.7906 4.6297 13.239 6.16638 13.239C8.49109 13.239 10.4218 14.4604 11.4856 16.6078L19.2872 32.1912L21.3163 28.1525L18.1445 21.8088C17.7899 20.9814 17.5929 20.1146 17.5929 19.228C17.5929 17.5732 18.2824 16.0365 19.5236 14.8938C20.7056 13.8103 22.1635 13.239 23.7199 13.239C26.0446 13.239 27.9753 14.4801 29.0391 16.6275L36.8209 32.1912L44.6225 16.5881C45.7257 14.4407 47.6761 13.239 49.9614 13.239C51.5178 13.239 52.9559 13.7906 54.138 14.8544C55.3989 16.0168 56.1081 17.5534 56.1081 19.2083C56.1081 20.1934 55.8717 21.1587 55.3989 22.065L42.4554 47.9913C41.2339 50.3751 39.2047 51.7148 36.8406 51.7148L36.8406 51.7148Z" id="Shape" fill="#050505" fill-rule="evenodd" stroke="none" />
            <path d="M70.5896 51.7148C65.3097 51.7148 60.7391 49.8235 56.996 46.0803C53.2528 42.3372 51.3418 37.7666 51.3418 32.467C51.3418 27.1675 53.2331 22.6166 56.996 18.8734C60.7391 15.1302 65.3097 13.239 70.5896 13.239C75.8694 13.239 80.4203 15.1302 84.1832 18.8734C87.9263 22.6166 89.8373 27.1872 89.8373 32.467C89.8373 37.7469 87.946 42.3372 84.1832 46.0803C80.44 49.8235 75.8694 51.7148 70.5896 51.7148L70.5896 51.7148ZM70.5873 25.2959C68.5581 25.2959 66.9426 25.9657 65.5045 27.4039C64.0663 28.8421 63.3965 30.4575 63.3965 32.467C63.3965 34.4765 64.0663 36.1117 65.5045 37.5498C66.9426 38.988 68.5581 39.6578 70.5873 39.6578C72.6165 39.6578 74.2123 38.988 75.6701 37.5498C77.1083 36.092 77.7781 34.4765 77.7781 32.467C77.7781 30.4575 77.1083 28.8618 75.6701 27.4039C74.232 25.9657 72.6165 25.2959 70.607 25.2959L70.5873 25.2959Z" id="Shape" fill="#050505" fill-rule="evenodd" stroke="none" />
            <path d="M111.625 51.7148C110.01 51.7148 108.532 51.1041 107.37 49.922L100.041 42.613L100.041 45.6666C100.041 49.2719 97.6181 51.6951 94.0128 51.6951C90.4076 51.6951 87.9844 49.2719 87.9844 45.6469L87.9844 6.04817C87.9844 2.4429 90.4076 0 94.0128 0C97.6181 0 100.041 2.42321 100.041 6.04817L100.041 22.3211L107.37 14.9924C109.754 12.648 113.536 12.6677 115.901 15.0121C117.083 16.1744 117.713 17.6717 117.713 19.2872C117.713 20.9026 117.122 22.2817 115.999 23.4638L106.996 32.4473L115.94 41.3915C117.122 42.6327 117.713 44.0709 117.713 45.6272C117.713 47.1836 117.083 48.7203 115.9 49.8826C114.718 51.0647 113.241 51.6754 111.645 51.6754L111.625 51.7148ZM95.7188 32.408L95.7188 34.378L97.6185 33.7214L97.4075 33.0647L97.4075 33.0647L95.6484 32.408L95.7188 32.408Z" id="Shape" fill="#050505" fill-rule="evenodd" stroke="none" />
          </g>
          <g id="Group" transform="translate(135.28516 93.401794)">
            <path d="M35.6586 49.2917C34.5553 49.2917 32.5064 48.8977 31.1668 46.2577L26.8917 37.7076L22.5969 46.2577C21.277 48.8976 19.2084 49.2917 18.0854 49.2917C16.9625 49.2917 14.9333 48.8976 13.5739 46.2577L0.551622 20.2329C0.197006 19.563 0 18.7947 0 17.987C0 16.6473 0.551622 15.4456 1.59577 14.5196C2.5611 13.6725 3.72346 13.2194 4.98432 13.2194C6.83621 13.2194 8.39258 14.2044 9.23972 15.9184L18.1051 33.6492L21.474 26.9312L18.1248 20.2329C17.7899 19.4645 17.6323 18.7356 17.6323 17.987C17.6323 16.6473 18.1642 15.4653 19.169 14.5393C20.1146 13.6725 21.2967 13.2194 22.5575 13.2194C24.4094 13.2194 25.9461 14.2044 26.7932 15.9381L35.6586 33.6689L44.524 15.9184C45.4302 14.1847 46.9472 13.2391 48.7991 13.2391C50.0599 13.2391 51.2223 13.6922 52.1679 14.559C53.1924 15.4849 53.7243 16.6867 53.7243 18.0264C53.7243 18.8341 53.5273 19.6024 53.1333 20.3314L40.1898 46.2774C38.8304 48.937 36.7618 49.3311 35.6586 49.3311L35.6586 49.2917ZM26.8932 34.4963L32.4488 45.6076C33.4536 47.5579 34.8917 47.8535 35.6601 47.8535C36.6254 47.8535 37.9651 47.4594 38.9107 45.5878L51.8739 19.6418C52.1497 19.1099 52.2876 18.5582 52.2876 18.0066C52.2876 17.0807 51.9133 16.2532 51.1844 15.6031C50.4948 14.9924 49.6674 14.6575 48.7808 14.6575C47.4806 14.6575 46.4364 15.3076 45.7863 16.5685L35.6404 36.8801L25.4944 16.5882C24.8837 15.3273 23.8592 14.6772 22.5393 14.6772C21.633 14.6772 20.8056 15.0121 20.1161 15.6228C19.4068 16.2729 19.0325 17.1004 19.0325 18.0263C19.0325 18.5779 19.1507 19.0902 19.4068 19.6615L23.0515 26.9705L18.0672 36.8801L7.90151 16.5882C7.29079 15.347 6.26634 14.6772 4.94638 14.6772C4.05985 14.6772 3.21271 15.0121 2.52317 15.6228C1.79423 16.2729 1.41992 17.1004 1.41992 18.0263C1.41992 18.5779 1.55783 19.1296 1.81393 19.6024L14.8559 45.6273C15.8016 47.4791 17.1412 47.8732 18.0869 47.8732C19.0325 47.8732 20.3919 47.4791 21.3178 45.6273L26.8932 34.516L26.8932 34.4963ZM18.0862 45.45C17.6725 45.45 17.3179 45.1348 17.0027 44.5044L3.90158 18.3219L3.90158 18.0658L3.76367 17.7506L4.15768 17.3566C4.49259 17.0611 4.76841 17.0217 5.00482 17.0217L5.75345 16.9823L5.75345 17.5142C5.75345 17.5142 5.77315 17.5733 5.79284 17.593L18.0862 42.16L25.7498 26.9115L21.5929 18.5977C21.455 18.2628 21.4353 17.987 21.5732 17.6324L21.7702 17.3369C22.0658 17.0611 22.3416 17.0217 22.5583 17.002L22.8538 17.002L23.0705 17.1596C23.1887 17.2581 23.2872 17.396 23.3857 17.593L35.6791 42.1797L47.9527 17.593C48.0709 17.3763 48.2482 17.0217 48.6817 16.9429C49.1151 16.8641 49.45 17.1596 49.6864 17.396L49.8834 17.593L49.9228 18.0658L49.844 18.2628L36.802 44.4453C36.4671 45.0954 36.0928 45.4106 35.6594 45.4106L35.4427 45.3712C35.0683 45.253 34.7925 44.8196 34.6152 44.465L26.9319 29.0983L19.2091 44.465C18.9136 45.0757 18.5393 45.3909 18.1256 45.3909L18.0862 45.45Z" id="Shape" fill="#DD3784" fill-rule="evenodd" stroke="none" />
            <path d="M69.4073 49.2917C64.4624 49.2917 60.1873 47.5186 56.6609 44.0118C53.1344 40.5051 51.3613 36.2103 51.3613 31.2457C51.3613 26.281 53.1541 22.0059 56.6609 18.4992C60.1676 14.9924 64.4624 13.2194 69.4073 13.2194C74.3523 13.2194 78.6273 14.9924 82.1538 18.4992C85.6803 22.0059 87.4534 26.281 87.4534 31.2457C87.4534 36.2103 85.6606 40.5051 82.1538 44.0118C78.6471 47.5186 74.3522 49.2917 69.4073 49.2917L69.4073 49.2917ZM69.4086 14.6575C64.8577 14.6575 60.9175 16.2926 57.6866 19.5236C54.4557 22.7545 52.8008 26.6947 52.8008 31.2456C52.8008 35.7965 54.436 39.7761 57.6866 43.007C60.9175 46.238 64.8577 47.8731 69.4086 47.8731C73.9595 47.8731 77.8997 46.238 81.1306 43.007C84.3616 39.7761 86.0164 35.8162 86.0164 31.2456C86.0164 26.675 84.3813 22.7545 81.1306 19.5236C77.8997 16.2926 73.9398 14.6575 69.4086 14.6575L69.4086 14.6575ZM69.4055 45.4697C65.4653 45.4697 62.1753 44.1103 59.3778 41.3128C56.5605 38.5153 55.2012 35.2055 55.2012 31.2456C55.2012 27.2858 56.5605 24.0154 59.3778 21.2179C62.195 18.4204 65.4653 17.0413 69.4252 17.0413C73.3851 17.0413 76.6554 18.4007 79.4727 21.2179C82.2899 24.0154 83.6492 27.3055 83.6492 31.2456C83.6492 35.1858 82.2899 38.4956 79.4727 41.3128C76.6554 44.1103 73.3851 45.4697 69.4252 45.4697L69.4055 45.4697ZM69.4099 19.0508C66.0607 19.0508 63.145 20.2526 60.7809 22.6364C58.3971 25.0202 57.1953 27.9162 57.1953 31.2457C57.1953 34.5751 58.3971 37.4909 60.7809 39.8747C63.1647 42.2585 66.0607 43.4602 69.4099 43.4602C72.759 43.4602 75.655 42.2585 78.0388 39.8549C80.4227 37.4711 81.6244 34.5554 81.6244 31.226C81.6244 27.8965 80.4227 25.0005 78.0388 22.6167C75.655 20.2329 72.759 19.0311 69.4099 19.0311L69.4099 19.0508ZM69.4067 41.096C66.6683 41.096 64.4027 40.1504 62.472 38.2C60.5414 36.2496 59.5957 33.984 59.5957 31.2456C59.5957 28.5072 60.5414 26.281 62.472 24.3306C64.4224 22.3802 66.688 21.4346 69.4067 21.4346C72.1255 21.4346 74.4107 22.3802 76.3414 24.3306C78.2918 26.281 79.2375 28.5466 79.2375 31.2456C79.2375 33.9446 78.2918 36.2496 76.3611 38.2C74.4305 40.1504 72.1452 41.096 69.4264 41.096L69.4067 41.096ZM69.4082 22.8926C67.0835 22.8926 65.1331 23.7003 63.4782 25.3552C61.8234 27.0101 61.0156 28.9407 61.0156 31.2654C61.0156 33.5902 61.8234 35.5405 63.4782 37.1954C65.1331 38.8503 67.0638 39.658 69.4082 39.658C71.7526 39.658 73.6833 38.8503 75.3382 37.1954C76.993 35.5208 77.8008 33.5902 77.8008 31.2654C77.8008 28.9407 76.993 27.0298 75.3382 25.3552C73.6833 23.7003 71.7526 22.8926 69.4082 22.8926L69.4082 22.8926Z" id="Shape" fill="#DD3784" fill-rule="evenodd" stroke="none" />
            <path d="M110.463 49.2916C109.182 49.2916 108 48.7991 107.054 47.8534L97.6964 38.4955L97.6964 44.4452C97.6964 47.3806 95.8051 49.2916 92.8697 49.2916C89.9343 49.2916 88.043 47.4003 88.043 44.4452L88.043 4.84641C88.043 1.91098 89.9343 0 92.8697 0C95.8051 0 97.6964 1.89128 97.6964 4.84641L97.6964 23.9957L107.054 14.618C108.965 12.7268 111.98 12.7268 113.891 14.618C114.836 15.5637 115.348 16.7457 115.348 18.046C115.348 19.3462 114.856 20.4495 113.95 21.4148L104.119 31.2062L113.91 40.9975C114.856 41.9826 115.348 43.1449 115.348 44.3861C115.348 45.6272 114.836 46.8487 113.89 47.7943C112.945 48.74 111.763 49.2325 110.482 49.2325L110.463 49.2916ZM96.2594 35.0479L108.08 46.8487C109.4 48.1687 111.528 48.1687 112.867 46.8487C113.537 46.1789 113.911 45.3515 113.911 44.4452C113.911 43.539 113.576 42.7707 112.887 42.0614L102.091 31.2653L112.926 20.4693C113.576 19.7994 113.911 18.972 113.911 18.1052C113.911 17.2383 113.557 16.3715 112.887 15.7016C111.547 14.362 109.439 14.362 108.08 15.7016L96.2791 27.5222L96.2791 4.90557C96.2791 2.77787 95.0182 1.49731 92.8905 1.49731C90.7628 1.49731 89.502 2.77787 89.502 4.90557L89.502 44.5043C89.502 46.632 90.7628 47.9126 92.8905 47.9126C95.0182 47.9126 96.2791 46.632 96.2791 44.5043L96.2791 35.107L96.2594 35.0479ZM110.463 45.5287L110.148 45.5287L109.833 45.2135L96.8105 32.211L93.8751 32.3686L93.9145 45.312L93.284 45.4302C93.1264 45.4696 92.693 45.4696 92.5551 45.4499L92.0035 45.4105L91.905 44.8786C91.905 44.8786 91.8656 44.6422 91.8656 44.4452L91.8262 3.99931L92.4566 3.8811C92.4566 3.8811 92.6733 3.8417 92.8703 3.8417L93.0476 3.8417L93.7569 3.7038L93.8357 4.43273C93.8357 4.43273 93.8751 4.66914 93.8751 4.86615L93.8751 30.1424L97.0272 30.1424L109.774 17.3565C109.892 17.2186 110.089 16.9822 110.424 16.9822C110.798 16.9822 111.015 17.1792 111.212 17.3959C111.35 17.5338 111.527 17.7505 111.527 18.1051C111.527 18.3416 111.429 18.578 111.232 18.775L98.7215 31.2456L111.192 43.7163C111.35 43.8739 111.527 44.1103 111.527 44.4452C111.527 44.7801 111.35 44.9968 111.192 45.1545C111.015 45.3318 110.818 45.5485 110.483 45.5485L110.463 45.5287Z" id="Shape" fill="#DD3784" fill-rule="evenodd" stroke="none" />
          </g>
          <g id="Group" transform="translate(135.7207 93.77612)">
            <path d="M34.9296 47.8337C34.0037 47.8337 32.2503 47.4988 31.0683 45.1938L26.1628 35.3631L21.2178 45.1938C20.0752 47.4988 18.3021 47.8337 17.3565 47.8337C16.4108 47.8337 14.6574 47.4988 13.4951 45.1938L0.472817 19.169C0.157596 18.5977 0 17.9278 0 17.258C0 16.135 0.472817 15.1106 1.35937 14.3226C2.1868 13.5936 3.19155 13.1996 4.2554 13.1996C5.85116 13.1996 7.13172 14.027 7.86066 15.5046L17.3762 34.5159L21.5528 26.2022L18.046 19.1887C17.7505 18.5188 17.6126 17.8884 17.6126 17.2777C17.6126 16.1547 18.0657 15.15 18.9326 14.3422C19.7403 13.5936 20.745 13.1996 21.8286 13.1996C23.4244 13.1996 24.7049 14.027 25.4339 15.5046L34.9494 34.5159L44.4649 15.4849C45.2332 14.0073 46.5138 13.1996 48.0899 13.1996C49.1734 13.1996 50.1585 13.5936 50.9859 14.3225C51.8527 15.1106 52.3059 16.135 52.3059 17.258C52.3059 17.9475 52.1285 18.5976 51.8133 19.2281L38.8501 45.1741C37.6681 47.4988 35.895 47.8337 34.9494 47.8337L34.9296 47.8337ZM4.29653 17.0018C4.13892 17.0018 4.04042 17.0215 3.88281 17.1594L3.88281 17.1594L3.88281 17.455L16.8854 43.4601C17.043 43.7753 17.24 44.0117 17.3385 44.0117C17.5158 44.0117 17.7325 43.598 17.7916 43.4798L26.1645 26.8326L34.4783 43.4798C34.6753 43.8738 34.8526 44.0117 34.892 44.0314L34.892 44.0314C35.1087 44.0314 35.3451 43.5586 35.4042 43.4798L48.4462 17.2973L48.4462 17.2973C48.0719 16.9033 48.0128 16.923 47.8355 17.258L34.9117 43.1252L21.9682 17.2382C21.8894 17.0806 21.85 17.0412 21.85 17.0412C21.7121 17.0412 21.6333 17.0609 21.4954 17.1791C21.4166 17.3959 21.4363 17.4747 21.4954 17.5929L25.8099 26.2218L17.3582 43.0661L4.41477 17.2185C4.33597 17.0806 4.29657 17.0412 4.29657 17.0412L4.29653 17.0018Z" id="Shape" fill="#FFFFFF" fill-rule="evenodd" stroke="none" />
            <path d="M68.6979 47.8337C63.95 47.8337 59.8325 46.1198 56.4637 42.7706C53.0948 39.4018 51.3809 35.2646 51.3809 30.5167C51.3809 25.7687 53.0948 21.6513 56.4637 18.2824C59.8325 14.9136 63.95 13.1996 68.6979 13.1996C73.4458 13.1996 77.5633 14.9136 80.9322 18.2824C84.3011 21.6513 86.015 25.7688 86.015 30.5167C86.015 35.2646 84.3011 39.4018 80.9322 42.7706C77.5633 46.1395 73.4459 47.8337 68.698 47.8337L68.6979 47.8337ZM68.6963 17.0215C64.9531 17.0215 61.8404 18.3218 59.1611 20.9814C56.5014 23.641 55.2012 26.7538 55.2012 30.497C55.2012 34.2401 56.5014 37.3923 59.1611 40.0519C61.8207 42.7115 64.9531 44.0118 68.6963 44.0118C72.4394 44.0118 75.5522 42.7115 78.2315 40.0519C80.8911 37.3923 82.1914 34.2598 82.1914 30.497C82.1914 26.7341 80.8911 23.641 78.2315 20.9814C75.5719 18.3218 72.4394 17.0215 68.6963 17.0215L68.6963 17.0215ZM68.6992 43.4405C65.153 43.4405 62.0797 42.1599 59.558 39.6382C57.0362 37.1165 55.7754 34.0432 55.7754 30.497C55.7754 26.9509 57.056 23.9169 59.558 21.3755C62.0797 18.8538 65.153 17.5732 68.6992 17.5732C72.2453 17.5732 75.3187 18.8538 77.8404 21.3755C80.3621 23.8972 81.6426 26.9706 81.6426 30.497C81.6426 34.0235 80.3621 37.1165 77.8601 39.6382C75.3383 42.1599 72.265 43.4405 68.7189 43.4405L68.6992 43.4405ZM68.6975 21.3951C66.1758 21.3951 64.0678 22.2619 62.275 24.0744C60.4822 25.8869 59.5957 27.9752 59.5957 30.4772C59.5957 32.9792 60.4625 35.1069 62.275 36.9194C64.0678 38.7318 66.1758 39.5987 68.6975 39.5987C71.2192 39.5987 73.3272 38.7318 75.12 36.9194C76.9128 35.1069 77.7993 32.9989 77.7993 30.4772C77.7993 27.9555 76.9325 25.8672 75.12 24.0744C73.3272 22.2619 71.2192 21.3951 68.6975 21.3951L68.6975 21.3951Z" id="Shape" fill="#FFFFFF" fill-rule="evenodd" stroke="none" />
            <path d="M109.734 47.8337C108.631 47.8337 107.646 47.4003 106.838 46.6123L96.2389 36.0329L96.2389 43.7162C96.2389 46.2577 94.6628 47.8337 92.1214 47.8337C89.58 47.8337 88.0039 46.2576 88.0039 43.7162L88.0039 4.11748C88.0039 1.57607 89.58 0 92.1214 0C94.6628 0 96.2389 1.57607 96.2389 4.11748L96.2389 25.0004L106.818 14.4013C108.434 12.8056 110.995 12.8056 112.63 14.4013C113.438 15.2091 113.871 16.2138 113.871 17.3171C113.871 18.4203 113.457 19.366 112.669 20.1934L102.346 30.497L112.65 40.8005C113.457 41.6477 113.871 42.6327 113.871 43.6966C113.871 44.7604 113.438 45.8046 112.63 46.6123C111.822 47.42 110.817 47.8534 109.714 47.8534L109.734 47.8337ZM96.3393 30.7334L109.539 43.8936C109.736 44.0906 109.677 44.13 109.933 43.8936C110.051 43.7754 110.051 43.736 110.051 43.6966C110.051 43.6769 110.051 43.6178 109.933 43.4799L96.95 30.497L109.953 17.5338C110.051 17.4156 110.051 17.3762 110.051 17.3368C110.051 17.2974 110.051 17.258 109.933 17.1398C109.637 16.8443 109.716 16.9428 109.519 17.1398L96.5757 30.103L92.4188 30.1424L92.4188 4.13719C92.4188 3.99929 92.4188 3.90078 92.3991 3.84167C92.3597 3.84167 92.2612 3.84167 92.143 3.84167C92.0248 3.84167 91.9263 3.84167 91.8672 3.86137C91.8672 3.90077 91.8672 3.99928 91.8672 4.13718L91.8672 43.7359C91.8672 43.8739 91.8672 43.9724 91.8869 44.0315C91.946 44.0315 92.0248 44.0315 92.143 44.0315C92.2612 44.0315 92.3597 44.0315 92.4188 44.0118C92.4188 43.9724 92.4188 43.8739 92.4188 43.7359L92.4188 30.9698L96.359 30.7728L96.3393 30.7334Z" id="Shape" fill="#FFFFFF" fill-rule="evenodd" stroke="none" />
          </g>
        </g>
      </g>
    </g>
  </g>
</svg>