<svg width="382" height="4231" viewBox="0 0 382 4231" fill="none" xmlns="http://www.w3.org/2000/svg">
<path d="M320 4230.87L320 4122.83L105.699 4122.83L105.699 4049.61L320 4049.61L320 3941.57L7.47759 3941.57L7.4776 4230.87L320 4230.87Z" fill="#EAE9E9"/>
<path d="M326.697 3728.42C326.697 3625.73 259.282 3555.19 163.739 3555.19C68.1963 3555.19 0.780674 3625.73 0.780679 3728.42C0.780683 3830.66 68.1963 3901.2 163.739 3901.2C259.282 3901.2 326.697 3830.66 326.697 3728.42ZM163.739 3792.26C125.343 3792.26 99.0021 3765.92 99.0021 3728.42C99.0021 3690.92 125.343 3664.13 163.739 3664.13C202.135 3664.13 228.476 3690.92 228.476 3728.42C228.476 3765.92 202.135 3792.26 163.739 3792.26Z" fill="#EAE9E9"/>
<path d="M320 3515.4L320 3407.36L248.12 3407.36L248.12 3369.41C248.12 3288.6 201.688 3236.81 128.022 3236.81C54.356 3236.81 7.47756 3288.6 7.47756 3370.3L7.47757 3515.4L320 3515.4ZM163.739 3409.59L94.091 3409.59L94.091 3384.59C94.091 3359.14 107.038 3344.85 128.915 3344.85C150.792 3344.85 163.739 3359.14 163.739 3384.59L163.739 3409.59Z" fill="#EAE9E9"/>
<path d="M320 3128.23L320 3020.19L105.252 3020.19L105.252 2929.56L7.47754 2929.56L7.47756 3218.86L105.252 3218.86L105.252 3128.23L320 3128.23Z" fill="#EAE9E9"/>
<path d="M320 2952.29L320 2839.78L281.158 2825.94L281.158 2734.41L320 2720.57L320 2607.17L7.47753 2723.7L7.47754 2836.21L320 2952.29ZM209.724 2808.08L124.004 2780.84L124.004 2779.06L209.724 2751.38L209.724 2808.08Z" fill="#EAE9E9"/>
<path d="M320 2597.66L320 2551.68C320 2482.92 289.641 2449.88 221.779 2444.97L105.699 2436.94L105.699 2383.81L320 2383.81L320 2276.21L7.47751 2276.21L7.47753 2535.16L195.884 2550.34C216.421 2551.68 224.011 2559.27 224.011 2577.13L224.011 2597.66L320 2597.66Z" fill="#EAE9E9"/>
<path d="M320 2120.65L320 2012.6L105.699 2012.6L105.699 1939.38L320 1939.38L320 1831.34L7.4775 1831.34L7.47751 2120.65L320 2120.65Z" fill="#EAE9E9"/>
<path d="M326.697 1618.19C326.697 1515.51 259.281 1444.97 163.739 1444.97C68.1962 1444.97 0.780582 1515.51 0.780586 1618.19C0.780591 1720.43 68.1962 1790.98 163.739 1790.98C259.281 1790.98 326.697 1720.43 326.697 1618.19ZM163.739 1682.04C125.343 1682.04 99.002 1655.7 99.002 1618.19C99.002 1580.69 125.343 1553.9 163.739 1553.9C202.134 1553.9 228.476 1580.69 228.476 1618.19C228.476 1655.7 202.134 1682.04 163.739 1682.04Z" fill="#EAE9E9"/>
<path d="M320 1405.18L320 1231.06C320 1163.64 279.372 1124.8 220.439 1124.8C161.506 1124.8 121.325 1163.64 121.325 1231.06L121.325 1298.47L88.7334 1298.47L88.7334 1148.91L7.47747 1148.91L7.47748 1405.18L320 1405.18ZM244.102 1299.37L195.884 1299.37L195.884 1262.31C195.884 1242.67 204.367 1232.4 219.993 1232.4C235.619 1232.4 244.102 1242.67 244.102 1262.31L244.102 1299.37Z" fill="#EAE9E9"/>
<path d="M320 1085.16L320 855.675L238.744 855.675L238.744 980.237L201.241 980.237L201.241 871.747L123.557 871.747L123.557 980.237L87.394 980.237L87.394 860.139L7.47745 860.139L7.47746 1085.16L320 1085.16Z" fill="#EAE9E9"/>
<path d="M381.612 828.346L381.612 724.321L320 724.321L320 567.167L381.612 567.167L381.612 463.141L220.439 463.141L220.439 507.787L7.47744 507.787L7.47745 761.824L172.222 774.771C194.545 776.557 209.724 781.914 220.439 793.076L220.439 828.346L381.612 828.346ZM225.797 681.014C213.742 674.317 199.009 670.746 181.597 669.406L103.913 663.156L103.913 614.491L225.797 614.491L225.797 681.014Z" fill="#EAE9E9"/>
<path d="M320 424.184L320 266.137C320 194.703 274.461 145.592 206.599 145.592C138.29 145.592 92.7515 194.703 92.7515 266.137L92.7515 316.14L7.47743 316.14L7.47743 424.184L320 424.184ZM235.172 318.819L177.579 318.819L177.579 285.781C177.579 264.798 186.508 252.743 205.706 252.743C225.35 252.743 235.172 264.798 235.172 285.781L235.172 318.819ZM320 108.536L320 0.492662L7.47742 0.492675L7.47742 108.536L320 108.536Z" fill="#EAE9E9"/>
</svg>
