<svg width="2425" height="352" viewBox="0 0 2425 352" fill="none" xmlns="http://www.w3.org/2000/svg">
<path d="M238.158 259.211H296.72V89.8173H238.158V146.443H198.472V89.8173H139.91V259.211H198.472V199.681H238.158V259.211ZM312.792 259.211H373.773L381.275 238.158H430.883L438.385 259.211H499.851L436.691 89.8173H375.709L312.792 259.211ZM390.955 199.439L405.716 152.977H406.684L421.688 199.439H390.955ZM515.894 259.211H768.774V89.8173H710.213V205.973H671.01V89.8173H613.416V205.973H574.456V89.8173H515.894V259.211ZM784.485 259.211H845.467L852.968 238.158H902.577L910.078 259.211H971.544L908.384 89.8173H847.403L784.485 259.211ZM862.648 199.439L877.41 152.977H878.377L893.381 199.439H862.648ZM1035.8 259.211H1083.23L1137.19 184.678L1138.16 184.92L1137.67 207.667V259.211H1195.27V89.8173H1147.35L1093.63 163.625H1092.91L1093.39 140.635V89.8173H1035.8V259.211ZM1306.63 262.841C1355.51 262.841 1391.81 233.318 1397.86 187.824H1340.26C1335.42 201.133 1323.57 209.603 1308.32 209.603C1289.2 209.603 1275.89 195.325 1275.89 174.514C1275.89 153.461 1289.2 139.425 1308.81 139.425C1323.33 139.425 1335.42 147.653 1339.78 160.479H1397.13C1389.39 114.5 1354.78 86.1874 1306.14 86.1874C1253.39 86.1874 1216.85 122.244 1216.85 174.514C1216.85 227.026 1252.91 262.841 1306.63 262.841ZM1453.14 259.211H1511.7V142.813H1560.82V89.8173H1404.01V142.813H1453.14V259.211ZM1661.43 262.841C1717.09 262.841 1755.33 226.3 1755.33 174.514C1755.33 122.728 1717.09 86.1874 1661.43 86.1874C1606.02 86.1874 1567.78 122.728 1567.78 174.514C1567.78 226.3 1606.02 262.841 1661.43 262.841ZM1626.83 174.514C1626.83 153.703 1641.11 139.425 1661.43 139.425C1681.76 139.425 1696.28 153.703 1696.28 174.514C1696.28 195.325 1681.76 209.603 1661.43 209.603C1641.11 209.603 1626.83 195.325 1626.83 174.514ZM1776.89 259.211H1835.46V220.25H1856.02C1899.83 220.25 1927.9 195.083 1927.9 155.155C1927.9 115.226 1899.83 89.8173 1855.54 89.8173H1776.89V259.211ZM1834.25 174.514V136.764H1847.8C1861.59 136.764 1869.33 143.781 1869.33 155.639C1869.33 167.496 1861.59 174.514 1847.8 174.514H1834.25ZM1947.99 259.211H1995.42L2049.38 184.678L2050.35 184.92L2049.87 207.667V259.211H2107.46V89.8173H2059.55L2005.82 163.625H2005.1L2005.58 140.635V89.8173H1947.99V259.211ZM2226.81 259.211H2284.88V89.8173H2201.15C2158.32 89.8173 2131.95 113.532 2131.95 152.251C2131.95 175.724 2141.62 193.873 2159.05 204.279L2130.01 259.211H2195.1L2216.4 214.443H2226.81V259.211ZM2190.51 152.977C2190.51 141.361 2197.77 134.828 2210.59 134.828H2227.77V171.126H2210.59C2197.77 171.126 2190.51 164.592 2190.51 152.977Z" fill="white"/>
</svg>
