<?xml version="1.0" encoding="utf-8"?>
<!-- Generator: Adobe Illustrator 26.0.3, SVG Export Plug-In . SVG Version: 6.00 Build 0)  -->
<svg version="1.1" id="Layer_1" xmlns="http://www.w3.org/2000/svg" xmlns:xlink="http://www.w3.org/1999/xlink" x="0px" y="0px"
	 viewBox="0 0 1842.5 124.7" style="enable-background:new 0 0 1842.5 124.7;" xml:space="preserve">
<style type="text/css">
	.st0{fill-rule:evenodd;clip-rule:evenodd;fill:#FFFFFF;}
</style>
<path id="Vector" class="st0" d="M691.3,70c-3.8,28.9-26.9,47.7-58,47.7c-34.2,0-57.1-22.8-57.1-56.2c0-33.2,23.2-56.2,56.8-56.2
	c30.9,0,52.9,18,57.8,47.2h-36.5c-2.8-8.2-10.5-13.4-19.7-13.4c-12.5,0-20.9,8.9-20.9,22.3c0,13.2,8.5,22.3,20.6,22.3
	c9.7,0,17.2-5.4,20.3-13.8H691.3L691.3,70z M1088.4,70c-3.9,28.9-26.9,47.7-58,47.7c-34.2,0-57.1-22.8-57.1-56.2
	c0-33.2,23.2-56.2,56.8-56.2c30.9,0,52.9,18,57.8,47.2h-36.5c-2.8-8.2-10.5-13.4-19.7-13.4c-12.5,0-20.9,8.9-20.9,22.3
	c0,13.2,8.5,22.3,20.6,22.3c9.7,0,17.2-5.4,20.3-13.8H1088.4L1088.4,70z M77,115.4H39.7v-74H8.5V7.7h99.7v33.7H77V115.4L77,115.4z
	 M151.8,115.4H113L153,7.7h38.8l40.2,107.7h-39.1l-4.8-13.4h-31.5L151.8,115.4L151.8,115.4z M302.1,115.4h-60V7.7h88.3v28h-51.5
	v11.2h23.2c23.2,0,36.6,13.8,36.6,34.2C338.7,101.4,325.3,115.4,302.1,115.4L302.1,115.4z M389.6,115.4h-37.2V7.7h50
	c28.2,0,46,16.2,46,41.5c0,25.4-17.8,41.4-45.7,41.4h-13.1V115.4L389.6,115.4z M491.3,115.4h-30.2V7.7h36.6V40l-0.3,14.6h0.5
	l34.2-46.9h30.5v107.7h-36.6V82.6l0.3-14.5l-0.6-0.2L491.3,115.4L491.3,115.4z M769.3,115.4h-30.2V7.7h36.6V40l-0.3,14.6h0.5
	l34.2-46.9h30.5v107.7H804V82.6l0.3-14.5l-0.6-0.2L769.3,115.4L769.3,115.4z M959.5,115.4h-37.2V77.5H897v37.8h-37.2V7.7H897v36
	h25.2v-36h37.2V115.4L959.5,115.4z M1164.9,115.4h-37.2v-74h-31.2V7.7h99.7v33.7h-31.2V115.4L1164.9,115.4z M1239.7,115.4h-38.8
	l40-107.7h38.8l40.1,107.7h-39.1L1276,102h-31.5L1239.7,115.4L1239.7,115.4z M1367.2,115.4H1330V7.7h78.9v33.7h-41.7V115.4
	L1367.2,115.4z M1459.7,115.4h-37.2V7.7h50c28.2,0,46,16.2,46,41.5c0,25.4-17.8,41.4-45.7,41.4h-13.1V115.4L1459.7,115.4z
	 M1560.8,115.4H1522l40-107.7h38.8l40.2,107.7h-39.1l-4.8-13.4h-31.5L1560.8,115.4L1560.8,115.4z M1687.4,115.4h-36.3V7.7h30.2
	l33.5,45.2l33.7-45.2h30v107.7h-36.3V90.6l0.3-22.2h-0.5l-16.9,23.2h-20.6l-16.9-23.4l-0.5,0.2l0.3,22.2V115.4L1687.4,115.4z
	 M388.8,37.5v24h8.6c8.8,0,13.7-4.5,13.7-12c0-7.5-4.9-12-13.7-12H388.8L388.8,37.5z M1467.6,37.5h-8.6v24h8.6
	c8.8,0,13.7-4.5,13.7-12C1481.2,42,1476.3,37.5,1467.6,37.5L1467.6,37.5z M172.1,47.8l-9.4,29.5h19.5l-9.5-29.5H172.1L172.1,47.8z
	 M1260,47.8l-9.4,29.5h19.5l-9.5-29.5H1260L1260,47.8z M1581.1,47.8l-9.4,29.5h19.5l-9.5-29.5H1581.1L1581.1,47.8z M278.5,72.6v16.6
	h12.8c6.8,0,10.3-2.9,10.3-8.3c0-5.4-3.5-8.3-10.3-8.3H278.5L278.5,72.6z"/>
</svg>
