<?xml version="1.0" encoding="utf-8"?>
<!-- Generator: Adobe Illustrator 26.0.3, SVG Export Plug-In . SVG Version: 6.00 Build 0)  -->
<svg version="1.1" id="Layer_1" xmlns="http://www.w3.org/2000/svg" xmlns:xlink="http://www.w3.org/1999/xlink" x="0px" y="0px"
	 viewBox="0 0 1842.5 124.7" style="enable-background:new 0 0 1842.5 124.7;" xml:space="preserve">
<style type="text/css">
	.st0{fill-rule:evenodd;clip-rule:evenodd;fill-opacity:0;stroke:#FFFFFF;stroke-width:3;}
</style>
<path id="Vector" class="st0" d="M628.4,117.5c31.1,0,54.2-18.8,58-47.7h-36.6c-3.1,8.5-10.6,13.8-20.3,13.8
	c-12.2,0-20.6-9.1-20.6-22.3c0-13.4,8.5-22.3,20.9-22.3c9.2,0,16.9,5.2,19.7,13.4H686c-4.9-29.2-26.9-47.2-57.9-47.2
	c-33.5,0-56.8,22.9-56.8,56.2C571.4,94.7,594.3,117.5,628.4,117.5L628.4,117.5z M1025.6,117.5c31.1,0,54.2-18.8,58-47.7H1047
	c-3.1,8.5-10.6,13.8-20.3,13.8c-12.2,0-20.6-9.1-20.6-22.3c0-13.4,8.5-22.3,20.9-22.3c9.2,0,16.9,5.2,19.7,13.4h36.5
	c-4.9-29.2-26.9-47.2-57.8-47.2c-33.5,0-56.8,22.9-56.8,56.2C968.5,94.7,991.4,117.5,1025.6,117.5L1025.6,117.5z M34.9,115.2h37.2
	v-74h31.2V7.5H3.6v33.7h31.2L34.9,115.2L34.9,115.2z M108.1,115.2h38.8l4.8-13.4h31.5l4.8,13.4h39.1L186.9,7.5h-38.8L108.1,115.2
	L108.1,115.2z M237.2,115.2h60c23.2,0,36.6-14,36.6-34.3s-13.4-34.2-36.6-34.2H274V35.5h51.5v-28h-88.3L237.2,115.2L237.2,115.2z
	 M347.5,115.2h37.2V90.4h13.1c27.8,0,45.7-16,45.7-41.4s-17.8-41.5-46-41.5h-50L347.5,115.2L347.5,115.2z M456.3,115.2h30.2
	l34.3-47.4l0.6,0.2l-0.3,14.5v32.8h36.6V7.5h-30.5L493,54.4h-0.4l0.3-14.6V7.5h-36.6L456.3,115.2L456.3,115.2z M734.3,115.2h30.2
	l34.3-47.4l0.6,0.2l-0.3,14.5v32.8h36.6V7.5h-30.5L771,54.4h-0.4l0.3-14.6V7.5h-36.6V115.2L734.3,115.2z M917.4,115.2h37.2V7.5
	h-37.2v36h-25.2v-36H855v107.7h37.2V77.3h25.2V115.2L917.4,115.2z M1122.8,115.2h37.2v-74h31.2V7.5h-99.6v33.7h31.2V115.2
	L1122.8,115.2z M1196,115.2h38.8l4.8-13.4h31.5l4.8,13.4h39.1L1274.8,7.5H1236L1196,115.2L1196,115.2z M1325.1,115.2h37.2v-74h41.7
	V7.5h-78.9L1325.1,115.2L1325.1,115.2z M1417.6,115.2h37.2V90.4h13.1c27.8,0,45.7-16,45.7-41.4s-17.9-41.5-46-41.5h-50L1417.6,115.2
	L1417.6,115.2z M1517.1,115.2h38.8l4.8-13.4h31.5l4.8,13.4h39.1L1595.9,7.5h-38.8L1517.1,115.2L1517.1,115.2z M1646.2,115.2h36.3
	V90.4l-0.3-22.2l0.5-0.2l16.9,23.4h20.6l16.9-23.2h0.5l-0.3,22.2v24.8h36.3V7.5h-30l-33.7,45.2l-33.5-45.2h-30.2L1646.2,115.2
	L1646.2,115.2z M384,61.3v-24h8.6c8.8,0,13.7,4.5,13.7,12s-4.9,12-13.7,12H384L384,61.3z M1462.7,61.3h-8.6v-24h8.6
	c8.8,0,13.7,4.5,13.7,12C1476.4,56.9,1471.4,61.3,1462.7,61.3L1462.7,61.3z M157.8,77.2l9.4-29.5h0.6l9.5,29.5H157.8L157.8,77.2z
	 M1245.7,77.2l9.4-29.5h0.6l9.5,29.5H1245.7L1245.7,77.2z M1566.8,77.2l9.4-29.5h0.6l9.5,29.5H1566.8L1566.8,77.2z M273.7,89V72.4
	h12.8c6.8,0,10.3,2.9,10.3,8.3s-3.5,8.3-10.3,8.3L273.7,89L273.7,89z"/>
</svg>
